<?xml version="1.0" encoding="utf-8"?>
<!-- Generator: Adobe Illustrator 22.1.0, SVG Export Plug-In . SVG Version: 6.00 Build 0)  -->
<svg version="1.1" id="Layer_1" xmlns="http://www.w3.org/2000/svg" xmlns:xlink="http://www.w3.org/1999/xlink" x="0px" y="0px"
	 viewBox="0 0 623.6 645.3" style="enable-background:new 0 0 623.6 645.3;" xml:space="preserve">
<style type="text/css">
	.st0{clip-path:url(#SVGID_2_);}
	.st1{fill:#FFFFFF;}
	.st2{fill:#F0F0F0;}
	.st3{fill:#646464;}
	.st4{fill:none;stroke:#444444;stroke-miterlimit:2;}
	.st5{fill:none;stroke:#666666;stroke-width:0.5;}
	.st6{fill:none;stroke:#FF0000;stroke-miterlimit:2;stroke-opacity:0.5;}
	.st7{fill:none;stroke:#0000FF;stroke-width:2;stroke-miterlimit:2;stroke-opacity:0.5;}
</style>
<g>
	<g>
		<g>
			<defs>
				<rect id="SVGID_1_" x="41.3" y="50.8" width="541" height="541"/>
			</defs>
			<clipPath id="SVGID_2_">
				<use xlink:href="#SVGID_1_"  style="overflow:visible;"/>
			</clipPath>
			<g class="st0">
				<g>
					<rect x="41.3" y="50.8" class="st1" width="541" height="541"/>
				</g>
				<g>
					<path class="st2" d="M462.7,141.3l-5.3-4.1l-1.5-2.3l-4.4-3.2l-0.2-3.4l1.7-0.5l-0.6-1.9l1.4-0.7l1.2-1.4l2.4,0.8l1.9-0.1l2,2
						l2.3,3.2l-2.2-0.5l-1.3,0.5l1.8,2.5l-2.3-0.4l0.9,1.2l1.8,0.9l3.2,3l3.3,1.2l1.3,1.2l0.5,1.4l0.7,0.8l2.2,2.3l-1.6-2.5l1.1-0.9
						l2,2l3,2.2l-1.1,1.1l-2.6-0.8l1.6,3l1.6,0.2l1,2.5l2.5,1.3l2.2,3.9l2,2.6l0.4,0.9l-3,1l-3.7-0.7l-2.8-1.9l-2.7-0.7l-2.4-2.7
						l-1.2-1.9l0.4-0.9l-0.4-1.2l-1.4-2.8l1.7-0.3l-1.3-1l-1.2-0.1l-2.9-2.6L462.7,141.3z M335.6,57.3l-1.7-0.2l-1-0.4l-1.6,0.2
						l1.1,0.3l-0.2,0.3l2,0.2L335.6,57.3z M324.4,55.7h-1.1l-0.8-0.3l-1.9,0.3l1.3,0.7l2.6,0.8l1.8,0.3l-0.5,0.3l2.9,0.6h1.2
						l-0.6-0.8l0.6-0.2l-0.6-0.7l1.5-0.4l-3.9-0.6l-1.5-0.3h-1.1L324.4,55.7z M333.3,55.4l-2.1-0.3l-2.3-0.2l-0.2,0.2l-1.5-0.2
						l-1.9,0.2l1.5,0.4h1.2l0.6,0.2l2.6,0.1l2-0.1L333.3,55.4z M286.5,53.5l-1.4,0.3l-0.7,0.4l0.1-0.2h-0.4l0.3-0.2l-3.1,0.2
						l0.8-0.2h-1.2l-1.6,0.1l-1.8,0.2l-1.7,0.3l-0.9,0.1l-4.1,0.5l-2,0.3l-0.7,0.3l-1.7,0.3l-3.3,0.4l-3.2,0.5l-1.7,0.4l-1.1,0.4
						l0.5,0.3l-1,0.1l-2.3,0.3l-2.1,0.7l-0.9,0.2l1.4-0.1h1.4l0.8,0.1l-0.8,0.7l-1.6,0.5l-0.6,0.5l-3.2,1.4l-2,1l-0.8,0.5l-4.4,1.4
						l-0.2,0.4l1.4-0.2l-0.5,0.5l-0.6,1l-1.1-0.4h-0.8l-2.3,0.8l-2.4,1.1v0.5l1.4-0.2l1-0.2l2.4-0.6l-2.9,1.3l-1.9,0.7l-2.8,0.6
						l-5.1,2.1l-0.6,0.7l-3,1.4l-1.5,1.8l-2.9,1.8l-1.5,1.3l-1.7,2.7l-2.1,2.2l-0.3,1.3h3.1v1.9l2.5-0.1l3.6-2.2l3-1.9l1.6-1.7
						l4.8-1.7l2.6-1.3l1.9-1.4l3-1.2l2.8-0.5l2.7-0.5l1.2-0.1l5.1-1.3l4.6-1.9l2.5-0.7h1.7l5.2-0.6l5.9-1.8l5.6-1.4l-2-0.1l-3.7-0.1
						l2.7-0.8l0.8-1l0.6,0.8l0.4,0.6l2.9-0.3l0.8-1.2l-0.7-0.9l-1.3-0.3l1.2-0.4l1.9,0.6l0.8-0.6l-0.4-0.9h1.8l2-0.2l1-0.5l-0.7-0.5
						l2.7-0.1l-0.2-1.1l1.4-0.1l1.1-1l-1.1-0.6l2.2-0.3h1.6l-0.4-0.8l1.7-1.1l1.7-0.6l2-0.6H296l2.7-0.1l0.7-0.2l3.7-0.5l0.1-0.3
						l-1.7-0.1l-3.7,0.3l-2.3,0.3l1.7-0.4l0.1-0.2l-1.8,0.2l-1-0.5l-2.2,0.1l0.2-0.1l3.2-0.1h2.3l1.7-0.2l-1.7-0.4l-3.3-0.1H293
						l-1.7,0.2H290L286.5,53.5z M342.9,54.9h1.3l0.8,0.3l1.4,0.2l0.1-0.1l-0.5-0.1l0.1-0.1l0.2-0.1l-0.3-0.1l-1.6-0.2l0.2,0.1
						l0.5,0.2l-1-0.2h-0.7L342.9,54.9z M372.6,62.1l1.1,0.1l1.5,1.2l2,0.8l-0.1,0.3l2,0.8l2.6,0.4l1.8,0.7l3.4,0.2l0.2-0.1l-4.7-1.3
						l-3.2-1.2l-2.4-1.3l-2.7-1.3l-1.8-1.2l-0.3-0.6l-0.4-0.6l-1.1-0.4l-2-0.4l-0.2,0.2l0.7,0.4l-0.9,0.2l0.6,0.7l0.6,0.6l1.9,0.6
						L372.6,62.1z M284.8,73.8l-3-0.1l-3.6,1l-1.9-0.5l-3.5,1l-1.7-1.3l-2.9,0.3l-2.3,1.2l3.4,0.5l-0.4,0.6l-3.6,0.3l3.3,1l-2.6,0.9
						l5,0.6l2.4,0.3l2-0.4l6.5-1.4l3.3-1.5l-1.4-1.3L284.8,73.8z M233.3,63.4l-0.2,0.1l0.9-0.2h0.2l0.2,0.1l1.1-0.4l1.9-0.8
						l-0.1-0.1l-0.4,0.1l-1.6,0.5L233.3,63.4z M187.6,81.9l-1.1,0.6v0.1l2.6-1.2l0.8-0.4h-0.4L187.6,81.9z M187.2,82.7l-0.2,0.1
						l-1.1,0.7l-0.2,0.2l2.3-1.2l0.8-0.5h-0.1L187.2,82.7z M198.8,76.4l1-0.5l-0.8,0.3l1.9-0.9l0.2-0.1l-4,1.8l-3.3,1.6l-2.2,1
						l0.6-0.2l-2.4,1.3l2.5-1.1l2.4-1.1l-1.7,0.9l-0.5,0.5l1.6-0.6l1.2-0.7l-0.5,0.1l1.9-1l1-0.6L198.8,76.4z M211.7,72l0.7-0.3
						l1.7-0.7l0.9-0.5l-1,0.3l-2.5,1l-2,0.9l0.7-0.1L211.7,72z M301.5,91l-2-0.2l-2.2,2l-1.3,2.6l1.1,1.3l-0.3,2.6l1.6-1.2l0.8,0.7
						l-1.1,1.2l0.6,0.7l3.3,0.5l1.7,1.7l-0.5,1.6l-4.2-0.3l-0.7,1.8l1.4,1.5l-3.1,0.9l0.7,1.2l4.6,0.5l-2.7,0.6l-4.7,3.1l1.6,0.6
						l2.2-1.1l2.8,0.3l2-1.4l1.4,0.6l5.2-0.8h4l2.6-1.5l-1.2-1.5l1.4-0.9l0.2-1.8l-3.4-0.6l-0.8-1.1l-1.7-3.1l-1.9-0.4l-2.5-3.4
						l-2.7-0.2l2.5-2.3l0.8-2.1h-2.7l-2.7,0.3l3-2.7L301.5,91z M172.5,110.5l1.2-0.8l-0.6-0.2l-2.5,1l-2.8,1.7l-6.5,4.9l-3.2,1.8
						l-0.1,0.8l-2.1,1.1l-0.6,0.9l3.1,0.1l2-0.2l1.1,0.7l-2.6,1.5l1,0.1l4.6-2.8l0.2,0.4l-2.7,2.6l0.7,0.6l1-0.1l3.2-2.8l1.2-2
						l1.2-1.6l-1.7,0.5l2.6-2.2l-0.9-0.9l-1.4,0.7l-0.8-0.8l1.6-1l-0.5-0.7l-2.1,1l3.7-2.6L172.5,110.5z M146.3,123.7l-1.5,1l-0.6,1
						l0.5,1.4l0.8-0.2l2-1.3l-1.5,0.1l-0.7-0.4L146.3,123.7z M154.7,114.9l-0.3,1.4l0.8,1l0.8-0.1l0.5-0.6l-0.1-1.3l-1-0.8
						L154.7,114.9z M294.6,103.2l1.8-1.9l-2.7-1.7l-2.2,0.1l-2.3,1.3l-4.2,2.1l0.9,2.9l-3,3l4.1,0.4l5.3-1.6l2.5-2.5L294.6,103.2z
						 M76.8,198.5l-0.3,0.5l-0.4,1.7l-1.1,2.2l-0.1,0.5l1.6-3L76.8,198.5z M75.2,199.6l-0.7,1.6l1.3-0.7l0.5-1.1l-0.5-0.2
						L75.2,199.6z M72.7,206.3l-1.4,2.7l-0.2,1.2l-0.9,2.5l0.3-0.2l1.1-2.6l1.3-3.5L72.7,206.3z M65.9,215l-0.3,0.5L65,216l-0.7,0.8
						l-0.6,0.9l-0.7,1.6l-0.8,1.3v0.4l0.4-0.5l0.5-1l0.2-0.1l1.3-2.3l0.5,0.2l-0.7,1.1l-0.1,0.9l0.6,0.6l-0.2,0.9L65,222l0.5-0.2
						l-0.7,2.4l-0.2,1.3l0.5,0.3L65,227l-1.5,2.5l1.6-0.5l0.6,0.4l0.8-0.2l1-0.6l0.5-1l-0.2-1.8l-0.7-0.2l0.5-1.3l-0.3-0.9H67l0.1-2
						l0.2-2.7l0.1-1l-1,0.5l0.3-1.6l-0.1-1.5l-0.5-0.1L65.9,215z M68.1,237.7l-0.3,1.3l0.1,0.7l1.5-3.1l0.7-0.6l-0.1,1l0.7-0.2
						l0.5-0.8l0.5,0.2l0.7-0.2l0.5,1l1.1-1.8l-0.3-1.7l-0.6-0.2l0.5-1.3l-0.9,0.1l0.3-1.6l-0.5,0.1l-0.5-1.1h-1.1l-0.4,0.7l-1-0.6
						l-0.7-0.2l-0.8,1.3l0.6,0.6L68,233l-0.1,1.9l-0.8,1l-0.9-0.4l-0.9-0.6l-0.6,1.4l0.2,1.4l0.9-0.9l0.7,0.4l0.7-0.3L68.1,237.7z
						 M77.4,235.6h-1.5l-0.4,0.6l-0.5,1.9l1.1-0.2h1.4l0.8-1.1l-0.1-0.9L77.4,235.6z M61.8,235.6l-0.2-0.2l-0.5,0.3l-0.4,1v1.6
						L61,239l0.6-0.7l0.7-0.1l0.2-1.2l-0.2-1.1L61.8,235.6z M78.3,270.9l-0.2,1.8l-0.8,1.3l0.3,0.4l1.9-0.5l0.6-3.4l-0.5-0.2
						L78.3,270.9z M512.4,379.6l-0.8-2l-1.3,2.1l-0.6,2.8l-2.2,3.1l-1.2-0.5l0.1,1.9l-1.3,2.3l-3.1,2.8l-2.3,2.6l-1.4,0.1l-1.4,0.8
						l-1.9,0.9l-1.7,0.2l-1.1,2.9l-1.6,2.5l-0.7,4.1l-0.1,2.8l0.2,2.1l-1,2.9l-2.4,3.3l-0.4,1.4l-1.7,0.8l-1.4,3.2l-0.7,3.1l0.1,3.4
						l-0.9,3.8l0.2,2.3l1.9,1.5l1.3,1.1l3.2-1.8l2.8-1l2.9-4.9l3.1-6.1l4.2-8.3l3.1-6.1l2.5-5.2l1-3.8l1.1-1.1l0.7-2l0.2-3.3
						l0.8-1.3l0.5,2.6l0.8-1.3l0.7-2.2l-0.3-2.1l0.6-5.4l-0.2-3.1L512.4,379.6z M478.3,523.9l-0.7,0.6l-1.5,1.3l-1.8,1.7l1.9-0.2
						l1.8-1.4l0.6-0.6l-0.6-0.4L478.3,523.9z M165.7,533.6l2.2,1.3l-0.3-1.3l1.8,1l1.1-0.8l-0.7-1.1l-2.6-1.3l0.4,1.2l-2.1-0.7
						L165.7,533.6z M159.2,535.9l-1.1-0.3l0.6,1.2l2.1,1.9l1.1,1.3l-2.4-1l-3.6-1.9l-1.4-0.6l5.1,3.1l2.8,1.5l3.1,1.5l1.5,0.4
						l1.8,0.8l1.5,0.3l-0.3-0.9l-1-1.1l1.8,1l0.8-0.1l-1.2-1.4l-2.5-0.7l-3.5-1.6l-3.2-2.1L159.2,535.9z M228.5,577l1.2,0.6l1.8,0.6
						l1.5,0.4l-0.1-0.2l-0.1-0.2l1.5,0.6h0.7l-0.3-0.3l0.1-0.2l-1.5-0.5l-1.5-0.6l-1.9-0.7l-2-0.7l-2-0.7l-2.1-0.7l-1.7-0.6
						l-1.8-0.6l0.1,0.2l1.7,0.8l3.3,1.3l1.6,0.6l2,0.8l-0.7-0.1L228.5,577z M269.8,585.4l1,0.4l0.8,0.3l1.1,0.3l1.2,0.4l0.8,0.3v0.2
						l1.5,0.3l1.8,0.2h1.3l0.4-0.1l0.2-0.2v-0.2l-0.1-0.2l-1.6-0.4l-1.4-0.4l-2.2-0.6l-2.3-0.4l-1.8-0.2l-0.3,0.2h-0.4V585.4z
						 M270,587.4l1.4,0.2h0.2l1.8,0.3l0.4-0.1l1.3,0.1l-1.7-0.3l-1.9-0.4l-2.1-0.3l1.2,0.3l1.4,0.3l-1.1-0.1H270z M576.7,286l-1-4.9
						l-0.8-3.3l-1-2.6l0.8,7.5l1,6.7l0.8,3.7l0.5-1.1l0.2-1.3L576.7,286z M365.8,154.6l-3.5,0.4l-4.2-0.3l-0.2,1.9l5.4,1.9l1.9,0.4
						l3,1.4l0.4-1.9l-0.8-1.2l0.7-2.9L365.8,154.6z M409.4,165.3l-1.7,0.4l-0.2-0.6l-2.6-0.3l-2.7,0.2l-2.3-1.3l-0.2,1.7l4.5,0.8
						l0.1,0.6l4.9-0.3L409.4,165.3z M431.6,165l-0.1,0.9h-0.2l-1.6,0.2l1.4,1.5l1.8,0.5l2.6-1.6l-0.2-0.3l-0.5-0.7l1.5-1.7l-2.4,1.2
						H431.6z M342.7,144.6l-1.9-0.2l1,2l0.8,4.4l1.4,0.9l1.3-1.2l1.7,0.2l-0.2-4.8l-2.5-2.6L342.7,144.6z M342,138.5l-0.4,1.3
						l1.1,2.4l1.6,0.6l0.7-2.7l-1.1-3L342,138.5z M344.1,97.2l-3.6,0.9l0.7,1.1l3.2,1.5l0.9-2.2L344.1,97.2z M416.5,570.2h0.1
						l0.8-0.4l2-0.9l1.2-0.5l-2.9,1.2L416.5,570.2l0.1-0.2l-0.7,0.2l-0.6,0.2l0.2-0.2l-0.9,0.3l-0.8,0.3l-1.6,0.6l-1.1,0.3l-1.4,0.4
						l-1.9,0.7l-1.6,0.6l-1.9,0.7l-1.1,0.3l-0.9,0.2l-0.7,0.1l-0.7,0.1l-2.3,0.8l-1.6,0.6l-1.5,0.4l-1.6,0.5l-1.7,0.5l-1.9,0.6
						l-1.3,0.3l-0.1-0.2l0.9-0.4l2-0.6l1.8-0.6l1.7-0.6h-0.7l1.5-0.6l2-0.6l1.6-0.4l1.9-0.7l1.1-0.4l3.8-1.8h-0.7l-0.4-0.1l-0.2-0.2
						l-0.3-0.2l0.1-0.4l-2.3,0.7l-1.4,0.4l-0.5-0.1l0.3-0.5l0.4-0.5l-0.6-0.2l0.4-0.5l0.3-0.6l1.5-0.8l0.2-0.5l-0.7-0.2l-0.8-0.1
						l-1.3,0.1l-1.7,0.3l-1.6,0.4l-1.9,0.5l-1.4,0.6l-1.8,0.5l-1-0.1l-1.7,0.5l-2.2,0.6l-0.8-0.2l-1.7,0.4l-1.7,0.4l-1.7,0.4
						l-2.1,0.3l-1.6,0.2l-2.3,0.6l-1.7,0.3l-1.7,0.7l-1.9,0.4l-0.2-0.4v-0.6l-1.5,0.1l-0.6-0.4l0.3-0.6l-1.1-0.3l-1.6,0.6l-2.1,0.9
						l-1.7,0.4l-1.6,0.1l-1.7,0.3l-1.9,0.5l-1.7,0.2l-1.7,0.2h-1.6h-1.6l-1.7,0.1l-1.9,0.3l-0.4-0.5l-0.2-0.5L344,575l-1.5-0.2h-1.6
						l-1.9,0.1l-1.8,0.2l-1.6,0.6l-0.2-0.6l-2-0.1l-1.9,0.5l-1,0.6l-1.9,0.3l-0.6-0.5l-0.8-0.7l-1.7,0.2l-1-0.4l-1.2,0.6l-1.5,0.3
						l-1.8,0.2l-1.7,0.4l-1.8,0.2l-1.7,0.2l-1.5,0.2l-1.7,0.5l-0.7-0.6l-1.7-0.1l-1.9,0.2l-1.9,0.3l-1.8-0.1l-0.5-0.6l-1.7-0.1
						l-0.5,0.6l0.2,0.5l-1.8-0.1l-0.9-0.5l-1.8-0.1l-0.9,0.4l-0.3,0.7l-0.8,0.5l-1.1,0.5l-1.3,0.3l-1.2,0.3l-0.5,0.4l0.1,0.5
						l1.6,0.3l0.1,0.5l-0.8,0.4l-0.6,0.4l-1.2,0.4l-0.8,0.3l-0.9,0.3l-1,0.2l-1.3,0.2h-1.5l-0.5,0.1l-1.1,0.2l-0.9,0.2v0.4l-0.4,0.3
						l-0.4,0.3l-0.8,0.2l-0.5,0.2l0.2,0.2l1.9,0.7l1.2,0.3h1.4l1.1-0.1h1.3l0.9,0.3l1.1,0.3l1.3,0.3l-0.5,0.2l-1,0.1l-0.9,0.1
						l-0.5,0.2l-0.5,0.2h-1.3l0.2,0.2l1,0.3l-1.7-0.2l-1.6-0.1h-1l0.2,0.2l0.1,0.2l0.5,0.2l0.6,0.2l1,0.2l-1.6-0.2l-2.3-0.3
						l-1.9-0.2l-1.7-0.2l-1.9-0.2l-1.3-0.1l-1.9-0.2l-1.7-0.2l-1.6-0.2l-1.2-0.1l-2-0.3l-1.7-0.3l-1.8-0.3l-1.8-0.4l-1.9-0.4
						l-0.8-0.2l0.9,0.1l-1.1-0.3l-1.7-0.3l-1.6-0.3l-1.1-0.2l-1.8-0.4h0.4l0.1-0.1h0.7h0.4l-1.5-0.5l-0.4-0.2l-0.4-0.2l-0.1-0.2
						l-0.8-0.4l-1-0.4l-1.2-0.4l0.3-0.2l-1-0.4l-1.3-0.5l-2-0.7l-1.8-0.5l-1.6-0.6l-1.6-0.5l-3.8-1.4l-1.6-0.6l-1.7-0.5l-1.7-0.6
						l-1.6-0.6l-1.9-0.7l-1.8-0.5l-1.5-0.4l-1.7-0.6l-1.9-0.7l-1.3-0.6l-1.2-0.8l-0.8-0.6l-0.8-0.6l0.4-0.2l-0.3-0.4l-1.7-0.6
						l-1.5-0.7l-1.4-0.8l-0.6-0.6l-0.3-0.5l-0.2-0.5l0.4-0.2l1.4,0.3l-0.4-0.4l0.1-0.6l-0.8-0.7l-1.5-0.5l-0.4,0.3l0.5,0.6l0.2,0.5
						l-0.4,0.3l0.1,0.4l0.5,0.6l-0.7,0.1l0.4,0.5l0.6,0.5l1.3,0.8l0.5,0.6l0.7,0.6l1,0.7l0.8,0.5l1.5,0.9l1.6,0.7l1.9,0.8l1.5,0.7
						l1.4,0.7l1.3,0.6l1.5,0.6l1.7,0.6l1.6,0.6l1.7,0.6l1.8,0.6l1.8,0.6l1.8,0.6l1.6,0.6l1,0.4l0.4,0.3v0.2l-0.2,0.1l0.1,0.2
						l0.7,0.3l0.6,0.3v0.1l-1.7-0.4l-1.2-0.3v0.1l-1.9-0.5l1.4,0.5l1.5,0.5l-1.2-0.3l-0.8-0.2h-0.3l-1.8-0.5l0.3,0.1l-0.9-0.2
						l-2-0.6l3.1,1l0,0l-13.4-4.4l-13.2-5.1l-12.9-5.8l-12.6-6.5l-12.2-7.1l-11.8-7.8l-11.4-8.4l-10.5-9.3l-10.5-9.5l-10-10
						l-9.4-10.5l-8.8-11l-8.3-11.5l-7.6-11.9l-7-12.3l-6.4-12.6l-5.7-12.9l-5-13.2l-4.2-13.6L49,383.1l-2.9-13.8l-2.1-14l-1.4-14.1
						l-0.7-14.1L42,313l0.8-14.1l1.5-14l2.3-14l2.9-13.4l-0.2,0.6l-0.1,0.3l-0.2,0.9v0.5l0.1,0.1l0.2-1.1v0.4l-0.3,1.4l-0.1,0.3
						l0.1-0.7l-0.2,0.7l-0.4,2.1l-0.1,1.5l-0.3,1.6l-0.2,1.8l-0.2,1.5l-0.3,0.8v0.7l-0.3,1.5l-0.3,1.4l-0.1,0.9v0.4l-0.1,1.3
						l0.3-1.2l0.2-1.3v0.8l-0.2,1.3l0.1,0.6v0.9v1.2l-0.1,1l-0.2,0.8v0.9l0.1,1.1v0.7l0.2-1h0.3l0.1,0.5l0.2,0.3l-0.1,1.8l0.2,0.3
						l0.2-0.8l-0.5,3l0.4-0.2l0.2-0.8l0.3-0.6v-2.5l0.2-0.9l0.2-0.2l0.5-1.2l0.4-1.7l0.4-0.3l0.3,1.3l-0.1,1.6l0.2,0.3l-0.4,1.3
						l-0.1,2.5l0.1,1.3l0.1,2.5l-0.3,4l-0.3,1.2l-0.1,4.4l-0.4,2.7l0.3,1.2l-0.5,2.5l-0.6,3l-0.5,0.3l-0.3,1.7v2.3l-0.3,0.4l0.1,1.4
						l-0.8,1.9l-0.5,1v1.9l-0.3,3.1l-0.1,3l-0.2,0.7l0.2,4.3l-0.1,1.3l0.5,2.1l0.2-2.2l0.3,2l-0.3,3.6l-0.4,3v3.3l0.8,4.5v2l0.7,1.9
						l1,3l0.7,3.4l0.6,2.1l2.4,9.3l2.7,8.5l2.2,6l0.2,1.3l1.4,3.8l1.6,2.9l3.5,4.9l4,4.5l0.7,1.9l2.3,2.6l2.4,6.3l2.7,7.2l3.3,9.7
						l3.4,8.9l3.6,8.2l1.8,5.1l2.8,5l1.5,3.4l3.8,6l3.2,5.9l3.2,6.2l3.6,6.2l-0.3,0.1l3.2,4.2l3.1,3.6l1.5,2.5l5.2,6.6l4.1,5l1,0.4
						l-3.5-4.3l1.5,0.9l5.9,7.1l-2.2-1.2l5.1,5.6l2.1,2.9l2.3,0.9l1.7,2.5l2.9,3l6,5.2l2.7,2l1.9,1.7l2.5,1.8l3,1.6l3.5,2l2.2,0.9
						l0.3-0.1l-3.2-2.6l-0.4-1l-0.4-0.7l1,0.1l0.6,0.2l-2.8-1.7l-3.9-3l-1.1-1.4l-0.3-1.2l-3.1-3.6l-0.4-1.8l-2.4-2.9l-1.8-0.6
						l-3.5-2.3l-2-2.5l-0.6-1.7h1.3l-1.2-1.7l-2.8-3.4l-0.7-2.2l0.5-1.1l-1.9-1.8v1.1l-1.8-1.1l-3-3.5l-0.2-1l2.4,1.3l1.3-0.4v-1.3
						l-1.7-1.8l-1.6-2.7l-2-2.2l2.2,0.4l3.1-0.8l1.6-1.9l-1.2-4.8l-1-1.8l-2.3-1.6l-1.3-2.6l-4.6-3.3l-1-2l2.5,2.2l1.3-0.1l3,1.7
						l0.9-0.4l2.1,0.8l1.3-2.2L132,472l0.4-2.2l-0.8-3.8l0.8-1.9l0.7-3.2l-0.3-7.2l1-2.3l-0.2-2l-1.2-4.2l-1.4-2.3l-0.6-3.1l0.9-4.2
						l2.3-3.4l2.9-1.3l1.5-1.9l4.4-1.7h3.5l0.1-2.6l2.1-1.9l-0.6-4.5l2-5.8l-0.7-5.9l0.8-1.8l-0.2-3l-0.3-6.9l-1.7-8.5l0.4-3.4
						l0.9-0.1l2.2-4l1.7-5.2l4.5-6.4l1.6-3.1l0.9-7.7l-0.9-2.8l-1.6-6l-1.5-1.4l-3.3-0.3l-2.9-1.4l-5-5.2l-5.5-3.9l-5.3,0.2
						l-6.8-2.5l-4,1.4l0.5-2.6l-1.7-2.7l-5.5-2.9l-4.1-1.7l-2.3,3.1l-0.2-4.7l-5.4-0.8l-1-1.4l2.3-3.9v-3.2l-1.5-0.8l-1.4-8.2
						l-0.6-2.6l-1,0.3l-0.4-1.9l-2.7-4l-2-1.1l-0.9-0.5l-2.8-1.3l-2.2,0.3l-0.3,0.8l-3.1-0.9l-0.8-1.7l-1.1-2.3l-0.9-0.1l0.2-2.4
						l-1.1-3l-1.3-1.7l-0.8-1.1l-1.3,0.1l0.2-3.8l-1.4-2.3l-1.7-0.3l-0.4-2.2l2.1-1.4l-2.6,0.1l-2.6,0.3l-0.2,1.2l-1.4,1.5l-1.4-0.6
						l-0.7-2.1l-2.1,0.5l-1.9-0.8l0.2-1.5l-0.6-2.6l-1.1-0.1l0.1-3.2l-0.8,1.4l-0.2,2.2l-2.3,1.8l-0.5,3.5l0.2,1.7l-0.9,3.3
						l-0.7,0.3l0.1-3.8l1.1-2.7l0.4-2.4l-0.1-2.1l0.9-0.6l0.3-1.1l0.6-1.5l-0.2-1.2l-0.4-0.2l-1.2,2.2l-0.8,1.1l-1.5,2.3l-0.9-0.4
						l-0.3,1l-0.8,0.1l-1.1,2.2l-0.9,3.9l-0.2,1.5l-0.6,0.5l-1.3,3.3l-0.5-0.2l-0.2-1.3l-0.1-1.3l-0.3-0.8l-0.4-0.2l0.1-0.4
						l-0.5-0.3l-0.5,1.3l-0.6,0.9l-0.5,1.3l-0.4,0.3v-1.1l-0.1,0.3l-0.2-0.2l0.2-1l0.1-1.7l0.1-2l0.1-1.8l0.3-2.5l0.1-0.7l0.2-1.2
						l0.3-1.2l0.2-1.2l0.5-2l0.2-0.4l0.4-2.1l0.3-1.2l0.5-2l0.5-1.9l0.5-1.5l0.4-1.7l0.3-1l0.2-0.5l0.2-1.2v-0.7l0.2-1.1l0.1-0.8
						v-0.1v-0.7l-0.2,0.4l-0.1,0.1V247v-0.2l-0.2,0.6l-0.2,0.5l-0.1,0.1v-0.4l-0.1,0.2l0.1-0.4l-0.1,0.1l-0.3,0.8v-0.2l0.1-0.6
						l-0.2,0.7l0.2-0.8l0.5-1.5l0.1-0.2l0.4-1.2l0.7-2.3l0.1-0.4l0.5-1.6l0.2-0.7l0.6-1.9l0.4-1.2l0,0l0.2-0.6l0.1-0.1l-0.3,1.1
						l1.2-3.5l0.7-1.9l0.2-0.8l1-2.7l1.1-2.6l0.8-2.1l0.3-0.9l-0.2,0.3l-0.1-0.1l-0.4,0.9l-0.3,0.7l0,0l5.4-13l6.1-12.7l4.7-8.7
						l0.3-0.5l-0.4,0.7l0.3-0.6l0.4-0.8l0.9-1.6l0.7-1.2l0.4-0.6l0.2-0.2l-0.1,0.4l0.5-0.5l-0.4,1l-0.9,1.8l-0.1,0.2l1.4-1.8
						l-0.2,0.7l-1.5,3.4l-1.1,2.3l-1.5,2.7l-0.8,1.7l-1.4,3.2l-1.4,3.6l-0.2,1l-0.8,1.9l0.1,0.5l0.5-0.5l1.4-2.6l0.8-1.6l1.4-2.9
						l2.1-4.8l1-1.8l1.3-2.9l1.8-3.5l1.5-2.9l1.8-2.8l1.7-2.4l1.5-1.9l2.4-2.6l1-1.3l1.3-1.4l0.6-0.3l2.1-2.3l1.7-1.1l2.5-2.8
						l2.6-3.8l0.8-1.3l-0.1-0.3l2.6-3.6l0.3-1.1l-0.1,0.3l1.6-2.3l1.4-1.6l-2.3,3l-0.6,1.4l-2.2,2.6v0.1l2.7-3l1.4-1.5l1-1.4
						l0.3-0.7l1.4-2l-0.4,0.9v0.2l-0.7,0.9l2.9-2.8l2.3-2.6l-0.1-0.2l1.1-1l-0.4,0.5l0.7-0.1l2.3-1l0.3-0.7l-2.1,0.7l1.7-1l0.8-0.2
						l0.6-0.2l1.3-0.6l0.4,0.1l1.3-0.6l0.9-1l0.4-0.8l-1,1.3l-0.4-0.1l1.1-1.8l1.7-1.9l0.6-0.6l2.6-2.2l2.2-1l2.3-1.2l2.9-1.6
						l0.8-1.1l1.9-0.4l2.3-0.1l-4.9,2.7l-2.5,2.9l0.8,0.3l3.7-2.4l2.7-1.4l5.2-2l3.9-2.1l0.1-1.2l2-2.3l-5,3.7l-3,0.5l-0.3-1.7
						l1.9-2.4l3-3.4l3.4-2.1l0.4-1.5l-2.2,0.3l-5.2,2.6l-6.1,4.2l-1.5,0.6l4.3-3l5.9-4.1l2.9-1.4l3.4-2.2l1.5-0.2l1.9,0.1l2.2,0.7
						l3-0.5l4.5-2.5l3.7-1.1l2.2-1l2.3-1.1l3.4-3.2l0.6-1.1l-0.8-0.4l2.1-2.3l0.1-0.9l-1.4-0.7l0.7-1.5l0.2-1.5l2.7-1.6l2.9-3
						l3.2-3.1l2.5-2.1l-2.4,1.1l-5,2.6l-3,1.3l1.5-1.5l-0.2-0.4l4.5-3l3.2-1.9l-1-0.2l1.3-0.9l1.4-1.3l0.8-0.8l-1.5,0.6l-0.2-0.2
						l0.2-0.6l-1.3,0.5l-6.1,3.5l-3.5,2.1l-4.7,2.5l-2.4,1.9l-2.9,2.1l-2.5,1.7l-3,1.8l-3.3,1.9l-2.6,1.3l-1.6,1.4l-5.6,4.5l-4,3
						l-1.6,1l2.8-2.8l3.8-3.2l3.7-2.8l3.3-2.4v-0.2l-0.2-0.2l1.4-1.1l0.9-0.7l1.8-1.3l1.4-1l0.9-0.6l0,0l12.1-7.4l12.4-6.7l3.9-1.9
						l0.2-0.1l0.3-0.1l3-1.4l1.9-0.9l3.7-1.6l2.2-1l-1.2,0.6l1-0.3l3.5-1.3l2.1-0.9l2.1-0.9l2.5-0.9l2.1-0.8l1.9-0.8l0.4-0.2
						l0.1-0.1l-4.8,1.8l-3.8,1.5l-3.3,1.3l2.9-1.2l3.2-1.3l2.8-1.1l-2,0.8l0,0l12.3-4.4l-1.6,0.6l0,0l-2.1,0.7l-1.5,0.5l-0.6,0.3
						l-1,0.5l-0.2,0.4l1-0.2l1.4-0.5l-1.2,0.6l0.1,0.1l-2.2,1l-1.3,0.4l-0.6,0.6l-1.3,0.8l-1.2,0.6l-1.7,0.8l-4.7,1.8l-2.3,1
						l-1.2,0.7l-1.6,0.3h-0.9l-3.3,1.4l-1.2,0.7l2.1-0.3l1.2-0.6l-1.2,1l-1.1,1l-1.4,0.6l-1.1,1l-0.7,1.2l0.8,0.9l1.1-0.8l1.5-1.3
						l2.3-1.8l-1.1,1.7l0.1,0.6l3-1.5l3.2-2.1l0.7-0.5l0.7-0.9l1.6-1.2l2.3-1.1l1.4-0.2l-2.5,1.8l-0.6,0.9l6-2.3l3-1.3l-1.1-0.1
						l2.5-1.7l-0.2-0.4l1.1-1.1L224,69l3.2-1.5l1.1-0.6l0.4-0.6l2.2-1l-1.7,0.3L231,65l1.6-0.7l1.5-0.7l-2,0.6l0,0l-1.8,0.4l2.9-0.9
						l4.2-1.4l-2.2,0.5l-3.7,1.1l2.7-0.9l3-0.9l-1.3,0.3L234,63l-2.9,0.9l0,0l9.3-2.7h-0.1l-0.5,0.2l0,0h0.2l1.1-0.2l-0.4,0.2
						l1.3-0.3l1.3-0.3l1.8-0.5l1.5-0.4l0.1-0.1l-0.6,0.1h-1.8l0.2-0.1l0.2-0.1l1.1-0.3h0.2l0,0l10.8-2.5h0.2l3.5-0.7l1.5-0.3
						l1.4-0.3l3-0.5l0,0l0.9-0.2l0.3-0.1l0,0l2.6-0.4l-1.4,0.2l-1.5,0.4l0.5-0.1l-0.4,0.1l-1.8,0.3l0.4-0.1l0,0l-2.3,0.4l-1.7,0.3
						l-1.6,0.3l-1.1,0.3l-1.9,0.3l-0.8,0.2l-2.8,0.6l1.8-0.4l-0.4,0.1l-3.3,0.7l-1.1,0.2l-2.1,0.6h-0.2l-0.5,0.1l1-0.2l-0.9,0.3
						l3.3-0.7l1.1-0.2H252l0.9-0.2l1.7-0.3l1.9-0.4l1.6-0.3l1.7-0.3l2-0.4l1-0.2l0.3-0.1l1.1-0.1l1-0.2l1.2-0.1l4.1-0.7l1.6-0.2
						l3.3-0.4h-0.6l1.2-0.1l1.6-0.1l2.5-0.3l1.1-0.2l0.6-0.2v-0.1h-0.3h-0.1h-0.1l-1.2,0.1l0.4-0.1h-0.6l-0.7,0.1l-0.9,0.1l-2.6,0.3
						l1.3-0.2h0.2l-1.8,0.2l-0.8,0.1h-0.2l0,0l14-1.6l14.1-0.8l14.1-0.1l14.1,0.6l14.1,1.4l14,2.1l10,2l10,2.4l1.9,0.5h0.1l2.9,0.8
						l2.4,0.7l0.4,0.2l-0.6-0.1l0.5,0.3l4.8,1.5l3.9,1.2l-3-0.8l-0.4,0.1l1.2,0.6l3.3,1.1l-1.2-0.3l-4.1-1.4l-2.6-0.8v0.1l3.1,1
						l2.2,1l4,1.2l3.9,1.6l2.5,0.9l0.8,0.1l2.6,1.1l2.6,1l1.6,0.9l1.9,0.9l0.5,0.5l1.3,0.7l-1.3-0.3l-4.7-2.6l-2.7-1.2l-3.1-1
						l-5.7-2.2l-3.1-1.1l-1.6-0.5l-3-1.2l-2.5-0.8l-2.3-0.4l0.5,0.3l3.5,1.3L392,66l1.3,0.5l3.5,1.2l1.7,0.8l1.2,0.2l0.9,0.4
						l2.8,0.9l1.7,0.9l-7.1-2l-2.2-0.5l-3.5-0.5l0.9,0.6l3.1,1l1.6,1.1l-3.3-1.1l0.2,0.7l-1.7,0.1l0.5,0.6l-1.7-0.2l-1.2-1.1
						l-0.9-0.1l-0.7,1.5l-0.8,0.9l1.7,1.2l-1.3,0.4l-2.1-0.6l-1.7-1l1.2-0.2l-2.5-1l-4.5-0.6l2.9,1.1l1.1,1.1l2.9,1.1l1.3,1.3
						l-2.3-0.6l-1.4-0.1l-0.6,1.9l3.1,1.5l-0.7,0.5l-5.4-1.2l-0.1,0.7l2.1,0.9l1.1,1l-2-0.6l-2.9-0.6l-3.8-2.9l-4.3-1.4l0.9-0.2
						l8.7,1.4l1.7-0.5l0.1-1l-2-1.2l-2.4-0.8l-8.2-2l-4.3-0.4l-3.8-1l-0.6,0.6l-2.9-1l1.2-0.4l-5.8-1.1l-2,0.3l-2.6-0.1l-0.7,1.3
						l-2.5-0.1l-2.7,0.7l-2.7,2.1l-2,1.3l-2.3,3.6l-2.4,2.7l-3.3,2.2l-5.1,1.8l-1.8,1.4l1.6,5.3l1.3,2.6l3.6,1.2l3.2-0.6l4-2.8
						l2.1,1.5l3,3.5l3,2.9l1.6,2.5l3-0.1l0.7-2.1l3.2,0.2l0.3-2.4l-1-4.2l2.1-0.6l0.6-2.7l-2.8-1.3l-2.4-1.6l-0.2-3.1l2.7-1.8l2.1-2
						l-1.2-1.2l0.7-1.3l2.5-0.6l3.3,0.9l1,0.9l-0.9,0.4l-2.4,2.2l-0.8,1.3l-0.1,1.3l2.4,2l1,2.2l2.6,0.8l2.1,1.3l3.1-0.5l3.1-0.8
						l3.6-0.2l3.1,1.1l-1.2,1.3H374l-2.6-0.4l-2.5,0.3l-2.3,0.7l1.1,1.4l2,0.8l0.6-0.3l0.7,1.5l0.8,2H370l-3-1.9l-1.7,0.8l-0.3,1.6
						l1,2l1.7,2.3l-3,0.9v1.2h-2.5l-0.5-0.6l-2.8-0.5l-2.9,0.9l-3.6,1.3l-1.6,0.8l-1.5-0.8l-3.4-1.1l-1.2,0.7L342,103l-0.2-0.9
						l-2.9-0.6l-0.4-1.1l-1-1.3l1.4-1.9l0.8,0.3l0.4-1l-1.5-0.4l-0.6-0.7l0.5-0.8l-0.3-1.3l-1.8,0.7l-0.7,0.7l-2.1,0.1l-0.6,0.8
						l-0.3,0.7l0.6,2.7l1.4,1.5l0.6,1.3l0.8,1l-1.6,1.4l-0.6-0.6l-2.3,0.2l-0.5,0.6l-2.3-0.1l-3.7,1.2l-2.1,4.2l-1.4,0.8l-2.4,0.6
						l-2.5,0.6l-0.8,2.5l-7.1,2.4l-2.8-1.3l0.9,3.5l-5.2-0.8l-4.1,0.7l0.1,2.3l4.7,1.2l2.3,1.6l3.2,3.4l-0.8,6.7l-1.8,2l-5.5-0.1
						l-2.8,0.1l-3.6-0.6h-4.5l-4.1-0.6l-5.1,2.5l1.1,1.5l-0.5,2.5v1.2l0.5,1.3l-0.1,1.5l-1.1,2.2l-0.4,1.4l-1.6,1.3l-0.6,2.4
						l0.7,1.4l1.5,0.3l0.1,2.3l-1,2.9l2.1-0.4l1.8,0.5l1.6-0.9l3.4,0.5l0.9,2.2l1.4,1.3l1.8,0.3l1.6-1.4l2.4-1.4l3.7,0.1l4.8-0.1
						l2.8-2.8l2.8-0.8l0.8-2.4l2.1-1.6l-1.4-2.1l1.3-2.9l2.3-2l0.2-1.2l4.6-0.8l3.2-2.3l-0.3-2l0.4-2.1l4.9-1.1l6.8,0.9l2.8-2
						l1.4-0.2l1.7-1.6l1.4-0.4l2.9,1.1l1.8,0.4l1.5,3.4l2.7,2l3.6,2.3l2.9,1.6l2.6,0.2l1.8,1.5l2.4,0.6l1.3,1.6l1.6,0.5l1.4,1.8
						l1.9,2.1l-0.6,0.8l-0.3,2l0.2,1.1l1.5-0.3l1.2-3.1l1.3-0.3l0-2.2l-2.8-1.3l0.9-2.3l3.1,0.6l2.4,1.7l0.3-1.3l-0.5-0.6l-3.4-1.9
						l-2.7-1.1l-3.4-1.3l0.8-0.7l-1-0.8h-2.7l-4.4-2.8l-2.3-2.8l-3.5-1.7l-1.4-1.7l0.1-1l-0.5-1.6l2.4-1.2l2.6,0.5l-0.7,0.3
						l-0.1,0.1l0.3,1.1l1.2,1.1l0.7-1.4l2.1,0.5l0.4,1.1l1.9,1.5l-0.6,0.2l3.4,2.5l3.3,1l2.2,1.2l3.5,1.3l1.6,0.7l1.3,1.1l0.8,0.3
						l0.6,0.6l-0.2,1.1l0.5,2.4l0.9,1.7l2.2,1.2l0.2,0.8l0.7,0.3l0.5,1l2.3,2.1l1.8,1.7l1.3,2.5l2.1,3l3.4,1.6l2.4-0.1l-2.3-3.3
						l2.1-0.4l-1.6-1.9l3.4,1l-0.7-2.1l-2-1.1l-2.3-1.7l0.9-0.9l-2.2-1.7l-1.4-2.1l0.3-0.8l2.4,1.9h1.8l1.5-0.6l-3-2.1l3.7-0.9
						l1.7,0.3l2,0.1l0.3,0.7l1.7,1.7l1.9-1.9l0.9-1.1l3.6-0.2l0.2-0.9l-3.3-1.1l-0.9-1.3l-1.9-2v-2.4l1-1.4l-1.2-4.1l1.1,0.3l1-0.7
						l-0.4-0.9l0.9-2.4l0.2-1.8l2.3-0.4l0.9,1.2l4.7,0.8l1.2,0.7l-2,1.1l-0.1,0.7l3.5,1l0.3,1.6l2,0.7l2.6-1.9l2.7-0.6l-0.2-1.1
						l-2.6,0.2l-1.8-0.8l-1.3-2.1l1.5-1.2l2.3-0.2l1-1l1.9-0.2l1.9-0.5l0.6,0.7l-2.8,1.3l2.2,1.3l-0.4,2.7l-1.6,0.5l3.5,2l3.8,1.3
						l5.1,2.9l1.6,1l1.7,0.4l2.3,1.3l2.1,2.3l0.5,1.5l-2.1,1.8l-2.5-0.3l-2.9,0.6l-4.8-1.4l-6.3-2.5l-4.8,0.1l-2.9,1l-2.5,2.3
						l-6-0.4l-0.2,2.7l-4.8,0.1l-2.3,3.4l2.8,1.8l-0.6,2.9l3.2,2.1l3.2,3.7l3.7-0.1l3.8,2l2.2-0.5l0.1-1.6l3.5,0.1l3.3,2l4.7-0.5
						l1.3-2.1l2.9,0.8l1.8-0.3l-0.6,1.4l2,1.8l-0.1,1.5l1.5,3l0.1,0.1l-0.5,2.7l0.1,3.2l-0.1,0.1l-0.1,1l0.5,3l-0.3,1.9l0.3,0.2
						l-0.5,1.3l-1.2,1l-2.7-0.2l-3-0.9l-0.4,1.3l-1.5-2l-2.6-0.5l-3,0.3l-1,1.2l-2.3,1.3l-1.8-0.7l-3.9-1.2l-3.8-1.1l-4.8,0.1
						l-1.1-1.4l-3.8-0.4l-1.4-0.7h-1.3l-1.8-1.8l-5.1-0.8l-2.4,0.6l-2.3,1.9l-0.8,1.9l1.4,3l-1.4,1.9l-1.6,1l-4.5-2l-5.7-1.7
						l-3.6-0.7l-2.4-3.6l-5.4-1.8l-3.3-0.6l-1.6,0.4l-4.6-1.4l-1.6-0.6l-1.2-1.8l-1.9-0.1l-1.1-2.2l2.4-2v-3.3l-1.3-0.9l-0.2-1.8
						l1.6-1.8l-0.4-0.7l-3,1.4l-0.1-1.9l-2.6-0.4l-4,1.5l-2.5,0.3l-1.6-0.9h-4l-3.4,1.5l-1.9-0.5l-6.2,0.3l-6.4,0.7l-3.7,1.2
						l-2.3,1.6L308,164l-3.8,2.1l-1.7-0.1l-4-0.8l-3.6,0.3l-2.2-1.7H290l-1.4,2.3l-2.8,4l-3.1,1.6l-4.1,1.8l-2.8,2.7l-0.8,2.1
						l-1.8,3.5l0.5,5l-3.7,3.4l-2.2,1.1l-3.5,2.8l-3.9,0.4l-2.2,1.7l-3.2,4.3l-3,1.5l-1.8,2.6l-0.9,2.2l-1.5,2.5l-1.4,0.7l-2.6,2.8
						l-1.9,3l0.1,1.5l-1.6,2.3l-1.8,1.2l-0.4,2l-0.4,1.9l1.9,1.9l0.9,2.1l-0.5,2.2l0.2,2.2v4.4l-0.8,4.2l-1.4,2.2l0.1,2.4l-1.1,2.4
						l-2.4,3.2l-1.9,0.8l2.1,1.6l1.5,3.5l-0.6,2.1l0.4,3.6l0.3,0.9l1.4,1l-0.2,0.7l1,1.2l1.7,0.3l2.3,1.9l1.2,0.7l0.6,1.1l0.6,2
						l0.9,0.9l1.3,0.6l1.5,1.8l2,2.8l0.4,3.4l0.8,1.7l2.2,2.5l3.2,1.9l1.3,0.4l2.9,3l3.9,2.6l4.1,3.5l4.8,2.3l1.2-0.1l1,0.2l4.5-1.8
						l3.2-1.4l5.6-0.8h3l3.4,0.9l2-0.1l4.2,1.4l4.2-1.4l2.5-1.6l7.4-2.8l3.7-1l3.9-0.5h4.2l3.5-0.1l3.2,3.1l1.5,3.4l2.5,3l3.9,0.1
						l1.7-1.1l1.8,0.3l4.8-1.7l-0.2,1.4l1.2,0.7l1,2.1l2.2,0.8l1.9,3.1l-0.6,3.7l-1.6,5.3l0.8,0.7l-0.8,3.6l-1.2,3.4l-1,1.5
						l-0.2,1.5l2.8,4.9l3,3.8l4.8,4.8l3.6,4.9l1.3,3.5l0.6,1.4l-0.5,0.9l2.2,2.9l0.9,3.1l1.2,4.5l-1.4,1.8l-0.4,1l1,2.8l1,2.8
						l1.4,1.7v2.6l-0.7,3.4l-1.6,2.1l-2.7,3l-1.1,1.9l-1.7,4.1l-0.4,2l-1.7,4.2l-0.9,4l0.1,2.8l0.1,3.4l3.3,4.3l0.7,2.8l1.7,5.3
						l2,3.6l1.5,1.8l0.2,2.4l-0.4,5.2l0.6,6.6l0.7,3.1l0.3,4.1l1.2,3.1l2.4,3.1l2,5.3l1.4,3.4l1.9,3.8l-0.6,3.1l-1.4,0.7l0.7,2.6
						l-0.5,2.3l0.3,1.1l0.3-0.6l1.2,1.8l1.3,0.1l1.1,1.4l1.7-0.1l2.6-1.5l3.3-0.6l4.2-1.5l1.4,0.2l2.3-0.5l3.7,0.7l2-0.7l2,0.6
						l0.7-1.1l1.8-0.2l4.1-1.6l3.2-1.8l3.2-2.4l5.2-4.2l2.9-2.8l1.6-2.1l2.1-2.1l0.8-0.6l3-2.1l1.4-1.9l1.4-3.5l1.7-3l1-2.2
						l-0.8-0.3l0.1-1.8l2-1.6l4.9-2.3l3.3-1.5l1.8-1.5l1-1.9l-0.6-0.7l1-2l1.1-4.2l-0.7,0.2l0.3-1.3l-0.1-2.6l-1.1-3.3l1-3.1l1.7-1
						l3.3-3.2l1.5-0.8l5.1-4.8l4.4-2.2l3.5-1.7l2.8-2.8l2-3.2l1.6-3.2l-0.2-2.3l1-7.1l0.2-4.1l0.7-4.6l-0.4-2.1l-1.2-1.1l-0.9-4.5
						l-1-2.9l0.5-2.3l-0.1-1.4l1.3-2.8v-1.3l-2.2-1.7v-2.6l1.9-5.8l1.6-1.5l0.8-3.1l1.2-1.9l0.6-3.4l1.3-0.3l0.9-1.9l2.6-1.9
						l0.8-1.1l0.8-2.5l3.9-5.8l3-3.6l5-4.7l3.2-3.8l3.5-6.4l2.3-5.2l2.1-6.9l1.3-5.9l0.9-5.2l0.1-5.1l0.4-1.7l-0.4-2.4l-0.1-2.7
						l-0.3-1.2h-1l-1.2,1.6l-1.4,0.4l-1.3,0.7l-1,0.1l-1.7,0.2l-1,0.8l-1.4,0.2l-2.6,1.5l-3.4,0.5l-2.9,1.2h-1.7l-1.8-1.9l-0.9-1.9
						l-1.2-0.8L491,266l1.8-1.2l-0.2-1.9l-1.1-1.4l-1.9-1.4l-1.2-1.6l-2.3-2.6l-2.4-2.5l-5.5-4.3l-2.3-2.2l-1.8-4.2l-3-5.2l-2.2-1.7
						l-1.5-1.1l-2.5-5.3l-1.5-4.5l0.6-0.8l-2.2-4.3l-0.7-0.9L456,215l-0.8-2.8l0.6-0.8l-4.4-4.7l-1.8-2.5l-1.9-2.3l-4.4-6.1
						l-3.4-4.2l-2.8-4.4l0.3-0.4l4.3,5.9l2,1.9l1.6,1.4l0.5-0.8l0.3-2.2l-0.2-3.1l0.3-1.6l0.3,0.6l0.2,1.6l0.3,1.4l0.1,2.3h1.7
						l2.6,2.9l3.1,3.4l2.3,3.1l1.2,0.9l1.6,2.2v1l1.9,2.4l2.1,0.9l2.1,1.7l3.2,4.8l0.4,2.6l1.3,3.1l3.2,4.2l1.6,0.7l3.1,3l1.7,3.6
						l2.6,3.8l2.1,1.6l0.6,1.8l1.2,1.4l0.9,1.9l0.5,2l-0.2,0.8l0.6,2.1l-0.6,0.2l1.3,1.9l1.2,3.4l0.8,1.4l0.3,2.5l1.3,2.7l2.3,0.2
						l1-0.6l1.7,0.1l0.3-1.2l0.9-0.3l0.5-1.2l0.8-0.2l2.6-0.2l1.9-0.9l1.4-1.9l0.9,0.3l1.4-0.2l1.9-3.3l4.3-2l2.3-2l-0.2-1.6l0.1-2
						l1.7-1.1l1.1-0.3l1.5-1.5l1.5,0.4l1-1.3l-0.5-1.8l0.6-1.1h1.6l0.3-0.9l-0.3-2.2l1-1.7h1.1l0.1-0.6l-1.2-3l-0.3-2.2l0.1-1
						l1.2,0.2l-0.2-3l0.5-1.4v-1.3l-0.1-2.6l-0.3-0.9l-1-0.5l-1.2-1.5l-1.9-2.5l-1.7-0.8l-1.9-0.5l-1.9-1.5l-2.1-2.9l-1.7-3.4v-0.8
						l-0.5-1.8l-0.4-0.4l-0.1,1.4l-0.5,2.6l-0.7,2.8l-0.6,2.9l-1.6-0.2l-2.2-0.2l-1.8,0.7l-0.5-1.2l-0.4,0.2l-1.1-1.7l-0.3-2.5
						l-1-2.5l-1.3-1.3l-0.6,0.5l0.2,2.2l1.3,3.1l-0.7-1l-0.9-1.4l-1.2-1.2l-0.9-1.5l-0.2-1.4l-0.9-1.7l-2.4-1.7l-1.1-1.5l-1.8-1
						l-2.5-3.6l-2.1-3l-0.1-1l-1.4-1.8l1.7,0.2l0.4-1.6l2.2,1.4l1.1-0.7l4.4,5.5l3.3,4l3,1.1l3.9,3.2l3.6,1.4l1.6-2l1.5-0.8l1.4,0.8
						l3.1,5.2l2.7,0.5l2.8,1l4.5,1.2l2.6-0.5l3-0.1l2.9-0.8l2.7,3.2l1.8,3.1l1.6,1.1l3.4,3.7l1.1,1.6l-0.1,1.6l3.9,5.4l1.2,0.5
						l1.1-2.6l1.7,4.1l1.8,5.3l2.2,5.8l3.1,8.7l2.8,6.3l0.9,2.8l1.6,5.8l1.6,4.4l0.8,2.2l1.3,4.7l1.6,6.5l1.6,4.4l0.2-1.3l-0.1-3.2
						l0.6-1.3l-0.5-1.6L573,273l0.4-0.3l-1.5-7.8l-0.6-4.4l-0.9-3.8l-1.7-5.9l-0.7-3.5l0.3-0.2l0.2-1.6v-1.1l-0.6-2.1l-0.3-2.9
						l-0.5-2.8l-1.3-5.3l-0.6-3l-0.8-2.6l-1.3-3.3l-0.1-0.9l0.1,0.1l-0.7-1.7l0.2,0.4l0.2,0.5l-0.3-0.8l0.1,0.3l0,0l4.9,13.2
						l4.2,13.5l3.5,13.7l2.8,13.9l2.1,14l1.3,14.1l0.6,14.1l-0.1,14.1L581,345l-1.6,14l-2.3,13.9l-3.1,13.8l-3.8,13.6l-4.5,13.4
						l-5.2,13.1l-5.9,12.9l-6.5,12.5l-7.2,12.2l-7.8,11.8l-8.4,11.4l-9,10.9l-9.6,10.4l-10.1,9.9l-10.6,9.4l-11.1,8.8l-11.5,8.2
						l-11.9,7.6l-12.3,7l-10.9,5.5L416.5,570.2z"/>
				</g>
				<g>
					<path class="st3" d="M270,587.4h0.9l1.1,0.1l-1.4-0.3l-1.2-0.3l2.1,0.3l1.9,0.4l1.7,0.3l-1.3-0.1l-0.4,0.1l-1.8-0.3h-0.2
						L270,587.4z M269.8,585.4h0.3l0.3-0.2l1.8,0.2l2.3,0.4l2.2,0.6l1.4,0.4l1.6,0.4l0.1,0.2v0.2l-0.2,0.2l-0.4,0.1h-1.3l-1.8-0.2
						l-1.5-0.3v-0.2l-0.8-0.3l-1.2-0.4l-1.1-0.3l-0.8-0.3L269.8,585.4z M228.5,577l-0.2-0.2l0.7,0.1l-2-0.8l-1.6-0.6l-3.3-1.3
						l-1.7-0.8l-0.1-0.2l1.8,0.6l1.7,0.6l2.1,0.7l2,0.7l2,0.7l1.9,0.7l1.5,0.6l1.4,0.6l-0.1,0.2l0.3,0.3h-0.7l-1.5-0.6l0.1,0.2
						l0.1,0.2l-1.5-0.4l-1.8-0.6L228.5,577z M234,579.8l-3.1-1l2,0.6l0.9,0.2l-0.3-0.1l1.8,0.5h0.3l0.8,0.2l1.2,0.3l-1.5-0.5
						l-1.4-0.5l1.9,0.5v-0.1l1.2,0.3l1.7,0.4v-0.1l-0.6-0.3l-0.7-0.3l-0.1-0.2l0.2-0.1v-0.2l-0.4-0.3l-1-0.4l-1.6-0.6l-1.8-0.6
						l-1.8-0.6l-1.8-0.6l-1.7-0.6l-1.6-0.6l-1.7-0.6l-1.5-0.6l-1.3-0.6l-1.4-0.7l-1.5-0.7l-1.9-0.8l-1.6-0.7l-1.5-0.9l-0.8-0.5
						l-1-0.7l-0.7-0.6l-0.5-0.6l-1.3-0.8l-0.6-0.5l-0.4-0.5l0.7-0.1l-0.5-0.6l-0.1-0.4l0.4-0.3l-0.2-0.5l-0.5-0.6l0.4-0.3l1.5,0.5
						l0.8,0.7l-0.1,0.6l0.4,0.4l-1.4-0.3l-0.4,0.2l0.2,0.5l0.3,0.5l0.6,0.6l1.4,0.8l1.5,0.7l1.7,0.6l0.3,0.4l-0.4,0.2l0.8,0.6
						l0.8,0.6l1.2,0.8l1.3,0.6l1.9,0.7l1.7,0.6l1.5,0.4l1.8,0.5l1.9,0.7l1.6,0.6l1.7,0.6l1.7,0.5l1.6,0.6l3.8,1.4l1.6,0.5l1.6,0.6
						l1.8,0.5l2,0.7l1.3,0.5l1,0.4l-0.3,0.2l1.2,0.4l1,0.4l0.8,0.4l0.1,0.2l0.4,0.2l0.4,0.2l1.5,0.5h-0.4h-0.7l-0.1,0.1h-0.7
						l1.8,0.4l1.1,0.2l1.6,0.3l1.7,0.3l1.1,0.3l-0.9-0.1l0.8,0.2l1.9,0.4l1.8,0.4l1.8,0.3l1.7,0.3l2,0.3l1.2,0.1l1.6,0.2l1.7,0.2
						l1.9,0.2l1.3,0.1l1.9,0.2l1.7,0.2l1.9,0.2l2.3,0.3l1.6,0.2l-1-0.2l-0.6-0.2l-0.5-0.2l-0.1-0.2l-0.2-0.2h1l1.6,0.1l1.7,0.2
						l-1-0.3l-0.2-0.2h1.3l0.5-0.2l0.5-0.2l0.9-0.1l1-0.1l0.5-0.2l-1.3-0.3l-1.1-0.3l-0.9-0.3h-1.3l-1.1,0.1h-1.4l-1.2-0.3l-1.9-0.7
						l-0.2-0.2l0.5-0.2l0.8-0.2l0.4-0.3l0.4-0.3v-0.4l0.9-0.2l1.1-0.2l0.5-0.1h1.5l1.3-0.2l1-0.2l0.9-0.3l0.8-0.3l1.2-0.4l0.6-0.4
						l0.8-0.4l-0.1-0.5l-1.6-0.3l-0.1-0.5l0.5-0.4l1.2-0.3l1.3-0.3l1.1-0.5l0.8-0.5l0.3-0.7l0.9-0.4l1.8,0.1l0.9,0.5l1.8,0.1
						l-0.2-0.5l0.5-0.6l1.7,0.1l0.5,0.6l1.8,0.1l1.9-0.3l1.9-0.2l1.7,0.1l0.7,0.6l1.7-0.5l1.5-0.2l1.7-0.2l1.8-0.2l1.7-0.4l1.8-0.2
						l1.5-0.3l1.2-0.6l1,0.4l1.7-0.2l0.8,0.7l0.6,0.5l1.9-0.3l1-0.6l1.9-0.5l2,0.1l0.2,0.6l1.6-0.6l1.8-0.2l1.9-0.1h1.6l1.5,0.2
						l1.5,0.1l0.2,0.5l0.4,0.5l1.9-0.3l1.7-0.1h1.6h1.6l1.7-0.2l1.7-0.2l1.9-0.5l1.7-0.3l1.6-0.1l1.7-0.4l2.1-0.9l1.6-0.6l1.1,0.3
						l-0.3,0.6l0.6,0.4l1.6-0.1v0.6l0.2,0.4l1.9-0.4l1.7-0.7l1.7-0.3l2.3-0.6l1.6-0.2l2.1-0.3l1.7-0.4l1.7-0.4l1.7-0.4l0.8,0.2
						l2.2-0.6l1.7-0.5l1,0.1l1.8-0.5l1.4-0.6l1.9-0.5l1.6-0.4l1.7-0.3l1.3-0.1l0.8,0.1l0.7,0.2l-0.2,0.5l-1.5,0.8l-0.3,0.6l-0.4,0.5
						l0.6,0.2l-0.4,0.5l-0.3,0.5l0.5,0.1l1.4-0.4l2.3-0.7l-0.1,0.4l0.3,0.2l0.2,0.2l0.4,0.1h0.7L403,573l-1.1,0.4l-1.9,0.7l-1.6,0.4
						l-2,0.6l-1.5,0.6h0.7l-1.7,0.6l-1.8,0.6l-2,0.6l-0.9,0.4l0.1,0.2l1.3-0.3l1.9-0.6l1.7-0.5l1.6-0.5l1.5-0.4l1.6-0.6l2.3-0.8
						l0.7-0.1l0.7-0.1l0.9-0.2l1.1-0.3l1.9-0.7l1.6-0.6l1.9-0.7l1.4-0.4l1.1-0.3l1.6-0.6l0.8-0.3l0.9-0.3l-0.2,0.2l0.6-0.2l0.7-0.2
						l-0.2,0.1l1.3-0.5l2.9-1.2l-1.2,0.5l-2,0.9l-0.8,0.4h-0.1l0,0l-13.2,5.1l-13.4,4.4l-13.6,3.7l-13.8,3l-13.9,2.3l-14,1.6
						l-14.1,0.8l-14.1,0.1l-14.1-0.7l-14.1-1.4l-14-2.1l-13.8-2.9l-8.2-2L234,579.8z M168.9,542.2l1,1.1l0.3,0.9l-1.5-0.3l-1.8-0.8
						l-1.5-0.4l-3.1-1.5l-2.8-1.5l-5.1-3.1l1.4,0.6l3.6,1.9l2.4,1l-1.1-1.3l-2.1-1.9l-0.6-1.2l1.1,0.3l2,1.3l3.2,2.1l3.5,1.6
						l2.5,0.7l1.2,1.4l-0.8,0.1L168.9,542.2z M165.7,533.6l-0.3-1.8l2.1,0.7l-0.4-1.2l2.6,1.3l0.7,1.1l-1.1,0.8l-1.8-1l0.3,1.3
						L165.7,533.6z M478.3,523.9l-0.3,1l0.6,0.4l-0.6,0.6l-1.8,1.4l-1.9,0.2l1.8-1.7l1.5-1.3L478.3,523.9z M512.4,379.6l0.4,2
						l0.2,3.1l-0.6,5.4l0.3,2.1l-0.7,2.2l-0.8,1.3l-0.5-2.6l-0.8,1.3l-0.2,3.3l-0.7,2l-1.1,1.1l-1,3.8l-2.5,5.2l-3.1,6.1l-4.2,8.3
						l-3.1,6.1l-2.9,4.9l-2.8,1l-3.2,1.8l-1.3-1.1l-1.9-1.5l-0.2-2.3l0.9-3.8l-0.1-3.4l0.7-3.1l1.4-3.2l1.7-0.8l0.4-1.4l2.4-3.3
						l1-2.9l-0.2-2.1l0.1-2.8l0.7-4.1l1.6-2.5l1.1-2.9l1.7-0.2l1.9-0.9l1.4-0.8l1.4-0.1l2.3-2.6l3.1-2.8l1.3-2.3l-0.1-1.9l1.2,0.5
						l2.2-3.1l0.6-2.8l1.3-2.1L512.4,379.6z M576.7,286l0.5,4.8l-0.2,1.3l-0.5,1.1l-0.8-3.7l-1-6.7l-0.8-7.5l1,2.6l0.8,3.3
						L576.7,286z M78.3,270.9l1.4-0.6l0.5,0.2l-0.6,3.4l-1.9,0.5l-0.3-0.4l0.8-1.3L78.3,270.9z M77.4,235.6l0.8,0.4l0.1,0.8
						l-0.8,1.1h-1.4l-1.1,0.2l0.5-1.9l0.4-0.6H77.4z M61.8,235.6l0.5,0.4l0.2,1.1l-0.2,1.2l-0.7,0.1l-0.6,0.7l-0.3-0.7v-1.6l0.4-1
						l0.5-0.3L61.8,235.6z M70.5,230.2l0.4-0.7H72l0.5,1.1l0.5-0.1l-0.3,1.6l0.9-0.1l-0.5,1.3l0.6,0.2l0.3,1.7l-1.1,1.8l-0.5-1
						l-0.7,0.2l-0.5-0.2l-0.5,0.8L70,237l0.1-1l-0.7,0.6l-1.5,3.1l-0.1-0.7l0.3-1.3l-0.7-0.7l-0.7,0.3l-0.7-0.4l-0.9,0.9l-0.2-1.4
						l0.6-1.4l0.9,0.6l0.9,0.4l0.8-1l0.1-1.9l0.6-1.7l-0.6-0.6l0.8-1.3l0.7,0.2L70.5,230.2z M65.9,215l0.4,0.3l0.5,0.1l0.1,1.5
						l-0.3,1.6l1-0.5l-0.1,1l-0.2,2.7l-0.1,2h0.3l0.3,0.9l-0.5,1.3l0.7,0.2l0.2,1.8l-0.5,1l-1,0.6l-0.8,0.2l-0.6-0.4l-1.6,0.5
						l1.5-2.5l0.1-1.2l-0.5-0.3l0.2-1.3l0.7-2.4l-0.5,0.2l-0.3-1.2l0.2-0.9l-0.6-0.6l0.1-0.9l0.7-1.1l-0.5-0.2l-1.3,2.3l-0.2,0.1
						l-0.5,1l-0.4,0.5v-0.4l0.8-1.3l0.7-1.6l0.4-1.2l0.6-0.9l0.6-0.5L65.9,215z M72.7,206.3l0.2,0.2l-1.3,3.5l-1.1,2.6l-0.3,0.2
						l0.9-2.5l0.2-1.2L72.7,206.3z M75.2,199.6l0.5-0.3l0.5,0.2l-0.5,1.1l-1.3,0.7L75.2,199.6z M76.8,198.5l-0.2,1.9l-1.6,3l0.1-0.5
						l1.1-2.2l0.4-1.7L76.8,198.5z M434.8,165.5l0.5,0.7l0.2,0.3l-2.6,1.6l-1.8-0.5l-1.4-1.5l1.6-0.2h0.2l0.1-0.9l2.3,0.1l2.4-1.2
						L434.8,165.5z M409.4,165.3l-0.2,1.1l-4.9,0.3l-0.1-0.6l-4.5-0.8l0.2-1.7l2.3,1.3l2.7-0.2l2.6,0.3l0.2,0.6L409.4,165.3z
						 M365.8,154.6l2.8-0.3l-0.7,2.9l0.8,1.2l-0.4,1.9l-3-1.4l-1.9-0.4l-5.4-1.9l0.2-1.9l4.2,0.3L365.8,154.6z M342.7,144.6l1.6-1.2
						l2.5,2.6l0.2,4.8l-1.7-0.2l-1.3,1.2l-1.4-0.9l-0.8-4.4l-1-2L342.7,144.6z M342,138.5l2-1.4l1.1,3l-0.8,2.7l-1.7-0.7l-1.1-2.4
						L342,138.5z M146.3,123.7l-1,1.6l0.7,0.4l1.5-0.1l-2,1.3l-0.8,0.2l-0.5-1.4l0.6-1L146.3,123.7z M154.7,114.9l0.8-0.3l1,0.8
						l0.1,1.3l-0.5,0.6l-0.8,0.1l-0.8-1L154.7,114.9z M172.5,110.5l-2.8,1.9L166,115l2.1-1l0.5,0.7l-1.6,1l0.8,0.8l1.4-0.7l0.9,0.9
						l-2.6,2.2l1.7-0.5L168,120l-1.2,2l-3.2,2.8l-1,0.1l-0.7-0.6l2.7-2.6l-0.2-0.4l-4.6,2.8l-1-0.1l2.6-1.5l-1.1-0.7l-2,0.2
						l-3.1-0.1l0.6-0.9l2.1-1.1l0.1-0.8l3.2-1.8l6.5-4.9l2.8-1.7l2.5-1l0.6,0.2L172.5,110.5z M291.4,99.8l2.2-0.1l2.7,1.7l-1.8,1.9
						l0.2,2l-2.4,2.5l-5.4,1.7l-4.1-0.4l3-3l-0.9-2.9l4.2-2.1L291.4,99.8z M344.1,97.2l1.2,1.3l-0.9,2.2l-3.2-1.5l-0.7-1.1
						L344.1,97.2z M306.3,97.7l2.5,3.4l1.9,0.4l1.7,3.1l0.8,1.1l3.4,0.6l-0.2,1.8L315,109l1.2,1.5l-2.6,1.5h-4l-5.2,0.8l-1.4-0.6
						l-2,1.4l-2.8-0.3l-2.2,1.1l-1.6-0.6l4.7-3.1l2.7-0.6l-4.6-0.5l-0.7-1.2l3.1-0.9l-1.4-1.5l0.7-1.8l4.2,0.3l0.5-1.6l-1.7-1.7
						l-3.3-0.5L298,100l1.1-1.2l-0.8-0.7l-1.6,1.2l0.3-2.6l-1.1-1.3l1.4-2.6l2.2-2l2,0.2l2.9-0.2l-3,2.7l2.7-0.3h2.7l-0.8,2.1
						l-2.5,2.3L306.3,97.7z M187.2,82.7l1.4-0.7h0.1l-0.8,0.5l-2.3,1.2l0.2-0.2l1.1-0.7L187.2,82.7z M187.6,81.9l2-1h0.4l-0.8,0.4
						l-2.6,1.2v-0.1L187.6,81.9z M198.8,76.4l-1.2,0.7l-1,0.6l-1.9,1l0.5-0.1l-1.2,0.7l-1.6,0.6l0.5-0.5l1.7-0.9l-2.4,1.1l-2.5,1.1
						l2.4-1.3l-0.6,0.2l2.2-1L197,77l4-1.8l-0.2,0.1l-1.9,0.9l0.8-0.3L198.8,76.4z M284.8,73.8l-1.2,1.2l1.4,1.3l-3.3,1.5l-6.5,1.4
						l-2,0.4l-2.4-0.3l-5-0.6l2.6-0.9l-3.3-1l3.6-0.4l0.4-0.6l-3.4-0.5l2.3-1.2l2.9-0.3l1.7,1.3l3.5-1l1.9,0.5l3.6-1L284.8,73.8z
						 M211.7,72l-1.5,0.5l-0.7,0.1l2-0.9l2.5-1l1-0.3l-0.9,0.5l-1.7,0.7L211.7,72z M59.9,224.1l0.3-0.7l0.4-0.9l0.1,0.1l0.2-0.3
						l-0.3,0.9l-0.8,2.1l-1.1,2.6l-1,2.7l-0.2,0.8l-0.7,1.9l-1.2,3.5l0.3-1.1l-0.1,0.1l-0.2,0.6l0,0l-0.4,1.2l-0.6,1.9l-0.2,0.7
						l-0.5,1.6l-0.1,0.4l-0.7,2.3l-0.4,1.2l-0.1,0.2l-0.5,1.5l-0.2,0.8l0.2-0.7l-0.1,0.6v0.2l0.3-0.8l0.1-0.1l-0.1,0.4l0.1-0.2v0.4
						l0.1-0.1l0.2-0.5l0.2-0.6v0.2v0.3l0.1-0.1l0.2-0.4v0.7v0.1l-0.1,0.8l-0.2,1.1v0.7l-0.2,1.2l-0.2,0.5l-0.3,1l-0.4,1.7l-0.5,1.5
						l-0.5,1.9l-0.5,2v1.2l-0.4,2.1l-0.2,0.4l-0.5,2l-0.2,1.2l-0.3,1.2l-0.2,1.2l-0.2,0.8l-0.3,2.5l-0.1,1.8l-0.1,2l-0.1,1.7l-0.2,1
						l0.2,0.2l0.1-0.3v1.1l0.4-0.3l0.5-1.2l0.6-0.9l0.5-1.3l0.5,0.3v0.2l0.5,0.2l0.3,0.8l0.1,1.3l0.2,1.3l0.5,0.2l1.3-3.3l0.6-0.5
						l0.2-1.5l0.9-3.9l1.1-2.2l0.8-0.1l0.3-1l0.9,0.4l1.5-2.3l0.8-1.1l1.2-2.2l0.4,0.2l0.2,1.2l-0.6,1.5l-0.3,1.1l-0.9,0.6l0.1,2.1
						l-0.4,2.4l-1.1,2.7l-0.1,3.8l0.7-0.3l0.9-3.3l-0.2-1.7l0.5-3.5L63,268l0.2-2.2l0.8-1.4l-0.1,3.2l1.1,0.1l0.6,2.6l-0.3,1.5
						l1.6,0.1l2.1-0.5l0.7,2.1l1.4,0.6l1.4-1.5l0.2-1.2l2.6-0.3l2.6-0.1l-2.1,1.4l0.4,2.2l1.7,0.3l1.4,2.3l-0.2,3.8l1.3-0.1l0.8,1.1
						l1.3,1.7l1.1,3l-0.2,2.4l0.9,0.1l1.1,2.3l0.8,1.7l3.1,0.9l0.3-0.8l2.2-0.3l2.8,1.3l0.9,0.5l2,1.1l2.7,4l0.4,1.9l1-0.3l0.6,2.6
						l1.4,8.2l1.5,0.8v3.2l-2.3,3.9l1,1.4l5.4,0.8l0.2,4.7l2.3-3.1l4.1,1.7l5.5,2.9l1.7,2.7l-0.5,2.6l4-1.4l6.8,2.5l5.3-0.2l5.5,3.9
						l5,5.2l2.9,1.4l3.3,0.3l1.5,1.4l1.6,6l0.9,2.8l-0.9,7.7l-1.6,3.1l-4.5,6.4l-1.7,5.2l-2.2,4l-0.9,0.1l-0.4,3.4l1.7,8.5l0.3,6.9
						l0.2,3l-0.8,1.8l0.7,5.9l-2,5.8l0.6,4.5l-2.1,1.9l-0.1,2.6h-3.5l-4.4,1.7l-1.5,1.9l-2.9,1.3l-2.3,3.4l-0.9,4.2l0.6,3.1l1.4,2.3
						l1.2,4.2l0.2,2l-1,2.3l0.3,7.2l-0.7,3.2l-0.8,1.9l0.8,3.8l-0.4,2.2l0.3,2.5l-1.3,2.2l-2.1-0.8l-0.9,0.4l-3-1.7l-1.3,0.1
						l-2.5-2.2l1,2l4.6,3.3l1.3,2.6l2.3,1.6l1,1.8l1.2,4.8l-1.6,1.9l-3.1,0.8l-2.2-0.4l2,2.2l1.6,2.7l1.7,1.8v1.3l-1.3,0.4l-2.4-1.3
						l0.2,1l3,3.5l1.8,1.1v-1.1l1.9,1.8l-0.5,1.1l0.7,2.2l2.8,3.4l1.2,1.7h-1.3l0.6,1.7l2,2.5l3.5,2.3l1.8,0.6l2.4,2.9l0.4,1.8
						l3.1,3.6l0.3,1.2l1.1,1.4l3.9,3l2.8,1.7l-0.6-0.2l-1-0.1l0.4,0.7l0.4,1l3.2,2.6l-0.3,0.1l-2.2-0.9l-3.5-2l-3-1.6l-2.5-1.8
						l-1.9-1.7l-2.7-2l-6-5.2l-2.9-3l-1.7-2.5l-2.3-0.9l-2.1-2.9l-5.1-5.6l2.2,1.2l-5.9-7.1l-1.5-0.9l3.5,4.3l-1-0.4l-4.1-5
						l-5.2-6.6l-1.5-2.5l-3.1-3.6l-3.2-4.2l0.3-0.1l-3.6-6.2l-3.2-6.2l-3.2-5.9l-3.8-6l-1.5-3.4l-2.8-5l-1.8-5.1l-3.6-8.2l-3.4-8.9
						l-3.3-9.7l-2.7-7.2l-2.4-6.3l-2.3-2.6l-0.7-1.9l-4-4.5l-3.5-4.9l-1.6-2.9l-1.4-3.8l-0.2-1.3l-2.2-6l-2.7-8.5l-2.4-9.3l-0.6-2.1
						l-0.7-3.4l-1-3l-0.7-1.9v-2l-0.8-4.5v-3.3l0.4-3l0.3-3.6l-0.3-2l-0.2,2.2l-0.5-2.1l0.1-1.3l-0.2-4.3l0.2-0.7l0.1-3l0.3-3.1V317
						l0.5-1l0.6-1.9l-0.1-1.4l0.3-0.4V310l0.3-1.8l0.5-0.3l0.6-3l0.5-2.5l-0.3-1.2l0.4-2.7l0.2-4.3l0.3-1.2l0.3-4l-0.1-2.5l-0.1-1.3
						l0.1-2.5l0.4-1.3l-0.2-0.3l0.1-1.6l-0.3-1.3l-0.4,0.3l-0.4,1.7l-0.5,1.2l-0.2,0.2l-0.2,0.9v2.5l-0.3,0.6l-0.2,0.8v0.9l0.2-2.8
						l-0.2,0.9l-0.2-0.3l0.1-1.8L47,283l-0.1-0.5h-0.2l-0.2,1v-0.7l-0.1-1.1v-0.9l0.2-0.8l0.1-1v-1.2v-0.9l-0.1-0.6l0.2-1.3v-0.8
						l-0.2,1.3l-0.3,1.2l0.1-1.3V275l0.1-0.9l0.3-1.4l0.3-1.5v-0.7l0.2-0.8l0.2-1.5l0.2-1.8l0.3-1.6l0.2-1.5l0.4-2.1l0.2-0.7
						l-0.1,0.7l0.1-0.3l0.3-1.4v-0.4l-0.3,1.1l0.2-0.4l0.1-0.4l0.2-0.9l0.1-0.3l0.2-0.6l0,0l3.7-13.6l4.4-13.4L59.9,224.1z
						 M214.2,69.6l2-0.8l-2.8,1.1l-3.2,1.3l-2.9,1.2l3.3-1.3l3.8-1.5l4.8-1.8l-0.1,0.1l-0.4,0.2l-1.9,0.8l-2.1,0.8l-2.5,0.9
						l-2.1,0.9l-2.1,0.9l-3.5,1.3l-1,0.3l1.2-0.6l-2.2,1l-3.7,1.6l-1.9,0.9l-3,1.4l-0.3,0.1l-0.2,0.1l0,0l10.3-4.8L214.2,69.6z
						 M165.1,94.6l-0.9,0.6l0,0l-1.4,1l-1.8,1.3l-0.9,0.7l-1.4,1.1l0.2,0.2v0.2l-3.3,2.4l-3.7,2.8l-3.8,3.2l-2.8,2.8l1.6-1l4-3
						l5.6-4.5l1.6-1.4l2.6-1.3l3.3-1.9l3-1.8l2.5-1.7l2.9-2.1l2.4-1.9l4.7-2.5l3.5-2.1l6.1-3.5l1.3-0.5l-0.2,0.6l0.2,0.2l1.5-0.6
						l-0.8,0.8l-1.4,1.3l-1.4,0.8l1,0.2l-3.2,1.9l-4.5,3l0.2,0.4l-1.5,1.5l3.5-1.4l5-2.6l2.4-1.1l-2.5,2.1l-3.2,3.1l-2.9,3l-2.7,1.6
						l-0.2,1.5l-0.7,1.5l1.4,0.7l-0.1,0.9l-2.1,2.3l0.8,0.4l-0.6,1.1l-3.4,3.2l-2.3,1.1l-2.2,1l-3.7,1.1l-4.5,2.5l-3,0.5l-2.2-0.7
						l-1.9-0.1l-1.5,0.2l-3.4,2.2l-2.9,1.4l-5.9,4.1l-4.3,3l1.5-0.6l6.1-4.2l5.2-2.6l2.2-0.3l-0.4,1.5l-3.4,2.1l-3,3.4l-1.9,2.4
						l0.3,1.7l3-0.5l5-3.7l-2,2.3l-0.1,1.2l-3.9,2.1l-5.2,2l-2.7,1.4l-3.7,2.4l-0.8-0.3l2.5-2.9l4.9-2.7l-2.3,0.1l-2.2,0.7l-0.8,1.1
						l-2.9,1.6l-2.2,1.2l-2.2,1l-2.6,2.2l-0.6,0.6l-1.7,1.9l-1.1,1.8l0.4,0.1l1-1.3l-0.4,0.8l-0.9,1l-1.3,0.6l-0.4-0.1l-1.3,0.6
						l-0.6,0.2l-0.8,0.2l-1.7,1l2.1-0.7l-0.3,0.7l-2.3,1l-0.7,0.1l0.4-0.5l-1.1,1l0.1,0.2l-2.5,2.6l-2.9,2.8l0.7-0.9v-0.2l0.4-0.9
						l-1.4,2l-0.3,0.7l-1,1.4l-1.4,1.5l-2.7,3v-0.1l2.2-2.6l0.6-1.4l2.3-3l-1.4,1.6l-1.7,2.1l-0.1-0.5l-0.3,1.1l-2.6,3.6l0.1,0.3
						l-0.8,1.3l-2.6,3.8l-2.5,2.8l-1.7,1.1l-2.1,2.3l-0.6,0.3l-1.3,1.4l-1,1.3l-2.4,2.6l-1.5,1.9l-1.7,2.4l-1.8,2.8l-1.5,2.9
						l-1.8,3.5l-1.3,2.9l-1,1.8l-2.1,4.8l-1.4,2.9l-0.8,1.6l-1.4,2.6l-0.5,0.5l-0.1-0.5l0.8-1.9l0.2-1l1.4-3.6l1.4-3.2l0.8-1.7
						l1.5-2.7l1.1-2.3l1.5-3.4l0.2-0.7l-1.4,1.8l0.1-0.2l0.9-1.8l0.4-1l-0.5,0.5l0.1-0.4l-0.2,0.2l-0.4,0.6l-0.7,1.2l-0.9,1.6
						l-0.4,0.8l-0.3,0.6l0.4-0.7l-0.3,0.5l0,0l7.2-12.2l7.8-11.8l8.4-11.3l9-10.9l9.6-10.4l10.1-9.9l10.6-9.3l11.1-8.8l7.4-5.4
						L165.1,94.6z M233.3,63.4l2.1-0.7l1.6-0.5l0.4-0.1l0.1,0.1l-1.9,0.8l-1.1,0.4l-0.2-0.1h-0.2L233.3,63.4L233.3,63.4z
						 M230.6,63.8l2.9-0.9l1.9-0.6l1.3-0.3l-3,0.9l-2.7,0.9l3.7-1.1l2.2-0.5l-4.2,1.4l-2.9,0.9l1.8-0.4l0,0l2-0.6l-1.5,0.7l-1.6,0.7
						l-1.8,0.6l1.7-0.3l-2.2,1l-0.4,0.6l-1.1,0.6l-3.2,1.5l-3.1,0.8l-1.1,1.1l0.2,0.4l-2.5,1.7l1.1,0.1l-3,1.3l-6,2.3l0.6-0.9
						l2.5-1.8l-1.4,0.2l-2.3,1.1l-1.6,1.2l-0.7,0.9l-0.7,0.5l-3.2,2.1l-3,1.5l-0.1-0.6l1.1-1.7l-2.3,1.8l-1.5,1.3l-1.1,0.8l-0.8-0.9
						l0.7-1.2l1.1-1l1.4-0.6l1.1-1l1.2-1l-1.2,0.6l-2.1,0.3l1.2-0.7l3.3-1.4h0.9l1.6-0.3l1.2-0.7l2.3-1l4.7-1.8l1.7-0.8l1.2-0.6
						l1.3-0.8l0.6-0.6l1.3-0.4l2.2-1l-0.1-0.1l1.2-0.6l-1.4,0.5l-1,0.2l0.2-0.4l1-0.5l0.6-0.3l1.5-0.5l2.1-0.7l0,0l1.6-0.6l0,0
						L230.6,63.8z M372.6,62.1l-1.5-1.1l-1.9-0.6l-0.6-0.6l-0.6-0.7l0.9-0.2l-0.7-0.4l0.2-0.2l2,0.4l1.1,0.4l0.4,0.6l0.3,0.6
						l1.8,1.2l2.7,1.3l2.4,1.3l3.2,1.2l4.7,1.3l-0.2,0.1l-3.4-0.2l-1.8-0.7l-2.6-0.4l-2-0.8l0.1-0.3l-2-0.8l-1.5-1.2L372.6,62.1z
						 M246,59.5h-0.2l-1.1,0.3h-0.2l-0.2,0.1l1.1-0.3L246,59.5l-0.1,0.1l-1.5,0.4l-1.8,0.5l-1.3,0.3l-1.3,0.3l0.4-0.2l-1.1,0.2h-0.2
						l0,0l0.5-0.2h0.1l0,0L246,59.5z M471.4,153.9l2.4,2.7l2.7,0.7l2.8,1.9l3.7,0.7l3-1l-0.4-0.9l-2-2.6l-2.2-3.9l-2.5-1.3l-1-2.5
						l-1.6-0.2l-1.6-3l2.6,0.8l1.1-1.1l-3-2.2l-2-2l-1.1,0.9l1.6,2.5l-2.2-2.3l-0.7-0.8l-0.5-1.4l-1.3-1.2l-3.3-1.2l-3.2-3l-1.8-0.9
						l-0.9-1.2l2.3,0.4l-1.8-2.5l1.3-0.5l2.2,0.5l-2.3-3.2l-2-2l-1.9,0.1l-2.4-0.8l-1.2,1.4l-1.4,0.7l0.6,1.9l-1.7,0.5l0.2,3.4
						l4.4,3.2l1.5,2.3l5.3,4.1l2.5,1.8l2.9,2.6l1.2,0.1l1.3,1l-1.7,0.3l1.4,2.8l0.4,1.2l-0.4,0.9L471.4,153.9z M562.2,220.3
						l-0.1-0.3l0.3,0.8L562.2,220.3l-0.2-0.4l0.7,1.7l-0.1-0.1l0.1,0.9l1.3,3.3l0.8,2.6l0.6,3l1.3,5.3l0.5,2.8l0.3,2.9l0.6,2.1v1.1
						l-0.2,1.6l-0.3,0.2l0.7,3.5l1.7,5.9l0.9,3.8l0.6,4.4l1.5,7.8l-0.4,0.3l0.2,3.5l0.5,1.6l-0.6,1.3l0.1,3.2l-0.2,1.3l-1.6-4.4
						l-1.6-6.5l-1.3-4.7l-0.8-2.2l-1.6-4.4l-1.6-5.8l-0.9-2.8l-2.8-6.3l-3.1-8.7l-2.2-5.8l-1.8-5.3l-1.7-4.1l-1.1,2.6l-1.2-0.5
						l-3.9-5.4l0.1-1.6l-1.1-1.6l-3.1-3.6l-1.6-1.1l-1.8-3.1l-2.7-3.2l-2.9,0.8l-3,0.1l-2.6,0.5l-4.5-1.2l-2.8-1l-2.7-0.5l-3.1-5.2
						l-1.4-0.8l-1.5,0.8l-1.6,2l-3.6-1.4l-3.9-3.2l-3-1.1l-3.3-4l-4.4-5.5l-1.1,0.7l-2.2-1.4l-0.4,1.6l-1.7-0.2l1.4,1.8l0.1,1l2.1,3
						l2.5,3.6l1.8,1l1.1,1.5l2.4,1.7l0.9,1.7l0.2,1.4l0.9,1.5l1.2,1.2l0.9,1.4l0.7,1l-1.3-3.1l-0.2-2.2l0.6-0.5l1.3,1.3l1,2.5
						l0.3,2.5l1.1,1.7l0.4-0.2l0.5,1.2l1.8-0.7l2.2,0.2l1.6,0.2l0.6-2.9l0.7-2.8l0.5-2.6l0.1-1.4l0.4,0.4l0.5,1.8v0.8l1.7,3.4
						l2.1,2.9l1.9,1.5l1.9,0.5l1.7,0.8l1.9,2.5l1.2,1.5l1,0.5l0.3,0.9l0.1,2.6v1.3l-0.5,1.4l0.2,3l-1.2-0.2l-0.1,1l0.3,2.2l1.2,3
						l-0.1,0.6h-1.1l-1,1.7l0.3,2.2l-0.3,0.9h-1.6l-0.6,1.1l0.5,1.8l-1,1.3l-1.5-0.4l-1.5,1.5l-1.1,0.3l-1.7,1.1l-0.1,2l0.2,1.6
						l-2.3,2l-4.3,2l-1.9,3.3l-1.4,0.2l-0.9-0.3l-1.4,1.9l-1.9,0.9l-2.6,0.2l-0.8,0.2l-0.5,1.2l-0.6,0.3L498,262l-1.7-0.1l-1,0.6
						l-2.3-0.2l-1.3-2.7l-0.3-2.5l-0.8-1.4l-1.2-3.4l-1.3-1.9l0.6-0.2l-0.6-2.1l0.2-0.8l-0.5-2l-0.9-1.9l-1.2-1.4l-0.6-1.8l-2.1-1.6
						l-2.7-3.8l-1.7-3.6l-3.1-3l-1.6-0.7l-3.2-4.2l-1.3-3.1l-0.4-2.6l-3.2-4.8l-2.1-1.7l-2.1-0.9l-1.9-2.4v-1l-1.6-2.2l-1.2-0.9
						l-2.3-3.1l-3.1-3.4l-2.6-2.9h-1.7l-0.1-2.3l-0.3-1.4l-0.2-1.6l-0.3-0.6L446,190l0.2,3.1l-0.3,2.2l-0.5,0.8l-1.6-1.4l-2-1.9
						l-4.3-5.9l-0.3,0.4l2.8,4.4l3.4,4.2l4.5,6.5l1.9,2.3l1.8,2.5l4.4,4.7l-0.6,0.8l0.8,2.8l5.1,3.9l0.7,0.9l2.2,4.3l-0.6,0.8
						l1.5,4.5l2.5,5.3l1.5,1.1l2.2,1.7l3,5.2l1.8,4.2l2.3,2.2l5.5,4.3l2.4,2.5l2.3,2.6l1.2,1.6l1.9,1.4l1.1,1.4l0.2,1.9l-1.8,1.2
						l1.6,1.2l1.2,0.8l0.9,1.9l1.8,1.9h1.7l2.9-1.2l3.4-0.5l2.6-1.5l1.4-0.2l1-0.8l1.7-0.2l1-0.1l1.3-0.7l1.4-0.4l1.2-1.6h1l0.3,1.2
						l0.1,2.7l0.4,2.4l-0.4,1.7l-0.1,5.1l-0.9,5.2l-1.3,5.9l-2.1,6.9l-2.3,5.2l-3.5,6.4l-3.2,3.8l-5,4.7l-3,3.6l-3.9,5.8l-0.8,2.5
						l-0.8,1.1l-2.6,1.9l-0.9,1.9l-1.3,0.3l-0.6,3.4l-1.2,1.9l-0.8,3.1l-1.6,1.5l-1.9,5.8v2.6l2.2,1.7v1.3l-1.3,2.8l0.1,1.4
						l-0.5,2.3l1,2.9l0.9,4.5l1.2,1.1l0.4,2.1l-0.7,4.6l-0.2,4.1l-1,7.1l0.2,2.3l-1.6,3.2l-2,3.2l-2.8,2.8l-3.5,1.7l-4.4,2.2
						l-5.1,4.8l-1.5,0.8l-3.3,3.2l-1.7,1l-1,3.1l1.1,3.3l0.1,2.6l-0.3,1.3l0.7-0.2l-1.1,4.2l-1,2l0.6,0.7l-1,1.9l-1.8,1.5l-3.3,1.5
						l-4.9,2.3l-2,1.6l-0.1,1.8l0.8,0.3l-1,2.2l-1.7,3l-1.4,3.5l-1.4,1.9l-3,2.1l-0.8,0.6l-2.1,2.1l-1.6,2.1l-2.9,2.8l-5.2,4.2
						l-3.2,2.4l-3.2,1.8l-4.1,1.6l-1.8,0.2l-0.7,1.1l-2-0.6l-2,0.7l-3.7-0.7l-2.3,0.5l-1.4-0.2l-4.2,1.5l-3.3,0.6l-2.6,1.5l-1.7,0.1
						l-1.1-1.4l-1.3-0.1l-1.2-1.8l0.1,0.4l-0.3-1.1l0.5-2.3l-0.7-2.6l1.4-0.7l0.6-3.1l-1.9-3.8l-1.4-3.4l-2-5.3l-2.4-3.1l-1.2-3.1
						l-0.3-4.1l-0.7-3.1l-0.6-6.6l0.4-5.2l-0.2-2.4l-1.5-1.8l-2-3.6l-1.7-5.3l-0.7-2.8l-3.3-4.3l-0.1-3.4l-0.1-2.8l0.9-4l1.7-4.2
						l0.4-2l1.7-4.1l1.1-1.9l2.7-3l1.6-2.1l0.7-3.4v-2.6l-1.4-1.7l-1-2.8l-1-2.8l0.4-1l1.4-1.8l-1.2-4.5l-0.9-3.1L369,351l0.5-0.9
						l-0.6-1.4l-1.3-3.5l-3.6-4.9l-4.8-4.8l-3-3.8l-2.8-4.9l0.2-1.5l1-1.5l1.2-3.4l0.8-3.6l-0.8-0.7l1.6-5.3l0.6-3.7l-1.9-3.1
						l-2.2-0.8l-1-2.1l-1.2-0.7l0.2-1.4l-4.8,1.7l-1.8-0.3l-1.7,1.1l-3.9-0.1l-2.5-3l-1.5-3.4l-3.2-3.1L329,292h-4.2l-3.9,0.5
						l-3.7,1l-7.4,2.8l-2.5,1.6l-4.2,1.4l-4.2-1.4l-2,0.1l-3.4-0.9h-3l-5.6,0.8l-3.2,1.4l-4.5,1.8l-1-0.2L275,301l-4.8-2.3l-4.1-3.5
						l-3.9-2.6l-2.9-3l-1.3-0.4l-3.2-1.9l-2.2-2.5l-0.8-1.7l-0.4-3.4l-2-2.8l-1.5-1.8l-1.3-0.6l-0.9-0.9l-0.6-2l-0.6-1.1l-1.2-0.7
						l-2.3-1.9l-1.7-0.3l-1-1.2l0.2-0.7l-1.4-1l-0.3-0.9l-0.4-3.6l0.6-2.1l-1.5-3.5l-2.1-1.6l1.9-0.8l2.4-3.2l1.1-2.4l-0.1-2.4
						l1.4-2.2l0.8-4.2v-4.4l-0.2-2.2l0.5-2.2l-0.9-2.1l-1.9-1.9l0.4-1.9l0.4-2l1.8-1.2l1.6-2.3l-0.1-1.5l1.9-3l2.6-2.8l1.4-0.7
						l1.5-2.5l0.3-2.3l1.8-2.6l3-1.5l3.2-4.3l2.2-1.7l3.9-0.4l3.5-2.8l2.2-1.1l3.7-3.4l-0.5-5l1.8-3.5l0.8-2.1l2.8-2.7l4.1-1.8
						l3.1-1.6l2.8-4l1.4-2.3h2.7l2.2,1.7l3.6-0.3l4,0.8l1.7,0.1l3.8-2.1l4.1-0.7l2.3-1.6l3.7-1.2l6.4-0.7l6.2-0.3l1.9,0.5l3.4-1.5h4
						l1.6,0.9l2.5-0.3l4-1.5l2.6,0.4l0.1,1.9l3-1.4l0.4,0.7l-1.6,1.8l0.2,1.8l1.3,0.9v3.3l-2.4,2l1.1,2.2l1.9,0.1l1.2,1.8l1.6,0.6
						l4.6,1.4l1.6-0.4l3.3,0.6l5.4,1.8l2.4,3.6l3.6,0.7l5.7,1.7l4.5,2l1.6-1l1.4-1.9l-1.4-3l0.8-1.9l2.3-1.9l2.4-0.6l5.1,0.8
						l1.8,1.8h1.3l1.4,0.7l3.8,0.4l1.1,1.4l4.8-0.1l3.8,1.1l3.9,1.2l1.8,0.7l2.3-1.3l1-1.2l3-0.3l2.6,0.5l1.5,2l0.4-1.3l3,0.9
						l2.7,0.2l1.2-1l0.5-1.3l-0.3-0.2l0.3-1.9l-0.5-3l0.1-1l0.1-0.1l-0.1-3.2l0.5-2.7l-0.5-0.3l-1.5-3l0.1-1.5l-2-1.8l0.6-1.4
						l-1.8,0.3l-2.9-0.8l-1.3,2.1l-4.7,0.5l-3.3-2l-3.5-0.1l-0.1,1.6l-2.2,0.5l-3.8-2l-3.7,0.1l-3.2-3.7l-3.2-2.1l0.6-2.9l-2.8-1.8
						l2.3-3.4l4.8-0.1l0.2-2.7l6,0.4l2.5-2.3l2.9-1l4.8-0.1l6.3,2.5l4.8,1.4l2.9-0.6l2.5,0.3l2.1-1.8l-0.5-1.5l-2.1-2.3l-2.3-1.3
						l-1.7-0.4l-1.6-1l-5.1-2.9l-3.8-1.3l-3.5-2l1.6-0.5l0.4-2.7l-2.2-1.3l2.8-1.3l-0.6-0.7l-1.9,0.5l-1.9,0.2l-1,1l-2.3,0.2
						l-1.5,1.2l1.3,2.1l1.8,0.8l2.6-0.2l0.2,1.1l-2.7,0.6l-2.6,1.9l-2-0.7l-0.3-1.6l-3.5-1l0.1-0.7l2-1.1l-1.2-0.7l-4.7-0.8
						l-0.9-1.2l-2.3,0.4l-0.2,1.8l-0.9,2.4l0.4,0.9l-1,0.7l-1.1-0.3l1.2,4.1l-1,1.4v2.4l1.9,2l0.9,1.3l3.3,1.1l-0.2,0.9l-3.6,0.2
						l-0.9,1.1l-1.9,1.9l-1.7-1.7l-0.3-0.7l-2-0.1l-1.7-0.3l-3.7,0.9l3,2.1l-1.5,0.6h-1.8l-2.4-1.9l-0.3,0.8l1.4,2.1l2.2,1.7
						l-0.9,0.9l2.3,1.7l2,1.1l0.7,2.1l-3.4-1l1.6,1.9l-2.1,0.4l2.3,3.3l-2.4,0.1l-3.4-1.6l-2.1-3l-1.3-2.5l-1.8-1.7l-2.3-2.1l-0.5-1
						l-0.7-0.3l-0.2-0.8l-2.2-1.2l-0.9-1.7l-0.5-2.4l0.2-1.1l-0.6-0.6l-0.8-0.3l-1.3-1.1l-1.6-0.7l-3.5-1.3l-2.2-1.2l-3.3-1
						l-3.4-2.5l0.6-0.2l-1.9-1.5l-0.4-1.1l-2.1-0.5l-0.7,1.4l-1.2-1.1l-0.3-1.1l0.1-0.1l0.7-0.3l-2.6-0.5l-2.4,1.2l0.5,1.6l-0.1,1
						l1.4,1.7l3.5,1.7l2.3,2.8l4.4,2.8h2.7l1,0.8l-0.8,0.7l3.4,1.3l2.7,1.1l3.4,1.9l0.5,0.6l-0.3,1.3l-2.4-1.7l-3.1-0.6l-0.9,2.3
						l3.2,1.3l0.1,1.9l-1.3,0.3l-1.2,3.1l-1.5,0.3l-0.2-1.1l0.3-2l0.6-0.8l-1.9-2.1l-1.4-1.8l-1.6-0.5l-1.3-1.6l-2.4-0.6l-1.8-1.5
						l-2.6-0.2l-2.9-1.6l-3.6-2.3l-2.7-2l-1.5-3.4l-1.8-0.4l-2.9-1.1l-1.4,0.4l-1.7,1.6l-1.4,0.2l-2.8,2l-6.8-0.9l-4.9,1.1l-0.4,2.1
						l0.3,2l-3.2,2.3l-4.6,0.8l-0.2,1.2l-2.3,2l-1.3,2.9l1.4,2.1l-2.1,1.6l-0.8,2.4l-2.8,0.8l-2.8,2.8l-4.8,0.1l-3.7-0.1l-2.4,1.4
						l-1.7,1.6l-1.8-0.3l-1.4-1.3l-0.9-2.2l-3.4-0.5l-1.6,0.9l-1.8-0.5l-2.1,0.4l1-2.9l-0.1-2.3l-1.5-0.3l-0.7-1.4l0.6-2.4l1.6-1.3
						l0.4-1.4l1.1-2.2l0.1-1.5l-0.5-1.3v-1.2l0.5-2.5l-1.1-1.5l5.1-2.5l4.1,0.6h4.5l3.6,0.6l2.8-0.1l5.5,0.1l1.8-2l0.8-6.7l-3.2-3.4
						l-2.3-1.6l-4.7-1.2l-0.1-2.3l4.1-0.7l5.2,0.8l-0.9-3.5l2.8,1.3l7.1-2.4l0.8-2.5l2.5-0.6l2.4-0.6l1.4-0.8l2.1-4.2l3.7-1.2
						l2.3,0.1l0.5-0.6l2.3-0.2l0.6,0.6l1.6-1.4l-0.8-1l-0.5-1.6l-1.4-1.5l-0.6-2.7l0.3-0.7l0.6-0.8l2.1-0.1l0.7-0.7l1.8-0.7l0.3,1.3
						l-0.5,0.8l0.6,0.7l1.5,0.4l-0.4,1l-0.8-0.3l-1.4,1.9l1,1.3l0.4,1.1l2.9,0.6l0.2,0.9l2.7-0.5l1.2-0.7l3.4,1.1l1.5,0.8l1.6-0.8
						l3.6-1.3l2.9-0.9l2.8,0.5l0.5,0.6h2.5v-1.2l3-0.9l-1.7-2.3l-1-2l0.2-1.2l1.7-0.9l3,1.9h1.8l-0.8-2l-0.7-1.5l-0.6,0.3l-2-0.8
						l-1.1-1.4l2.3-0.7l2.5-0.3l2.6,0.4h2.2l1.2-1.3l-3.1-1.1l-3.6,0.2l-3.1,0.8l-3.1,0.5l-2.1-1.3l-2.6-0.8l-1-2.2l-2.4-2l0.1-1.3
						l0.8-1.3l2.4-2.2l0.9-0.4l-1-0.9l-3.3-0.9l-2.5,0.6l-0.7,1.3l1.2,1.3l-1.9,1.7l-2.7,1.8l0.2,3.1l2.4,1.6l2.8,1.3l-0.6,2.7
						l-2.1,0.6l1,4.2l-0.3,2.4l-3.2-0.2l-0.7,2.1l-3,0.1l-1.6-2.5l-3-2.9l-3-3.5l-2.1-1.5l-4,2.8l-3.2,0.6l-3.6-1.2l-1.3-2.6
						l-1.6-5.3l1.8-1.4l5.1-1.8l3.3-2.2l2.4-2.7l2.3-3.6l2-1.3l2.7-2.1l2.7-0.7l2.5,0.1l0.7-1.3l2.6,0.1l2-0.3l5.8,1.1l-1.2,0.4
						l2.9,1l0.6-0.6l3.8,1l4.3,0.4l8.2,2l2.4,0.8l2,1.2l-0.1,1l-1.7,0.5l-8.7-1.4l-0.9,0.2l4.3,1.4l3.8,2.9l2.9,0.6l2,0.6l-1.1-1
						l-2.1-0.9l0.1-0.7l5.4,1.2l0.7-0.5l-3.1-1.5l0.6-1.9l1.4,0.1l2.3,0.6l-1.3-1.3l-2.9-1.1l-1.1-1.1l-2.9-1.1l4.5,0.6l2.5,1
						l-1.2,0.2l1.7,1l2.1,0.6l1.3-0.4l-1.7-1.2l0.8-0.9l0.7-1.5l0.9,0.1l1.2,1.1l1.7,0.2l-0.5-0.6l1.7-0.1l-0.2-0.7l3.3,1.1
						l-1.6-1.1l-3.1-1l-0.9-0.6l3.5,0.5l2.2,0.5l7.1,2l-1.7-0.9l-2.8-0.9l-0.9-0.4l-1.2-0.2l-1.7-0.8l-3.5-1.2l-1.3-0.5l-2.7-1.3
						l-3.5-1.3l-0.5-0.3l2.3,0.4l2.5,0.8l3,1.2l1.6,0.5l3.1,1.1l5.7,2.2l3.1,1l2.7,1.2l4.7,2.6l1.3,0.3l-1.3-0.7l-0.5-0.5l-1.9-0.9
						l-1.6-0.9l-2.6-1L405,69l-0.8-0.1l-2.5-0.9l-3.9-1.6l-4-1.2l-2.2-1l-3.1-1v-0.1l2.6,0.8l4.1,1.4l1.2,0.3l-3.3-1.1l-1.2-0.6
						l0.4-0.1l3,0.8l-3.9-1.2l-4.8-1.5l-0.5-0.3l0.6,0.1l-0.4-0.2l-2.4-0.7L381,60h-0.1l-1.8-0.2l0,0l13.6,3.9l13.4,4.6l13.1,5.3
						l12.8,6l12.5,6.6l12.1,7.3l11.7,7.9l11.3,8.5l10.8,9.1l10.4,9.6l9.8,10.2l9.3,10.7l8.7,11.1l8.1,11.6l7.5,12l6.9,12.4l5.8,11.8
						L562.2,220.3z M335.6,57.3l-1.3,0.4l-2-0.2l0.2-0.3l-1.2-0.3l1.5-0.2l1,0.4L335.6,57.3z M324.4,55.7l-0.1-0.3h1.1l1.5,0.3
						l3.9,0.6l-1.5,0.4l0.6,0.7l-0.6,0.2l0.7,0.9h-1.2l-3-0.7l0.5-0.4l-1.8-0.3l-2.6-0.8l-1.3-0.7l1.9-0.3l0.8,0.3L324.4,55.7
						L324.4,55.7z M333.3,55.4v0.5l-2,0.1l-2.7-0.2l-0.6-0.2h-1.2l-1.5-0.4l1.9-0.2l1.5,0.2l0.2-0.2l2.3,0.2L333.3,55.4z
						 M342.9,54.9l0.4-0.1h0.7l1,0.2l-0.4-0.2l-0.2-0.1l1.6,0.2l0.3,0.1l-0.2,0.1l-0.1,0.1l0.5,0.1l-0.1,0.1l-1.4-0.2l-0.8-0.3
						H342.9z M267.6,54.9l-0.3,0.1l-0.9,0.2l-3,0.5L262,56l-1.5,0.3L257,57h-0.2l0,0L267.6,54.9z M274.6,53.9h0.2l0.8-0.1l1.8-0.2
						h-0.2l-1.3,0.2l2.6-0.3l0.9-0.1l0.7-0.1h0.6l-0.4,0.1l1.2-0.1h0.1h0.1h0.3v0.1l-0.7,0.1l-1.1,0.2l-2.5,0.3l-1.6,0.1l-1.2,0.1
						h0.6l-3.3,0.4l-1.6,0.2l-4.1,0.7l-1.2,0.2l-1,0.2l-1.1,0.1l-0.3,0.1l-1,0.2l-2,0.4l-1.7,0.3l-1.6,0.3l-1.9,0.4L253,58l-0.9,0.2
						h0.5l-1.1,0.2l-3.3,0.7l0.9-0.3l-1,0.2l0.5-0.1l0.2-0.1l2.1-0.5l1.1-0.2l3.3-0.7l0.4-0.1l-1.8,0.4l2.8-0.6l0.8-0.2l1.9-0.4
						l1.2-0.2l1.6-0.3l1.7-0.3l2.3-0.4l0,0l-0.4,0.1l1.8-0.3L268,55h-0.7l1.6-0.3l1.4-0.2l0,0L274.6,53.9z M286.5,53.5l3.4-0.4h1.3
						l1.7-0.2h1.7l3.3,0.1l1.7,0.4l-1.7,0.2h-2.3l-3.2,0.2l-0.1,0.1l2.3-0.1l1.1,0.2l1.8-0.2l-0.1,0.2l-1.7,0.4l2.3-0.3l3.7-0.3
						l1.7,0.1l-0.1,0.3l-3.7,0.5l-0.7,0.2l-2.7,0.1h1.7l-2,0.6l-1.7,0.6l-1.9,1.4l0.2,0.7h-1.6l-2.2,0.3l1.1,0.6l-1.1,1l-1.4,0.1
						l0.2,1.1l-2.7,0.1l0.7,0.5l-1,0.5l-2,0.2h-1.8l0.4,0.9l-0.8,0.6l-1.9-0.6l-1.2,0.4l1.3,0.3l0.7,0.9l-0.8,1.2l-2.9,0.3l-0.4-0.6
						l-0.6-0.8l-0.8,1l-2.7,0.8l3.7,0.1l2,0.1l-5.4,1.5l-5.7,1.3l-5.2,0.6h-1.7l-2.5,0.7l-4.6,1.9l-5.1,1.3l-1.2,0.1l-2.7,0.5
						l-2.8,0.5l-3,1.2l-1.9,1.4l-2.6,1.3l-4.8,1.7l-1.6,1.7l-3,1.9l-3.6,2.2l-2.5,0.1v-1.9h-3.1L214,84l2.1-2.2l1.7-2.7l1.5-1.3
						l2.9-1.8l1.5-1.8l3-1.4l0.6-0.7l5.1-2.1l2.8-0.6l1.9-0.7l2.9-1.3l-2.4,0.6l-1,0.2l-1.4,0.2v-0.5l2.4-1.1l2.3-0.8h0.8l1.1,0.4
						l0.6-1l0.5-0.5l-1.4,0.2l0.2-0.4l4.4-1.4l0.8-0.5l2-1l3.2-1.4l0.6-0.5l1.6-0.5l0.8-0.7l-0.8-0.1h-1.4l-1.6,0.6l0.8-0.3l2.1-0.7
						l2.3-0.3l1-0.1l-0.5-0.3l1.1-0.4l1.7-0.4l3.3-0.5l3.3-0.4l1.7-0.3l0.7-0.3l2-0.3l4.1-0.5l0.9-0.1l1.7-0.3l1.8-0.2l1.7-0.1h1.2
						l-0.9,0.3l3.1-0.4l-0.3,0.2h0.4l-0.1,0.2l0.7-0.4L286.5,53.5z"/>
				</g>
				<g>
					<path class="st2" d="M123.1,133.8l-1.2,1.3l-1.6,1.1l-0.4-0.2l-0.4-0.1l-0.7,0.4l-0.5,0.2l0.1-0.4l1.3-1.2l0.6-0.4l0.9-0.5
						l1-0.5l-0.3,0.7l1-0.8l0.7-0.4l-0.1,0.2L123.1,133.8z M112.8,140.4l0.1,0.2l1.3-1.1l1.1-1l0.3-0.1v0.3l0.6-0.5l0.7-0.4l0.9-0.4
						l-0.3,0.3l-2.4,2.1l-1.3,1l-0.7,0.5l-1.2,0.9l-0.8,0.5l-0.1-0.2l0.4-0.8L112.8,140.4z M130.7,121l0.5-0.4l0,0l1.4-1.2l0.6-0.5
						l0.9-0.8l0.5-0.4l-0.6,0.6v0.1l-0.5,0.4l-2,1.8l-0.2,0.5l-1,0.9l-0.9,0.9l-1.3,1.2l-0.3,0.4l-1.2,1.1v-0.1l0.9-0.9l-0.5,0.3
						l-0.9,0.7l1.2-1.2l0.4-0.4l1.8-1.7l-1.2,1l-1.2,1l-0.4,0.5l0,0L130.7,121z M463.1,326.3l-2,2.1l-1.3,2.1l1.5,1.6l-2.3,1.2
						l-0.4-0.5l-2.3,0.3l-1.9,1l-1-1.8l0.8-3.3l0.2-2.8l-0.3-1.9l1.9-2.7l2.4-0.7l1.7-1.2l2.1,0.9l1.1,2.1L463.1,326.3z M376.4,84.6
						l0.8-1.2l4.7,1.5l1.9,1.1l0.1,0.4l-0.5-0.1l0.7,0.8l-1.9-0.1l0.3,0.8h-0.9l-0.4-0.6l-2.2-1.1l-0.5-0.5L376.4,84.6z
						 M493.4,124.7l0.5,0.3l0.7,0.9l-0.1,0.2l-1.2-0.4l-1.6-0.4l-0.7-0.5l0.6,0.6l-0.2,0.2l0.8,0.9l-0.1,0.4l3.1,3.3l-2.6-2
						l-0.6-0.7l-0.4-0.7l-0.6-0.5l0.2-0.1l-0.7-0.8l-0.5-1.2l1.1,0.1l1.1,0.4h0.5l0.9,0.6l-0.5-0.6L493.4,124.7z M448.5,361.6
						l-1.3-0.3l0.4-1.8l-1.1-1.3l-0.3-2.5l-2.3-2.5l-1.3-3.4l0.8-2l-0.9-2.6l1-7.5l1.3,4.6l-0.2,2.2l0.7,0.8l-0.2,1.9l0.6,1.9
						l-1,1.8l3,3.2l0.3,2.9l1.9,5.5l-0.7,0.3L448.5,361.6z M462.9,387.9l-0.2,0.5l-1.1-1.7l-0.8,1.2l-0.4-1l0.2-1.7l-0.6-1.3l0.3-2
						l-0.7-3.4l1.4-2.6l0.3-5.6l-1.1-3l0.6-1.4l1.7,2.5l-0.1,4.8l1,1.7l-1.5,4.5l-0.1,5.9l0.7,0.2L462.9,387.9z M473.5,128.7l-1-1.3
						l0.6-0.1l1.2,0.8l-1.7-2l0.5,0.2l1,0.5l0.6,0.6v0.3l0.7,0.9l0.3-0.2l2.5,2.6l1.1,1.8l-0.2,0.3l-1.8-0.7l-1.3-2.1l-0.6-0.7
						l-1.2-0.6l0.7,0.9l1,1.2l0.8,1.8l-1.1-0.9l-1.2-1.4L473.5,128.7z M345.2,89.4l0.1,0.3v0.4l-1.2,0.7l-1,0.2h-0.8l-0.1-0.7
						l-0.2-0.2l0.4-0.2l0.7-0.1l0.3-0.3l0.7-0.5L345.2,89.4z M74,199.6l-0.1-0.2l0.5-1l0.1,0.2L74,199.6z M48,269.1l-0.2-0.1
						l0.1-1.6l0.3-1.8l0.1-0.2l-0.2,1.9L48,269.1z M471.3,265.8l-0.5-0.8l0.7-0.9l1.1,0.3l0.1,1.6l-0.5,0.5L471.3,265.8z M69,396.3
						l-0.8-0.9l-0.6-0.8l0.1-0.3l-0.2-0.6l-0.2-0.9l0.5,0.3l1.5,2.1l0.1,0.1l0.9,2l-0.1,0.7l-0.1,0.2l-0.2-0.3l-0.2-0.2l-0.3-0.8
						L69,396.3z M385.1,82.3l2,1.2l1.7,1l0.1,0.6l-1.2,0.2l-1.3-0.4h0.6h0.8l-1.5-0.7l-0.9-0.4l-1.4-0.7l-1.2-0.8l-0.1-0.2l0.8,0.2
						l-0.6-0.5l0.8,0.4l0.8,0.4l0.1-0.1l0.3-0.2l-1.1-0.5l-1.6-0.6h0.7l0.6,0.2L385.1,82.3z M116,137.2l1.3-1.4l1.8-2l0.2-0.4
						l-1.7,1.5v-0.1l0.8-0.9l1.5-1.3l1.5-1.5l1.5-1.5l1-1.3l0.4-0.5l0.5-0.5v0.1l0.6-0.3l1.2-1.4l0.5-0.5l-0.7,0.8l-0.2,0.4h0.3v0.4
						l-0.2,0.6l-0.8,1l-2.1,2.5l-1.3,1.1v-0.5l1.8-2l-2,2.1l-2.1,1.9l-1.5,1.6l-1,1L116,137.2z M124.8,127.3l-0.5,0.5L123,129
						l-0.4,0.4l-1.7,1.6l1.1-1.1l-0.9,0.8l-1.2,1.1l-1.7,1.7l-1.4,1.4l-2,2.2l-2.1,2.2l-1.6,1.7l-0.5,0.5l-0.3,0.4h-0.1l0.2-0.2
						l1.7-1.9l0.8-0.9l0.8-0.9l1.5-1.7l1.8-1.9l2.3-2.4l2.7-2.6l0,0l-2.3,2.2l0.3-0.4l1.2-1.2l2.3-2.1l0.4-0.3l0.9-0.6L124.8,127.3z
						"/>
				</g>
				<g>
					<path class="st4" d="M294.6,103.2l0.2,2l-2.5,2.6l-5.4,1.7l-4.1-0.4l3-3l-0.9-2.9l4.2-2.1l2.3-1.3l2.2-0.1l2.7,1.7L294.6,103.2
						 M239.2,61.3l0.5-0.2h0.1 M246,59.5h-0.2l-1.1,0.3h-0.2l-0.2,0.1l1.1-0.3L246,59.5l-0.1,0.1l-1.5,0.4l-1.8,0.5l-1.3,0.3
						l-1.3,0.3l0.4-0.2l-1.1,0.2h-0.2 M77.4,235.6l0.8,0.4l0.1,0.8l-0.8,1.1h-1.4l-1.1,0.2l0.5-1.9l0.4-0.6H77.4 M61.8,235.6
						l0.5,0.4l0.2,1.1l-0.2,1.2l-0.7,0.1l-0.6,0.7l-0.3-0.7v-1.6l0.4-1l0.5-0.3L61.8,235.6 M65.9,215l0.4,0.3l0.5,0.1l0.1,1.5
						l-0.3,1.6l1-0.5l-0.1,1l-0.2,2.7l-0.1,2h0.3l0.3,0.9l-0.5,1.3l0.7,0.2l0.2,1.8l-0.5,1l-1,0.6l-0.8,0.2l-0.6-0.4l-1.6,0.5
						l1.5-2.5l0.1-1.2l-0.5-0.3l0.2-1.3l0.7-2.4l-0.5,0.2l-0.3-1.2l0.2-0.9l-0.6-0.6l0.1-0.9l0.7-1.1l-0.5-0.2l-1.3,2.3l-0.2,0.1
						l-0.5,1l-0.4,0.5v-0.4l0.8-1.3l0.7-1.6l0.4-1.2l0.6-0.9l0.6-0.5L65.9,215 M172.5,110.5l-2.8,1.9L166,115l2.1-1l0.5,0.7l-1.6,1
						l0.8,0.8l1.4-0.7l0.9,0.9l-2.6,2.2l1.7-0.5L168,120l-1.2,2l-3.2,2.8l-1,0.1l-0.7-0.6l2.7-2.6l-0.2-0.4l-4.6,2.8l-1-0.1l2.6-1.5
						l-1.1-0.7l-2,0.2l-3.1-0.1l0.6-0.9l2.1-1.1l0.1-0.8l3.2-1.8l6.5-4.9l2.8-1.7l2.5-1l0.6,0.2L172.5,110.5 M198.8,76.4l-1.2,0.7
						l-1,0.6l-1.9,1l0.5-0.1l-1.2,0.7l-1.6,0.6l0.5-0.5l1.7-0.9l-2.4,1.1l-2.5,1.1l2.4-1.3l-0.6,0.2l2.2-1L197,77l4-1.8l-0.2,0.1
						l-1.9,0.9l0.8-0.3L198.8,76.4 M231.5,64l2-0.6l-1.5,0.7l-1.6,0.7l-1.8,0.6l1.7-0.3l-2.2,1l-0.4,0.6l-1.1,0.6l-3.2,1.5l-3.1,0.8
						l-1.1,1.1l0.2,0.4l-2.5,1.7l1.1,0.1l-3,1.3l-6,2.3l0.6-0.9l2.5-1.8l-1.4,0.2l-2.3,1.1l-1.6,1.2l-0.7,0.9l-0.7,0.5l-3.2,2.1
						l-3,1.5l-0.1-0.6l1.1-1.7l-2.3,1.8l-1.5,1.3l-1.1,0.8l-0.8-0.9l0.7-1.2l1.1-1l1.4-0.6l1.1-1l1.2-1l-1.2,0.6l-2.1,0.3l1.2-0.7
						l3.3-1.4h0.9l1.6-0.3l1.2-0.7l2.3-1l4.7-1.8l1.7-0.8l1.2-0.6l1.3-0.8l0.6-0.6L218,69l2.2-1l-0.1-0.1l1.2-0.6l-1.4,0.5l-1,0.2
						l0.2-0.4l1-0.5l0.6-0.3l1.5-0.5l2.1-0.7l0,0l1.6-0.6 M230.6,63.8l2.9-0.9l1.9-0.6l1.3-0.3l-3,0.9l-2.7,0.9l3.7-1.1l2.2-0.5
						l-4.2,1.4l-2.9,0.9l1.8-0.4 M431.6,165l2.3,0.1l2.4-1.2l-1.5,1.7l0.7,1l-2.6,1.6l-1.8-0.5l-1.4-1.5l1.8-0.2L431.6,165
						 M409.4,165.3l-0.2,1.1l-4.9,0.3l-0.1-0.6l-4.5-0.8l0.2-1.7l2.3,1.3l2.7-0.2l2.6,0.3l0.2,0.6L409.4,165.3 M512.4,379.6l0.4,2
						l0.2,3.1l-0.6,5.4l0.3,2.1l-0.7,2.2l-0.8,1.3l-0.5-2.6l-0.8,1.3l-0.2,3.3l-0.7,2l-1.1,1.1l-1,3.8l-2.5,5.2l-3.1,6.1l-4.2,8.3
						l-3.1,6.1l-2.9,4.9l-2.8,1l-3.2,1.8l-1.3-1.1l-1.9-1.5l-0.2-2.3l0.9-3.8l-0.1-3.4l0.7-3.1l1.4-3.2l1.7-0.8l0.4-1.4l2.4-3.3
						l1-2.9l-0.2-2.1l0.1-2.8l0.7-4.1l1.6-2.5l1.1-2.9l1.7-0.2l1.9-0.9l1.4-0.8l1.4-0.1l2.3-2.6l3.1-2.8l1.3-2.3l-0.1-1.9l1.2,0.5
						l2.2-3.1l0.6-2.8l1.3-2.1L512.4,379.6 M269.8,585.4h0.3l0.3-0.2l1.8,0.2l2.3,0.4l2.2,0.6l1.4,0.4l1.6,0.4l0.1,0.2v0.2l-0.2,0.2
						l-0.4,0.1h-1.3l-1.8-0.2l-1.5-0.3v-0.2l-0.8-0.3l-1.2-0.4l-1.1-0.3l-0.8-0.3L269.8,585.4 M270,587.4h0.9l1.1,0.1l-1.4-0.3
						l-1.2-0.3l2.1,0.3l1.9,0.4l1.7,0.3l-1.3-0.1l-0.4,0.1l-1.8-0.3h-0.2L270,587.4 M228.5,577l-0.2-0.2l0.7,0.1l-2-0.8l-1.6-0.6
						l-3.3-1.3l-1.7-0.8l-0.1-0.2l1.8,0.6l1.7,0.6l2.1,0.7l2,0.7l2,0.7l1.9,0.7l1.5,0.6l1.4,0.6l-0.1,0.2l0.3,0.3h-0.7l-1.5-0.6
						l0.1,0.2l0.1,0.2l-1.5-0.4l-1.8-0.6L228.5,577 M576.7,286l0.5,4.8l-0.2,1.3l-0.5,1.1l-0.8-3.7l-1-6.7l-0.8-7.5l1,2.6l0.8,3.3
						L576.7,286 M342.7,144.6l1.6-1.2l2.5,2.6l0.2,4.8l-1.7-0.2l-1.3,1.2l-1.4-0.9l-0.8-4.4l-1-2L342.7,144.6 M342,138.5l2-1.4
						l1.1,3l-0.8,2.7l-1.7-0.7l-1.1-2.4L342,138.5 M344.1,97.2l1.2,1.3l-0.9,2.2l-3.2-1.5l-0.7-1.1L344.1,97.2 M301.5,91l2.9-0.2
						l-3,2.7l2.7-0.3h2.7l-0.8,2.1l-2.5,2.3l2.7,0.2l2.5,3.4l1.9,0.4l1.7,3.1l0.8,1.1l3.4,0.6l-0.2,1.8l-1.4,0.9l1.2,1.5l-2.6,1.5
						h-4l-5.2,0.8l-1.4-0.6l-2,1.4l-2.8-0.3l-2.2,1.1l-1.6-0.6l4.7-3.1l2.7-0.6l-4.6-0.5l-0.7-1.2l3.1-0.9l-1.4-1.5l0.7-1.8l4.2,0.3
						l0.5-1.6l-1.7-1.7l-3.3-0.5l-0.6-0.7l1.1-1.2l-0.8-0.7l-1.6,1.2l0.3-2.6l-1.1-1.3l1.5-2.7l2.2-2L301.5,91 M284.8,73.8l-1.2,1.2
						l1.4,1.3l-3.3,1.5l-6.5,1.4l-2,0.4l-2.4-0.3l-5-0.6l2.6-0.9l-3.3-1l3.6-0.4l0.4-0.6l-3.4-0.5l2.3-1.2l2.9-0.3l1.7,1.3l3.5-1
						l1.9,0.5l3.6-1L284.8,73.8 M51.4,280.6l0.5,0.2l1.3-3.3l0.6-0.5l0.2-1.5l0.9-3.9l1.1-2.2l0.8-0.1l0.3-1l0.9,0.4l1.5-2.3
						l0.8-1.1l1.2-2.2l0.4,0.2l0.2,1.2l-0.6,1.5l-0.3,1.1l-0.9,0.6l0.1,2.1l-0.4,2.4l-1.1,2.7l-0.1,3.8l0.7-0.3l0.9-3.3l-0.2-1.7
						l0.5-3.5l2.3-1.8l0.2-2.2l0.8-1.4l-0.1,3.2l1.1,0.1l0.6,2.6l-0.3,1.4l1.6,0.1l2.1-0.5l0.7,2.1l1.4,0.6l1.4-1.5l0.2-1.2l2.6-0.3
						l2.6-0.1l-2.1,1.4l0.4,2.2l1.7,0.3l1.4,2.3l-0.2,3.8l1.3-0.1l0.8,1.1l1.3,1.7l1.1,3l-0.2,2.4l0.9,0.1l1.1,2.3l0.8,1.7l3.1,0.9
						l0.3-0.8l2.2-0.3l2.8,1.3l0.9,0.5l2,1.1l2.7,4l0.4,1.9l1,0.2l0.5,2.2l1.4,8.2l1.5,0.8v3.2l-2.3,3.9l1,1.4l5.4,0.8l0.2,4.7
						l2.3-3.1l4.1,1.7l5.5,2.9l1.7,2.7l-0.5,2.6l4-1.4l6.8,2.5l5.3-0.2l5.5,3.9l5,5.2l2.9,1.4l3.3,0.3l1.5,1.4l1.6,6l0.9,2.8
						l-0.9,7.7l-1.6,3.1l-4.5,6.4l-1.7,5.2l-2.2,4l-0.9,0.1l-0.4,3.4l1.7,8.5l0.3,6.9l0.2,3l-0.8,1.8l0.7,5.9l-2,5.8l0.6,4.5
						l-2.1,1.9l-0.1,2.6H142l-4.4,1.7l-1.5,1.9l-2.9,1.3l-2.3,3.4l-0.9,4.2l0.6,3.1l1.4,2.3l1.2,4.2l0.2,2l-1,2.3l0.3,7.2l-0.7,3.2
						l-0.8,1.9l0.8,3.8l-0.4,2.2l0.3,2.5l-1.3,2.2l-2.1-0.8l-0.9,0.4l-3-1.7l-1.3,0.1l-2.5-2.2l1,2l4.6,3.3l1.3,2.6l2.3,1.6l1,1.8
						l1.2,4.8l-1.6,1.9l-3.1,0.8l-2.2-0.4l2,2.2l1.6,2.7l1.7,1.8v1.3l-1.3,0.4l-2.4-1.3l0.2,1l3,3.5l1.8,1.1v-1.1l1.9,1.8l-0.5,1.1
						l0.7,2.2l2.8,3.4l1.2,1.7h-1.3l0.6,1.7l2,2.5l3.5,2.3l1.8,0.6l2.4,2.9l0.4,1.8l3.1,3.6l0.3,1.2l1.1,1.4l3.9,3l2.8,1.7l-0.6-0.2
						l-1-0.1l0.4,0.7l0.4,1l3.2,2.6l-0.3,0.1l-2.2-0.9l-3.5-2l-3-1.6 M49.9,287.3l0.1,2.5l-0.3,4l-0.3,1.2l-0.1,4.3l-0.4,2.7
						l0.3,1.2l-0.5,2.5l-0.6,3l-0.5,0.3l-0.3,1.7v2.3l-0.3,0.4l0.1,1.4l-0.8,1.9l-0.5,1v1.9l-0.3,3.1l-0.1,3l-0.2,0.7l0.2,4.3
						l-0.1,1.3l0.5,2.1l0.2-2.2l0.3,2l-0.3,3.6l-0.4,3v3.3l0.8,4.5v2l0.7,1.9l1,3l0.7,3.4l0.6,2.1l2.4,9.3l2.7,8.5l2.2,6l0.2,1.3
						l1.4,3.8l1.6,2.9l3.5,4.9l4,4.5l0.7,1.9l2.3,2.6l2.4,6.3l2.7,7.2l3.3,9.7l3.4,8.9l3.6,8.2l1.8,5.1l2.8,5l1.5,3.4l3.8,6l3.2,5.9
						l3.2,6.2l3.6,6.2l-0.3,0.1l3.2,4.2l3.1,3.6l1.5,2.5l5.2,6.6l4.1,5l1,0.4l-3.5-4.3l1.5,0.9l5.9,7.1l-2.2-1.2l5.1,5.6l2.1,2.9
						l2.3,0.9l1.7,2.5l2.9,3l6,5.2l2.7,2l1.9,1.7l2.5,1.8 M154.5,536.5l1.4,0.6l3.6,1.9l2.4,1l-1.1-1.3l-2.1-1.9l-0.6-1.2l1.1,0.3
						l2,1.3l3.2,2.1l3.5,1.6l2.5,0.7l1.2,1.4l-0.8,0.1l-1.8-1l1,1.1l0.3,0.9l-0.6-0.1l-0.9-0.2L167,543l-1.5-0.4l-3.1-1.5l-2.8-1.5
						L154.5,536.5 M342.9,54.9l0.4-0.1h0.7l1,0.2l-0.4-0.2l-0.2-0.1l1.6,0.2l0.3,0.1l-0.2,0.1l-0.1,0.1l0.5,0.1l-0.1,0.1l-1.4-0.2
						l-0.8-0.3H342.9 M372.6,62.1l-1.5-1.1l-1.9-0.6l-0.6-0.6l-0.6-0.7l0.9-0.2l-0.7-0.4l0.2-0.2l2,0.4l1.1,0.4l0.4,0.6l0.3,0.6
						l1.8,1.2l2.7,1.3l2.4,1.3l3.2,1.2l4.7,1.3l-0.2,0.1l-3.4-0.2l-1.8-0.7l-2.6-0.4l-2-0.8l0.1-0.3l-2-0.8l-1.5-1.2L372.6,62.1
						 M333.3,55.4v0.5l-2,0.1l-2.7-0.2l-0.6-0.2h-1.2l-1.5-0.4l1.9-0.2l1.5,0.2l0.2-0.2l2.3,0.2L333.3,55.4 M335.6,57.3l-1.3,0.4
						l-2-0.2l0.2-0.3l-1.2-0.3l1.5-0.2l1,0.4L335.6,57.3 M324.4,55.7l-0.1-0.3h1.1l1.5,0.3l3.9,0.6l-1.5,0.4l0.6,0.7l-0.6,0.2
						l0.7,0.9h-1.2l-3-0.7l0.5-0.4l-1.8-0.3l-2.6-0.8l-1.3-0.7l1.9-0.3l0.8,0.3L324.4,55.7 M49.9,287.3l-0.1-1.3l0.1-2.5l0.4-1.3
						l-0.2-0.3l0.1-1.6l-0.3-1.3l-0.4,0.3l-0.4,1.7l-0.5,1.2l-0.2,0.2l-0.2,0.9v2.5l-0.3,0.6l-0.2,0.8l-0.4,0.1l0.2-2.8l-0.2,0.9
						l-0.2-0.3l0.1-1.8L47,283l-0.1-0.5h-0.1h-0.1l-0.2,1v-0.7l-0.1-1.1v-0.9l0.2-0.8l0.1-1v-1.2v-0.9l-0.1-0.6l0.2-1.3v-0.8
						l-0.2,1.3l-0.3,1.2l0.1-1.3V275l0.1-0.9l0.3-1.4l0.3-1.5v-0.3v-0.3l0.2-0.8l0.2-1.5l0.2-1.8l0.3-1.6l0.2-1.5l0.4-2.1l0.2-0.7
						l-0.1,0.7l0.1-0.3l0.3-1.4v-0.2v-0.2l-0.3,1.1l0.2-0.5l0.1-0.4l0.2-0.9l0.1-0.3l0.1-0.6 M214.2,69.6l2-0.8l-2.8,1.1l-3.2,1.3
						l-2.9,1.2l3.3-1.3l3.8-1.5l4.8-1.8l-0.1,0.1l-0.4,0.2l-1.9,0.8l-2.1,0.8l-2.5,0.9l-2.1,0.9l-2.1,0.9l-3.5,1.3l-1,0.3l1.2-0.6
						l-2.2,1l-3.7,1.6l-1.9,0.9l-3,1.4l-0.3,0.1l-0.2,0.1 M165.1,94.6l-0.9,0.6l-1.5,1l-1.8,1.2l-0.9,0.7l-1.4,1.1l0.2,0.2v0.2
						l-3.3,2.4l-3.7,2.8L148,108l-2.8,2.8l1.6-1l4-3l5.6-4.5l1.6-1.4l2.6-1.3l3.3-1.9l3-1.8l2.5-1.7l2.9-2.1l2.4-1.9l4.7-2.5
						l3.5-2.1l6.1-3.5l1.3-0.5l-0.2,0.6l0.2,0.2l1.5-0.6l-0.8,0.8l-1.4,1.3l-1.3,0.9l1,0.2l-3.2,1.9l-4.5,3l0.2,0.4l-1.5,1.5
						l3.5-1.4l5-2.6l2.4-1.1l-2.5,2.1l-3.2,3.1l-2.9,3l-2.7,1.6l-0.2,1.5l-0.7,1.5l1.4,0.7l-0.1,0.9l-2.1,2.3l0.8,0.4l-0.6,1.1
						l-3.4,3.2l-2.3,1.1l-2.2,1l-3.7,1.1l-4.5,2.5l-3,0.5l-2.2-0.7l-1.9-0.1l-1.5,0.2l-3.4,2.2l-2.9,1.4l-5.9,4.1l-4.3,3l1.5-0.6
						l6.1-4.2l5.2-2.6l2.2-0.3l-0.4,1.5l-3.4,2.1l-3,3.4l-1.9,2.4l0.3,1.7l3-0.5l5-3.7l-2,2.3l-0.1,1.2l-3.9,2.1l-5.2,2l-2.7,1.4
						l-3.7,2.4l-0.8-0.3l2.5-2.9l4.9-2.7l-2.3,0.1l-2.2,0.7l-0.8,1.1l-2.9,1.6l-2.2,1.2l-2.2,1l-2.4,2l-0.8,0.7l-1.7,2l-1.1,1.8
						l0.4,0.1l1-1.3l-0.4,0.8l-0.9,1l-1.3,0.6l-0.4-0.1l-1.3,0.6l-0.6,0.2l-0.8,0.2l-1.7,1l2.1-0.7l-0.3,0.7l-2.4,1.1H115l0.4-0.5
						l-1.1,1l0.1,0.2l-2.5,2.6l-2.9,2.8l0.7-0.9v-0.2l0.4-0.9l-1.4,2l-0.3,0.7l-1,1.4l-1.4,1.5l-2.7,3v-0.1l2.2-2.6l0.6-1.4l2.3-3
						l-1.4,1.6l-1.7,2.1l-0.1-0.6l-0.3,1.2l-2.6,3.6l0.1,0.3l-0.8,1.3l-2.6,3.8l-2.5,2.8l-1.7,1.1l-2.1,2.3l-0.6,0.3l-1.3,1.4
						l-1,1.3l-2.4,2.6l-1.5,1.9l-1.7,2.4l-1.8,2.8l-1.5,2.9l-1.8,3.5l-1.3,2.9l-1,1.8l-2.1,4.8l-1.4,2.9l-0.8,1.6l-1.4,2.6l-0.5,0.5
						l-0.1-0.5l0.8-1.9l0.2-1l1.4-3.6l1.4-3.2l0.8-1.7l1.5-2.7l1.1-2.3l1.5-3.4l0.2-0.7l-1.4,1.8l0.1-0.2l0.9-1.8l0.4-1l-0.5,0.5
						l0.1-0.4l-0.2,0.2l-0.4,0.7l-0.6,1.1l-0.9,1.6l-0.4,0.8l-0.3,0.6l0.4-0.7l-0.3,0.5 M59.9,224.1l0.3-0.7l0.4-0.9l0.1,0.1
						l0.2-0.3l-0.3,0.9l-0.8,2.1l-1.1,2.6l-1,2.7l-0.2,0.8l-0.7,1.9l-1.2,3.5l0.3-1.1l-0.1,0.1l-0.2,0.6l0,0l-0.4,1.2l-0.6,1.9
						l-0.2,0.7l-0.5,1.6l-0.1,0.4l-0.7,2.3l-0.4,1.2l-0.1,0.2l-0.5,1.5l-0.2,0.8l0.2-0.7l-0.1,0.6v0.2l0.3-0.8l0.1-0.1l-0.1,0.4
						l0.1-0.2v0.4l0.1-0.1l0.2-0.5l0.2-0.6v0.2v0.3l0.1-0.1l0.2-0.4v0.7v0.1l-0.1,0.8l-0.2,1.1v0.7l-0.2,1.2l-0.2,0.5l-0.3,1
						l-0.4,1.7l-0.5,1.5l-0.5,1.9l-0.5,2v1.2l-0.4,2.1l-0.2,0.4l-0.5,2l-0.2,1.2l-0.3,1.2l-0.2,1.2l-0.2,0.8l-0.1,0.7l-0.2,1.8
						l-0.1,1.8l-0.1,2 M47.8,276.4l-0.1,1.7l-0.2,1l0.2,0.2l0.1-0.3v1.1l0.4-0.3l0.5-1.2l0.6-0.9l0.5-1.3l0.5,0.3v0.2l0.5,0.2
						l0.3,0.8l0.1,1.4l0.2,1.3 M70.5,230.2l0.4-0.7l0.3-0.1l0.8,0.1l0.5,1.1l0.5-0.1l-0.3,1.6l0.9-0.1l-0.5,1.3l0.6,0.2l0.3,1.7
						l-1.1,1.8l-0.5-1l-0.7,0.2l-0.5-0.2l-0.5,0.8L70,237l0.1-1l-0.7,0.6l-1.5,3.1l-0.1-0.7l0.3-1.3l-0.7-0.7l-0.7,0.3l-0.7-0.4
						l-0.9,0.9l-0.2-1.4l0.6-1.4l0.9,0.6l0.9,0.4l0.8-1l0.1-1.9l0.6-1.7l-0.6-0.6l0.8-1.3l0.7,0.2L70.5,230.2 M365.8,154.6l2.8-0.3
						l-0.7,2.9l0.8,1.2l-0.4,1.9l-3-1.4l-1.9-0.4l-5.4-1.9l0.2-1.9l4.2,0.3L365.8,154.6 M428.8,131.5l3.8,1.3l5.1,2.9 M240.4,233
						l-0.2-2.2l0.5-2.2l-0.9-2.1l-1.9-1.9l0.4-1.9l0.4-2l1.8-1.2l1.6-2.3l-0.1-1.5l1.9-3l2.6-2.8l1.4-0.7l1.5-2.5l0.3-2.3l1.8-2.6
						l3-1.5l3.2-4.3l2.2-1.7l3.9-0.4l3.5-2.8l2.2-1.1l3.7-3.4l-0.5-5l1.8-3.5l0.8-2.1l2.8-2.7l4.1-1.8l3.1-1.6l2.8-4l1.4-2.3h2.7
						l2.2,1.7l3.6-0.3l4,0.8l1.7,0.1l3.8-2.1l4.1-0.7l2.3-1.6l3.7-1.2l6.4-0.7l6.2-0.3l1.9,0.5l3.4-1.5h4l1.6,0.8l2.5-0.2l4-1.5
						l2.6,0.4l0.1,1.9l3-1.4l0.4,0.7l-1.6,1.8l0.2,1.8l1.3,0.9v3.3l-2.4,2l1.1,2.2l1.9,0.1l1.2,1.8l1.6,0.6l4.6,1.4l1.6-0.4l3.3,0.6
						l5.4,1.8l2.4,3.6l3.6,0.7l5.7,1.7l4.5,2l1.6-1l1.4-1.9l-1.4-3l0.8-1.9l2.3-1.9l2.4-0.6l5.1,0.8l1.8,1.8h1.3l1.4,0.7l3.8,0.4
						l1.1,1.4l4.8-0.1l3.8,1.1l3.9,1.2l1.8,0.7l2.3-1.3l1-1.2l3-0.3l2.6,0.5l1.5,2l0.4-1.3l3,0.9l2.7,0.2l1.2-1l0.5-1.3l-0.3-0.2
						l0.3-1.9l-0.5-3l0.1-1l0.1-0.1l-0.1-3.2l0.5-2.7l0,0.1l-1.5-3l0.1-1.5l-2-1.8l0.6-1.4l-1.8,0.3l-2.9-0.8l-1.3,2.1l-4.7,0.5
						l-3.3-2l-3.5-0.1l-0.1,1.6l-2.2,0.5l-3.8-2l-3.7,0.1l-3.2-3.7l-3.2-2.1l0.6-2.9l-2.8-1.8l2.3-3.4l4.8-0.1l0.2-2.7l6,0.4
						l2.5-2.3l2.9-1l4.8-0.1l6.3,2.5l4.8,1.4l2.9-0.6l2.5,0.3l2.1-1.8l-0.5-1.5l-2.1-2.3l-2.3-1.3l-1.7-0.4l-1.6-1l-5.1-2.9
						l-3.8-1.3l-3.5-2l1.6-0.5l0.4-2.7l-2.2-1.3l2.8-1.3l-0.6-0.7l-1.9,0.5l-1.9,0.2l-1,1l-2.3,0.2l-1.5,1.2l1.3,2.1l1.8,0.8
						l2.6-0.2l0.2,1.1l-2.7,0.6l-2.6,1.9l-2-0.7l-0.3-1.6l-3.5-1l0.1-0.7l2-1.1l-1.2-0.7l-4.7-0.8l-0.9-1.2l-2.3,0.4l-0.2,1.8
						l-0.9,2.4l0.4,0.9l-1,0.7l-1.1-0.3l1.2,4.1l-1,1.4v2.4l1.9,2l0.9,1.3l3.3,1.1l-0.2,0.9l-3.6,0.2l-0.9,1.1l-1.9,1.9l-1.7-1.7
						l-0.3-0.7l-2-0.1l-1.7-0.3l-3.7,0.9l3,2.1l-1.5,0.6h-1.8l-2.4-1.9l-0.3,0.8l1.4,2.1l2.2,1.7l-0.9,0.9l2.3,1.7l2,1.1l0.7,2.1
						l-3.4-1l1.6,1.9l-2.1,0.4l2.3,3.3l-2.4,0.1l-3.4-1.6l-2.1-3l-1.3-2.5l-1.8-1.7l-2.3-2.1l-0.5-1l-0.7-0.3l-0.2-0.8l-2.2-1.2
						l-0.9-1.7l-0.5-2.4l0.2-1.1l-0.6-0.6l-0.8-0.3l-1.3-1.1l-1.6-0.7l-3.5-1.3l-2.2-1.2l-3.3-1l-3.4-2.5l0.6-0.2l-1.9-1.5l-0.4-1.1
						l-2.1-0.5l-0.7,1.4l-1.2-1.1l-0.3-1.1l0.1-0.1l0.7-0.3l-2.6-0.5l-2.4,1.2l0.5,1.6l-0.1,1l1.4,1.7l3.5,1.7l2.3,2.8l4.4,2.8h2.7
						l1,0.8l-0.8,0.7l3.4,1.3l2.7,1.1l3.4,1.9l0.5,0.6l-0.3,1.3l-2.4-1.7l-3.1-0.6l-0.9,2.3l3.2,1.3l0.1,1.9l-1.3,0.3l-1.2,3.1
						l-1.5,0.3l-0.2-1.1l0.3-2l0.6-0.8l-1.9-2.1l-1.4-1.8l-1.6-0.5l-1.3-1.6l-2.4-0.6l-1.8-1.5l-2.6-0.2l-2.9-1.6l-3.6-2.3l-2.7-2
						l-1.5-3.4l-1.8-0.4l-2.9-1.1l-1.4,0.4l-1.7,1.6l-1.4,0.2l-2.8,2l-6.8-0.9l-4.9,1.1l-0.4,2.1l0.3,2l-3.2,2.3l-4.6,0.8l-0.2,1.2
						l-2.3,2l-1.3,2.9l1.4,2.1l-2.1,1.6l-0.8,2.4l-2.8,0.8l-2.8,2.8l-4.8,0.1l-3.7-0.1l-2.4,1.4l-1.7,1.6l-1.8-0.3l-1.4-1.3
						l-0.9-2.2l-3.4-0.5l-1.6,0.9l-1.8-0.5l-2.1,0.4l1-2.9l-0.1-2.3l-1.5-0.3l-0.7-1.4l0.6-2.4l1.6-1.3l0.4-1.4l1.1-2.2l0.1-1.5
						l-0.5-1.3v-1.2l0.5-2.5l-1.1-1.5l5.1-2.5l4.1,0.6h4.5l3.6,0.6l2.8-0.1l5.5,0.1l1.8-2l0.8-6.7l-3.2-3.4l-2.3-1.6l-4.7-1.2
						l-0.1-2.3l4.1-0.7l5.2,0.8l-0.9-3.5l2.8,1.3l7.1-2.4l0.8-2.5l2.5-0.6l2.4-0.6l1.4-0.8l2.1-4.2l3.7-1.2l2.3,0.1l0.5-0.6l2.3-0.2
						l0.6,0.6l1.6-1.4l-0.8-1l-0.5-1.6l-1.4-1.5l-0.6-2.7l0.3-0.7l0.6-0.8l2.1-0.1l0.7-0.7l1.8-0.7l0.3,1.3l-0.5,0.8l0.6,0.7
						l1.5,0.4l-0.4,1l-0.8-0.3l-1.4,1.9l1,1.3l0.4,1.1l2.9,0.6l0.2,0.9l2.7-0.5l1.2-0.7l3.4,1.1l1.5,0.8l1.6-0.8l3.6-1.3l2.9-0.9
						l2.8,0.5l0.5,0.6h2.5v-1.2l3-0.9l-1.7-2.3l-1-2l0.2-1.2l1.7-0.9l3,1.9h1.8l-0.8-2l-0.7-1.5l-0.6,0.3l-2-0.8l-1.1-1.4l2.3-0.7
						l2.5-0.3l2.6,0.4h2.2l1.2-1.3l-3.1-1.1l-3.6,0.2l-3.1,0.8l-3.1,0.5l-2.1-1.3l-2.6-0.8l-1-2.2l-2.4-2l0.1-1.3l0.8-1.3l2.4-2.2
						l0.9-0.4l-1-0.9l-3.3-0.9l-2.5,0.6l-0.7,1.3l1.2,1.3l-1.9,1.7l-2.7,1.8l0.2,3.1l2.4,1.6l2.8,1.3l-0.6,2.7l-2.1,0.6l1,4.2
						l-0.3,2.4l-3.2-0.2l-0.7,2.1l-3,0.1l-1.6-2.5l-3-2.9l-3-3.5l-2.1-1.5l-4,2.8l-3.2,0.6l-3.6-1.2l-1.3-2.6l-1.6-5.3l1.8-1.4
						l5.1-1.8l3.3-2.2l2.4-2.7l2.3-3.6l2-1.3l2.7-2.1l2.7-0.7l2.5,0.1l0.7-1.3l2.6,0.1l2-0.3l5.8,1.1l-1.2,0.4l2.9,1l0.6-0.6l3.8,1
						l4.3,0.4l8.2,2l2.4,0.8l2,1.2l-0.1,1l-1.7,0.5l-8.7-1.4l-0.9,0.2l4.3,1.4l1.3,0.9l2.6,2l2.9,0.6l2,0.6l-1.1-1l-2.1-0.9l0.1-0.8
						l5.4,1.2l0.7-0.5l-3.1-1.5l0.6-1.9l1.4,0.1l2.3,0.6l-1.3-1.3l-2.9-1.1l-1.2-1.1l-2.8-1.1l4.5,0.6l2.5,1l-1.2,0.2l1.7,1l2.1,0.6
						l1.3-0.4l-1.7-1.2l1.6-2.4l0.9,0.1l1.2,1.1l1.7,0.2l-0.5-0.6l1.7-0.1l-0.2-0.7l3.3,1.1l-1.6-1.1l-3.1-1l-0.9-0.6l3.5,0.5
						l2.3,0.5l7,1.9l-1.7-0.9l-2.8-0.9l-0.9-0.4l-1.2-0.2l-1.7-0.8l-3.5-1.2l-1.3-0.5l-2.7-1.3l-3.5-1.3l-0.5-0.3L388,63l2.5,0.8
						l3,1.2l1.6,0.5l3.1,1.1l5.7,2.2l3.1,1l2.7,1.2l4.7,2.6l1.3,0.3l-1.3-0.7l-0.5-0.5l-1.9-0.9l-1.6-0.9l-2.6-1l-2.6-1.1l-0.8-0.1
						l-2.5-0.9l-3.9-1.6l-4-1.2l-2.2-1l-3.1-1v-0.1l2.6,0.8l4.1,1.4l1.2,0.3l-3.3-1.1l-1.2-0.6l0.4-0.1l3,0.8l-3.9-1.2l-4.8-1.5
						l-0.5-0.3l0.6,0.1l-0.4-0.2l-2.4-0.7l-2.9-0.8h-0.1l-2,0 M562.2,220.3l-0.1-0.3l0.3,0.8L562.2,220.3l-0.2-0.4l0.7,1.7l-0.1-0.1
						l0.1,0.9l1.3,3.3l0.8,2.6l0.6,3l1.3,5.3l0.5,2.8l0.3,2.9l0.6,2.1v1.1l-0.2,1.6l-0.3,0.2l0.7,3.5l1.7,5.9l0.9,3.8l0.6,4.4
						l1.5,7.8l-0.4,0.3l0.2,3.5l0.5,1.6l-0.6,1.3l0.1,3.2l-0.2,1.3l-1.6-4.4l-1.6-6.5l-1.3-4.7l-0.8-2.2l-1.6-4.4l-1.6-5.8l-0.9-2.8
						l-2.8-6.3l-3.1-8.7l-2.2-5.8l-1.8-5.3l-1.7-4.1l-1.1,2.6l-1.2-0.5l-3.9-5.4l0.1-1.6l-1.1-1.6l-3.1-3.6l-1.6-1.1l-1.8-3.1
						l-2.7-3.2l-2.9,0.8l-3,0.1l-2.6,0.5l-4.5-1.2l-2.8-1l-2.7-0.5l-3.1-5.2l-1.4-0.8l-1.5,0.8l-1.6,2l-3.6-1.4l-3.9-3.2l-3-1.1
						l-3.3-4l-4.4-5.5l-1.1,0.7l-2.2-1.4l-0.4,1.6l-1.7-0.2l1.4,1.8l0.1,1l2.1,3l2.5,3.6l1.8,1l1.1,1.5l2.4,1.7l0.9,1.7l0.2,1.4
						l0.9,1.5l1.2,1.2l0.9,1.4l0.7,1l-1.3-3.1l-0.2-2.2l0.6-0.5l1.3,1.3l1,2.5l0.3,2.5l1.1,1.7l0.4-0.2l0.5,1.2l1.8-0.7l2.2,0.2
						l1.6,0.2l0.6-2.9l0.7-2.8l0.5-2.6l0.1-1.4l0.4,0.4l0.5,1.8v0.8l1.7,3.4l2.1,2.9l1.9,1.5l1.9,0.5l1.7,0.8l1.9,2.5l1.2,1.5l1,0.5
						l0.3,0.9l0.1,2.6v1.3l-0.5,1.4l0.2,3l-1.2-0.2l-0.1,1l0.3,2.2l1.2,3l-0.1,0.6h-1.1l-1,1.7l0.3,2.2l-0.3,0.9h-1.6l-0.6,1.1
						l0.5,1.8l-1,1.3l-1.5-0.4l-1.5,1.5l-1.1,0.3l-1.8,1.1v2l0.2,1.6l-2.3,2l-4.3,2l-1.9,3.3l-1.4,0.2l-0.9-0.3l-1.4,1.9l-1.9,0.9
						l-2.6,0.2l-0.8,0.2l-0.5,1.2l-0.6,0.3L498,262l-1.7-0.1l-1,0.6l-2.3-0.2l-1.3-2.7l-0.3-2.5l-0.8-1.4l-1.2-3.4l-1.3-1.9l0.6-0.2
						l-0.6-2.1l0.2-0.8l-0.5-2l-0.9-1.9l-1.2-1.4l-0.6-1.8l-2.1-1.6l-2.7-3.8l-1.7-3.6l-3.1-3l-1.6-0.7l-3.2-4.2l-1.3-3.1l-0.4-2.6
						l-3.2-4.8l-2.1-1.7l-2.1-0.9l-1.9-2.4v-1l-1.6-2.2l-1.2-0.9l-2.3-3.1l-3.1-3.4l-2.6-2.9h-1.7l-0.1-2.3l-0.3-1.4l-0.2-1.6
						l-0.3-0.6L446,190l0.2,3.1l-0.3,2.2l-0.5,0.8l-1.6-1.4l-2-1.9l-4.3-5.9l-0.3,0.4l2.8,4.4l3.4,4.2l4.5,6.5l1.9,2.3l1.8,2.5
						l4.4,4.7l-0.6,0.8l0.8,2.8l5.1,3.9l0.7,0.9l2.2,4.3l-0.6,0.8l1.5,4.5l2.5,5.3l1.5,1.1l2.2,1.7l3,5.2l1.8,4.2l2.3,2.2l5.5,4.3
						l2.4,2.5l2.3,2.6l1.2,1.6l1.9,1.4l1.1,1.4l0.2,1.9l-1.8,1.2l1.6,1.2l1.2,0.8l0.9,1.9l1.8,1.9h1.7l2.9-1.2l3.4-0.5l2.6-1.5
						l1.4-0.2l1-0.8l1.7-0.2l1-0.1l1.3-0.7l1.4-0.4l1.2-1.6h1l0.3,1.2l0.1,2.7l0.4,2.4l-0.4,1.7l-0.1,5.1l-0.9,5.2l-1.3,6l-2.1,6.8
						l-2.3,5.2l-3.5,6.4l-3.2,3.8l-5,4.7l-3,3.6l-3.9,5.8l-0.8,2.5l-0.8,1.1l-2.6,1.9l-0.9,1.9l-1.3,0.3l-0.6,3.4l-1.2,1.9l-0.8,3.1
						l-1.6,1.5l-1.9,5.8v2.6l2.2,1.7v1.3l-1.3,2.8l0.1,1.4l-0.5,2.3l1,2.9l0.9,4.5l1.2,1.1l0.4,2.1l-0.7,4.6l-0.2,4.1l-1,7.1
						l0.2,2.3l-1.6,3.2l-2,3.2l-2.8,2.8l-3.5,1.7l-4.4,2.2l-5.1,4.8l-1.5,0.8l-3.3,3.2l-1.7,1l-1,3.1l1.1,3.3l0.1,2.6l-0.3,1.3
						l0.7-0.2l-1.1,4.2l-1,2l0.6,0.7l-1,1.9l-1.8,1.5l-3.3,1.5l-4.9,2.3l-2,1.6l-0.1,1.8l0.8,0.3l-1,2.2l-1.7,3l-1.4,3.5l-1.4,1.9
						l-3,2.1l-0.8,0.6l-2.1,2.1l-1.6,2.1l-2.9,2.8l-5.2,4.2l-3.2,2.4l-3.2,1.8l-4.1,1.6l-1.8,0.2l-0.7,1.1l-2-0.6l-2,0.7l-3.7-0.7
						l-2.3,0.5l-1.5-0.2l-4,1.5l-3.3,0.6l-2.6,1.5l-1.7,0.1l-1.1-1.4l-1.3-0.1l-1.2-1.8l0,0.4l-0.3-1.1l0.5-2.3l-0.7-2.6l1.4-0.7
						l0.6-3.1l-1.9-3.8l-1.4-3.4l-2-5.3l-2.4-3.1l-1.2-3.1l-0.3-4.1l-0.7-3.1l-0.6-6.6l0.4-5.2l-0.2-2.4l-1.5-1.8l-2-3.6l-1.7-5.3
						l-0.7-2.8l-3.3-4.3l-0.1-3.4l-0.1-2.8l0.9-4l1.7-4.2l0.4-2l1.7-4.1l1.1-1.9l2.7-3l1.6-2.1l0.7-3.4v-2.6l-1.4-1.7l-1-2.8l-1-2.8
						l0.4-1l1.4-1.8l-1.2-4.5l-0.9-3.1L369,351l0.5-0.9l-0.6-1.4l-1.3-3.5l-3.6-4.9l-4.8-4.8l-3-3.8l-2.8-4.9l0.2-1.5l1-1.5l1.2-3.4
						l0.8-3.6l-0.8-0.7l1.6-5.3l0.6-3.7l-1.9-3.1l-2.2-0.8l-1-2.1l-1.2-0.7l0.2-1.4l-4.8,1.7l-1.8-0.3l-1.7,1.1l-3.9-0.1l-2.5-3
						l-1.5-3.4l-3.2-3.1L329,292h-4.2l-3.9,0.5l-3.7,1l-7.4,2.8l-2.5,1.6l-4.2,1.4l-4.2-1.4l-2,0.1l-3.4-0.9h-3l-5.6,0.8l-3.2,1.4
						l-4.5,1.8l-1-0.2L275,301l-4.8-2.3l-4.1-3.5l-3.9-2.6l-2.9-3l-1.3-0.4l-3.2-1.9l-2.2-2.5l-0.8-1.7l-0.4-3.4l-2-2.8l-1.5-1.8
						l-1.3-0.6l-0.9-0.9l-0.6-2l-0.6-1.1l-1.2-0.7l-2.3-1.9l-1.7-0.3l-1-1.2l0.2-0.7l-1.4-1l-0.3-0.9l-0.4-3.6l0.6-2.1l-1.5-3.5
						l-2.1-1.6l1.9-0.8l2.4-3.2l1.1-2.4l-0.1-2.4l1.4-2.2l0.8-4.2v-4.4 M234,579.8l-3.1-1l2,0.6l0.9,0.2l-0.3-0.1l1.8,0.5h0.3
						l0.8,0.2l1.2,0.3l-1.5-0.5l-1.4-0.5l1.9,0.5v-0.1l1.2,0.3l1.7,0.4v-0.1l-0.6-0.3l-0.7-0.3l-0.1-0.2l0.2-0.1v-0.2l-0.4-0.3
						l-1-0.4l-1.6-0.6l-1.8-0.6l-1.8-0.6l-1.8-0.6l-1.7-0.6l-1.6-0.6l-1.7-0.6l-1.5-0.6l-1.3-0.6l-1.4-0.7l-1.5-0.7l-1.9-0.8
						l-1.6-0.7l-1.5-0.9l-0.8-0.5l-1-0.7l-0.7-0.6l-0.5-0.6l-1.3-0.8l-0.6-0.5l-0.4-0.5l0.7-0.1l-0.5-0.6l-0.1-0.4l0.4-0.3l-0.2-0.5
						l-0.5-0.6l0.4-0.3l1.5,0.5l0.8,0.7l-0.1,0.6l0.4,0.4l-1.4-0.3l-0.4,0.2l0.2,0.5l0.3,0.5l0.6,0.6l1.4,0.8l1.5,0.7l1.7,0.6
						l0.3,0.4l-0.4,0.2l0.8,0.6l0.8,0.6l1.2,0.8l1.3,0.6l1.9,0.7l1.7,0.6l1.5,0.4l1.8,0.5l1.9,0.7l1.6,0.6l1.7,0.6l1.7,0.5l1.6,0.6
						l3.8,1.4l1.6,0.5l1.6,0.6l1.8,0.5l2,0.7l1.3,0.5l1,0.4l-0.3,0.2l1.2,0.4l1,0.4l0.8,0.4l0.1,0.2l0.4,0.2l0.4,0.2l1.5,0.5h-0.4
						h-0.7l-0.1,0.1h-0.7l1.8,0.4l1.1,0.2l1.6,0.3l1.7,0.3l1.1,0.3l-0.9-0.1l0.8,0.2l1.9,0.4l1.8,0.4l1.8,0.3l1.7,0.3l2,0.3l1.2,0.1
						l1.6,0.2l1.7,0.2l1.9,0.2l1.3,0.1l1.9,0.2l1.7,0.2l1.9,0.2l2.3,0.3l1.6,0.2l-1-0.2l-0.6-0.2l-0.5-0.2l-0.1-0.2l-0.2-0.2h1
						l1.6,0.1l1.7,0.2l-1-0.3l-0.2-0.2h1.3l0.5-0.2l0.5-0.2l0.9-0.1l1-0.1l0.5-0.2l-1.3-0.3l-1.1-0.3l-0.9-0.3h-1.3l-1.1,0.1h-1.4
						l-1.2-0.3l-1.9-0.7l-0.2-0.2l0.5-0.2l0.8-0.2l0.4-0.3l0.4-0.3v-0.4l0.9-0.2l1.1-0.2l0.5-0.1h1.5l1.3-0.2l1-0.2l0.9-0.3l0.8-0.3
						l1.2-0.4l0.6-0.4l0.8-0.4l-0.1-0.5l-1.6-0.3l-0.1-0.5l0.5-0.4l1.2-0.3l1.3-0.3l1.1-0.5l0.8-0.5l0.3-0.7l0.9-0.4l1.8,0.1
						l0.9,0.5l1.8,0.1l-0.2-0.5l0.5-0.6l1.7,0.1l0.5,0.6l1.8,0.1l1.9-0.3l1.9-0.2l1.7,0.1l0.7,0.6l1.7-0.5l1.5-0.2l1.7-0.2l1.8-0.2
						l1.7-0.4l1.8-0.2l1.5-0.3l1.2-0.6l1,0.4l1.7-0.2l0.8,0.7l0.6,0.5l1.9-0.3l1-0.6l1.9-0.5l2,0.1l0.2,0.6l1.6-0.6l1.8-0.2l1.9-0.1
						h1.6l1.5,0.2l1.5,0.1l0.2,0.5l0.4,0.5l1.9-0.3l1.7-0.1h1.6h1.6l1.7-0.2l1.7-0.2l1.9-0.5l1.7-0.3l1.6-0.1l1.7-0.4l2.1-0.9
						l1.6-0.6l1.1,0.3l-0.3,0.6l0.6,0.4l1.6-0.1v0.6l0.2,0.4l1.9-0.4l1.7-0.7l1.7-0.3l2.3-0.6l1.6-0.2l2.1-0.3l1.7-0.4l1.7-0.4
						l1.7-0.4l0.8,0.2l2.2-0.6l1.7-0.5l1,0.1l1.8-0.5l1.4-0.6l1.9-0.5l1.6-0.4l1.7-0.3l1.3-0.1l0.8,0.1l0.7,0.2l-0.2,0.5l-1.5,0.8
						l-0.3,0.6l-0.4,0.5l0.6,0.2l-0.4,0.5l-0.3,0.5l0.5,0.1l1.4-0.4l2.3-0.7l-0.1,0.4l0.3,0.2l0.2,0.2l0.4,0.1h0.7L403,573l-1.1,0.4
						l-1.9,0.7l-1.6,0.4l-2,0.6l-1.5,0.6h0.7l-1.7,0.6l-1.8,0.6l-2,0.6l-0.9,0.4l0.1,0.2l1.3-0.3l1.9-0.6l1.7-0.5l1.6-0.5l1.5-0.4
						l1.6-0.6l2.3-0.8l0.7-0.1l0.7-0.1l0.9-0.2l1.1-0.3l1.9-0.7l1.6-0.6l1.9-0.7l1.4-0.4l1.1-0.3l1.6-0.6l0.8-0.3l0.9-0.3l-0.2,0.2
						l0.6-0.2l0.7-0.2l-0.2,0.1l1.3-0.5l2.9-1.2l-1.2,0.5l-2,0.9l-0.8,0.4h-0.1 M165.7,533.6l-0.3-1.8l2.1,0.7l-0.4-1.2l2.6,1.3
						l0.7,1.1l-1.1,0.8l-1.8-1l0.3,1.3L165.7,533.6 M478.3,523.9l-0.3,1l0.6,0.4l-0.6,0.6l-1.8,1.4l-1.9,0.2l1.8-1.7l1.5-1.3
						L478.3,523.9 M78.3,270.9l1.4-0.6l0.5,0.2l-0.6,3.4l-1.9,0.5l-0.3-0.4l0.8-1.3L78.3,270.9 M72.7,206.3l0.2,0.2l-1.3,3.5
						l-1.1,2.6l-0.3,0.2l0.9-2.5l0.2-1.2L72.7,206.3 M75.2,199.6l0.5-0.3l0.5,0.2l-0.5,1.1l-1.3,0.7L75.2,199.6 M76.8,198.5
						l-0.2,1.9l-1.6,3l0.1-0.5l1.1-2.2l0.4-1.7L76.8,198.5 M146.3,123.7l-1,1.6l0.7,0.4l1.5-0.1l-2,1.3l-0.8,0.2l-0.5-1.4l0.6-1
						L146.3,123.7 M451.6,131.7l-0.2-3.4l1.7-0.5l-0.6-1.9l1.4-0.7l1.2-1.4l2.4,0.8l1.8-0.2l2,2l2.3,3.2l-2.2-0.5l-1.3,0.5l1.8,2.5
						l-2.3-0.4l0.9,1.2l1.8,0.9l3.2,3l3.3,1.2l1.3,1.2l0.5,1.4l0.7,0.8l2.2,2.3l-1.6-2.5l1.1-0.9l2,2l3,2.2l-1.1,1.1l-2.6-0.8l1.6,3
						l1.6,0.2l1,2.5l2.5,1.3l2.2,3.9l2,2.6l0.4,0.9l-3,1l-3.7-0.7l-2.8-1.9l-2.7-0.7l-2.4-2.7l-1.2-1.9l0.4-0.9l-0.4-1.2l-1.4-2.8
						l1.7-0.3l-1.3-1l-1.2-0.1l-2.9-2.6l-2.5-1.8l-5.3-4.1l-1.5-2.3L451.6,131.7 M154.7,114.9l0.8-0.3l1,0.8l0.1,1.3l-0.5,0.6
						l-0.8,0.1l-0.8-1L154.7,114.9 M187.2,82.7l1.4-0.7h0.1l-0.8,0.5l-2.3,1.2l0.2-0.2l1.1-0.7L187.2,82.7 M187.6,81.9l2-1h0.4
						l-0.8,0.4l-2.6,1.2v-0.1L187.6,81.9 M211.7,72l-1.5,0.5l-0.7,0.1l2-0.9l2.5-1l1-0.3l-0.9,0.5l-1.7,0.7L211.7,72 M233.3,63.4
						l2.1-0.7l1.6-0.5l0.4-0.1l0.1,0.1l-1.9,0.8l-1.1,0.4l-0.2-0.1h-0.2L233.3,63.4L233.3,63.4 M267.7,54.9l-1.3,0.2l-3,0.5
						l-1.4,0.3l-1.5,0.3l-3.5,0.7h-0.2 M274.6,53.9h0.2l0.8-0.1l1.8-0.2h-0.2l-1.3,0.2l2.6-0.3l0.9-0.1l0.7-0.1h0.6l-0.4,0.1
						l1.2-0.1h0.1h0.1h0.3v0.1l-0.7,0.1l-1.1,0.2l-2.5,0.3l-1.6,0.1l-1.2,0.1h0.6l-3.3,0.4l-1.6,0.2l-4.1,0.7l-1.2,0.2l-1,0.2
						l-1.1,0.1l-0.3,0.1l-1,0.2l-2,0.4l-1.7,0.3l-1.6,0.3l-1.9,0.4L253,58l-0.9,0.2h0.5l-1.1,0.2l-3.3,0.7l0.9-0.3l-1,0.2l0.5-0.1
						l0.2-0.1l2.1-0.5l1.1-0.2l3.3-0.7l0.4-0.1l-1.8,0.4l2.8-0.6l0.8-0.2l1.9-0.4l1.2-0.2l1.6-0.3l1.7-0.3l2.3-0.4l0,0l-0.4,0.1
						l1.8-0.3L268,55h-0.7l1.6-0.3l1.4-0.2 M286.5,53.5l3.4-0.4h1.3l1.7-0.2h1.7l3.3,0.1l1.7,0.4l-1.7,0.2h-2.3l-3.2,0.2l-0.1,0.1
						l2.3-0.1l1.1,0.2l1.8-0.2l-0.1,0.2l-1.7,0.4l2.3-0.3l3.7-0.3l1.7,0.1l-0.1,0.3l-3.7,0.5l-0.7,0.2l-2.7,0.1h1.7l-2,0.6l-1.7,0.6
						l-1.9,1.4l0.2,0.7h-1.6l-2.2,0.3l1.1,0.6l-1.1,1l-1.4,0.1l0.2,1.1l-2.7,0.1l0.7,0.5l-1,0.5l-2,0.2h-1.8l0.4,0.9l-0.8,0.6
						l-1.9-0.6l-1.2,0.4l1.3,0.3l0.7,0.9l-0.8,1.2l-2.9,0.3l-0.4-0.6l-0.6-0.8l-0.8,1l-2.7,0.8l3.7,0.1l2,0.1l-5.4,1.5l-5.7,1.3
						l-5.2,0.6h-1.7l-2.5,0.7l-4.6,1.9l-5.1,1.3l-1.2,0.1l-2.7,0.5l-2.8,0.5l-3,1.2l-1.9,1.4l-2.6,1.3l-4.8,1.7l-1.6,1.7l-3,1.9
						l-3.6,2.2l-2.5,0.1v-1.9h-3.1L214,84l2.1-2.2l1.7-2.7l1.5-1.3l2.9-1.8l1.5-1.8l3-1.4l0.6-0.7l5.1-2.1l2.8-0.6l1.9-0.7l2.9-1.3
						l-2.4,0.6l-1,0.2l-1.4,0.2v-0.5l2.4-1.1l2.3-0.8h0.8l1.1,0.4l0.6-1l0.5-0.5l-1.4,0.2l0.2-0.4l4.4-1.4l0.8-0.5l2-1l3.2-1.4
						l0.6-0.5l1.6-0.5l0.8-0.7l-0.8-0.1h-1.4l-1.6,0.6l0.8-0.3l2.1-0.7l2.3-0.3l1-0.1l-0.5-0.3l1.1-0.4l1.7-0.4l3.3-0.5l3.3-0.4
						l1.7-0.3l0.7-0.3l2-0.3l4.1-0.5l0.9-0.1l1.7-0.3l1.8-0.2l1.7-0.1h1.2l-0.9,0.3l3.1-0.4l-0.3,0.2h0.4l-0.1,0.2l0.7-0.4
						L286.5,53.5"/>
				</g>
				<g>
					<path class="st5" d="M264.9,587.2L264.9,587.2h0.2h0.2h0.3h0.4h0.5h0.6h0.7h0.7h0.8h0.9h1h1.1h1.1h1.2h1.3h1.3h1.4h1.5h1.5h1.6
						h1.6h1.7h1.7h1.8h1.8h1.9h1.9h1.9h2h2h2h2h2h2h2h2h2h2h2h2h2h2h1.9h1.9h1.9h1.8h1.8h1.7h1.7h1.6h1.6h1.5h1.5h1.4h1.3h1.3h1.2
						h1.1h1.1h1h0.9h0.8h0.7h0.7h0.6h0.5h0.4h0.3h0.2h0.1l0,0 M219.5,575L219.5,575h0.4h0.4h0.6h0.8h1h1.1h1.3h1.5h1.6h1.8h1.9h2.1
						h2.2h2.4h2.5h2.7h2.8h2.9h3h3.1h3.2h3.4h3.4h3.5h3.6h3.7h3.8h3.8h3.9h3.9h4h4h4h4h4h4h4h4h4h4h3.9h3.9h3.8h3.8h3.7h3.6h3.5h3.4
						h3.4h3.2h3.1h3h2.9h2.8h2.7h2.5h2.4h2.2h2.1h1.9h1.8h1.6h1.5h1.3h1.1h1h0.8h0.6h0.4h0.3h0.1 M176.8,555.1h0.1h0.4h0.6h0.9h1.1
						h1.4h1.6h1.9h2.1h2.4h2.6h2.8h3.1h3.3h3.5h3.7h3.9h4.1h4.3h4.4h4.6h4.7h4.9h5h5.2h5.3h5.4h5.5h5.6h5.7h5.7h5.8h5.8h5.9h5.9h5.9
						h5.9h5.9h5.9h5.8h5.8h5.7h5.7h5.6h5.5h5.4h5.3h5.2h5h4.9h4.7h4.6h4.4h4.3h4.1h3.9h3.7h3.5h3.3h3.1h2.8h2.6h2.4h2.1h1.9h1.6h1.4
						h1.1h0.9h0.6h0.4h0.1 M138.2,528.1h0.2h0.5h0.8h1.2h1.5h1.8h2.1h2.4h2.7h3h3.3h3.6h3.9h4.2h4.5h4.7h5h5.2h5.5h5.7h5.9h6.1h6.3
						h6.5h6.6h6.8h6.9h7.1h7.2h7.3h7.4h7.4h7.5h7.5h7.6h7.6h7.6h7.6h7.5h7.5h7.4h7.4h7.3h7.2h7.1h6.9h6.8h6.6h6.5h6.3h6.1h5.9h5.7
						h5.5h5.2h5h4.7h4.5h4.2h3.9h3.6h3.3h3h2.7h2.4h2.1h1.8h1.5h1.2h0.8h0.5h0.2 M105,494.9h0.2h0.6h1h1.4h1.8h2.1h2.5h2.9h3.3h3.5
						h4h4.3h4.7h5h5.3h5.6h5.9h6.2h6.5h6.8h7h7.3h7.5h7.7h7.9h8.1h8.3h8.4h8.5h8.7h8.8h8.9h8.9h9h9h9h9h9h9h8.9h8.9h8.8h8.7h8.5h8.4
						h8.3h8.1h7.9h7.7h7.5h7.3h7h6.8h6.5h6.2h5.9h5.6h5.3h5h4.7h4.3h4h3.6h3.3h2.9h2.5h2.1h1.8h1.4h1h0.6h0.2 M78,456.3h0.2h0.7H80
						h1.6h2H86h2.9h3.3h3.7h4.1h4.5h4.8h5.3h5.7h6h6.4h6.7h7.1h7.4h7.7h8h8.2h8.5h8.7h8.9h9.1h9.3h9.5h9.7h9.8h9.9h10h10.1h10.1
						h10.2h10.2H322h10.2h10.1h10.1h10h9.9h9.8h9.7h9.5h9.3h9.1h8.9h8.7h8.5h8.2h8h7.7h7.4h7.1h6.7h6.4h6h5.7h5.3h4.9h4.5h4.1h3.7
						h3.3h2.9h2.4h2h1.6h1.1h0.7h0.2 M58.1,413.6h0.2H59h1.3H62h2.2h2.6h3.1h3.6h4H82h4.9h5.3h5.7h6.1h6.5h6.9h7.3h7.7h8h8.3h8.6
						h8.9h9.2h9.5h9.7h9.9h10.1h10.3h10.5H246h10.8h10.9h10.9h11h11h11.1h11.1h11h11h10.9h10.9h10.8H388h10.5h10.3h10.1h9.9h9.7h9.5
						h9.2h8.9h8.6h8.3h8h7.7h7.3h6.9h6.5h6.1h5.7h5.3h4.9h4.5h4h3.6h3.1h2.6h2.2h1.7h1.2h0.7h0.2 M45.9,368.2h0.3H47h1.3h1.8h2.3
						h2.8h3.2h3.7h4.2H71h5.1h5.6h6h6.4h6.9h7.3h7.6h8h8.4h8.7h9h9.4h9.6h9.9h10.2h10.4h10.6h10.8h11H243h11.3h11.4h11.5h11.5h11.6
						h11.6h11.6h11.6h11.5h11.5h11.4h11.3h11.1h11h10.8h10.6h10.4h10.2h9.9h9.6h9.4h9h8.7h8.4h8h7.6h7.3h6.9h6.4h6h5.6h5.1h4.7h4.2
						h3.7h3.2h2.8h2.3h1.8h1.3h0.8h0.3 M41.8,321.3h0.3h0.8h1.3H46h2.3h2.8h3.2h3.8h4.3h4.7h5.2H78h6.1h6.5h7h7.4h7.8h8.1h8.5h8.9
						h9.2h9.5h9.8h10.1h10.3h10.6h10.8h11h11.2h11.3h11.4h11.6h11.6h11.6h11.8h11.8h11.8h11.6H347h11.6h11.6h11.4h11.3h11.2h11h10.8
						h10.6h10.3h10.1h9.8h9.5h9.2h8.9h8.5h8.1h7.8h7.4h7h6.5h6.1h5.7h5.2h4.7h4.3h3.8h3.3h2.8h2.3h1.8h1.3h0.8h0.3 M45.9,274.4h0.3
						H47h1.3h1.8h2.3h2.8h3.2h3.7h4.2H71h5.1h5.6h6h6.4h6.9h7.3h7.6h8h8.4h8.7h9h9.4h9.6h9.9h10.2h10.4h10.6h10.8h11H243h11.3h11.4
						h11.5h11.5h11.6h11.6h11.6h11.6h11.5h11.5h11.4h11.3h11.1h11h10.8h10.6h10.4h10.2h9.9h9.6h9.4h9h8.7h8.4h8h7.6h7.3h6.9h6.4h6
						h5.6h5.1h4.7h4.2h3.7h3.2h2.8h2.3h1.8h1.3h0.8h0.3 M58.1,229h0.2H59h1.3H62h2.2h2.6h3.1h3.6h4H82h4.9h5.3h5.7h6.1h6.5h6.9h7.3
						h7.7h8h8.3h8.6h8.9h9.2h9.5h9.7h9.9h10.1h10.3h10.5H246h10.8h10.9h10.9h11h11h11.1h11.1h11h11h10.9h10.9h10.8H388h10.5h10.3
						h10.1h9.9h9.7h9.5h9.2h8.9h8.6h8.3h8h7.7h7.3h6.9h6.5h6.1h5.7h5.3h4.9h4.5h4h3.6h3.1h2.6h2.2h1.7h1.2h0.7h0.2 M78,186.3h0.2
						h0.7H80h1.6h2H86h2.9h3.3h3.7h4.1h4.5h4.8h5.3h5.7h6h6.4h6.7h7.1h7.4h7.7h8h8.2h8.5h8.7h8.9h9.1h9.3h9.5h9.7h9.8h9.9h10h10.1
						h10.1h10.2h10.2H322h10.2h10.1h10.1h10h9.9h9.8h9.7h9.5h9.3h9.1h8.9h8.7h8.5h8.2h8h7.7h7.4h7.1h6.7h6.4h6h5.7h5.3h4.9h4.5h4.1
						h3.7h3.3h2.9h2.4h2h1.6h1.1h0.7h0.2 M105,147.7h0.2h0.6h1h1.4h1.8h2.1h2.5h2.9h3.3h3.5h4h4.3h4.7h5h5.3h5.6h5.9h6.2h6.5h6.8h7
						h7.3h7.5h7.7h7.9h8.1h8.3h8.4h8.5h8.7h8.8h8.9h8.9h9h9h9h9h9h9h8.9h8.9h8.8h8.7h8.5h8.4h8.3h8.1h7.9h7.7h7.5h7.3h7h6.8h6.5h6.2
						h5.9h5.6h5.3h5h4.7h4.3h4h3.6h3.3h2.9h2.5h2.1h1.8h1.4h1h0.6h0.2 M138.2,114.5h0.2h0.5h0.8h1.2h1.5h1.8h2.1h2.4h2.7h3h3.3h3.6
						h3.9h4.2h4.5h4.7h5h5.2h5.5h5.7h5.9h6.1h6.3h6.5h6.6h6.8h6.9h7.1h7.2h7.3h7.4h7.4h7.5h7.5h7.6h7.6h7.6h7.6h7.5h7.5h7.4h7.4h7.3
						h7.2h7.1h6.9h6.8h6.6h6.5h6.3h6.1h5.9h5.7h5.5h5.2h5h4.7h4.5h4.2h3.9h3.6h3.3h3h2.7h2.4h2.1h1.8h1.5h1.2h0.8h0.5h0.2
						 M176.8,87.5h0.1h0.4h0.6h0.9h1.1h1.4h1.6h1.9h2.1h2.4h2.6h2.8h3.1h3.3h3.5h3.7h3.9h4.1h4.3h4.4h4.6h4.7h4.9h5h5.2h5.3h5.4h5.5
						h5.6h5.7h5.7h5.8h5.8h5.9h5.9h5.9h5.9h5.9h5.9h5.8h5.8h5.7h5.7h5.6h5.5h5.4h5.3h5.2h5h4.9h4.7h4.6h4.4h4.3h4.1h3.9h3.7h3.5h3.3
						h3.1h2.8h2.6h2.4h2.1h1.9h1.6h1.4h1.1h0.9h0.6h0.4h0.1 M219.5,67.6L219.5,67.6h0.4h0.4h0.6h0.8h1h1.1h1.3h1.5h1.6h1.8h1.9h2.1
						h2.2h2.4h2.5h2.7h2.8h2.9h3h3.1h3.2h3.4h3.4h3.5h3.6h3.7h3.8h3.8h3.9h3.9h4h4h4h4h4h4h4h4h4h4h3.9h3.9h3.8h3.8h3.7h3.6h3.5h3.4
						h3.4h3.2h3.1h3h2.9h2.8h2.7h2.5h2.4h2.2h2.1h1.9h1.8h1.6h1.5h1.3h1.1h1h0.8h0.6h0.4h0.3h0.1 M264.9,55.4L264.9,55.4h0.2h0.2
						h0.3h0.4h0.5h0.6h0.7h0.7h0.8h0.9h1h1.1h1.1h1.2h1.3h1.3h1.4h1.5h1.5h1.6h1.6h1.7h1.7h1.8h1.8h1.9h1.9h1.9h2h2h2h2h2h2h2h2h2h2
						h2h2h2h2h1.9h1.9h1.9h1.8h1.8h1.7h1.7h1.6h1.6h1.5h1.5h1.4h1.3h1.3h1.2h1.1h1.1h1h0.9h0.8h0.7h0.7h0.6h0.5h0.4h0.3h0.2h0.1l0,0
						"/>
				</g>
				<g>
					<path class="st5" d="M311.8,591.3l-11.5-0.3l-11.4-1l-11.4-1.6l-11.3-2.3l-11.2-2.9l-11.1-3.5l-10.9-4.2l-10.7-4.8l-10.5-5.4
						l-10.3-6l-10-6.5l-9.7-7.1l-9.4-7.6l-9-8.2l-8.7-8.7l-8.3-9.1l-7.9-9.6l-7.5-10l-7.1-10.4l-6.6-10.8l-6.1-11.2l-5.7-11.5
						l-5.2-11.8l-4.7-12.1l-4.1-12.4l-3.6-12.6l-3.1-12.8L82.3,374l-2-13.1l-1.2-13.1l-0.8-13.3L78,321.3l0.3-13.2l0.8-13.2
						l1.4-13.2l2-13.1l2.5-12.9l3.1-12.8l3.6-12.6l4.1-12.4l4.7-12.1l5.2-11.8l5.7-11.5l6.1-11.2l6.6-10.8l7.1-10.4l7.5-10l7.9-9.6
						l8.3-9.1l8.7-8.7l9-8.2l9.4-7.6l9.7-7.1l10-6.5l10.3-6l10.5-5.4l10.7-4.8l10.9-4.2l11.1-3.5l11.2-2.9l11.3-2.3l11.4-1.6l11.4-1
						l11.5-0.3 M311.8,591.3l-6.6-0.3l-6.6-1l-6.6-1.6l-6.5-2.3l-6.5-2.9l-6.4-3.5l-6.3-4.2l-6.2-4.8l-6.1-5.4l-5.9-6l-5.8-6.5
						l-5.6-7.1l-5.4-7.6l-5.2-8.2l-5-8.7l-4.8-9.1l-4.6-9.6l-4.3-10l-4.1-10.4l-3.8-10.8l-3.5-11.2l-3.3-11.5l-3-11.8l-2.7-12.1
						l-2.4-12.4l-2.1-12.6l-1.8-12.8l-1.5-12.9l-1.1-13.1l-0.8-13.2l-0.5-13.2l-0.2-13.2l0.2-13.2l0.5-13.2l0.8-13.2l1.1-13.1
						l1.5-12.9l1.8-12.8l2.1-12.6l2.4-12.4l2.7-12.1l3-11.8l3.3-11.5l3.5-11.2l3.8-10.8l4.1-10.4l4.3-10l4.6-9.6l4.8-9.1l5-8.7
						l5.2-8.2l5.4-7.6l5.6-7.1l5.8-6.5l5.9-6l6.1-5.4l6.2-4.8l6.3-4.2l6.4-3.5l6.5-2.9l6.5-2.3l6.6-1.6l6.6-1l6.6-0.3 M311.8,591.3
						v-20.6v-58.5v-87.6V321.3V218v-87.6V71.9V51.3 M311.8,591.3l6.6-0.3l6.6-1l6.6-1.6l6.5-2.3l6.5-2.9l6.4-3.5l6.3-4.2l6.2-4.8
						l6.1-5.4l5.9-6l5.8-6.5l5.6-7.1l5.4-7.6l5.2-8.2l5-8.7l4.8-9.1l4.6-9.6l4.3-10l4.1-10.4l3.8-10.8l3.5-11.2l3.3-11.5l3-11.8
						l2.7-12.1l2.4-12.4l2.1-12.6l1.8-12.8l1.5-12.9l1.1-13.1l0.8-13.2l0.5-13.2l0.2-13.2l-0.2-13.2l-0.5-13.2l-0.8-13.2l-1.1-13.1
						l-1.5-12.9l-1.8-12.8l-2.1-12.6l-2.4-12.4l-2.7-12.1l-3-11.8l-3.3-11.5l-3.5-11.2l-3.8-10.8l-4.1-10.4l-4.3-10l-4.6-9.6
						l-4.8-9.1l-5-8.7l-5.2-8.2l-5.4-7.6l-5.6-7.1l-5.8-6.5l-5.9-6l-6.1-5.4l-6.2-4.8l-6.3-4.2l-6.4-3.5l-6.5-2.9l-6.5-2.3l-6.6-1.6
						l-6.6-1l-6.6-0.3 M311.8,591.3l11.5-0.3l11.4-1l11.4-1.6l11.3-2.3l11.2-2.9l11.1-3.5l10.9-4.2l10.7-4.8l10.5-5.4l10.3-6l10-6.5
						l9.7-7.1l9.4-7.6l9-8.2l8.7-8.7l8.3-9.1l7.9-9.6l7.5-10l7.1-10.4l6.6-10.8l6.1-11.2l5.7-11.5l5.2-11.8l4.7-12.1l4.1-12.4
						l3.6-12.6l3.1-12.8l2.5-12.9l2-13.1l1.4-13.2l0.8-13.2l0.3-13.2l-0.3-13.2l-0.8-13.2l-1.4-13.2l-2-13.1l-2.5-12.9l-3.1-12.8
						l-3.6-12.6l-4.1-12.4l-4.7-12.1l-5.2-11.8l-5.7-11.5l-6.1-11.2l-6.6-10.8l-7.1-10.4l-7.5-10l-7.9-9.6l-8.3-9.1l-8.7-8.7l-9-8.2
						l-9.4-7.6l-9.7-7.1l-10-6.5l-10.3-6l-10.5-5.4l-10.7-4.8l-10.9-4.2l-11.1-3.5l-11.2-2.9l-11.3-2.3l-11.4-1.6l-11.4-1l-11.5-0.3
						"/>
				</g>
				<g>
					<path class="st4" d="M41.8,321.3l0.4-14.1l1.1-14.1l1.8-14l2.6-13.9l3.3-13.7l4-13.6l4.7-13.3l5.4-13.1l6.1-12.8l6.7-12.4
						l7.4-12.1l8-11.6l8.6-11.2l9.2-10.7l9.7-10.3l10.3-9.7l10.7-9.2l11.2-8.6l11.6-8l12.1-7.4l12.4-6.7l12.8-6.1l13.1-5.4l13.3-4.7
						l13.6-4l13.7-3.3l13.9-2.6l14-1.8l14.1-1.1l14.1-0.4l14.1,0.4l14.2,1l14,1.8l13.9,2.6l13.7,3.3l13.6,4l13.3,4.7l13.1,5.4
						l12.8,6.1l12.4,6.7l12.1,7.4l11.6,8l11.2,8.6l10.7,9.2l10.3,9.7l9.7,10.3l9.2,10.7l8.6,11.2l8,11.6l7.4,12.1l6.7,12.4l6.1,12.8
						l5.4,13.1l4.7,13.3l4,13.6l3.3,13.7l2.6,13.9l1.8,14l1.1,14.1l0.4,14.1l0,0l0,0l-0.4,14.1l-1.1,14.1l-1.8,14l-2.6,13.9
						l-3.3,13.7l-4,13.6l-4.7,13.3l-5.4,13.1l-6.1,12.8l-6.7,12.4l-7.4,12.1l-8,11.6l-8.6,11.2l-9.2,10.7l-9.7,10.3l-10.3,9.7
						l-10.7,9.2l-11.2,8.6l-11.6,8l-12.1,7.4l-12.4,6.7l-12.8,6.1l-13.1,5.4l-13.3,4.7l-13.6,4l-13.7,3.3l-13.9,2.6l-14,1.8
						l-14.1,1.1l-14.1,0.4l0,0l0,0l-14.1-0.4l-14.1-1.1l-14-1.8l-13.9-2.6l-13.7-3.3l-13.6-4l-13.3-4.7l-13.1-5.4l-12.8-6.1
						l-12.4-6.7l-12.1-7.4l-11.6-8l-11.2-8.6l-10.7-9.2l-10.3-9.7l-9.7-10.3l-9.2-10.7l-8.6-11.2l-8-11.6L78,456.2l-6.7-12.4
						L65.2,431l-5.4-13.1l-4.7-13.3l-4-13.6l-3.3-13.7l-2.6-13.9l-1.8-14l-1.1-14.1L41.8,321.3L41.8,321.3z"/>
				</g>
				<g>
					<g>
						<g>
							<path class="st6" d="M351.1,54.2l3.1,0.6l3,0.8l3.4,1.1l3.4,1.4l3.3,1.7l3.2,2l3.1,2.3l3,2.5l2.9,2.8l2.8,3.1l2.7,3.3
								l2.6,3.6l2.5,3.8l2.4,4.1l4.4,8.9l3.9,9.9l3.4,10.8l2.9,11.7l2.4,12.5l1.9,13.3l1.3,14l0.8,14.7l0.3,15.3l-0.2,15.8
								l-0.7,16.3l-1.2,16.7l-1.7,17l-2.1,17.3l-2.6,17.5l-3,17.6l-3.4,17.6l-3.8,17.5l-4.1,17.4l-4.5,17.2l-4.8,16.9l-5,16.5
								l-5.2,16.1l-5.4,15.6l-5.6,15l-5.7,14.4l-5.8,13.7l-5.9,12.9l-5.9,12.1l-5.9,11.3l-5.9,10.4l-5.8,9.4l-5.7,8.5l-5.6,7.5
								l-5.4,6.4l-5.3,5.4l-5,4.3l-2.4,1.7l-2.4,1.5l-2.3,1.2l-2.3,0.9l-2.2,0.6l-2.1,0.3l-3.4-0.1 M347.5,53.7l0.1,0.1l0.1,1
								l-0.2,2L347,60l-0.8,4.3l-1.1,5.4l-1.4,6.4l-1.6,7.5l-1.9,8.5l-2.2,9.5l-2.4,10.4l-2.6,11.3l-2.7,12.1l-3,13l-3.2,13.7
								l-3.3,14.4l-3.4,15l-3.5,15.6l-3.6,16.1l-3.7,16.5l-3.7,16.9l-3.7,17.2l-3.7,17.4l-3.6,17.5l-3.5,17.6l-3.4,17.6l-3.3,17.5
								l-3.1,17.3l-3,17l-2.8,16.7l-2.5,16.3l-2.3,15.8l-2,15.3l-1.7,14.7l-1.4,14l-1.1,13.3l-0.8,12.5l-0.7,11.5l-0.2,10.8l0.2,9.9
								l0.5,8.9l0.9,7.9l1.2,6.9l1.6,5.8l1.9,4.8l2.3,3.7l1.3,1.4l1.3,1.1l1.4,0.9l1.5,0.6l1.3,0.3 M350.4,54.1l-5-0.4l-3.5,0.1
								l-3.5,0.4l-3.6,0.6l-3.6,0.9l-3.7,1.2l-3.7,1.5l-3.8,1.8l-3.8,2l-3.9,2.3l-3.9,2.6l-4,2.8l-4,3.1l-4,3.4l-4,3.6l-8,8l-8,9
								l-8,10l-7.9,10.9l-7.8,11.8l-7.7,12.6l-7.5,13.4l-7.2,14.1l-7,14.8l-6.6,15.4l-6.4,15.8l-5.9,16.4l-5.5,16.7l-5,17.1
								l-4.5,17.3l-4,17.5l-3.5,17.6L179,336l-2.3,17.5l-1.7,17.4l-1.1,17.1l-0.4,16.9l0.2,16.5l0.9,16l1.5,15.5l2.2,15l2.8,14.3
								l3.5,13.6l4.1,12.9l4.7,12.1l2.6,5.7l2.7,5.5l2.9,5.3l3,5l3.2,4.8l3.3,4.6l3.5,4.3l3.6,4.1l3.7,3.8l3.8,3.6l4,3.3l4,3
								l4.2,2.8l4.3,2.5l4.4,2.2l4.5,1.9l4.6,1.7l4.7,1.4l4.1,1l4.1,0.8 M363.1,56.2L356,55l-6.3-0.7l-6.4-0.5l-6.4-0.2l-6.5,0.2
								l-6.5,0.4l-6.6,0.6l-6.6,1l-6.6,1.2l-6.6,1.5l-6.6,1.8l-6.7,2.1l-6.6,2.3l-6.6,2.6l-6.6,2.9l-6.6,3.1l-6.5,3.4l-6.5,3.7
								l-6.5,3.9l-6.4,4.2l-6.3,4.4l-6.3,4.7l-6.2,4.9l-6.1,5.1l-6,5.4l-5.9,5.6l-5.8,5.8l-5.7,6l-5.6,6.2l-5.5,6.4l-5.3,6.6
								l-5.2,6.8l-5,7l-4.9,7.2l-4.7,7.3l-4.6,7.5l-4.4,7.6l-4.2,7.8l-4,7.9l-3.8,8l-3.6,8.1l-3.4,8.2l-3.2,8.3l-3,8.4l-2.8,8.5
								l-3.1,8.6l-2.4,8.6l-2.2,8.7l-1.9,8.7l-1.7,8.8l-1.5,8.8l-1.2,8.8l-1,8.8l-0.8,8.8l-0.5,8.8l-0.3,8.7v8.7l0.2,8.7l0.5,8.6
								l0.7,8.5l0.9,8.5l1.2,8.4l1.4,8.3l1.7,8.2l1.9,8.1l2.2,7.9l2.4,7.8l2.6,7.7l2.8,7.5l3.1,7.4l3.3,7.2l3.5,7.1l3.7,6.9l4,6.7
								l4.2,6.5l4.4,6.3l4.6,6.1l4.8,5.9l4.9,5.7l5.1,5.5l5.3,5.2l5.5,5l5.7,4.8l5.8,4.5l6,4.3l6.1,4l6.3,3.8l6.4,3.5l6.5,3.3l6.7,3
								l6.8,2.7l6.9,2.5l7,2.2l6.7,1.8 M408.9,69.4l-4.6-1.7l-7.7-2.6l-7.8-2.4l-7.9-2.1l-8-1.8l-8.1-1.5l-8.1-1.3l-8.2-1l-8.3-0.7
								l-8.4-0.5l-8.3-0.1l-8.3,0.1l-8.4,0.4l-8.4,0.7l-8.4,1l-8.4,1.3l-8.3,1.5l-8.3,1.8l-8.3,2.1l-8.2,2.4l-8.2,2.6l-8.1,2.9
								l-8,3.2l-8,3.4l-7.9,3.7l-7.8,3.9l-7.7,4.2l-7.6,4.4l-7.4,4.7l-7.3,4.9l-7.2,5.2l-7,5.4l-6.8,5.6l-6.7,5.8l-6.5,6l-6.3,6.2
								l-6.1,6.4l-5.9,6.6l-5.7,6.8l-5.5,7l-5.3,7.2l-5.1,7.3l-4.9,7.5l-4.6,7.6l-4.4,7.8l-4.1,7.9l-3.9,8l-3.6,8.1l-3.4,8.2
								l-3.1,8.3l-2.8,8.4l-2.6,8.5l-2.3,8.6l-2,8.6l-1.7,8.7l-1.4,8.7l-1.2,8.8l-0.9,8.8l-0.6,8.8l-0.5,9.1v8.8l0.3,8.8l0.6,8.7
								l0.9,8.7l1.2,8.7l1.5,8.6l1.7,8.5l2,8.5l2.3,8.4l2.6,8.3l2.9,8.2l3.1,8.1l3.4,7.9l3.7,7.8l3.9,7.7l4.2,7.5l4.4,7.4l4.7,7.2
								l4.9,7l5.2,6.9l5.4,6.7l5.6,6.5l5.8,6.3l6.1,6.1l6.3,5.9l10.6,9.1 M581.1,302.3l-0.9-10.1l-1.1-8.7l-1.4-8.6l-1.7-8.6l-2-8.5
								l-2.3-8.5l-2.5-8.4l-2.8-8.3l-3.1-8.2l-3.4-8.1l-3.6-8l-3.9-7.9l-4.2-7.7l-4.4-7.6l-4.7-7.4l-4.9-7.3l-5.2-7.1l-5.4-7
								l-5.6-6.8l-5.8-6.6l-6.1-6.4l-6.3-6.2l-6.5-6l-6.7-5.8l-6.8-5.6l-7-5.4l-7.2-5.1l-7.4-4.9l-7.5-4.7l-7.7-4.4l-7.8-4.2
								l-7.9-3.9l-8-3.7l-8.2-3.4l-8.3-3.1l-8.3-2.9l-8.4-2.6l-8.5-2.3l-8.6-2.1l-8.6-1.8l-8.7-1.5l-8.7-1.1l-8.8-1l-8.8-0.7
								l-8.7-0.3l-8.8-0.1l-8.8,0.1l-8.8,0.4l-8.7,0.7l-8.7,1l-8.6,1.4l-8.7,1.5l-8.5,1.8l-8.5,2.1l-8.4,2.4l-8.3,2.7l-8.2,2.9
								l-8.1,3.2l-8,3.5l-7.9,3.7l-7.7,4l-7.6,4.2l-7.4,4.5l-7.3,4.7l-7.1,4.9l-6.9,5.2l-6.8,5.4l-6.4,5.5l-6.2,5.6 M415.4,570.6
								l9.4-4.2l7.3-3.6l7.2-3.9l7.1-4.1l6.9-4.4l6.8-4.6l6.6-4.8l6.4-5.1l6.2-5.3l6-5.5l5.9-5.7l5.6-5.9l5.4-6.2l5.2-6.3l5-6.5
								l4.8-6.7l4.6-6.9l4.3-7.1l4.1-7.2l3.8-7.4l3.6-7.5l3.3-7.7l3.1-7.8l2.8-7.9l2.6-8.1l2.3-8.2l2-8.3l1.8-8.4l1.5-8.4l1.2-8.5
								l1-8.6l0.7-8.6l0.4-8.7l0.1-8.7l-0.1-8.7l-0.4-8.7l-0.7-8.8l-0.9-8.7l-1.2-8.7l-1.5-8.7l-1.7-8.7l-2-8.6l-2.3-8.6l-2.5-8.5
								l-2.8-8.5l-3-8.4l-3.3-8.3l-3.5-8.2l-3.8-8.1l-4-8l-4.2-7.8l-4.4-7.7l-4.7-7.6l-4.9-7.4l-5.1-7.3l-5.3-7.1l-5.5-6.9L487,149
								l-5.8-6.6l-6-6.4l-6.2-6.2l-6.3-6l-6.5-5.8l-6.6-5.6l-6.7-5.3l-6.8-5.1l-7-4.9l-7.1-4.6l-7.2-4.4l-7.3-4.1l-7.4-3.9l-7.4-3.6
								l-7.5-3.4l-7.6-3.1l-7.6-2.8l-7.7-2.6l-7.7-2.3l-7.7-2l-7.8-1.8l-7.8-1.5l-7.8-1.2l-7.2-1l-7.8-0.7l-7.7-0.3l-7.7-0.1
								l-7.7,0.2l-7.6,0.5l-7.6,0.7l-7.5,1l-7.4,1.3l-7.4,1.6l-5.2,1.3 M364.6,586.1l8.4-1.9l6.1-1.8l6.1-2l5.9-2.3l5.9-2.6l5.7-2.8
								l5.6-3.1l5.5-3.4l5.4-3.6l5.2-3.9l5.1-4.1l4.9-4.4l4.8-4.6l4.6-4.9l4.5-5.1l4.3-5.3l4.1-5.5l3.9-5.8l3.8-6l3.6-6.2l3.4-6.4
								l3.2-6.6l3-6.7l2.8-6.9l2.6-7.1l2.4-7.3l2.2-7.4l2-7.6l1.8-7.7l1.6-7.8l1.4-8l1.2-8.1l1-8.2l0.8-8.3l0.6-8.4l0.3-8.4l0.1-8.5
								l-0.1-8.6l-0.3-8.6l-0.5-8.7l-0.7-8.7l-2-17.5l-2.8-17.5l-3.6-17.4l-4.3-17.3L479,256l-5.8-16.8l-6.4-16.5l-7.1-16l-7.7-15.5
								l-4-7.6l-4.2-7.4l-4.3-7.3l-4.4-7.1l-4.5-6.9l-4.7-6.7l-4.7-6.6l-4.9-6.4l-4.9-6.2l-5-6l-5.1-5.7l-5.2-5.5l-5.2-5.3l-5.3-5.1
								l-5.4-4.8l-5.4-4.6l-5.4-4.4l-5.5-4.1l-5.5-3.9l-5.6-3.6l-5.5-3.4l-5.6-3.1l-5.6-2.8l-5.6-2.6l-5.5-2.3l-5.6-2l-5.5-1.7
								l-5.3-1.3l-5.4-1.2l-5.4-0.9l-5.4-0.6l-5.3-0.3l-5.3-0.1l-5.2,0.2l-4.4,0.4l-4.4,0.6 M350.8,588.5l3.9-0.7l3.4-1l3.3-1.2
								l3.2-1.5l3.2-1.8l3-2.1l3-2.3l2.8-2.6l2.8-2.9l2.6-3.1l2.6-3.4l2.4-3.6l2.3-3.9l4.3-8.6l3.8-9.5l3.3-10.4l2.9-11.3l2.4-12.2
								l1.9-13l1.4-13.7l0.9-14.4l0.4-15l-0.1-15.6l-0.6-16.1l-1.1-16.5l-1.6-16.8l-2-17.1l-2.5-17.3l-2.9-17.4l-3.3-17.5l-3.6-17.5
								l-4-17.4l-4.3-17.2l-4.6-17l-4.8-16.6l-5-16.2l-5.2-15.8l-5.4-15.2l-5.5-14.6l-5.6-14l-5.7-13.3l-5.7-12.5l-5.7-11.7
								l-5.7-10.8l-5.6-9.9l-5.5-8.9l-5.4-7.9l-5.3-6.9l-5.1-5.9l-4.9-4.8l-2.4-2l-2.3-1.7l-2.2-1.4l-2.2-1.2l-2.5-1l-2.1-0.6
								l-2-0.3h-1.9l-1,0.1 M347.5,588.9L347.5,588.9v-0.6l-0.3-1.7l-0.6-2.8l-0.9-3.9l-1.2-5l-1.5-6.1l-1.8-7.1l-2-8.1l-2.3-9.1
								l-2.5-10l-2.7-10.9l-2.9-11.8l-3.1-12.6l-3.3-13.4l-3.4-14.1l-3.5-14.7l-3.6-15.3l-3.7-15.8l-3.7-16.3l-3.8-16.7l-3.7-17
								l-3.7-17.2l-3.6-17.4l-3.6-17.5l-3.4-17.5l-3.3-17.4l-3.2-17.3l-3-17.1l-2.8-16.8l-2.5-16.4l-2.3-16l-2-15.5l-1.7-14.9
								l-1.4-14.3l-1.1-13.6l-0.8-12.8l-0.4-12l-0.1-11.2l0.2-10.3l0.6-9.4l1-8.4l1.3-7.4l1.7-6.3l2-5.3l2.4-4.2l1.3-1.7l1.4-1.4
								l1.5-1.1l1.5-0.9l1.4-0.5l1.4-0.3 M350.6,588.5l-3.1,0.3l-3.5,0.1l-3.6-0.2l-3.7-0.5l-3.7-0.7l-3.8-1l-3.8-1.3l-3.9-1.6
								l-3.9-1.8l-4-2.1l-4-2.4l-4-2.7l-4-2.9l-4.1-3.2l-4.1-3.4l-4.1-3.7l-4.1-4l-8.2-8.6l-8.2-9.6l-8.1-10.5l-8-11.4l-7.9-12.2
								l-7.7-13l-7.4-13.8l-7.2-14.4l-6.8-15.1l-6.5-15.6l-6.1-16.1l-5.7-16.5l-5.2-16.9l-4.7-17.1l-4.2-17.3l-3.7-17.5l-3.1-17.5
								l-2.5-17.5l-1.9-17.4l-1.3-17.2l-0.6-16.9v-16.6l0.7-16.2l1.4-15.7l2-15.2L177,167l3.3-13.9l4-13.2l4.6-12.4l2.6-5.9l2.7-5.7
								l2.9-5.5l3-5.2l3.2-5l3.3-4.8l3.4-4.5l3.5-4.3l3.7-4.1l3.8-3.8l4-3.5l4-3.3l4.2-3l4.3-2.7l4.4-2.5l4.5-2.2l4.6-1.9l4.7-1.7
								l4.8-1.4l4.9-1.1l2.8-0.5 M363.8,586.2l-3.8,0.7l-6.3,0.9l-6.4,0.6l-6.5,0.4l-6.5,0.1l-6.6-0.2l-6.6-0.5l-6.7-0.8l-6.7-1
								l-6.7-1.3l-6.7-1.6l-6.7-1.9l-6.7-2.1l-6.7-2.4l-6.7-2.7l-6.7-2.9l-6.6-3.2l-6.6-3.5l-6.5-3.7l-6.5-4l-6.4-4.2l-6.4-4.5
								l-6.3-4.7l-6.2-4.9l-6.1-5.2l-6-5.4l-5.9-5.6l-5.8-5.8l-5.7-6l-5.6-6.2l-5.4-6.4l-5.3-6.6l-5.2-6.8l-5-7l-4.9-7.2l-4.7-7.3
								l-4.5-7.5l-4.4-7.6l-4.2-7.8l-4-7.9l-3.8-8l-3.6-8.1l-3.4-8.2l-3.2-8.3l-3-8.4l-2.8-8.5l-2.6-8.5l-2.3-8.6l-2.1-8.6l-1.9-8.7
								l-1.6-8.7l-1.4-8.7l-1.2-8.7l-0.9-8.8l-0.7-8.7l-0.5-8.7l-0.2-8.7v-8.7l0.3-8.6l0.5-8.6l0.8-8.5l1-8.4l1.2-8.3l1.5-8.2
								l1.7-8.1l2-8l2.2-7.9l2.5-7.8l2.7-7.7l2.9-7.5l3.1-7.4l3.4-7.2l3.6-7l3.8-6.9l4-6.7l4.2-6.5l4.4-6.3l4.6-6.1l4.8-5.9l5-5.7
								l5.2-5.4l5.4-5.2l5.6-5l5.8-4.8l5.9-4.5l6.1-4.3l6.2-4l6.4-3.8l6.5-3.5l6.6-3.3l6.7-3l6.9-2.7l7-2.5l5.9-1.8l6-1.7
								 M412.1,572l-2.9,1.1l-7.7,2.8l-7.8,2.5l-7.9,2.3l-8,2l-8.1,1.7l-8.1,1.4l-8.2,1.2l-8.3,0.9l-8.3,0.6l-8.3,0.3l-8.4,0.1
								l-8.4-0.2l-8.4-0.5l-8.4-0.8l-8.4-1.1l-8.4-1.3l-8.4-1.6l-8.3-1.9l-8.3-2.2l-8.2-2.4l-8.2-2.7l-8.1-3l-8-3.2l-7.9-3.5
								l-7.9-3.7l-7.7-4l-7.6-4.2l-7.5-4.5l-7.4-4.7l-7.2-5l-7.1-5.2l-6.9-5.4l-6.8-5.6l-6.6-5.9l-6.4-6.1l-6.3-6.3l-6.1-6.5
								l-5.9-6.6l-5.7-6.8l-5.5-7l-5.2-7.2l-5-7.3l-4.8-7.5l-4.5-7.6l-4.3-7.8l-4.1-7.9l-3.8-8l-3.6-8.1l-3.3-8.2l-3-8.3l-2.8-8.4
								l-2.5-8.5l-2.2-8.5l-1.9-8.6l-1.7-8.7l-1.4-8.7l-1.1-8.7l-0.8-8.7l-0.5-8.8l-0.2-8.8l0.1-8.7l0.4-8.7l0.6-8.7l0.9-8.7
								l1.2-8.6l1.5-8.6l1.8-8.5l2.1-8.4l2.4-8.3l2.6-8.2l2.9-8.1l3.2-8l3.5-7.9l3.7-7.8l4-7.6l4.2-7.5l4.5-7.3l4.7-7.2l5-7l5.2-6.8
								l5.4-6.7l5.7-6.5l5.9-6.3l6.1-6.1l8.6-7.9 M581.8,320.4l-0.1,6.2l-0.3,8.8l-0.6,8.8l-0.9,8.7l-1.2,8.7l-1.5,8.7l-1.9,8.5
								l-2.1,8.5l-2.4,8.5l-2.7,8.4l-2.9,8.3l-3.2,8.2l-3.5,8.1l-3.8,8l-4,7.8l-4.3,7.7l-4.5,7.6l-4.8,7.4l-5,7.3l-5.3,7.1l-5.5,6.9
								l-5.7,6.7l-5.9,6.5l-6.2,6.3l-6.4,6.1l-6.6,5.9l-6.7,5.7l-6.9,5.5l-7.1,5.3l-7.3,5l-7.4,4.8l-7.6,4.6l-7.7,4.3l-7.8,4.1
								l-8,3.8l-8.1,3.6l-8.2,3.3l-8.3,3l-8.4,2.8l-8.5,2.5l-8.5,2.2l-8.6,2l-8.6,1.7l-8.7,1.4l-8.7,1.1l-8.7,0.9l-8.8,0.6l-8.8,0.3
								h-8.8l-8.7-0.3l-8.7-0.5l-8.7-0.8l-8.7-1.1l-8.6-1.4l-8.5-1.6l-8.5-1.9l-8.4-2.2l-8.3-2.5l-8.2-2.7l-8.1-3l-8-3.3l-7.9-3.5
								l-7.8-3.8l-7.6-4l-7.5-4.3l-7.3-4.5l-7.2-4.8l-7-5l-6.8-5.2l-9.3-7.8 M411.8,70.5l6.2,2.6l7.4,3.4l7.3,3.6l7.2,3.9l7,4.2
								l6.9,4.4l6.7,4.6l6.5,4.9l6.4,5.1l6.2,5.3l6,5.6l5.8,5.8l5.6,6l5.4,6.2l5.2,6.4l4.9,6.6l4.7,6.8l4.5,7l4.3,7.1l4,7.3l3.8,7.5
								l3.5,7.6l3.3,7.8l3,7.9l2.8,8l2.5,8.1l2.2,8.2l2,8.3l1.7,8.4l1.4,8.5l1.1,8.6l0.9,8.6l0.6,8.7l0.3,8.7v8.8l-0.2,8.8l-0.5,8.8
								l-0.8,8.8l-1,8.8l-1.3,8.8l-1.6,8.7l-1.8,8.7l-2.1,8.7l-2.4,8.6l-2.6,8.5l-2.9,8.5l-3.1,8.4l-3.4,8.3l-3.6,8.2l-3.8,8.1
								l-4.1,8l-4.3,7.8l-4.5,7.7l-4.7,7.5l-4.9,7.4l-5.1,7.2l-5.3,7.1l-5.5,6.9l-5.7,6.7l-5.9,6.5l-6,6.3l-6.2,6.1l-6.3,5.9
								l-6.5,5.7l-6.6,5.5l-6.7,5.3l-6.9,5l-7,4.8l-7.1,4.5l-7.2,4.3l-7.3,4.1l-7.3,3.8l-7.4,3.5l-7.5,3.3l-7.6,3l-7.6,2.8l-7.6,2.5
								l-7.7,2.2l-7.7,1.9l-7.7,1.7l-7.7,1.4l-7.7,1.1L313,588"/>
						</g>
						<g>
							<path class="st7" d="M520.7,241.2l-7-9.4l-5-6.8l-4.1-5.5l-3.6-4.8l-3.3-4.5l-3.3-4.5l-3.4-4.6l-3.7-5.1l-4.4-6l-3.4,4.1
								l-2.9,3.1l-2.6,2.6l-2.4,2.3l-2.4,2.2l-2.5,2.1l-2.7,2.2l-3.1,2.4l-3.9,2.7l3.7,5.2l3,4.6l2.7,4.2l2.4,4.2l2.4,4.3l2.4,4.6
								l2.5,5.3l2.9,6.5l3.4,8.7l4.7-3.8l3.9-2.9l3.5-2.4l3.4-2.1l3.4-1.9l3.6-1.8l4.1-1.8l5-1.8L520.7,241.2"/>
						</g>
					</g>
				</g>
			</g>
		</g>
	</g>
</g>
</svg>
