<?xml version="1.0" encoding="utf-8"?>
<!-- Generator: Adobe Illustrator 22.1.0, SVG Export Plug-In . SVG Version: 6.00 Build 0)  -->
<svg version="1.1" id="Layer_1" xmlns="http://www.w3.org/2000/svg" xmlns:xlink="http://www.w3.org/1999/xlink" x="0px" y="0px"
	 viewBox="0 0 541 541" style="enable-background:new 0 0 541 541;" xml:space="preserve">
<style type="text/css">
	.st0{fill:#FFFFFF;}
	.st1{clip-path:url(#SVGID_2_);}
	.st2{fill:#F0F0F0;}
	.st3{fill:#646464;}
	.st4{fill:none;stroke:#444444;stroke-miterlimit:2;}
	.st5{fill:none;stroke:#666666;stroke-width:0.5;}
	.st6{fill:none;stroke:#FF0000;stroke-miterlimit:2;stroke-opacity:0.5;}
	.st7{fill:none;stroke:#0000FF;stroke-width:2;stroke-miterlimit:2;stroke-opacity:0.5;}
</style>
<rect x="0.5" class="st0" width="540.5" height="540.1"/>
<g>
	<g>
		<defs>
			<rect id="SVGID_1_" width="541" height="541"/>
		</defs>
		<clipPath id="SVGID_2_">
			<use xlink:href="#SVGID_1_"  style="overflow:visible;"/>
		</clipPath>
		<g class="st1">
			<g>
				<rect class="st0" width="541" height="541"/>
			</g>
			<g>
				<path class="st2" d="M421.4,90.5l-5.3-4.1l-1.5-2.3l-4.4-3.2l-0.2-3.4l1.7-0.5l-0.6-1.9l1.4-0.7l1.2-1.4l2.4,0.8l1.9-0.1l2,2
					l2.3,3.2l-2.2-0.5l-1.3,0.5l1.8,2.5l-2.3-0.4l0.9,1.2l1.8,0.9l3.2,3l3.3,1.2l1.3,1.2l0.5,1.4l0.7,0.8l2.2,2.3l-1.6-2.5l1.1-0.9
					l2,2l3,2.2l-1.1,1.1l-2.6-0.8l1.6,3l1.6,0.2l1,2.5l2.5,1.3l2.2,3.9l2,2.6l0.4,0.9l-3,1l-3.7-0.7l-2.8-1.9l-2.7-0.7l-2.4-2.7
					l-1.2-1.9l0.4-0.9l-0.4-1.2l-1.4-2.8l1.7-0.3l-1.3-1l-1.2-0.1l-2.9-2.6L421.4,90.5z M294.3,6.5l-1.7-0.2l-1-0.4L290,6.1l1.1,0.3
					l-0.2,0.3l2,0.2L294.3,6.5z M283.1,4.9H282l-0.8-0.3l-1.9,0.3l1.3,0.7l2.6,0.8l1.8,0.3L284.5,7l2.9,0.6l1.2,0L288,6.8l0.6-0.2
					l-0.6-0.7l1.5-0.4l-3.9-0.6l-1.5-0.3l-1.1,0L283.1,4.9z M292,4.6l-2.1-0.3l-2.3-0.2l-0.2,0.2l-1.5-0.2l-1.9,0.2l1.5,0.4l1.2,0
					l0.6,0.2l2.6,0.1l2-0.1L292,4.6z M245.2,2.7L243.8,3l-0.7,0.4l0.1-0.2l-0.4,0l0.3-0.2L240,3.2l0.8-0.2l-1.2,0L238,3.1l-1.8,0.2
					l-1.7,0.3l-0.9,0.1l-4.1,0.5l-2,0.3l-0.7,0.3l-1.7,0.3l-3.3,0.4L218.6,6l-1.7,0.4l-1.1,0.4l0.5,0.3l-1,0.1l-2.3,0.3l-2.1,0.7
					L210,8.4l1.4-0.1l1.4,0l0.8,0.1l-0.8,0.7l-1.6,0.5l-0.6,0.5l-3.2,1.4l-2,1l-0.8,0.5l-4.4,1.4l-0.2,0.4l1.4-0.2l-0.5,0.5l-0.6,1
					l-1.1-0.4h-0.8l-2.3,0.8l-2.4,1.1l0,0.5l1.4-0.2l1-0.2l2.4-0.6l-2.9,1.3l-1.9,0.7l-2.8,0.6l-5.1,2.1l-0.6,0.7l-3,1.4l-1.5,1.8
					l-2.9,1.8l-1.5,1.3l-1.7,2.7l-2.1,2.2l-0.3,1.3h3.1l0,1.9l2.5-0.1l3.6-2.2l3-1.9l1.6-1.7l4.8-1.7l2.6-1.3l1.9-1.4l3-1.2l2.8-0.5
					l2.7-0.5l1.2-0.1l5.1-1.3l4.6-1.9l2.5-0.7h1.7l5.2-0.6L230,18l5.6-1.4l-2-0.1l-3.7-0.1l2.7-0.8l0.8-1l0.6,0.8l0.4,0.6l2.9-0.3
					l0.8-1.2l-0.7-0.9l-1.3-0.3l1.2-0.4l1.9,0.6l0.8-0.6l-0.4-0.9h1.8l2-0.2l1-0.5l-0.7-0.5l2.7-0.1l-0.2-1.1l1.4-0.1l1.1-1
					l-1.1-0.6l2.2-0.3l1.6,0L251,6.8l1.7-1.1l1.7-0.6l2-0.6l-1.7,0l2.7-0.1l0.7-0.2l3.7-0.5l0.1-0.3l-1.7-0.1l-3.7,0.3l-2.3,0.3
					l1.7-0.4l0.1-0.2l-1.8,0.2L253.2,3L251,3.1l0.2-0.1l3.2-0.1l2.3,0l1.7-0.2l-1.7-0.4l-3.3-0.1l-1.7,0l-1.7,0.2l-1.3,0L245.2,2.7z
					 M301.6,4.1l1.3,0l0.8,0.3l1.4,0.2l0.1-0.1l-0.5-0.1l0.1-0.1l0.2-0.1l-0.3-0.1l-1.6-0.2l0.2,0.1l0.5,0.2l-1-0.2l-0.7,0
					L301.6,4.1z M331.3,11.3l1.1,0.1l1.5,1.2l2,0.8l-0.1,0.3l2,0.8l2.6,0.4l1.8,0.7l3.4,0.2l0.2-0.1l-4.7-1.3l-3.2-1.2l-2.4-1.3
					l-2.7-1.3l-1.8-1.2l-0.3-0.6l-0.4-0.6l-1.1-0.4l-2-0.4l-0.2,0.2l0.7,0.4l-0.9,0.2l0.6,0.7l0.6,0.6l1.9,0.6L331.3,11.3z
					 M243.5,23l-3-0.1l-3.6,1l-1.9-0.5l-3.5,1l-1.7-1.3l-2.9,0.3l-2.3,1.2l3.4,0.5l-0.4,0.6L224,26l3.3,1l-2.6,0.9l5,0.6l2.4,0.3
					l2-0.4l6.5-1.4l3.3-1.5l-1.4-1.3L243.5,23z M192,12.6l-0.2,0.1l0.9-0.2l0.2,0l0.2,0.1l1.1-0.4l1.9-0.8l-0.1-0.1l-0.4,0.1
					l-1.6,0.5L192,12.6z M146.3,31.1l-1.1,0.6l0,0.1l2.6-1.2l0.8-0.4h-0.4L146.3,31.1z M145.9,31.9l-0.2,0.1l-1.1,0.7l-0.2,0.2
					l2.3-1.2l0.8-0.5l-0.1,0L145.9,31.9z M157.5,25.6l1-0.5l-0.8,0.3l1.9-0.9l0.2-0.1l-4,1.8l-3.3,1.6l-2.2,1l0.6-0.2l-2.4,1.3
					l2.5-1.1l2.4-1.1l-1.7,0.9l-0.5,0.5l1.6-0.6l1.2-0.7l-0.5,0.1l1.9-1l1-0.6L157.5,25.6z M170.4,21.2l0.7-0.3l1.7-0.7l0.9-0.5
					l-1,0.3l-2.5,1l-2,0.9l0.7-0.1L170.4,21.2z M260.2,40.2l-2-0.2l-2.2,2l-1.3,2.6l1.1,1.3l-0.3,2.6l1.6-1.2l0.8,0.7l-1.1,1.2
					l0.6,0.7l3.3,0.5l1.7,1.7l-0.5,1.6l-4.2-0.3l-0.7,1.8l1.4,1.5l-3.1,0.9l0.7,1.2l4.6,0.5l-2.7,0.6l-4.7,3.1l1.6,0.6l2.2-1.1
					l2.8,0.3l2-1.4l1.4,0.6l5.2-0.8h4l2.6-1.5l-1.2-1.5l1.4-0.9l0.2-1.8l-3.4-0.6l-0.8-1.1l-1.7-3.1l-1.9-0.4l-2.5-3.4l-2.7-0.2
					l2.5-2.3l0.8-2.1h-2.7l-2.7,0.3l3-2.7L260.2,40.2z M131.2,59.7l1.2-0.8l-0.6-0.2l-2.5,1l-2.8,1.7l-6.5,4.9l-3.2,1.8l-0.1,0.8
					l-2.1,1.1l-0.6,0.9l3.1,0.1l2-0.2l1.1,0.7l-2.6,1.5l1,0.1l4.6-2.8l0.2,0.4l-2.7,2.6l0.7,0.6l1-0.1l3.2-2.8l1.2-2l1.2-1.6
					l-1.7,0.5l2.6-2.2l-0.9-0.9l-1.4,0.7l-0.8-0.8l1.6-1l-0.5-0.7l-2.1,1l3.7-2.6L131.2,59.7z M105,72.9l-1.5,1l-0.6,1l0.5,1.4
					l0.8-0.2l2-1.3l-1.5,0.1l-0.7-0.4L105,72.9z M113.4,64.1l-0.3,1.4l0.8,1l0.8-0.1l0.5-0.6l-0.1-1.3l-1-0.8L113.4,64.1z
					 M253.3,52.4l1.8-1.9l-2.7-1.7l-2.2,0.1l-2.3,1.3l-4.2,2.1l0.9,2.9l-3,3l4.1,0.4L251,57l2.5-2.5L253.3,52.4z M35.5,147.7
					l-0.3,0.5l-0.4,1.7l-1.1,2.2l-0.1,0.5l1.6-3L35.5,147.7z M33.9,148.8l-0.7,1.6l1.3-0.7l0.5-1.1l-0.5-0.2L33.9,148.8z
					 M31.4,155.5l-1.4,2.7l-0.2,1.2l-0.9,2.5l0.3-0.2l1.1-2.6l1.3-3.5L31.4,155.5z M24.6,164.2l-0.3,0.5l-0.6,0.5L23,166l-0.6,0.9
					l-0.7,1.6l-0.8,1.3l0,0.4l0.4-0.5l0.5-1l0.2-0.1l1.3-2.3l0.5,0.2l-0.7,1.1l-0.1,0.9l0.6,0.6l-0.2,0.9l0.3,1.2l0.5-0.2l-0.7,2.4
					l-0.2,1.3l0.5,0.3l-0.1,1.2l-1.5,2.5l1.6-0.5l0.6,0.4l0.8-0.2l1-0.6l0.5-1l-0.2-1.8l-0.7-0.2l0.5-1.3l-0.3-0.9h-0.3l0.1-2
					l0.2-2.7l0.1-1l-1,0.5l0.3-1.6l-0.1-1.5l-0.5-0.1L24.6,164.2z M26.8,186.9l-0.3,1.3l0.1,0.7l1.5-3.1l0.7-0.6l-0.1,1l0.7-0.2
					l0.5-0.8l0.5,0.2l0.7-0.2l0.5,1l1.1-1.8l-0.3-1.7l-0.6-0.2l0.5-1.3l-0.9,0.1l0.3-1.6l-0.5,0.1l-0.5-1.1h-1.1l-0.4,0.7l-1-0.6
					l-0.7-0.2l-0.8,1.3l0.6,0.6l-0.6,1.7l-0.1,1.9l-0.8,1l-0.9-0.4l-0.9-0.6l-0.6,1.4l0.2,1.4l0.9-0.9l0.7,0.4l0.7-0.3L26.8,186.9z
					 M36.1,184.8h-1.5l-0.4,0.6l-0.5,1.9l1.1-0.2h1.4L37,186l-0.1-0.9L36.1,184.8z M20.5,184.8l-0.2-0.2l-0.5,0.3l-0.4,1l0,1.6
					l0.3,0.7l0.6-0.7l0.7-0.1l0.2-1.2l-0.2-1.1L20.5,184.8z M37,220.1l-0.2,1.8l-0.8,1.3l0.3,0.4l1.9-0.5l0.6-3.4l-0.5-0.2L37,220.1
					z M471.1,328.8l-0.8-2l-1.3,2.1l-0.6,2.8l-2.2,3.1l-1.2-0.5l0.1,1.9l-1.3,2.3l-3.1,2.8l-2.3,2.6L457,344l-1.4,0.8l-1.9,0.9
					l-1.7,0.2l-1.1,2.9l-1.6,2.5l-0.7,4.1l-0.1,2.8l0.2,2.1l-1,2.9l-2.4,3.3l-0.4,1.4l-1.7,0.8l-1.4,3.2l-0.7,3.1l0.1,3.4l-0.9,3.8
					l0.2,2.3l1.9,1.5l1.3,1.1l3.2-1.8l2.8-1l2.9-4.9l3.1-6.1l4.2-8.3l3.1-6.1l2.5-5.2l1-3.8l1.1-1.1l0.7-2l0.2-3.3l0.8-1.3l0.5,2.6
					l0.8-1.3l0.7-2.2l-0.3-2.1l0.6-5.4l-0.2-3.1L471.1,328.8z M437,473.1l-0.7,0.6l-1.5,1.3l-1.8,1.7l1.9-0.2l1.8-1.4l0.6-0.6
					l-0.6-0.4L437,473.1z M124.4,482.8l2.2,1.3l-0.3-1.3l1.8,1l1.1-0.8l-0.7-1.1l-2.6-1.3l0.4,1.2l-2.1-0.7L124.4,482.8z
					 M117.9,485.1l-1.1-0.3l0.6,1.2l2.1,1.9l1.1,1.3l-2.4-1l-3.6-1.9l-1.4-0.6l5.1,3.1l2.8,1.5l3.1,1.5l1.5,0.4l1.8,0.8l1.5,0.3
					l-0.3-0.9l-1-1.1l1.8,1l0.8-0.1l-1.2-1.4l-2.5-0.7l-3.5-1.6l-3.2-2.1L117.9,485.1z M187.2,526.2l1.2,0.6l1.8,0.6l1.5,0.4
					l-0.1-0.2l-0.1-0.2l1.5,0.6l0.7,0l-0.3-0.3l0.1-0.2L192,527l-1.5-0.6l-1.9-0.7l-2-0.7l-2-0.7l-2.1-0.7l-1.7-0.6l-1.8-0.6
					l0.1,0.2l1.7,0.8l3.3,1.3l1.6,0.6l2,0.8L187,526L187.2,526.2z M228.5,534.6l1,0.4l0.8,0.3l1.1,0.3l1.2,0.4l0.8,0.3l0,0.2
					l1.5,0.3l1.8,0.2l1.3,0l0.4-0.1l0.2-0.2l0-0.2l-0.1-0.2l-1.6-0.4l-1.4-0.4l-2.2-0.6l-2.3-0.4l-1.8-0.2l-0.3,0.2H228.5z
					 M228.7,536.6l1.4,0.2l0.2,0l1.8,0.3l0.4-0.1l1.3,0.1l-1.7-0.3l-1.9-0.4l-2.1-0.3l1.2,0.3l1.4,0.3l-1.1-0.1L228.7,536.6z
					 M535.4,235.2l-1-4.9l-0.8-3.3l-1-2.6l0.8,7.5l1,6.7l0.8,3.7l0.5-1.1l0.2-1.3L535.4,235.2z M324.5,103.8l-3.5,0.4l-4.2-0.3
					l-0.2,1.9l5.4,1.9l1.9,0.4l3,1.4l0.4-1.9l-0.8-1.2l0.7-2.9L324.5,103.8z M368.1,114.5l-1.7,0.4l-0.2-0.6l-2.6-0.3l-2.7,0.2
					l-2.3-1.3l-0.2,1.7l4.5,0.8l0.1,0.6l4.9-0.3L368.1,114.5z M390.3,114.2l-0.1,0.9h-0.2l-1.6,0.2l1.4,1.5l1.8,0.5l2.6-1.6
					l-0.2-0.3l-0.5-0.7l1.5-1.7l-2.4,1.2L390.3,114.2z M301.4,93.8l-1.9-0.2l1,2l0.8,4.4l1.4,0.9l1.3-1.2l1.7,0.2l-0.2-4.8l-2.5-2.6
					L301.4,93.8z M300.7,87.7l-0.4,1.3l1.1,2.4L303,92l0.7-2.7l-1.1-3L300.7,87.7z M302.8,46.4l-3.6,0.9l0.7,1.1l3.2,1.5l0.9-2.2
					L302.8,46.4z M375.2,519.4l0.1,0l0.8-0.4l2-0.9l1.2-0.5l-2.9,1.2L375.2,519.4l0.1-0.2l-0.7,0.2l-0.6,0.2l0.2-0.2l-0.9,0.3
					l-0.8,0.3l-1.6,0.6l-1.1,0.3l-1.4,0.4l-1.9,0.7l-1.6,0.6l-1.9,0.7l-1.1,0.3l-0.9,0.2l-0.7,0.1l-0.7,0.1l-2.3,0.8l-1.6,0.6
					l-1.5,0.4l-1.6,0.5l-1.7,0.5l-1.9,0.6l-1.3,0.3l-0.1-0.2l0.9-0.4l2-0.6l1.8-0.6l1.7-0.6l-0.7,0l1.5-0.6l2-0.6l1.6-0.4l1.9-0.7
					l1.1-0.4l3.8-1.8h-0.7l-0.4-0.1l-0.2-0.2l-0.3-0.2l0.1-0.4l-2.3,0.7l-1.4,0.4l-0.5-0.1l0.3-0.5l0.4-0.5l-0.6-0.2l0.4-0.5
					l0.3-0.6l1.5-0.8l0.2-0.5l-0.7-0.2l-0.8-0.1l-1.3,0.1l-1.7,0.3l-1.6,0.4l-1.9,0.5l-1.4,0.6l-1.8,0.5l-1-0.1l-1.7,0.5l-2.2,0.6
					l-0.8-0.2l-1.7,0.4l-1.7,0.4l-1.7,0.4l-2.1,0.3l-1.6,0.2l-2.3,0.6l-1.7,0.3l-1.7,0.7l-1.9,0.4l-0.2-0.4l0-0.6L327,523l-0.6-0.4
					l0.3-0.6l-1.1-0.3l-1.6,0.6l-2.1,0.9l-1.7,0.4l-1.6,0.1l-1.7,0.3l-1.9,0.5l-1.7,0.2l-1.7,0.2l-1.6,0h-1.6l-1.7,0.1l-1.9,0.3
					l-0.4-0.5l-0.2-0.5l-1.5-0.1l-1.5-0.2l-1.6,0l-1.9,0.1l-1.8,0.2l-1.6,0.6l-0.2-0.6l-2-0.1l-1.9,0.5l-1,0.6l-1.9,0.3l-0.6-0.5
					l-0.8-0.7l-1.7,0.2l-1-0.4l-1.2,0.6l-1.5,0.3l-1.8,0.2l-1.7,0.4l-1.8,0.2l-1.7,0.2l-1.5,0.2l-1.7,0.5l-0.7-0.6l-1.7-0.1
					l-1.9,0.2l-1.9,0.3l-1.8-0.1l-0.5-0.6l-1.7-0.1l-0.5,0.6l0.2,0.5l-1.8-0.1l-0.9-0.5l-1.8-0.1l-0.9,0.4l-0.3,0.7l-0.8,0.5
					l-1.1,0.5l-1.3,0.3l-1.2,0.3l-0.5,0.4l0.1,0.5l1.6,0.3l0.1,0.5l-0.8,0.4l-0.6,0.4l-1.2,0.4l-0.8,0.3l-0.9,0.3l-1,0.2l-1.3,0.2
					l-1.5,0l-0.5,0.1l-1.1,0.2l-0.9,0.2l0,0.4l-0.4,0.3l-0.4,0.3l-0.8,0.2l-0.5,0.2l0.2,0.2l1.9,0.7l1.2,0.3h1.4l1.1-0.1l1.3,0
					l0.9,0.3l1.1,0.3l1.3,0.3l-0.5,0.2l-1,0.1l-0.9,0.1l-0.5,0.2l-0.5,0.2l-1.3,0l0.2,0.2l1,0.3l-1.7-0.2l-1.6-0.1l-1,0l0.2,0.2
					l0.1,0.2l0.5,0.2l0.6,0.2l1,0.2l-1.6-0.2l-2.3-0.3l-1.9-0.2l-1.7-0.2l-1.9-0.2l-1.3-0.1l-1.9-0.2l-1.7-0.2l-1.6-0.2l-1.2-0.1
					l-2-0.3l-1.7-0.3l-1.8-0.3l-1.8-0.4l-1.9-0.4l-0.8-0.2l0.9,0.1l-1.1-0.3l-1.7-0.3l-1.6-0.3l-1.1-0.2l-1.8-0.4h0.4l0.1-0.1l0.7,0
					l0.4,0l-1.5-0.5l-0.4-0.2l-0.4-0.2l-0.1-0.2l-0.8-0.4l-1-0.4l-1.2-0.4l0.3-0.2l-1-0.4l-1.3-0.5l-2-0.7l-1.8-0.5l-1.6-0.6
					l-1.6-0.5l-3.8-1.4l-1.6-0.6l-1.7-0.5l-1.7-0.6l-1.6-0.6l-1.9-0.7l-1.8-0.5l-1.5-0.4l-1.7-0.6l-1.9-0.7l-1.3-0.6l-1.2-0.8
					l-0.8-0.6l-0.8-0.6l0.4-0.2l-0.3-0.4l-1.7-0.6l-1.5-0.7l-1.4-0.8l-0.6-0.6l-0.3-0.5l-0.2-0.5l0.4-0.2l1.4,0.3l-0.4-0.4l0.1-0.6
					l-0.8-0.7l-1.5-0.5l-0.4,0.3l0.5,0.6l0.2,0.5l-0.4,0.3l0.1,0.4l0.5,0.6l-0.7,0.1l0.4,0.5l0.6,0.5l1.3,0.8l0.5,0.6l0.7,0.6l1,0.7
					l0.8,0.5l1.5,0.9l1.6,0.7l1.9,0.8l1.5,0.7l1.4,0.7l1.3,0.6l1.5,0.6l1.7,0.6l1.6,0.6l1.7,0.6l1.8,0.6l1.8,0.6l1.8,0.6l1.6,0.6
					l1,0.4l0.4,0.3l0,0.2l-0.2,0.1l0.1,0.2l0.7,0.3l0.6,0.3l0,0.1l-1.7-0.4l-1.2-0.3l0,0.1l-1.9-0.5l1.4,0.5l1.5,0.5l-1.2-0.3
					l-0.8-0.2l-0.3,0l-1.8-0.5l0.3,0.1l-0.9-0.2l-2-0.6l3.1,1l0,0l-13.4-4.4l-13.2-5.1l-12.9-5.8l-12.6-6.5l-12.2-7.1l-11.8-7.8
					l-11.4-8.4L94.2,475l-10.5-9.5l-10-10l-9.4-10.5l-8.8-11l-8.3-11.5l-7.6-11.9l-7-12.3l-6.4-12.6l-5.7-12.9l-5-13.2L11.3,346
					l-3.6-13.7l-2.9-13.8l-2.1-14l-1.4-14.1l-0.7-14.1l0.1-14.1l0.8-14.1L3,234.1l2.3-14l2.9-13.4L8,207.3l-0.1,0.3l-0.2,0.9
					L7.7,209l0.1,0.1L8,208l0,0.4l-0.3,1.4l-0.1,0.3l0.1-0.7l-0.2,0.7l-0.4,2.1L7,213.7l-0.3,1.6l-0.2,1.8l-0.2,1.5L6,219.4l0,0.7
					l-0.3,1.5L5.4,223l-0.1,0.9l0,0.4l-0.1,1.3l0.3-1.2l0.2-1.3l0,0.8l-0.2,1.3l0.1,0.6l0,0.9l0,1.2l-0.1,1l-0.2,0.8l0,0.9l0.1,1.1
					l0,0.7l0.2-1h0.3l0.1,0.5l0.2,0.3l-0.1,1.8l0.2,0.3l0.2-0.8L6,236.5l0.4-0.2l0.2-0.8l0.3-0.6l0-2.5l0.2-0.9l0.2-0.2l0.5-1.2
					l0.4-1.7l0.4-0.3l0.3,1.3l-0.1,1.6l0.2,0.3l-0.4,1.3l-0.1,2.5l0.1,1.3l0.1,2.5l-0.3,4l-0.3,1.2L8,248.5l-0.4,2.7l0.3,1.2
					l-0.5,2.5l-0.6,3l-0.5,0.3L6,259.9l0,2.3l-0.3,0.4l0.1,1.4L5,265.9l-0.5,1l0,1.9l-0.3,3.1l-0.1,3l-0.2,0.7l0.2,4.3l-0.1,1.3
					l0.5,2.1l0.2-2.2l0.3,2l-0.3,3.6l-0.4,3l0,3.3l0.8,4.5l0,2l0.7,1.9l1,3l0.7,3.4l0.6,2.1l2.4,9.3l2.7,8.5l2.2,6l0.2,1.3l1.4,3.8
					l1.6,2.9l3.5,4.9l4,4.5l0.7,1.9l2.3,2.6l2.4,6.3l2.7,7.2l3.3,9.7l3.4,8.9l3.6,8.2l1.8,5.1l2.8,5l1.5,3.4l3.8,6l3.2,5.9l3.2,6.2
					l3.6,6.2l-0.3,0.1l3.2,4.2l3.1,3.6l1.5,2.5l5.2,6.6l4.1,5l1,0.4l-3.5-4.3l1.5,0.9l5.9,7.1l-2.2-1.2l5.1,5.6l2.1,2.9l2.3,0.9
					l1.7,2.5l2.9,3l6,5.2l2.7,2l1.9,1.7l2.5,1.8l3,1.6l3.5,2l2.2,0.9l0.3-0.1l-3.2-2.6l-0.4-1l-0.4-0.7l1,0.1l0.6,0.2l-2.8-1.7
					l-3.9-3l-1.1-1.4l-0.3-1.2l-3.1-3.6l-0.4-1.8l-2.4-2.9l-1.8-0.6l-3.5-2.3l-2-2.5l-0.6-1.7h1.3l-1.2-1.7l-2.8-3.4l-0.7-2.2
					l0.5-1.1l-1.9-1.8l0,1.1l-1.8-1.1l-3-3.5l-0.2-1l2.4,1.3l1.3-0.4l0-1.3l-1.7-1.8l-1.6-2.7l-2-2.2l2.2,0.4l3.1-0.8l1.6-1.9
					l-1.2-4.8l-1-1.8l-2.3-1.6l-1.3-2.6l-4.6-3.3l-1-2l2.5,2.2l1.3-0.1l3,1.7l0.9-0.4l2.1,0.8l1.3-2.2l-0.3-2.5l0.4-2.2l-0.8-3.8
					l0.8-1.9l0.7-3.2l-0.3-7.2l1-2.3l-0.2-2l-1.2-4.2l-1.4-2.3l-0.6-3.1l0.9-4.2l2.3-3.4l2.9-1.3l1.5-1.9l4.4-1.7h3.5l0.1-2.6
					l2.1-1.9l-0.6-4.5l2-5.8l-0.7-5.9l0.8-1.8l-0.2-3l-0.3-6.9l-1.7-8.5l0.4-3.4l0.9-0.1l2.2-4l1.7-5.2l4.5-6.4l1.6-3.1l0.9-7.7
					l-0.9-2.8l-1.6-6l-1.5-1.4l-3.3-0.3l-2.9-1.4l-5-5.2l-5.5-3.9l-5.3,0.2l-6.8-2.5l-4,1.4l0.5-2.6l-1.7-2.7l-5.5-2.9l-4.1-1.7
					l-2.3,3.1l-0.2-4.7l-5.4-0.8l-1-1.4l2.3-3.9l0-3.2l-1.5-0.8l-1.4-8.2l-0.6-2.6l-1,0.3l-0.4-1.9l-2.7-4l-2-1.1l-0.9-0.5l-2.8-1.3
					l-2.2,0.3l-0.3,0.8l-3.1-0.9l-0.8-1.7l-1.1-2.3l-0.9-0.1l0.2-2.4l-1.1-3l-1.3-1.7l-0.8-1.1l-1.3,0.1l0.2-3.8l-1.4-2.3l-1.7-0.3
					l-0.4-2.2l2.1-1.4l-2.6,0.1l-2.6,0.3l-0.2,1.2l-1.4,1.5l-1.4-0.6l-0.7-2.1l-2.1,0.5L24,221l0.2-1.5l-0.6-2.6l-1.1-0.1l0.1-3.2
					l-0.8,1.4l-0.2,2.2l-2.3,1.8l-0.5,3.5l0.2,1.7l-0.9,3.3l-0.7,0.3l0.1-3.8l1.1-2.7l0.4-2.4l-0.1-2.1l0.9-0.6l0.3-1.1l0.6-1.5
					l-0.2-1.2l-0.4-0.2l-1.2,2.2l-0.8,1.1l-1.5,2.3l-0.9-0.4l-0.3,1l-0.8,0.1l-1.1,2.2l-0.9,3.9l-0.2,1.5l-0.6,0.5l-1.3,3.3
					l-0.5-0.2l-0.2-1.3l-0.1-1.3l-0.3-0.8L9,226.1l0.1-0.4l-0.5-0.3l-0.5,1.3l-0.6,0.9L7,228.9l-0.4,0.3l0-1.1l-0.1,0.3l-0.2-0.2
					l0.2-1l0.1-1.7l0.1-2l0.1-1.8l0.3-2.5l0.1-0.7l0.2-1.2l0.3-1.2l0.2-1.2l0.5-2l0.2-0.4l0.4-2.1l0.3-1.2l0.5-2l0.5-1.9l0.5-1.5
					l0.4-1.7l0.3-1l0.2-0.5l0.2-1.2l0-0.7l0.2-1.1l0.1-0.8l0-0.1l0-0.7l-0.2,0.4l-0.1,0.1l0-0.3l0-0.2l-0.2,0.6l-0.2,0.5l-0.1,0.1
					l0-0.4l-0.1,0.2l0.1-0.4l-0.1,0.1l-0.3,0.8l0-0.2l0.1-0.6l-0.2,0.7l0.2-0.8l0.5-1.5l0.1-0.2l0.4-1.2l0.7-2.3l0.1-0.4l0.5-1.6
					l0.2-0.7l0.6-1.9l0.4-1.2h0l0.2-0.6l0.1-0.1l-0.3,1.1l1.2-3.5l0.7-1.9l0.2-0.8l1-2.7l1.1-2.6l0.8-2.1l0.3-0.9l-0.2,0.3l-0.1-0.1
					l-0.4,0.9l-0.3,0.7l0,0l5.4-13l6.1-12.7l4.7-8.7l0.3-0.5l-0.4,0.7l0.3-0.6l0.4-0.8l0.9-1.6l0.7-1.2l0.4-0.6l0.2-0.2l-0.1,0.4
					l0.5-0.5l-0.4,1l-0.9,1.8l-0.1,0.2l1.4-1.8l-0.2,0.7l-1.5,3.4l-1.1,2.3l-1.5,2.7l-0.8,1.7l-1.4,3.2l-1.4,3.6l-0.2,1l-0.8,1.9
					l0.1,0.5l0.5-0.5l1.4-2.6l0.8-1.6l1.4-2.9l2.1-4.8l1-1.8l1.3-2.9l1.8-3.5l1.5-2.9l1.8-2.8l1.7-2.4l1.5-1.9l2.4-2.6l1-1.3
					l1.3-1.4l0.6-0.3l2.1-2.3l1.7-1.1l2.5-2.8l2.6-3.8l0.8-1.3l-0.1-0.3l2.6-3.6l0.3-1.1L64,104l1.6-2.3l1.4-1.6l-2.3,3l-0.6,1.4
					l-2.2,2.6l0,0.1l2.7-3l1.4-1.5l1-1.4l0.3-0.7l1.4-2l-0.4,0.9l0,0.2l-0.7,0.9l2.9-2.8l2.3-2.6l-0.1-0.2l1.1-1l-0.4,0.5l0.7-0.1
					l2.3-1l0.3-0.7l-2.1,0.7l1.7-1l0.8-0.2l0.6-0.2l1.3-0.6l0.4,0.1l1.3-0.6l0.9-1l0.4-0.8l-1,1.3l-0.4-0.1l1.1-1.8l1.7-1.9l0.6-0.6
					l2.6-2.2l2.2-1l2.3-1.2l2.9-1.6l0.8-1.1l1.9-0.4l2.3-0.1l-4.9,2.7l-2.5,2.9l0.8,0.3l3.7-2.4l2.7-1.4l5.2-2l3.9-2.1l0.1-1.2
					l2-2.3l-5,3.7l-3,0.5l-0.3-1.7l1.9-2.4l3-3.4l3.4-2.1l0.4-1.5l-2.2,0.3l-5.2,2.6l-6.1,4.2l-1.5,0.6l4.3-3l5.9-4.1l2.9-1.4
					l3.4-2.2l1.5-0.2l1.9,0.1l2.2,0.7l3-0.5l4.5-2.5l3.7-1.1l2.2-1l2.3-1.1l3.4-3.2l0.6-1.1l-0.8-0.4l2.1-2.3l0.1-0.9l-1.4-0.7
					l0.7-1.5l0.2-1.5l2.7-1.6l2.9-3l3.2-3.1l2.5-2.1l-2.4,1.1l-5,2.6L139,41l1.5-1.5l-0.2-0.4l4.5-3l3.2-1.9l-1-0.2l1.3-0.9l1.4-1.3
					l0.8-0.8l-1.5,0.6l-0.2-0.2l0.2-0.6l-1.3,0.5l-6.1,3.5l-3.5,2.1l-4.7,2.5l-2.4,1.9l-2.9,2.1l-2.5,1.7l-3,1.8l-3.3,1.9l-2.6,1.3
					l-1.6,1.4l-5.6,4.5l-4,3l-1.6,1l2.8-2.8l3.8-3.2l3.7-2.8l3.3-2.4l0-0.2l-0.2-0.2l1.4-1.1l0.9-0.7l1.8-1.3l1.4-1l0.9-0.6l0,0
					l12.1-7.4l12.4-6.7l3.9-1.9l0.2-0.1l0.3-0.1l3-1.4l1.9-0.9l3.7-1.6l2.2-1l-1.2,0.6l1-0.3l3.5-1.3l2.1-0.9l2.1-0.9l2.5-0.9
					l2.1-0.8l1.9-0.8l0.4-0.2l0.1-0.1l-4.8,1.8l-3.8,1.5l-3.3,1.3l2.9-1.2l3.2-1.3l2.8-1.1l-2,0.8l0,0l12.3-4.4l-1.6,0.6h0l-2.1,0.7
					l-1.5,0.5l-0.6,0.3l-1,0.5l-0.2,0.4l1-0.2l1.4-0.5l-1.2,0.6l0.1,0.1l-2.2,1l-1.3,0.4l-0.6,0.6l-1.3,0.8l-1.2,0.6l-1.7,0.8
					l-4.7,1.8l-2.3,1l-1.2,0.7l-1.6,0.3l-0.9,0l-3.3,1.4l-1.2,0.7l2.1-0.3l1.2-0.6l-1.2,1l-1.1,1l-1.4,0.6l-1.1,1l-0.7,1.2l0.8,0.9
					l1.1-0.8l1.5-1.3l2.3-1.8l-1.1,1.7l0.1,0.6l3-1.5l3.2-2.1l0.7-0.5l0.7-0.9l1.6-1.2l2.3-1.1l1.4-0.2l-2.5,1.8l-0.6,0.9l6-2.3
					l3-1.3l-1.1-0.1l2.5-1.7l-0.2-0.4l1.1-1.1l3.1-0.8l3.2-1.5l1.1-0.6l0.4-0.6l2.2-1l-1.7,0.3l1.8-0.6l1.6-0.7l1.5-0.7l-2,0.6l0,0
					l-1.8,0.4l2.9-0.9l4.2-1.4l-2.2,0.5l-3.7,1.1l2.7-0.9l3-0.9l-1.3,0.3l-1.9,0.6l-2.9,0.9l0,0l9.3-2.7l-0.1,0l-0.5,0.2l0,0l0.2,0
					l1.1-0.2l-0.4,0.2l1.3-0.3l1.3-0.3l1.8-0.5l1.5-0.4l0.1-0.1l-0.6,0.1L203,9.1l0.2-0.1l0.2-0.1l1.1-0.3l0.2,0l0,0l10.8-2.5l0.2,0
					l3.5-0.7l1.5-0.3l1.4-0.3l3-0.5l0,0l0.9-0.2l0.3-0.1l0,0l2.6-0.4l-1.4,0.2L226,4.2l0.5-0.1l-0.4,0.1l-1.8,0.3l0.4-0.1l0,0
					l-2.3,0.4l-1.7,0.3l-1.6,0.3L218,5.7L216.1,6l-0.8,0.2l-2.8,0.6l1.8-0.4l-0.4,0.1l-3.3,0.7l-1.1,0.2L207.4,8L207.2,8l-0.5,0.1
					l1-0.2l-0.9,0.3l3.3-0.7l1.1-0.2l-0.5,0l0.9-0.2l1.7-0.3l1.9-0.4l1.6-0.3l1.7-0.3l2-0.4l1-0.2l0.3-0.1l1.1-0.1l1-0.2l1.2-0.1
					l4.1-0.7l1.6-0.2l3.3-0.4h-0.6l1.2-0.1l1.6-0.1l2.5-0.3l1.1-0.2l0.6-0.2l0-0.1l-0.3,0l-0.1,0l-0.1,0l-1.2,0.1l0.4-0.1l-0.6,0
					l-0.7,0.1l-0.9,0.1l-2.6,0.3l1.3-0.2l0.2,0l-1.8,0.2l-0.8,0.1l-0.2,0l0,0l14-1.6l14.1-0.8l14.1-0.1l14.1,0.6l14.1,1.4l14,2.1
					l10,2l10,2.4l1.9,0.5l0.1,0l2.9,0.8l2.4,0.7l0.4,0.2l-0.6-0.1l0.5,0.3l4.8,1.5l3.9,1.2l-3-0.8l-0.4,0.1l1.2,0.6l3.3,1.1
					l-1.2-0.3l-4.1-1.4l-2.6-0.8l0,0.1l3.1,1l2.2,1l4,1.2l3.9,1.6l2.5,0.9l0.8,0.1l2.6,1.1l2.6,1l1.6,0.9l1.9,0.9l0.5,0.5l1.3,0.7
					l-1.3-0.3l-4.7-2.6l-2.7-1.2l-3.1-1l-5.7-2.2l-3.1-1.1l-1.6-0.5l-3-1.2l-2.5-0.8l-2.3-0.4l0.5,0.3l3.5,1.3l2.7,1.3l1.3,0.5
					l3.5,1.2l1.7,0.8l1.2,0.2l0.9,0.4l2.8,0.9l1.7,0.9l-7.1-2l-2.2-0.5l-3.5-0.5l0.9,0.6l3.1,1l1.6,1.1l-3.3-1.1l0.2,0.7l-1.7,0.1
					l0.5,0.6l-1.7-0.2l-1.2-1.1l-0.9-0.1l-0.7,1.5l-0.8,0.9l1.7,1.2l-1.3,0.4l-2.1-0.6l-1.7-1l1.2-0.2l-2.5-1l-4.5-0.6l2.9,1.1
					l1.1,1.1l2.9,1.1l1.3,1.3l-2.3-0.6l-1.4-0.1l-0.6,1.9l3.1,1.5l-0.7,0.5l-5.4-1.2l-0.1,0.7l2.1,0.9l1.1,1l-2-0.6l-2.9-0.6
					l-3.8-2.9l-4.3-1.4l0.9-0.2l8.7,1.4l1.7-0.5l0.1-1l-2-1.2l-2.4-0.8l-8.2-2l-4.3-0.4l-3.8-1l-0.6,0.6l-2.9-1l1.2-0.4l-5.8-1.1
					l-2,0.3l-2.6-0.1l-0.7,1.3l-2.5-0.1l-2.7,0.7l-2.7,2.1l-2,1.3l-2.3,3.6l-2.4,2.7l-3.3,2.2l-5.1,1.8l-1.8,1.4l1.6,5.3l1.3,2.6
					l3.6,1.2l3.2-0.6l4-2.8l2.1,1.5l3,3.5l3,2.9l1.6,2.5l3-0.1l0.7-2.1l3.2,0.2l0.3-2.4l-1-4.2l2.1-0.6l0.6-2.7l-2.8-1.3l-2.4-1.6
					l-0.2-3.1l2.7-1.8L313,27l-1.2-1.2l0.7-1.3l2.5-0.6l3.3,0.9l1,0.9l-0.9,0.4l-2.4,2.2l-0.8,1.3l-0.1,1.3l2.4,2l1,2.2l2.6,0.8
					l2.1,1.3l3.1-0.5l3.1-0.8l3.6-0.2l3.1,1.1l-1.2,1.3l-2.2,0l-2.6-0.4l-2.5,0.3l-2.3,0.7l1.1,1.4l2,0.8l0.6-0.3l0.7,1.5l0.8,2
					l-1.8,0l-3-1.9L324,43l-0.3,1.6l1,2l1.7,2.3l-3,0.9l0,1.2l-2.5,0l-0.5-0.6l-2.8-0.5l-2.9,0.9l-3.6,1.3l-1.6,0.8l-1.5-0.8
					l-3.4-1.1l-1.2,0.7l-2.7,0.5l-0.2-0.9l-2.9-0.6l-0.4-1.1l-1-1.3l1.4-1.9l0.8,0.3l0.4-1l-1.5-0.4l-0.6-0.7l0.5-0.8l-0.3-1.3
					l-1.8,0.7l-0.7,0.7l-2.1,0.1l-0.6,0.8l-0.3,0.7l0.6,2.7l1.4,1.5L294,51l0.8,1l-1.6,1.4l-0.6-0.6l-2.3,0.2l-0.5,0.6l-2.3-0.1
					l-3.7,1.2l-2.1,4.2l-1.4,0.8l-2.4,0.6l-2.5,0.6l-0.8,2.5l-7.1,2.4l-2.8-1.3l0.9,3.5l-5.2-0.8l-4.1,0.7l0.1,2.3l4.7,1.2l2.3,1.6
					l3.2,3.4l-0.8,6.7l-1.8,2l-5.5-0.1l-2.8,0.1l-3.6-0.6h-4.5l-4.1-0.6l-5.1,2.5l1.1,1.5l-0.5,2.5l0,1.2l0.5,1.3l-0.1,1.5l-1.1,2.2
					l-0.4,1.4l-1.6,1.3l-0.6,2.4l0.7,1.4l1.5,0.3l0.1,2.3l-1,2.9l2.1-0.4l1.8,0.5l1.6-0.9l3.4,0.5l0.9,2.2l1.4,1.3l1.8,0.3l1.6-1.4
					l2.4-1.4l3.7,0.1l4.8-0.1l2.8-2.8l2.8-0.8l0.8-2.4l2.1-1.6l-1.4-2.1l1.3-2.9l2.3-2l0.2-1.2l4.6-0.8l3.2-2.3l-0.3-2l0.4-2.1
					l4.9-1.1l6.8,0.9l2.8-2l1.4-0.2l1.7-1.6l1.4-0.4l2.9,1.1l1.8,0.4l1.5,3.4l2.7,2l3.6,2.3l2.9,1.6l2.6,0.2l1.8,1.5l2.4,0.6
					l1.3,1.6l1.6,0.5l1.4,1.8l1.9,2.1l-0.6,0.8l-0.3,2l0.2,1.1l1.5-0.3l1.2-3.1l1.3-0.3L332,99l-2.8-1.3l0.9-2.3l3.1,0.6l2.4,1.7
					l0.3-1.3l-0.5-0.6l-3.4-1.9l-2.7-1.1l-3.4-1.3l0.8-0.7l-1-0.8h-2.7l-4.4-2.8l-2.3-2.8l-3.5-1.7l-1.4-1.7l0.1-1l-0.5-1.6l2.4-1.2
					l2.6,0.5l-0.7,0.3l-0.1,0.1l0.3,1.1l1.2,1.1l0.7-1.4l2.1,0.5l0.4,1.1l1.9,1.5l-0.6,0.2l3.4,2.5l3.3,1l2.2,1.2l3.5,1.3l1.6,0.7
					l1.3,1.1l0.8,0.3l0.6,0.6l-0.2,1.1l0.5,2.4l0.9,1.7l2.2,1.2l0.2,0.8l0.7,0.3l0.5,1l2.3,2.1l1.8,1.7l1.3,2.5l2.1,3l3.4,1.6
					l2.4-0.1l-2.3-3.3l2.1-0.4l-1.6-1.9l3.4,1l-0.7-2.1l-2-1.1l-2.3-1.7l0.9-0.9l-2.2-1.7l-1.4-2.1l0.3-0.8l2.4,1.9h1.8l1.5-0.6
					l-3-2.1l3.7-0.9l1.7,0.3l2,0.1l0.3,0.7l1.7,1.7l1.9-1.9l0.9-1.1l3.6-0.2l0.2-0.9l-3.3-1.1l-0.9-1.3l-1.9-2l0-2.4l1-1.4l-1.2-4.1
					l1.1,0.3l1-0.7l-0.4-0.9l0.9-2.4l0.2-1.8l2.3-0.4l0.9,1.2l4.7,0.8l1.2,0.7l-2,1.1l-0.1,0.7l3.5,1l0.3,1.6l2,0.7l2.6-1.9l2.7-0.6
					l-0.2-1.1l-2.6,0.2l-1.8-0.8l-1.3-2.1l1.5-1.2l2.3-0.2l1-1l1.9-0.2l1.9-0.5l0.6,0.7l-2.8,1.3l2.2,1.3l-0.4,2.7l-1.6,0.5l3.5,2
					l3.8,1.3l5.1,2.9l1.6,1l1.7,0.4l2.3,1.3l2.1,2.3l0.5,1.5l-2.1,1.8l-2.5-0.3l-2.9,0.6l-4.8-1.4l-6.3-2.5l-4.8,0.1l-2.9,1
					l-2.5,2.3l-6-0.4l-0.2,2.7l-4.8,0.1l-2.3,3.4l2.8,1.8l-0.6,2.9l3.2,2.1l3.2,3.7l3.7-0.1l3.8,2l2.2-0.5l0.1-1.6l3.5,0.1l3.3,2
					l4.7-0.5l1.3-2.1l2.9,0.8l1.8-0.3l-0.6,1.4l2,1.8l-0.1,1.5l1.5,3l0.1,0.1l-0.5,2.7l0.1,3.2l-0.1,0.1l-0.1,1l0.5,3l-0.3,1.9
					l0.3,0.2l-0.5,1.3l-1.2,1l-2.7-0.2l-3-0.9l-0.4,1.3l-1.5-2l-2.6-0.5l-3,0.3l-1,1.2l-2.3,1.3l-1.8-0.7l-3.9-1.2l-3.8-1.1
					l-4.8,0.1l-1.1-1.4l-3.8-0.4l-1.4-0.7h-1.3l-1.8-1.8l-5.1-0.8l-2.4,0.6l-2.3,1.9l-0.8,1.9l1.4,3l-1.4,1.9l-1.6,1l-4.5-2
					l-5.7-1.7l-3.6-0.7l-2.4-3.6l-5.4-1.8l-3.3-0.6l-1.6,0.4l-4.6-1.4l-1.6-0.6l-1.2-1.8l-1.9-0.1l-1.1-2.2l2.4-2l0-3.3l-1.3-0.9
					l-0.2-1.8l1.6-1.8l-0.4-0.7l-3,1.4l-0.1-1.9l-2.6-0.4l-4,1.5l-2.5,0.3l-1.6-0.9h-4l-3.4,1.5l-1.9-0.5l-6.2,0.3l-6.4,0.7
					l-3.7,1.2l-2.3,1.6l-4.1,0.7l-3.8,2.1l-1.7-0.1l-4-0.8l-3.6,0.3l-2.2-1.7h-2.7l-1.4,2.3l-2.8,4l-3.1,1.6l-4.1,1.8l-2.8,2.7
					l-0.8,2.1l-1.8,3.5l0.5,5l-3.7,3.4l-2.2,1.1l-3.5,2.8l-3.9,0.4l-2.2,1.7l-3.2,4.3l-3,1.5l-1.8,2.6L208,156l-1.5,2.5l-1.4,0.7
					l-2.6,2.8l-1.9,3l0.1,1.5l-1.6,2.3l-1.8,1.2l-0.4,2l-0.4,1.9l1.9,1.9l0.9,2.1l-0.5,2.2l0.2,2.2l0,4.4l-0.8,4.2l-1.4,2.2l0.1,2.4
					l-1.1,2.4l-2.4,3.2l-1.9,0.8l2.1,1.6l1.5,3.5l-0.6,2.1l0.4,3.6l0.3,0.9l1.4,1l-0.2,0.7l1,1.2l1.7,0.3l2.3,1.9l1.2,0.7l0.6,1.1
					l0.6,2l0.9,0.9l1.3,0.6l1.5,1.8l2,2.8l0.4,3.4l0.8,1.7l2.2,2.5l3.2,1.9l1.3,0.4l2.9,3l3.9,2.6l4.1,3.5l4.8,2.3l1.2-0.1l1,0.2
					l4.5-1.8l3.2-1.4l5.6-0.8h3l3.4,0.9l2-0.1l4.2,1.4l4.2-1.4l2.5-1.6l7.4-2.8l3.7-1l3.9-0.5h4.2l3.5-0.1l3.2,3.1l1.5,3.4l2.5,3
					l3.9,0.1l1.7-1.1l1.8,0.3l4.8-1.7l-0.2,1.4l1.2,0.7l1,2.1l2.2,0.8l1.9,3.1l-0.6,3.7l-1.6,5.3l0.8,0.7l-0.8,3.6l-1.2,3.4l-1,1.5
					l-0.2,1.5l2.8,4.9l3,3.8l4.8,4.8l3.6,4.9l1.3,3.5l0.6,1.4l-0.5,0.9l2.2,2.9l0.9,3.1l1.2,4.5l-1.4,1.8l-0.4,1l1,2.8l1,2.8
					l1.4,1.7l0,2.6l-0.7,3.4l-1.6,2.1l-2.7,3l-1.1,1.9l-1.7,4.1l-0.4,2l-1.7,4.2l-0.9,4l0.1,2.8l0.1,3.4l3.3,4.3l0.7,2.8l1.7,5.3
					l2,3.6l1.5,1.8l0.2,2.4l-0.4,5.2l0.6,6.6l0.7,3.1l0.3,4.1l1.2,3.1l2.4,3.1l2,5.3l1.4,3.4l1.9,3.8l-0.6,3.1l-1.4,0.7l0.7,2.6
					l-0.5,2.3l0.3,1.1l0.3-0.6l1.2,1.8l1.3,0.1l1.1,1.4l1.7-0.1l2.6-1.5l3.3-0.6l4.2-1.5l1.4,0.2l2.3-0.5l3.7,0.7l2-0.7l2,0.6
					l0.7-1.1l1.8-0.2l4.1-1.6l3.2-1.8l3.2-2.4l5.2-4.2l2.9-2.8l1.6-2.1l2.1-2.1l0.8-0.6l3-2.1l1.4-1.9l1.4-3.5l1.7-3l1-2.2l-0.8-0.3
					l0.1-1.8l2-1.6l4.9-2.3l3.3-1.5l1.8-1.5l1-1.9l-0.6-0.7l1-2l1.1-4.2l-0.7,0.2l0.3-1.3l-0.1-2.6l-1.1-3.3l1-3.1l1.7-1l3.3-3.2
					l1.5-0.8l5.1-4.8l4.4-2.2l3.5-1.7l2.8-2.8l2-3.2l1.6-3.2l-0.2-2.3l1-7.1l0.2-4.1l0.7-4.6l-0.4-2.1l-1.2-1.1l-0.9-4.5l-1-2.9
					l0.5-2.3l-0.1-1.4l1.3-2.8l0-1.3l-2.2-1.7l0-2.6l1.9-5.8l1.6-1.5l0.8-3.1l1.2-1.9l0.6-3.4l1.3-0.3l0.9-1.9l2.6-1.9l0.8-1.1
					l0.8-2.5l3.9-5.8l3-3.6l5-4.7l3.2-3.8l3.5-6.4l2.3-5.2l2.1-6.9l1.3-5.9l0.9-5.2l0.1-5.1l0.4-1.7l-0.4-2.4l-0.1-2.7l-0.3-1.2h-1
					l-1.2,1.6l-1.4,0.4l-1.3,0.7l-1,0.1l-1.7,0.2l-1,0.8l-1.4,0.2l-2.6,1.5l-3.4,0.5l-2.9,1.2h-1.7l-1.8-1.9l-0.9-1.9l-1.2-0.8
					l-1.6-1.2l1.8-1.2l-0.2-1.9l-1.1-1.4l-1.9-1.4l-1.2-1.6l-2.3-2.6l-2.4-2.5l-5.5-4.3l-2.3-2.2l-1.8-4.2l-3-5.2l-2.2-1.7l-1.5-1.1
					l-2.5-5.3l-1.5-4.5l0.6-0.8l-2.2-4.3l-0.7-0.9l-5.1-3.9l-0.8-2.8l0.6-0.8l-4.4-4.7l-1.8-2.5l-1.9-2.3L402,145l-3.4-4.2l-2.8-4.4
					l0.3-0.4l4.3,5.9l2,1.9l1.6,1.4l0.5-0.8l0.3-2.2l-0.2-3.1l0.3-1.6l0.3,0.6l0.2,1.6l0.3,1.4l0.1,2.3h1.7l2.6,2.9l3.1,3.4l2.3,3.1
					l1.2,0.9l1.6,2.2l0,1l1.9,2.4l2.1,0.9l2.1,1.7l3.2,4.8l0.4,2.6l1.3,3.1l3.2,4.2l1.6,0.7l3.1,3l1.7,3.6l2.6,3.8l2.1,1.6l0.6,1.8
					l1.2,1.4l0.9,1.9l0.5,2l-0.2,0.8l0.6,2.1l-0.6,0.2l1.3,1.9l1.2,3.4l0.8,1.4l0.3,2.5l1.3,2.7l2.3,0.2l1-0.6l1.7,0.1l0.3-1.2
					l0.9-0.3l0.5-1.2l0.8-0.2l2.6-0.2l1.9-0.9l1.4-1.9l0.9,0.3l1.4-0.2l1.9-3.3l4.3-2l2.3-2l-0.2-1.6l0.1-2l1.7-1.1l1.1-0.3l1.5-1.5
					l1.5,0.4l1-1.3l-0.5-1.8l0.6-1.1h1.6l0.3-0.9l-0.3-2.2l1-1.7h1.1l0.1-0.6l-1.2-3l-0.3-2.2l0.1-1l1.2,0.2l-0.2-3l0.5-1.4l0-1.3
					l-0.1-2.6l-0.3-0.9l-1-0.5l-1.2-1.5l-1.9-2.5l-1.7-0.8l-1.9-0.5l-1.9-1.5l-2.1-2.9l-1.7-3.4l0-0.8l-0.5-1.8l-0.4-0.4l-0.1,1.4
					l-0.5,2.6l-0.7,2.8l-0.6,2.9l-1.6-0.2l-2.2-0.2l-1.8,0.7l-0.5-1.2l-0.4,0.2l-1.1-1.7l-0.3-2.5l-1-2.5l-1.3-1.3l-0.6,0.5l0.2,2.2
					l1.3,3.1l-0.7-1l-0.9-1.4l-1.2-1.2l-0.9-1.5l-0.2-1.4l-0.9-1.7l-2.4-1.7l-1.1-1.5l-1.8-1l-2.5-3.6l-2.1-3l-0.1-1l-1.4-1.8
					l1.7,0.2l0.4-1.6l2.2,1.4l1.1-0.7l4.4,5.5l3.3,4l3,1.1l3.9,3.2l3.6,1.4l1.6-2l1.5-0.8l1.4,0.8l3.1,5.2l2.7,0.5l2.8,1l4.5,1.2
					l2.6-0.5l3-0.1l2.9-0.8l2.7,3.2l1.8,3.1l1.6,1.1l3.4,3.7l1.1,1.6l-0.1,1.6l3.9,5.4l1.2,0.5l1.1-2.6l1.7,4.1l1.8,5.3l2.2,5.8
					l3.1,8.7l2.8,6.3l0.9,2.8l1.6,5.8l1.6,4.4l0.8,2.2l1.3,4.7l1.6,6.5l1.6,4.4l0.2-1.3l-0.1-3.2l0.6-1.3l-0.5-1.6l-0.2-3.5l0.4-0.3
					l-1.5-7.8l-0.6-4.4l-0.9-3.8l-1.7-5.9l-0.7-3.5l0.3-0.2l0.2-1.6l0-1.1l-0.6-2.1l-0.3-2.9l-0.5-2.8l-1.3-5.3l-0.6-3l-0.8-2.6
					l-1.3-3.3l-0.1-0.9l0.1,0.1l-0.7-1.7l0.2,0.4l0.2,0.5l-0.3-0.8l0.1,0.3l0,0l4.9,13.2l4.2,13.5l3.5,13.7l2.8,13.9l2.1,14
					l1.3,14.1l0.6,14.1l-0.1,14.1l-0.9,14.1l-1.6,14l-2.3,13.9l-3.1,13.8l-3.8,13.6l-4.5,13.4l-5.2,13.1l-5.9,12.9l-6.5,12.5
					l-7.2,12.2l-7.8,11.8l-8.4,11.4l-9,10.9l-9.6,10.4l-10.1,9.9l-10.6,9.4l-11.1,8.8l-11.5,8.2l-11.9,7.6l-12.3,7l-10.9,5.5
					L375.2,519.4z"/>
			</g>
			<g>
				<path class="st3" d="M228.7,536.6l0.9,0l1.1,0.1l-1.4-0.3l-1.2-0.3l2.1,0.3l1.9,0.4l1.7,0.3l-1.3-0.1l-0.4,0.1l-1.8-0.3l-0.2,0
					L228.7,536.6z M228.5,534.6h0.3l0.3-0.2l1.8,0.2l2.3,0.4l2.2,0.6l1.4,0.4l1.6,0.4l0.1,0.2l0,0.2l-0.2,0.2l-0.4,0.1l-1.3,0
					l-1.8-0.2l-1.5-0.3l0-0.2l-0.8-0.3l-1.2-0.4l-1.1-0.3l-0.8-0.3L228.5,534.6z M187.2,526.2L187,526l0.7,0.1l-2-0.8l-1.6-0.6
					l-3.3-1.3l-1.7-0.8l-0.1-0.2l1.8,0.6l1.7,0.6l2.1,0.7l2,0.7l2,0.7l1.9,0.7l1.5,0.6l1.4,0.6l-0.1,0.2l0.3,0.3l-0.7,0l-1.5-0.6
					l0.1,0.2l0.1,0.2l-1.5-0.4l-1.8-0.6L187.2,526.2z M192.7,529l-3.1-1l2,0.6l0.9,0.2l-0.3-0.1l1.8,0.5l0.3,0l0.8,0.2l1.2,0.3
					l-1.5-0.5l-1.4-0.5l1.9,0.5l0-0.1l1.2,0.3l1.7,0.4l0-0.1l-0.6-0.3l-0.7-0.3l-0.1-0.2l0.2-0.1l0-0.2l-0.4-0.3l-1-0.4l-1.6-0.6
					l-1.8-0.6l-1.8-0.6l-1.8-0.6l-1.7-0.6l-1.6-0.6l-1.7-0.6l-1.5-0.6l-1.3-0.6l-1.4-0.7l-1.5-0.7l-1.9-0.8l-1.6-0.7l-1.5-0.9
					l-0.8-0.5l-1-0.7l-0.7-0.6l-0.5-0.6l-1.3-0.8l-0.6-0.5l-0.4-0.5l0.7-0.1l-0.5-0.6l-0.1-0.4l0.4-0.3l-0.2-0.5l-0.5-0.6l0.4-0.3
					l1.5,0.5l0.8,0.7l-0.1,0.6l0.4,0.4l-1.4-0.3l-0.4,0.2l0.2,0.5l0.3,0.5l0.6,0.6l1.4,0.8l1.5,0.7l1.7,0.6l0.3,0.4l-0.4,0.2
					l0.8,0.6l0.8,0.6l1.2,0.8l1.3,0.6l1.9,0.7l1.7,0.6l1.5,0.4l1.8,0.5l1.9,0.7l1.6,0.6l1.7,0.6l1.7,0.5l1.6,0.6l3.8,1.4l1.6,0.5
					l1.6,0.6l1.8,0.5l2,0.7l1.3,0.5l1,0.4l-0.3,0.2l1.2,0.4l1,0.4l0.8,0.4l0.1,0.2l0.4,0.2l0.4,0.2l1.5,0.5l-0.4,0l-0.7,0l-0.1,0.1
					H210l1.8,0.4l1.1,0.2l1.6,0.3l1.7,0.3l1.1,0.3l-0.9-0.1l0.8,0.2l1.9,0.4l1.8,0.4l1.8,0.3l1.7,0.3l2,0.3l1.2,0.1l1.6,0.2l1.7,0.2
					l1.9,0.2l1.3,0.1l1.9,0.2l1.7,0.2l1.9,0.2l2.3,0.3l1.6,0.2l-1-0.2l-0.6-0.2l-0.5-0.2l-0.1-0.2l-0.2-0.2l1,0l1.6,0.1l1.7,0.2
					l-1-0.3l-0.2-0.2l1.3,0l0.5-0.2l0.5-0.2l0.9-0.1l1-0.1l0.5-0.2l-1.3-0.3l-1.1-0.3l-0.9-0.3l-1.3,0l-1.1,0.1h-1.4l-1.2-0.3
					l-1.9-0.7l-0.2-0.2l0.5-0.2l0.8-0.2l0.4-0.3l0.4-0.3l0-0.4l0.9-0.2l1.1-0.2l0.5-0.1l1.5,0l1.3-0.2l1-0.2l0.9-0.3l0.8-0.3
					l1.2-0.4l0.6-0.4l0.8-0.4l-0.1-0.5l-1.6-0.3l-0.1-0.5l0.5-0.4l1.2-0.3l1.3-0.3l1.1-0.5l0.8-0.5l0.3-0.7l0.9-0.4l1.8,0.1l0.9,0.5
					l1.8,0.1l-0.2-0.5l0.5-0.6l1.7,0.1l0.5,0.6l1.8,0.1l1.9-0.3l1.9-0.2l1.7,0.1l0.7,0.6l1.7-0.5l1.5-0.2l1.7-0.2l1.8-0.2l1.7-0.4
					l1.8-0.2l1.5-0.3l1.2-0.6l1,0.4l1.7-0.2l0.8,0.7l0.6,0.5l1.9-0.3l1-0.6l1.9-0.5l2,0.1l0.2,0.6l1.6-0.6l1.8-0.2l1.9-0.1l1.6,0
					l1.5,0.2l1.5,0.1l0.2,0.5l0.4,0.5l1.9-0.3l1.7-0.1h1.6l1.6,0l1.7-0.2l1.7-0.2l1.9-0.5l1.7-0.3l1.6-0.1l1.7-0.4l2.1-0.9l1.6-0.6
					l1.1,0.3l-0.3,0.6l0.6,0.4l1.6-0.1l0,0.6l0.2,0.4l1.9-0.4l1.7-0.7l1.7-0.3l2.3-0.6l1.6-0.2l2.1-0.3l1.7-0.4l1.7-0.4l1.7-0.4
					l0.8,0.2l2.2-0.6l1.7-0.5l1,0.1l1.8-0.5l1.4-0.6l1.9-0.5l1.6-0.4l1.7-0.3l1.3-0.1l0.8,0.1l0.7,0.2l-0.2,0.5l-1.5,0.8l-0.3,0.6
					l-0.4,0.5l0.6,0.2l-0.4,0.5l-0.3,0.5l0.5,0.1l1.4-0.4l2.3-0.7l-0.1,0.4l0.3,0.2l0.2,0.2l0.4,0.1h0.7l-3.8,1.8l-1.1,0.4l-1.9,0.7
					l-1.6,0.4l-2,0.6l-1.5,0.6l0.7,0l-1.7,0.6l-1.8,0.6l-2,0.6l-0.9,0.4l0.1,0.2l1.3-0.3l1.9-0.6l1.7-0.5l1.6-0.5l1.5-0.4l1.6-0.6
					l2.3-0.8l0.7-0.1l0.7-0.1l0.9-0.2l1.1-0.3l1.9-0.7l1.6-0.6l1.9-0.7l1.4-0.4l1.1-0.3l1.6-0.6l0.8-0.3l0.9-0.3l-0.2,0.2l0.6-0.2
					l0.7-0.2l-0.2,0.1l1.3-0.5l2.9-1.2l-1.2,0.5l-2,0.9l-0.8,0.4l-0.1,0l0,0l-13.2,5.1l-13.4,4.4l-13.6,3.7l-13.8,3l-13.9,2.3
					l-14,1.6l-14.1,0.8l-14.1,0.1l-14.1-0.7l-14.1-1.4l-14-2.1l-13.8-2.9l-8.2-2L192.7,529z M127.6,491.4l1,1.1l0.3,0.9l-1.5-0.3
					l-1.8-0.8l-1.5-0.4l-3.1-1.5l-2.8-1.5l-5.1-3.1l1.4,0.6l3.6,1.9l2.4,1l-1.1-1.3l-2.1-1.9l-0.6-1.2l1.1,0.3l2,1.3l3.2,2.1
					l3.5,1.6l2.5,0.7l1.2,1.4l-0.8,0.1L127.6,491.4z M124.4,482.8l-0.3-1.8l2.1,0.7l-0.4-1.2l2.6,1.3l0.7,1.1l-1.1,0.8l-1.8-1
					l0.3,1.3L124.4,482.8z M437,473.1l-0.3,1l0.6,0.4l-0.6,0.6l-1.8,1.4l-1.9,0.2l1.8-1.7l1.5-1.3L437,473.1z M471.1,328.8l0.4,2
					l0.2,3.1l-0.6,5.4l0.3,2.1l-0.7,2.2l-0.8,1.3l-0.5-2.6l-0.8,1.3l-0.2,3.3l-0.7,2l-1.1,1.1l-1,3.8l-2.5,5.2l-3.1,6.1l-4.2,8.3
					l-3.1,6.1l-2.9,4.9l-2.8,1l-3.2,1.8l-1.3-1.1l-1.9-1.5l-0.2-2.3l0.9-3.8l-0.1-3.4l0.7-3.1l1.4-3.2l1.7-0.8l0.4-1.4l2.4-3.3
					l1-2.9l-0.2-2.1l0.1-2.8l0.7-4.1l1.6-2.5l1.1-2.9l1.7-0.2l1.9-0.9l1.4-0.8l1.4-0.1l2.3-2.6l3.1-2.8l1.3-2.3l-0.1-1.9l1.2,0.5
					l2.2-3.1l0.6-2.8l1.3-2.1L471.1,328.8z M535.4,235.2l0.5,4.8l-0.2,1.3l-0.5,1.1l-0.8-3.7l-1-6.7l-0.8-7.5l1,2.6l0.8,3.3
					L535.4,235.2z M37,220.1l1.4-0.6l0.5,0.2l-0.6,3.4l-1.9,0.5l-0.3-0.4l0.8-1.3L37,220.1z M36.1,184.8l0.8,0.4L37,186l-0.8,1.1
					h-1.4l-1.1,0.2l0.5-1.9l0.4-0.6H36.1z M20.5,184.8l0.5,0.4l0.2,1.1l-0.2,1.2l-0.7,0.1l-0.6,0.7l-0.3-0.7l0-1.6l0.4-1l0.5-0.3
					L20.5,184.8z M29.2,179.4l0.4-0.7h1.1l0.5,1.1l0.5-0.1l-0.3,1.6l0.9-0.1l-0.5,1.3l0.6,0.2l0.3,1.7l-1.1,1.8l-0.5-1l-0.7,0.2
					l-0.5-0.2l-0.5,0.8l-0.7,0.2l0.1-1l-0.7,0.6l-1.5,3.1l-0.1-0.7l0.3-1.3l-0.7-0.7l-0.7,0.3l-0.7-0.4l-0.9,0.9l-0.2-1.4l0.6-1.4
					l0.9,0.6l0.9,0.4l0.8-1l0.1-1.9l0.6-1.7l-0.6-0.6l0.8-1.3l0.7,0.2L29.2,179.4z M24.6,164.2l0.4,0.3l0.5,0.1l0.1,1.5l-0.3,1.6
					l1-0.5l-0.1,1l-0.2,2.7l-0.1,2h0.3l0.3,0.9l-0.5,1.3l0.7,0.2l0.2,1.8l-0.5,1l-1,0.6l-0.8,0.2l-0.6-0.4l-1.6,0.5l1.5-2.5l0.1-1.2
					l-0.5-0.3l0.2-1.3l0.7-2.4l-0.5,0.2l-0.3-1.2l0.2-0.9l-0.6-0.6l0.1-0.9l0.7-1.1l-0.5-0.2l-1.3,2.3l-0.2,0.1l-0.5,1l-0.4,0.5
					l0-0.4l0.8-1.3l0.7-1.6L23,166l0.6-0.9l0.6-0.5L24.6,164.2z M31.4,155.5l0.2,0.2l-1.3,3.5l-1.1,2.6l-0.3,0.2l0.9-2.5l0.2-1.2
					L31.4,155.5z M33.9,148.8l0.5-0.3l0.5,0.2l-0.5,1.1l-1.3,0.7L33.9,148.8z M35.5,147.7l-0.2,1.9l-1.6,3l0.1-0.5l1.1-2.2l0.4-1.7
					L35.5,147.7z M393.5,114.7l0.5,0.7l0.2,0.3l-2.6,1.6l-1.8-0.5l-1.4-1.5l1.6-0.2h0.2l0.1-0.9l2.3,0.1l2.4-1.2L393.5,114.7z
					 M368.1,114.5l-0.2,1.1l-4.9,0.3l-0.1-0.6l-4.5-0.8l0.2-1.7l2.3,1.3l2.7-0.2l2.6,0.3l0.2,0.6L368.1,114.5z M324.5,103.8l2.8-0.3
					l-0.7,2.9l0.8,1.2l-0.4,1.9l-3-1.4l-1.9-0.4l-5.4-1.9l0.2-1.9l4.2,0.3L324.5,103.8z M301.4,93.8l1.6-1.2l2.5,2.6l0.2,4.8
					l-1.7-0.2l-1.3,1.2l-1.4-0.9l-0.8-4.4l-1-2L301.4,93.8z M300.7,87.7l2-1.4l1.1,3L303,92l-1.7-0.7l-1.1-2.4L300.7,87.7z
					 M105,72.9l-1,1.6l0.7,0.4l1.5-0.1l-2,1.3l-0.8,0.2l-0.5-1.4l0.6-1L105,72.9z M113.4,64.1l0.8-0.3l1,0.8l0.1,1.3l-0.5,0.6
					l-0.8,0.1l-0.8-1L113.4,64.1z M131.2,59.7l-2.8,1.9l-3.7,2.6l2.1-1l0.5,0.7l-1.6,1l0.8,0.8l1.4-0.7l0.9,0.9l-2.6,2.2l1.7-0.5
					l-1.2,1.6l-1.2,2l-3.2,2.8l-1,0.1l-0.7-0.6l2.7-2.6l-0.2-0.4l-4.6,2.8l-1-0.1l2.6-1.5l-1.1-0.7l-2,0.2l-3.1-0.1l0.6-0.9l2.1-1.1
					l0.1-0.8l3.2-1.8l6.5-4.9l2.8-1.7l2.5-1l0.6,0.2L131.2,59.7z M250.1,49l2.2-0.1l2.7,1.7l-1.8,1.9l0.2,2L251,57l-5.4,1.7
					l-4.1-0.4l3-3l-0.9-2.9l4.2-2.1L250.1,49z M302.8,46.4l1.2,1.3l-0.9,2.2l-3.2-1.5l-0.7-1.1L302.8,46.4z M265,46.9l2.5,3.4
					l1.9,0.4l1.7,3.1l0.8,1.1l3.4,0.6l-0.2,1.8l-1.4,0.9l1.2,1.5l-2.6,1.5h-4l-5.2,0.8l-1.4-0.6l-2,1.4l-2.8-0.3l-2.2,1.1l-1.6-0.6
					l4.7-3.1l2.7-0.6l-4.6-0.5l-0.7-1.2l3.1-0.9l-1.4-1.5l0.7-1.8l4.2,0.3l0.5-1.6l-1.7-1.7l-3.3-0.5l-0.6-0.7l1.1-1.2l-0.8-0.7
					l-1.6,1.2l0.3-2.6l-1.1-1.3L256,42l2.2-2l2,0.2l2.9-0.2l-3,2.7l2.7-0.3h2.7l-0.8,2.1l-2.5,2.3L265,46.9z M145.9,31.9l1.4-0.7
					l0.1,0l-0.8,0.5l-2.3,1.2l0.2-0.2l1.1-0.7L145.9,31.9z M146.3,31.1l2-1h0.4l-0.8,0.4l-2.6,1.2l0-0.1L146.3,31.1z M157.5,25.6
					l-1.2,0.7l-1,0.6l-1.9,1l0.5-0.1l-1.2,0.7l-1.6,0.6l0.5-0.5l1.7-0.9l-2.4,1.1l-2.5,1.1l2.4-1.3l-0.6,0.2l2.2-1l3.3-1.6l4-1.8
					l-0.2,0.1l-1.9,0.9l0.8-0.3L157.5,25.6z M243.5,23l-1.2,1.2l1.4,1.3l-3.3,1.5l-6.5,1.4l-2,0.4l-2.4-0.3l-5-0.6l2.6-0.9l-3.3-1
					l3.6-0.4l0.4-0.6l-3.4-0.5l2.3-1.2l2.9-0.3l1.7,1.3l3.5-1l1.9,0.5l3.6-1L243.5,23z M170.4,21.2l-1.5,0.5l-0.7,0.1l2-0.9l2.5-1
					l1-0.3l-0.9,0.5l-1.7,0.7L170.4,21.2z M18.6,173.3l0.3-0.7l0.4-0.9l0.1,0.1l0.2-0.3l-0.3,0.9l-0.8,2.1l-1.1,2.6l-1,2.7l-0.2,0.8
					l-0.7,1.9l-1.2,3.5l0.3-1.1l-0.1,0.1l-0.2,0.6h0l-0.4,1.2l-0.6,1.9l-0.2,0.7l-0.5,1.6l-0.1,0.4l-0.7,2.3l-0.4,1.2l-0.1,0.2
					l-0.5,1.5l-0.2,0.8l0.2-0.7l-0.1,0.6l0,0.2l0.3-0.8l0.1-0.1l-0.1,0.4l0.1-0.2l0,0.4l0.1-0.1l0.2-0.5l0.2-0.6l0,0.2l0,0.3
					l0.1-0.1l0.2-0.4l0,0.7l0,0.1l-0.1,0.8l-0.2,1.1l0,0.7l-0.2,1.2l-0.2,0.5l-0.3,1l-0.4,1.7l-0.5,1.5l-0.5,1.9l-0.5,2L9,210.4
					l-0.4,2.1l-0.2,0.4l-0.5,2l-0.2,1.2l-0.3,1.2l-0.2,1.2L7,219.3l-0.3,2.5l-0.1,1.8l-0.1,2l-0.1,1.7l-0.2,1l0.2,0.2l0.1-0.3l0,1.1
					l0.4-0.3l0.5-1.2l0.6-0.9l0.5-1.3l0.5,0.3L9,226.1l0.5,0.2l0.3,0.8l0.1,1.3l0.2,1.3l0.5,0.2l1.3-3.3l0.6-0.5l0.2-1.5l0.9-3.9
					l1.1-2.2l0.8-0.1l0.3-1l0.9,0.4l1.5-2.3l0.8-1.1l1.2-2.2l0.4,0.2l0.2,1.2l-0.6,1.5l-0.3,1.1l-0.9,0.6l0.1,2.1l-0.4,2.4l-1.1,2.7
					l-0.1,3.8l0.7-0.3l0.9-3.3l-0.2-1.7l0.5-3.5l2.3-1.8l0.2-2.2l0.8-1.4l-0.1,3.2l1.1,0.1l0.6,2.6L24,221l1.6,0.1l2.1-0.5l0.7,2.1
					l1.4,0.6l1.4-1.5l0.2-1.2l2.6-0.3l2.6-0.1l-2.1,1.4l0.4,2.2l1.7,0.3l1.4,2.3l-0.2,3.8l1.3-0.1l0.8,1.1l1.3,1.7l1.1,3l-0.2,2.4
					l0.9,0.1l1.1,2.3l0.8,1.7l3.1,0.9l0.3-0.8l2.2-0.3l2.8,1.3l0.9,0.5l2,1.1l2.7,4l0.4,1.9l1-0.3l0.6,2.6l1.4,8.2l1.5,0.8l0,3.2
					l-2.3,3.9l1,1.4l5.4,0.8l0.2,4.7l2.3-3.1l4.1,1.7l5.5,2.9l1.7,2.7l-0.5,2.6l4-1.4l6.8,2.5l5.3-0.2l5.5,3.9l5,5.2l2.9,1.4
					l3.3,0.3l1.5,1.4l1.6,6l0.9,2.8l-0.9,7.7l-1.6,3.1l-4.5,6.4l-1.7,5.2l-2.2,4l-0.9,0.1l-0.4,3.4l1.7,8.5l0.3,6.9l0.2,3l-0.8,1.8
					l0.7,5.9l-2,5.8l0.6,4.5l-2.1,1.9l-0.1,2.6h-3.5l-4.4,1.7l-1.5,1.9l-2.9,1.3l-2.3,3.4l-0.9,4.2l0.6,3.1l1.4,2.3l1.2,4.2l0.2,2
					l-1,2.3l0.3,7.2l-0.7,3.2l-0.8,1.9l0.8,3.8l-0.4,2.2l0.3,2.5l-1.3,2.2l-2.1-0.8l-0.9,0.4l-3-1.7l-1.3,0.1l-2.5-2.2l1,2l4.6,3.3
					l1.3,2.6l2.3,1.6l1,1.8l1.2,4.8l-1.6,1.9l-3.1,0.8l-2.2-0.4l2,2.2l1.6,2.7l1.7,1.8l0,1.3l-1.3,0.4l-2.4-1.3l0.2,1l3,3.5l1.8,1.1
					l0-1.1l1.9,1.8l-0.5,1.1l0.7,2.2l2.8,3.4l1.2,1.7h-1.3l0.6,1.7l2,2.5l3.5,2.3l1.8,0.6l2.4,2.9l0.4,1.8l3.1,3.6l0.3,1.2l1.1,1.4
					l3.9,3l2.8,1.7l-0.6-0.2l-1-0.1l0.4,0.7l0.4,1l3.2,2.6l-0.3,0.1l-2.2-0.9l-3.5-2l-3-1.6l-2.5-1.8l-1.9-1.7l-2.7-2l-6-5.2l-2.9-3
					l-1.7-2.5l-2.3-0.9l-2.1-2.9l-5.1-5.6l2.2,1.2l-5.9-7.1l-1.5-0.9l3.5,4.3l-1-0.4l-4.1-5l-5.2-6.6l-1.5-2.5l-3.1-3.6l-3.2-4.2
					l0.3-0.1l-3.6-6.2l-3.2-6.2l-3.2-5.9l-3.8-6l-1.5-3.4l-2.8-5l-1.8-5.1l-3.6-8.2l-3.4-8.9l-3.3-9.7l-2.7-7.2l-2.4-6.3l-2.3-2.6
					l-0.7-1.9l-4-4.5l-3.5-4.9l-1.6-2.9l-1.4-3.8l-0.2-1.3l-2.2-6l-2.7-8.5l-2.4-9.3l-0.6-2.1l-0.7-3.4l-1-3l-0.7-1.9l0-2l-0.8-4.5
					l0-3.3l0.4-3l0.3-3.6l-0.3-2l-0.2,2.2l-0.5-2.1l0.1-1.3l-0.2-4.3l0.2-0.7l0.1-3l0.3-3.1l0-1.9l0.5-1l0.6-1.9l-0.1-1.4l0.3-0.4
					l0-2.3l0.3-1.8l0.5-0.3l0.6-3l0.5-2.5l-0.3-1.2l0.4-2.7l0.2-4.3l0.3-1.2l0.3-4l-0.1-2.5l-0.1-1.3l0.1-2.5l0.4-1.3l-0.2-0.3
					l0.1-1.6l-0.3-1.3l-0.4,0.3l-0.4,1.7l-0.5,1.2l-0.2,0.2l-0.2,0.9l0,2.5l-0.3,0.6l-0.2,0.8L6,236.5l0.2-2.8L6,234.6l-0.2-0.3
					l0.1-1.8l-0.2-0.3l-0.1-0.5H5.4l-0.2,1l0-0.7l-0.1-1.1l0-0.9l0.2-0.8l0.1-1l0-1.2l0-0.9l-0.1-0.6l0.2-1.3l0-0.8l-0.2,1.3
					l-0.3,1.2l0.1-1.3l0-0.4l0.1-0.9l0.3-1.4l0.3-1.5l0-0.7l0.2-0.8l0.2-1.5l0.2-1.8l0.3-1.6l0.2-1.5l0.4-2.1l0.2-0.7l-0.1,0.7
					l0.1-0.3l0.3-1.4l0-0.4l-0.3,1.1L7.7,209l0.1-0.4l0.2-0.9l0.1-0.3l0.2-0.6l0,0l3.7-13.6l4.4-13.4L18.6,173.3z M172.9,18.8l2-0.8
					l-2.8,1.1l-3.2,1.3l-2.9,1.2l3.3-1.3l3.8-1.5l4.8-1.8l-0.1,0.1l-0.4,0.2l-1.9,0.8l-2.1,0.8l-2.5,0.9l-2.1,0.9l-2.1,0.9l-3.5,1.3
					l-1,0.3l1.2-0.6l-2.2,1l-3.7,1.6l-1.9,0.9l-3,1.4l-0.3,0.1l-0.2,0.1l0,0l10.3-4.8L172.9,18.8z M123.8,43.8l-0.9,0.6l0,0l-1.4,1
					l-1.8,1.3l-0.9,0.7l-1.4,1.1l0.2,0.2l0,0.2l-3.3,2.4l-3.7,2.8l-3.8,3.2l-2.8,2.8l1.6-1l4-3l5.6-4.5l1.6-1.4l2.6-1.3l3.3-1.9
					l3-1.8l2.5-1.7l2.9-2.1l2.4-1.9l4.7-2.5l3.5-2.1l6.1-3.5l1.3-0.5l-0.2,0.6l0.2,0.2l1.5-0.6l-0.8,0.8l-1.4,1.3L147,34l1,0.2
					l-3.2,1.9l-4.5,3l0.2,0.4L139,41l3.5-1.4l5-2.6l2.4-1.1l-2.5,2.1l-3.2,3.1l-2.9,3l-2.7,1.6l-0.2,1.5l-0.7,1.5l1.4,0.7l-0.1,0.9
					l-2.1,2.3l0.8,0.4l-0.6,1.1l-3.4,3.2l-2.3,1.1l-2.2,1l-3.7,1.1l-4.5,2.5l-3,0.5l-2.2-0.7l-1.9-0.1l-1.5,0.2l-3.4,2.2l-2.9,1.4
					l-5.9,4.1l-4.3,3l1.5-0.6l6.1-4.2l5.2-2.6l2.2-0.3l-0.4,1.5l-3.4,2.1l-3,3.4l-1.9,2.4l0.3,1.7l3-0.5l5-3.7l-2,2.3l-0.1,1.2
					l-3.9,2.1l-5.2,2l-2.7,1.4l-3.7,2.4l-0.8-0.3l2.5-2.9l4.9-2.7l-2.3,0.1L95,79.1l-0.8,1.1l-2.9,1.6L89.1,83l-2.2,1l-2.6,2.2
					l-0.6,0.6L82,88.7l-1.1,1.8l0.4,0.1l1-1.3l-0.4,0.8l-0.9,1l-1.3,0.6l-0.4-0.1l-1.3,0.6l-0.6,0.2l-0.8,0.2l-1.7,1l2.1-0.7
					l-0.3,0.7l-2.3,1l-0.7,0.1l0.4-0.5l-1.1,1l0.1,0.2L70.6,98l-2.9,2.8l0.7-0.9l0-0.2l0.4-0.9l-1.4,2l-0.3,0.7l-1,1.4l-1.4,1.5
					l-2.7,3l0-0.1l2.2-2.6l0.6-1.4l2.3-3l-1.4,1.6L64,104l-0.1-0.5l-0.3,1.1l-2.6,3.6l0.1,0.3l-0.8,1.3l-2.6,3.8l-2.5,2.8l-1.7,1.1
					l-2.1,2.3l-0.6,0.3l-1.3,1.4l-1,1.3l-2.4,2.6l-1.5,1.9l-1.7,2.4l-1.8,2.8l-1.5,2.9l-1.8,3.5l-1.3,2.9l-1,1.8l-2.1,4.8l-1.4,2.9
					l-0.8,1.6l-1.4,2.6l-0.5,0.5l-0.1-0.5l0.8-1.9l0.2-1l1.4-3.6l1.4-3.2l0.8-1.7l1.5-2.7l1.1-2.3l1.5-3.4l0.2-0.7l-1.4,1.8l0.1-0.2
					l0.9-1.8l0.4-1l-0.5,0.5l0.1-0.4l-0.2,0.2l-0.4,0.6l-0.7,1.2l-0.9,1.6l-0.4,0.8l-0.3,0.6l0.4-0.7l-0.3,0.5l0,0l7.2-12.2
					l7.8-11.8l8.4-11.3l9-10.9l9.6-10.4l10.1-9.9l10.6-9.3l11.1-8.8l7.4-5.4L123.8,43.8z M192,12.6l2.1-0.7l1.6-0.5l0.4-0.1l0.1,0.1
					l-1.9,0.8l-1.1,0.4l-0.2-0.1l-0.2,0l-0.9,0.2L192,12.6z M189.3,13l2.9-0.9l1.9-0.6l1.3-0.3l-3,0.9l-2.7,0.9l3.7-1.1l2.2-0.5
					l-4.2,1.4l-2.9,0.9l1.8-0.4l0,0l2-0.6l-1.5,0.7l-1.6,0.7l-1.8,0.6l1.7-0.3l-2.2,1l-0.4,0.6l-1.1,0.6l-3.2,1.5l-3.1,0.8l-1.1,1.1
					l0.2,0.4l-2.5,1.7l1.1,0.1l-3,1.3l-6,2.3l0.6-0.9l2.5-1.8l-1.4,0.2l-2.3,1.1l-1.6,1.2l-0.7,0.9l-0.7,0.5l-3.2,2.1l-3,1.5
					l-0.1-0.6l1.1-1.7l-2.3,1.8l-1.5,1.3l-1.1,0.8l-0.8-0.9l0.7-1.2l1.1-1l1.4-0.6l1.1-1l1.2-1l-1.2,0.6l-2.1,0.3l1.2-0.7l3.3-1.4
					l0.9,0l1.6-0.3l1.2-0.7l2.3-1l4.7-1.8l1.7-0.8l1.2-0.6l1.3-0.8l0.6-0.6l1.3-0.4l2.2-1l-0.1-0.1l1.2-0.6l-1.4,0.5l-1,0.2l0.2-0.4
					l1-0.5l0.6-0.3l1.5-0.5l2.1-0.7h0l1.6-0.6l0,0L189.3,13z M331.3,11.3l-1.5-1.1l-1.9-0.6L327.3,9l-0.6-0.7l0.9-0.2l-0.7-0.4
					l0.2-0.2l2,0.4l1.1,0.4l0.4,0.6l0.3,0.6l1.8,1.2l2.7,1.3l2.4,1.3l3.2,1.2l4.7,1.3l-0.2,0.1l-3.4-0.2l-1.8-0.7l-2.6-0.4l-2-0.8
					l0.1-0.3l-2-0.8l-1.5-1.2L331.3,11.3z M204.7,8.7l-0.2,0L203.4,9L203.2,9L203,9.1l1.1-0.3l0.6-0.1l-0.1,0.1l-1.5,0.4l-1.8,0.5
					l-1.3,0.3l-1.3,0.3l0.4-0.2l-1.1,0.2l-0.2,0l0,0l0.5-0.2l0.1,0l0,0L204.7,8.7z M430.1,103.1l2.4,2.7l2.7,0.7l2.8,1.9l3.7,0.7
					l3-1l-0.4-0.9l-2-2.6l-2.2-3.9l-2.5-1.3l-1-2.5l-1.6-0.2l-1.6-3l2.6,0.8l1.1-1.1l-3-2.2l-2-2l-1.1,0.9l1.6,2.5l-2.2-2.3
					l-0.7-0.8l-0.5-1.4l-1.3-1.2l-3.3-1.2l-3.2-3l-1.8-0.9l-0.9-1.2l2.3,0.4l-1.8-2.5l1.3-0.5l2.2,0.5l-2.3-3.2l-2-2l-1.9,0.1
					l-2.4-0.8l-1.2,1.4l-1.4,0.7l0.6,1.9l-1.7,0.5l0.2,3.4l4.4,3.2l1.5,2.3l5.3,4.1l2.5,1.8l2.9,2.6l1.2,0.1l1.3,1l-1.7,0.3l1.4,2.8
					l0.4,1.2l-0.4,0.9L430.1,103.1z M520.9,169.5l-0.1-0.3l0.3,0.8L520.9,169.5l-0.2-0.4l0.7,1.7l-0.1-0.1l0.1,0.9l1.3,3.3l0.8,2.6
					l0.6,3l1.3,5.3l0.5,2.8l0.3,2.9l0.6,2.1l0,1.1l-0.2,1.6l-0.3,0.2l0.7,3.5l1.7,5.9l0.9,3.8l0.6,4.4l1.5,7.8l-0.4,0.3l0.2,3.5
					l0.5,1.6l-0.6,1.3l0.1,3.2l-0.2,1.3l-1.6-4.4l-1.6-6.5l-1.3-4.7l-0.8-2.2l-1.6-4.4l-1.6-5.8l-0.9-2.8l-2.8-6.3l-3.1-8.7
					l-2.2-5.8l-1.8-5.3l-1.7-4.1l-1.1,2.6l-1.2-0.5l-3.9-5.4l0.1-1.6l-1.1-1.6L500,162l-1.6-1.1l-1.8-3.1l-2.7-3.2l-2.9,0.8l-3,0.1
					l-2.6,0.5l-4.5-1.2l-2.8-1l-2.7-0.5l-3.1-5.2l-1.4-0.8l-1.5,0.8l-1.6,2l-3.6-1.4l-3.9-3.2l-3-1.1l-3.3-4l-4.4-5.5l-1.1,0.7
					l-2.2-1.4l-0.4,1.6l-1.7-0.2l1.4,1.8l0.1,1l2.1,3l2.5,3.6l1.8,1l1.1,1.5l2.4,1.7l0.9,1.7l0.2,1.4l0.9,1.5l1.2,1.2l0.9,1.4l0.7,1
					l-1.3-3.1l-0.2-2.2l0.6-0.5l1.3,1.3l1,2.5l0.3,2.5l1.1,1.7l0.4-0.2l0.5,1.2l1.8-0.7l2.2,0.2l1.6,0.2l0.6-2.9l0.7-2.8l0.5-2.6
					l0.1-1.4l0.4,0.4l0.5,1.8l0,0.8l1.7,3.4l2.1,2.9l1.9,1.5l1.9,0.5l1.7,0.8l1.9,2.5l1.2,1.5l1,0.5l0.3,0.9l0.1,2.6l0,1.3l-0.5,1.4
					l0.2,3l-1.2-0.2l-0.1,1l0.3,2.2l1.2,3l-0.1,0.6h-1.1l-1,1.7l0.3,2.2l-0.3,0.9h-1.6l-0.6,1.1l0.5,1.8l-1,1.3l-1.5-0.4l-1.5,1.5
					l-1.1,0.3l-1.7,1.1l-0.1,2l0.2,1.6l-2.3,2l-4.3,2l-1.9,3.3l-1.4,0.2l-0.9-0.3l-1.4,1.9l-1.9,0.9l-2.6,0.2l-0.8,0.2l-0.5,1.2
					L457,210l-0.3,1.2l-1.7-0.1l-1,0.6l-2.3-0.2l-1.3-2.7l-0.3-2.5l-0.8-1.4l-1.2-3.4l-1.3-1.9l0.6-0.2l-0.6-2.1l0.2-0.8l-0.5-2
					l-0.9-1.9l-1.2-1.4l-0.6-1.8l-2.1-1.6L439,184l-1.7-3.6l-3.1-3l-1.6-0.7l-3.2-4.2l-1.3-3.1l-0.4-2.6l-3.2-4.8l-2.1-1.7l-2.1-0.9
					l-1.9-2.4l0-1l-1.6-2.2l-1.2-0.9l-2.3-3.1l-3.1-3.4l-2.6-2.9h-1.7l-0.1-2.3l-0.3-1.4l-0.2-1.6l-0.3-0.6l-0.3,1.6l0.2,3.1
					l-0.3,2.2l-0.5,0.8l-1.6-1.4l-2-1.9l-4.3-5.9l-0.3,0.4l2.8,4.4l3.4,4.2l4.5,6.5l1.9,2.3l1.8,2.5l4.4,4.7l-0.6,0.8l0.8,2.8
					l5.1,3.9l0.7,0.9l2.2,4.3l-0.6,0.8l1.5,4.5l2.5,5.3l1.5,1.1l2.2,1.7l3,5.2l1.8,4.2l2.3,2.2l5.5,4.3l2.4,2.5l2.3,2.6l1.2,1.6
					l1.9,1.4l1.1,1.4l0.2,1.9l-1.8,1.2l1.6,1.2l1.2,0.8l0.9,1.9l1.8,1.9h1.7l2.9-1.2l3.4-0.5l2.6-1.5l1.4-0.2l1-0.8l1.7-0.2l1-0.1
					l1.3-0.7l1.4-0.4l1.2-1.6h1l0.3,1.2l0.1,2.7l0.4,2.4l-0.4,1.7l-0.1,5.1l-0.9,5.2l-1.3,5.9l-2.1,6.9l-2.3,5.2l-3.5,6.4l-3.2,3.8
					l-5,4.7l-3,3.6l-3.9,5.8l-0.8,2.5l-0.8,1.1l-2.6,1.9l-0.9,1.9l-1.3,0.3l-0.6,3.4l-1.2,1.9l-0.8,3.1l-1.6,1.5l-1.9,5.8l0,2.6
					l2.2,1.7l0,1.3l-1.3,2.8l0.1,1.4l-0.5,2.3l1,2.9l0.9,4.5l1.2,1.1l0.4,2.1l-0.7,4.6l-0.2,4.1l-1,7.1l0.2,2.3l-1.6,3.2l-2,3.2
					l-2.8,2.8l-3.5,1.7l-4.4,2.2l-5.1,4.8l-1.5,0.8l-3.3,3.2l-1.7,1l-1,3.1l1.1,3.3l0.1,2.6l-0.3,1.3l0.7-0.2l-1.1,4.2l-1,2l0.6,0.7
					l-1,1.9l-1.8,1.5l-3.3,1.5l-4.9,2.3l-2,1.6l-0.1,1.8l0.8,0.3l-1,2.2l-1.7,3l-1.4,3.5l-1.4,1.9l-3,2.1l-0.8,0.6l-2.1,2.1
					l-1.6,2.1l-2.9,2.8l-5.2,4.2l-3.2,2.4l-3.2,1.8l-4.1,1.6l-1.8,0.2l-0.7,1.1l-2-0.6l-2,0.7l-3.7-0.7l-2.3,0.5l-1.4-0.2l-4.2,1.5
					l-3.3,0.6l-2.6,1.5l-1.7,0.1l-1.1-1.4l-1.3-0.1l-1.2-1.8L341,422l-0.3-1.1l0.5-2.3l-0.7-2.6l1.4-0.7l0.6-3.1l-1.9-3.8l-1.4-3.4
					l-2-5.3l-2.4-3.1l-1.2-3.1l-0.3-4.1l-0.7-3.1l-0.6-6.6l0.4-5.2l-0.2-2.4l-1.5-1.8l-2-3.6l-1.7-5.3l-0.7-2.8l-3.3-4.3l-0.1-3.4
					l-0.1-2.8l0.9-4l1.7-4.2l0.4-2l1.7-4.1l1.1-1.9l2.7-3l1.6-2.1l0.7-3.4l0-2.6l-1.4-1.7l-1-2.8l-1-2.8l0.4-1l1.4-1.8l-1.2-4.5
					l-0.9-3.1l-2.2-2.9l0.5-0.9l-0.6-1.4l-1.3-3.5l-3.6-4.9l-4.8-4.8l-3-3.8l-2.8-4.9l0.2-1.5l1-1.5l1.2-3.4l0.8-3.6l-0.8-0.7
					l1.6-5.3l0.6-3.7l-1.9-3.1l-2.2-0.8l-1-2.1l-1.2-0.7l0.2-1.4l-4.8,1.7l-1.8-0.3l-1.7,1.1l-3.9-0.1l-2.5-3l-1.5-3.4l-3.2-3.1
					l-3.5,0.1h-4.2l-3.9,0.5l-3.7,1l-7.4,2.8l-2.5,1.6l-4.2,1.4l-4.2-1.4l-2,0.1l-3.4-0.9h-3l-5.6,0.8l-3.2,1.4l-4.5,1.8l-1-0.2
					l-1.2,0.1l-4.8-2.3l-4.1-3.5l-3.9-2.6l-2.9-3l-1.3-0.4l-3.2-1.9l-2.2-2.5l-0.8-1.7l-0.4-3.4l-2-2.8l-1.5-1.8l-1.3-0.6l-0.9-0.9
					l-0.6-2l-0.6-1.1l-1.2-0.7l-2.3-1.9l-1.7-0.3l-1-1.2l0.2-0.7l-1.4-1l-0.3-0.9l-0.4-3.6l0.6-2.1l-1.5-3.5l-2.1-1.6l1.9-0.8
					l2.4-3.2l1.1-2.4l-0.1-2.4l1.4-2.2l0.8-4.2l0-4.4l-0.2-2.2l0.5-2.2l-0.9-2.1l-1.9-1.9l0.4-1.9l0.4-2l1.8-1.2l1.6-2.3l-0.1-1.5
					l1.9-3l2.6-2.8l1.4-0.7l1.5-2.5l0.3-2.3l1.8-2.6l3-1.5l3.2-4.3l2.2-1.7l3.9-0.4l3.5-2.8l2.2-1.1l3.7-3.4l-0.5-5l1.8-3.5l0.8-2.1
					l2.8-2.7l4.1-1.8l3.1-1.6l2.8-4l1.4-2.3h2.7l2.2,1.7l3.6-0.3l4,0.8l1.7,0.1l3.8-2.1l4.1-0.7l2.3-1.6l3.7-1.2l6.4-0.7l6.2-0.3
					l1.9,0.5l3.4-1.5h4l1.6,0.9l2.5-0.3l4-1.5l2.6,0.4l0.1,1.9l3-1.4l0.4,0.7l-1.6,1.8l0.2,1.8l1.3,0.9l0,3.3l-2.4,2l1.1,2.2
					l1.9,0.1l1.2,1.8l1.6,0.6l4.6,1.4l1.6-0.4l3.3,0.6l5.4,1.8l2.4,3.6l3.6,0.7l5.7,1.7l4.5,2l1.6-1l1.4-1.9l-1.4-3l0.8-1.9l2.3-1.9
					l2.4-0.6l5.1,0.8l1.8,1.8h1.3l1.4,0.7l3.8,0.4l1.1,1.4l4.8-0.1l3.8,1.1l3.9,1.2l1.8,0.7l2.3-1.3l1-1.2l3-0.3l2.6,0.5l1.5,2
					l0.4-1.3l3,0.9l2.7,0.2l1.2-1l0.5-1.3l-0.3-0.2l0.3-1.9l-0.5-3l0.1-1l0.1-0.1l-0.1-3.2l0.5-2.7L401,117l-1.5-3l0.1-1.5l-2-1.8
					l0.6-1.4l-1.8,0.3l-2.9-0.8l-1.3,2.1l-4.7,0.5l-3.3-2l-3.5-0.1l-0.1,1.6l-2.2,0.5l-3.8-2l-3.7,0.1l-3.2-3.7l-3.2-2.1l0.6-2.9
					l-2.8-1.8l2.3-3.4l4.8-0.1l0.2-2.7l6,0.4l2.5-2.3l2.9-1l4.8-0.1l6.3,2.5l4.8,1.4l2.9-0.6l2.5,0.3l2.1-1.8l-0.5-1.5l-2.1-2.3
					l-2.3-1.3l-1.7-0.4l-1.6-1l-5.1-2.9l-3.8-1.3l-3.5-2l1.6-0.5l0.4-2.7l-2.2-1.3l2.8-1.3l-0.6-0.7l-1.9,0.5l-1.9,0.2l-1,1
					l-2.3,0.2l-1.5,1.2l1.3,2.1l1.8,0.8l2.6-0.2l0.2,1.1l-2.7,0.6l-2.6,1.9l-2-0.7l-0.3-1.6l-3.5-1l0.1-0.7l2-1.1l-1.2-0.7l-4.7-0.8
					l-0.9-1.2l-2.3,0.4l-0.2,1.8l-0.9,2.4l0.4,0.9l-1,0.7l-1.1-0.3l1.2,4.1l-1,1.4l0,2.4l1.9,2l0.9,1.3l3.3,1.1l-0.2,0.9l-3.6,0.2
					l-0.9,1.1l-1.9,1.9l-1.7-1.7l-0.3-0.7l-2-0.1l-1.7-0.3l-3.7,0.9l3,2.1l-1.5,0.6h-1.8l-2.4-1.9l-0.3,0.8l1.4,2.1l2.2,1.7
					l-0.9,0.9l2.3,1.7l2,1.1l0.7,2.1l-3.4-1l1.6,1.9l-2.1,0.4l2.3,3.3l-2.4,0.1l-3.4-1.6l-2.1-3l-1.3-2.5l-1.8-1.7l-2.3-2.1l-0.5-1
					l-0.7-0.3l-0.2-0.8l-2.2-1.2l-0.9-1.7l-0.5-2.4l0.2-1.1l-0.6-0.6l-0.8-0.3l-1.3-1.1l-1.6-0.7l-3.5-1.3l-2.2-1.2l-3.3-1l-3.4-2.5
					l0.6-0.2l-1.9-1.5l-0.4-1.1l-2.1-0.5l-0.7,1.4l-1.2-1.1l-0.3-1.1l0.1-0.1l0.7-0.3l-2.6-0.5l-2.4,1.2l0.5,1.6l-0.1,1l1.4,1.7
					l3.5,1.7l2.3,2.8l4.4,2.8h2.7l1,0.8l-0.8,0.7l3.4,1.3l2.7,1.1l3.4,1.9l0.5,0.6l-0.3,1.3l-2.4-1.7l-3.1-0.6l-0.9,2.3L332,99
					l0.1,1.9l-1.3,0.3l-1.2,3.1l-1.5,0.3l-0.2-1.1l0.3-2l0.6-0.8l-1.9-2.1l-1.4-1.8l-1.6-0.5l-1.3-1.6l-2.4-0.6l-1.8-1.5l-2.6-0.2
					l-2.9-1.6l-3.6-2.3l-2.7-2l-1.5-3.4l-1.8-0.4l-2.9-1.1l-1.4,0.4l-1.7,1.6l-1.4,0.2l-2.8,2l-6.8-0.9l-4.9,1.1l-0.4,2.1l0.3,2
					l-3.2,2.3l-4.6,0.8l-0.2,1.2l-2.3,2l-1.3,2.9l1.4,2.1l-2.1,1.6l-0.8,2.4l-2.8,0.8l-2.8,2.8l-4.8,0.1l-3.7-0.1l-2.4,1.4L250,112
					l-1.8-0.3l-1.4-1.3l-0.9-2.2l-3.4-0.5l-1.6,0.9l-1.8-0.5l-2.1,0.4l1-2.9l-0.1-2.3l-1.5-0.3l-0.7-1.4l0.6-2.4l1.6-1.3l0.4-1.4
					l1.1-2.2l0.1-1.5l-0.5-1.3l0-1.2l0.5-2.5l-1.1-1.5l5.1-2.5l4.1,0.6h4.5l3.6,0.6l2.8-0.1l5.5,0.1l1.8-2l0.8-6.7l-3.2-3.4
					l-2.3-1.6l-4.7-1.2l-0.1-2.3l4.1-0.7l5.2,0.8l-0.9-3.5l2.8,1.3l7.1-2.4l0.8-2.5l2.5-0.6l2.4-0.6l1.4-0.8l2.1-4.2l3.7-1.2
					l2.3,0.1l0.5-0.6l2.3-0.2l0.6,0.6l1.6-1.4l-0.8-1l-0.5-1.6l-1.4-1.5l-0.6-2.7l0.3-0.7l0.6-0.8l2.1-0.1l0.7-0.7l1.8-0.7l0.3,1.3
					l-0.5,0.8l0.6,0.7l1.5,0.4l-0.4,1l-0.8-0.3l-1.4,1.9l1,1.3l0.4,1.1l2.9,0.6l0.2,0.9l2.7-0.5l1.2-0.7l3.4,1.1l1.5,0.8l1.6-0.8
					l3.6-1.3l2.9-0.9l2.8,0.5l0.5,0.6l2.5,0l0-1.2l3-0.9l-1.7-2.3l-1-2L324,43l1.7-0.9l3,1.9l1.8,0l-0.8-2l-0.7-1.5l-0.6,0.3l-2-0.8
					l-1.1-1.4l2.3-0.7l2.5-0.3l2.6,0.4l2.2,0l1.2-1.3l-3.1-1.1l-3.6,0.2l-3.1,0.8l-3.1,0.5l-2.1-1.3l-2.6-0.8l-1-2.2l-2.4-2l0.1-1.3
					l0.8-1.3l2.4-2.2l0.9-0.4l-1-0.9l-3.3-0.9l-2.5,0.6l-0.7,1.3L313,27l-1.9,1.7l-2.7,1.8l0.2,3.1l2.4,1.6l2.8,1.3l-0.6,2.7
					l-2.1,0.6l1,4.2l-0.3,2.4l-3.2-0.2l-0.7,2.1l-3,0.1l-1.6-2.5l-3-2.9l-3-3.5l-2.1-1.5l-4,2.8l-3.2,0.6l-3.6-1.2l-1.3-2.6
					l-1.6-5.3l1.8-1.4l5.1-1.8l3.3-2.2l2.4-2.7l2.3-3.6l2-1.3l2.7-2.1l2.7-0.7l2.5,0.1l0.7-1.3l2.6,0.1l2-0.3l5.8,1.1l-1.2,0.4
					l2.9,1l0.6-0.6l3.8,1l4.3,0.4l8.2,2l2.4,0.8l2,1.2l-0.1,1l-1.7,0.5l-8.7-1.4l-0.9,0.2l4.3,1.4l3.8,2.9l2.9,0.6l2,0.6l-1.1-1
					l-2.1-0.9l0.1-0.7l5.4,1.2l0.7-0.5l-3.1-1.5l0.6-1.9l1.4,0.1l2.3,0.6l-1.3-1.3l-2.9-1.1l-1.1-1.1l-2.9-1.1l4.5,0.6l2.5,1
					l-1.2,0.2l1.7,1l2.1,0.6l1.3-0.4l-1.7-1.2l0.8-0.9l0.7-1.5l0.9,0.1l1.2,1.1l1.7,0.2l-0.5-0.6l1.7-0.1l-0.2-0.7l3.3,1.1l-1.6-1.1
					l-3.1-1l-0.9-0.6l3.5,0.5l2.2,0.5l7.1,2l-1.7-0.9l-2.8-0.9l-0.9-0.4l-1.2-0.2l-1.7-0.8l-3.5-1.2l-1.3-0.5l-2.7-1.3l-3.5-1.3
					l-0.5-0.3l2.3,0.4l2.5,0.8l3,1.2l1.6,0.5l3.1,1.1l5.7,2.2l3.1,1l2.7,1.2l4.7,2.6l1.3,0.3l-1.3-0.7l-0.5-0.5l-1.9-0.9l-1.6-0.9
					l-2.6-1l-2.6-1.1l-0.8-0.1l-2.5-0.9l-3.9-1.6l-4-1.2l-2.2-1l-3.1-1l0-0.1l2.6,0.8l4.1,1.4l1.2,0.3l-3.3-1.1l-1.2-0.6l0.4-0.1
					l3,0.8l-3.9-1.2l-4.8-1.5l-0.5-0.3l0.6,0.1l-0.4-0.2l-2.4-0.7l-2.9-0.8l-0.1,0L337.8,9l0,0l13.6,3.9l13.4,4.6l13.1,5.3l12.8,6
					l12.5,6.6l12.1,7.3l11.7,7.9l11.3,8.5l10.8,9.1l10.4,9.6l9.8,10.2l9.3,10.7l8.7,11.1l8.1,11.6l7.5,12l6.9,12.4l5.8,11.8
					L520.9,169.5z M294.3,6.5l-1.3,0.4l-2-0.2l0.2-0.3L290,6.1l1.5-0.2l1,0.4L294.3,6.5z M283.1,4.9L283,4.6l1.1,0l1.5,0.3l3.9,0.6
					l-1.5,0.4l0.6,0.7L288,6.8l0.7,0.9l-1.2,0L284.5,7l0.5-0.4l-1.8-0.3l-2.6-0.8l-1.3-0.7l1.9-0.3l0.8,0.3H283.1z M292,4.6l0,0.5
					l-2,0.1L287.3,5l-0.6-0.2l-1.2,0l-1.5-0.4l1.9-0.2l1.5,0.2l0.2-0.2l2.3,0.2L292,4.6z M301.6,4.1l0.4-0.1l0.7,0l1,0.2L303.3,4
					l-0.2-0.1l1.6,0.2l0.3,0.1l-0.2,0.1l-0.1,0.1l0.5,0.1l-0.1,0.1l-1.4-0.2l-0.8-0.3L301.6,4.1z M226.3,4.1L226,4.2l-0.9,0.2
					l-3,0.5l-1.4,0.3l-1.5,0.3l-3.5,0.7l-0.2,0l0,0L226.3,4.1z M233.3,3.1l0.2,0l0.8-0.1l1.8-0.2l-0.2,0l-1.3,0.2l2.6-0.3l0.9-0.1
					l0.7-0.1l0.6,0l-0.4,0.1l1.2-0.1l0.1,0l0.1,0l0.3,0l0,0.1L240,2.7l-1.1,0.2l-2.5,0.3l-1.6,0.1l-1.2,0.1h0.6l-3.3,0.4l-1.6,0.2
					l-4.1,0.7L224,4.9l-1,0.2l-1.1,0.1l-0.3,0.1l-1,0.2l-2,0.4l-1.7,0.3l-1.6,0.3l-1.9,0.4l-1.7,0.3l-0.9,0.2l0.5,0l-1.1,0.2
					l-3.3,0.7l0.9-0.3l-1,0.2l0.5-0.1l0.2-0.1l2.1-0.5l1.1-0.2l3.3-0.7l0.4-0.1l-1.8,0.4l2.8-0.6l0.8-0.2l1.9-0.4l1.2-0.2l1.6-0.3
					l1.7-0.3l2.3-0.4l0,0l-0.4,0.1l1.8-0.3l0.4-0.1L226,4.2l1.6-0.3l1.4-0.2l0,0L233.3,3.1z M245.2,2.7l3.4-0.4l1.3,0l1.7-0.2l1.7,0
					l3.3,0.1l1.7,0.4l-1.7,0.2l-2.3,0L251.1,3L251,3.1l2.3-0.1l1.1,0.2l1.8-0.2l-0.1,0.2l-1.7,0.4l2.3-0.3l3.7-0.3l1.7,0.1l-0.1,0.3
					l-3.7,0.5l-0.7,0.2l-2.7,0.1l1.7,0l-2,0.6l-1.7,0.6L251,6.8l0.2,0.7l-1.6,0l-2.2,0.3l1.1,0.6l-1.1,1l-1.4,0.1l0.2,1.1l-2.7,0.1
					l0.7,0.5l-1,0.5l-2,0.2h-1.8l0.4,0.9l-0.8,0.6l-1.9-0.6l-1.2,0.4l1.3,0.3l0.7,0.9l-0.8,1.2l-2.9,0.3l-0.4-0.6l-0.6-0.8l-0.8,1
					l-2.7,0.8l3.7,0.1l2,0.1L230,18l-5.7,1.3l-5.2,0.6h-1.7l-2.5,0.7l-4.6,1.9l-5.1,1.3l-1.2,0.1l-2.7,0.5l-2.8,0.5l-3,1.2l-1.9,1.4
					l-2.6,1.3l-4.8,1.7l-1.6,1.7l-3,1.9l-3.6,2.2l-2.5,0.1l0-1.9h-3.1l0.3-1.3l2.1-2.2l1.7-2.7l1.5-1.3l2.9-1.8l1.5-1.8l3-1.4
					l0.6-0.7l5.1-2.1l2.8-0.6l1.9-0.7l2.9-1.3l-2.4,0.6l-1,0.2l-1.4,0.2l0-0.5l2.4-1.1l2.3-0.8h0.8l1.1,0.4l0.6-1l0.5-0.5l-1.4,0.2
					l0.2-0.4l4.4-1.4l0.8-0.5l2-1l3.2-1.4l0.6-0.5l1.6-0.5l0.8-0.7l-0.8-0.1l-1.4,0L210,8.4l0.8-0.3l2.1-0.7l2.3-0.3l1-0.1l-0.5-0.3
					l1.1-0.4l1.7-0.4l3.3-0.5l3.3-0.4l1.7-0.3l0.7-0.3l2-0.3l4.1-0.5l0.9-0.1l1.7-0.3l1.8-0.2l1.7-0.1l1.2,0L240,3.2l3.1-0.4
					l-0.3,0.2l0.4,0l-0.1,0.2l0.7-0.4L245.2,2.7z"/>
			</g>
			<g>
				<path class="st2" d="M81.8,83l-1.2,1.3L79,85.4l-0.4-0.2l-0.4-0.1l-0.7,0.4L77,85.7l0.1-0.4l1.3-1.2l0.6-0.4l0.9-0.5l1-0.5
					l-0.3,0.7l1-0.8l0.7-0.4l-0.1,0.2L81.8,83z M71.5,89.6l0.1,0.2l1.3-1.1l1.1-1l0.3-0.1l0,0.3l0.6-0.5l0.7-0.4l0.9-0.4l-0.3,0.3
					l-2.4,2.1l-1.3,1l-0.7,0.5l-1.2,0.9l-0.8,0.5l-0.1-0.2l0.4-0.8L71.5,89.6z M89.4,70.2l0.5-0.4l0,0l1.4-1.2l0.6-0.5l0.9-0.8
					l0.5-0.4l-0.6,0.6l0,0.1L92.2,68l-2,1.8l-0.2,0.5L89,71.2l-0.9,0.9l-1.3,1.2l-0.3,0.4l-1.2,1.1l0-0.1l0.9-0.9l-0.5,0.3l-0.9,0.7
					l1.2-1.2l0.4-0.4l1.8-1.7l-1.2,1l-1.2,1L85.4,74l0,0L89.4,70.2z M421.8,275.5l-2,2.1l-1.3,2.1l1.5,1.6l-2.3,1.2l-0.4-0.5
					l-2.3,0.3l-1.9,1l-1-1.8l0.8-3.3l0.2-2.8l-0.3-1.9l1.9-2.7l2.4-0.7l1.7-1.2l2.1,0.9l1.1,2.1L421.8,275.5z M335.1,33.8l0.8-1.2
					l4.7,1.5l1.9,1.1l0.1,0.4l-0.5-0.1l0.7,0.8l-1.9-0.1l0.3,0.8h-0.9l-0.4-0.6l-2.2-1.1l-0.5-0.5L335.1,33.8z M452.1,73.9l0.5,0.3
					l0.7,0.9l-0.1,0.2l-1.2-0.4l-1.6-0.4l-0.7-0.5l0.6,0.6l-0.2,0.2l0.8,0.9l-0.1,0.4l3.1,3.3l-2.6-2l-0.6-0.7l-0.4-0.7l-0.6-0.5
					l0.2-0.1l-0.7-0.8l-0.5-1.2l1.1,0.1l1.1,0.4h0.5l0.9,0.6l-0.5-0.6L452.1,73.9z M407.2,310.8l-1.3-0.3l0.4-1.8l-1.1-1.3l-0.3-2.5
					l-2.3-2.5l-1.3-3.4l0.8-2l-0.9-2.6l1-7.5l1.3,4.6l-0.2,2.2l0.7,0.8l-0.2,1.9l0.6,1.9l-1,1.8l3,3.2l0.3,2.9l1.9,5.5l-0.7,0.3
					L407.2,310.8z M421.6,337.1l-0.2,0.5l-1.1-1.7l-0.8,1.2l-0.4-1l0.2-1.7l-0.6-1.3l0.3-2l-0.7-3.4l1.4-2.6l0.3-5.6l-1.1-3l0.6-1.4
					l1.7,2.5l-0.1,4.8l1,1.7l-1.5,4.5l-0.1,5.9l0.7,0.2L421.6,337.1z M432.2,77.9l-1-1.3l0.6-0.1l1.2,0.8l-1.7-2l0.5,0.2l1,0.5
					l0.6,0.6l0,0.3l0.7,0.9l0.3-0.2l2.5,2.6l1.1,1.8l-0.2,0.3l-1.8-0.7l-1.3-2.1l-0.6-0.7l-1.2-0.6l0.7,0.9l1,1.2l0.8,1.8l-1.1-0.9
					l-1.2-1.4L432.2,77.9z M303.9,38.6l0.1,0.3l0,0.4l-1.2,0.7l-1,0.2H301l-0.1-0.7l-0.2-0.2l0.4-0.2l0.7-0.1l0.3-0.3l0.7-0.5
					L303.9,38.6z M32.7,148.8l-0.1-0.2l0.5-1l0.1,0.2L32.7,148.8z M6.7,218.3l-0.2-0.1l0.1-1.6l0.3-1.8l0.1-0.2l-0.2,1.9L6.7,218.3z
					 M430,215l-0.5-0.8l0.7-0.9l1.1,0.3l0.1,1.6l-0.5,0.5L430,215z M27.7,345.5l-0.8-0.9l-0.6-0.8l0.1-0.3l-0.2-0.6L26,342l0.5,0.3
					l1.5,2.1l0.1,0.1l0.9,2l-0.1,0.7l-0.1,0.2l-0.2-0.3l-0.2-0.2l-0.3-0.8L27.7,345.5z M343.8,31.5l2,1.2l1.7,1l0.1,0.6l-1.2,0.2
					l-1.3-0.4l0.6,0l0.8,0l-1.5-0.7l-0.9-0.4l-1.4-0.7l-1.2-0.8l-0.1-0.2l0.8,0.2l-0.6-0.5l0.8,0.4l0.8,0.4l0.1-0.1l0.3-0.2
					l-1.1-0.5l-1.6-0.6l0.7,0l0.6,0.2L343.8,31.5z M74.7,86.4L76,85l1.8-2l0.2-0.4l-1.7,1.5l0-0.1l0.8-0.9l1.5-1.3l1.5-1.5l1.5-1.5
					l1-1.3L83,77l0.5-0.5l0,0.1l0.6-0.3l1.2-1.4l0.5-0.5l-0.7,0.8l-0.2,0.4h0.3l0,0.4L85,76.6l-0.8,1l-2.1,2.5l-1.3,1.1l0-0.5l1.8-2
					l-2,2.1l-2.1,1.9L77,84.3l-1,1L74.7,86.4z M83.5,76.5L83,77l-1.3,1.2l-0.4,0.4l-1.7,1.6l1.1-1.1l-0.9,0.8L78.6,81l-1.7,1.7
					l-1.4,1.4l-2,2.2l-2.1,2.2l-1.6,1.7l-0.5,0.5L69,91.1h-0.1l0.2-0.2l1.7-1.9l0.8-0.9l0.8-0.9l1.5-1.7l1.8-1.9l2.3-2.4l2.7-2.6h0
					l-2.3,2.2l0.3-0.4l1.2-1.2l2.3-2.1l0.4-0.3l0.9-0.6L83.5,76.5z"/>
			</g>
			<g>
				<path class="st4" d="M253.3,52.4l0.2,2L251,57l-5.4,1.7l-4.1-0.4l3-3l-0.9-2.9l4.2-2.1l2.3-1.3l2.2-0.1l2.7,1.7L253.3,52.4
					 M197.9,10.5l0.5-0.2l0.1,0 M204.7,8.7l-0.2,0L203.4,9L203.2,9L203,9.1l1.1-0.3l0.6-0.1l-0.1,0.1l-1.5,0.4l-1.8,0.5l-1.3,0.3
					l-1.3,0.3l0.4-0.2l-1.1,0.2l-0.2,0 M36.1,184.8l0.8,0.4L37,186l-0.8,1.1h-1.4l-1.1,0.2l0.5-1.9l0.4-0.6H36.1 M20.5,184.8
					l0.5,0.4l0.2,1.1l-0.2,1.2l-0.7,0.1l-0.6,0.7l-0.3-0.7l0-1.6l0.4-1l0.5-0.3L20.5,184.8 M24.6,164.2l0.4,0.3l0.5,0.1l0.1,1.5
					l-0.3,1.6l1-0.5l-0.1,1l-0.2,2.7l-0.1,2h0.3l0.3,0.9l-0.5,1.3l0.7,0.2l0.2,1.8l-0.5,1l-1,0.6l-0.8,0.2l-0.6-0.4l-1.6,0.5
					l1.5-2.5l0.1-1.2l-0.5-0.3l0.2-1.3l0.7-2.4l-0.5,0.2l-0.3-1.2l0.2-0.9l-0.6-0.6l0.1-0.9l0.7-1.1l-0.5-0.2l-1.3,2.3l-0.2,0.1
					l-0.5,1l-0.4,0.5l0-0.4l0.8-1.3l0.7-1.6L23,166l0.6-0.9l0.6-0.5L24.6,164.2 M131.2,59.7l-2.8,1.9l-3.7,2.6l2.1-1l0.5,0.7l-1.6,1
					l0.8,0.8l1.4-0.7l0.9,0.9l-2.6,2.2l1.7-0.5l-1.2,1.6l-1.2,2l-3.2,2.8l-1,0.1l-0.7-0.6l2.7-2.6l-0.2-0.4l-4.6,2.8l-1-0.1l2.6-1.5
					l-1.1-0.7l-2,0.2l-3.1-0.1l0.6-0.9l2.1-1.1l0.1-0.8l3.2-1.8l6.5-4.9l2.8-1.7l2.5-1l0.6,0.2L131.2,59.7 M157.5,25.6l-1.2,0.7
					l-1,0.6l-1.9,1l0.5-0.1l-1.2,0.7l-1.6,0.6l0.5-0.5l1.7-0.9l-2.4,1.1l-2.5,1.1l2.4-1.3l-0.6,0.2l2.2-1l3.3-1.6l4-1.8l-0.2,0.1
					l-1.9,0.9l0.8-0.3L157.5,25.6 M190.2,13.2l2-0.6l-1.5,0.7l-1.6,0.7l-1.8,0.6l1.7-0.3l-2.2,1l-0.4,0.6l-1.1,0.6l-3.2,1.5
					l-3.1,0.8l-1.1,1.1l0.2,0.4l-2.5,1.7l1.1,0.1l-3,1.3l-6,2.3l0.6-0.9l2.5-1.8l-1.4,0.2l-2.3,1.1l-1.6,1.2l-0.7,0.9l-0.7,0.5
					l-3.2,2.1l-3,1.5l-0.1-0.6l1.1-1.7l-2.3,1.8l-1.5,1.3l-1.1,0.8l-0.8-0.9l0.7-1.2l1.1-1l1.4-0.6l1.1-1l1.2-1l-1.2,0.6l-2.1,0.3
					l1.2-0.7l3.3-1.4l0.9,0l1.6-0.3l1.2-0.7l2.3-1l4.7-1.8l1.7-0.8l1.2-0.6l1.3-0.8l0.6-0.6l1.3-0.4l2.2-1l-0.1-0.1l1.2-0.6
					l-1.4,0.5l-1,0.2l0.2-0.4l1-0.5l0.6-0.3l1.5-0.5l2.1-0.7h0l1.6-0.6 M189.3,13l2.9-0.9l1.9-0.6l1.3-0.3l-3,0.9l-2.7,0.9l3.7-1.1
					l2.2-0.5l-4.2,1.4l-2.9,0.9l1.8-0.4 M390.3,114.2l2.3,0.1l2.4-1.2l-1.5,1.7l0.7,1l-2.6,1.6l-1.8-0.5l-1.4-1.5l1.8-0.2
					L390.3,114.2 M368.1,114.5l-0.2,1.1l-4.9,0.3l-0.1-0.6l-4.5-0.8l0.2-1.7l2.3,1.3l2.7-0.2l2.6,0.3l0.2,0.6L368.1,114.5
					 M471.1,328.8l0.4,2l0.2,3.1l-0.6,5.4l0.3,2.1l-0.7,2.2l-0.8,1.3l-0.5-2.6l-0.8,1.3l-0.2,3.3l-0.7,2l-1.1,1.1l-1,3.8l-2.5,5.2
					l-3.1,6.1l-4.2,8.3l-3.1,6.1l-2.9,4.9l-2.8,1l-3.2,1.8l-1.3-1.1l-1.9-1.5l-0.2-2.3l0.9-3.8l-0.1-3.4l0.7-3.1l1.4-3.2l1.7-0.8
					l0.4-1.4l2.4-3.3l1-2.9l-0.2-2.1l0.1-2.8l0.7-4.1l1.6-2.5l1.1-2.9l1.7-0.2l1.9-0.9l1.4-0.8l1.4-0.1l2.3-2.6l3.1-2.8l1.3-2.3
					l-0.1-1.9l1.2,0.5l2.2-3.1l0.6-2.8l1.3-2.1L471.1,328.8 M228.5,534.6h0.3l0.3-0.2l1.8,0.2l2.3,0.4l2.2,0.6l1.4,0.4l1.6,0.4
					l0.1,0.2l0,0.2l-0.2,0.2l-0.4,0.1l-1.3,0l-1.8-0.2l-1.5-0.3l0-0.2l-0.8-0.3l-1.2-0.4l-1.1-0.3l-0.8-0.3L228.5,534.6
					 M228.7,536.6l0.9,0l1.1,0.1l-1.4-0.3l-1.2-0.3l2.1,0.3l1.9,0.4l1.7,0.3l-1.3-0.1l-0.4,0.1l-1.8-0.3l-0.2,0L228.7,536.6
					 M187.2,526.2L187,526l0.7,0.1l-2-0.8l-1.6-0.6l-3.3-1.3l-1.7-0.8l-0.1-0.2l1.8,0.6l1.7,0.6l2.1,0.7l2,0.7l2,0.7l1.9,0.7
					l1.5,0.6l1.4,0.6l-0.1,0.2l0.3,0.3l-0.7,0l-1.5-0.6l0.1,0.2l0.1,0.2l-1.5-0.4l-1.8-0.6L187.2,526.2 M535.4,235.2l0.5,4.8
					l-0.2,1.3l-0.5,1.1l-0.8-3.7l-1-6.7l-0.8-7.5l1,2.6l0.8,3.3L535.4,235.2 M301.4,93.8l1.6-1.2l2.5,2.6l0.2,4.8l-1.7-0.2l-1.3,1.2
					l-1.4-0.9l-0.8-4.4l-1-2L301.4,93.8 M300.7,87.7l2-1.4l1.1,3L303,92l-1.7-0.7l-1.1-2.4L300.7,87.7 M302.8,46.4l1.2,1.3l-0.9,2.2
					l-3.2-1.5l-0.7-1.1L302.8,46.4 M260.2,40.2l2.9-0.2l-3,2.7l2.7-0.3h2.7l-0.8,2.1l-2.5,2.3l2.7,0.2l2.5,3.4l1.9,0.4l1.7,3.1
					l0.8,1.1l3.4,0.6l-0.2,1.8l-1.4,0.9l1.2,1.5l-2.6,1.5h-4l-5.2,0.8l-1.4-0.6l-2,1.4l-2.8-0.3l-2.2,1.1l-1.6-0.6l4.7-3.1l2.7-0.6
					l-4.6-0.5l-0.7-1.2l3.1-0.9l-1.4-1.5l0.7-1.8l4.2,0.3l0.5-1.6l-1.7-1.7l-3.3-0.5l-0.6-0.7l1.1-1.2l-0.8-0.7l-1.6,1.2l0.3-2.6
					l-1.1-1.3L256,42l2.2-2L260.2,40.2 M243.5,23l-1.2,1.2l1.4,1.3l-3.3,1.5l-6.5,1.4l-2,0.4l-2.4-0.3l-5-0.6l2.6-0.9l-3.3-1
					l3.6-0.4l0.4-0.6l-3.4-0.5l2.3-1.2l2.9-0.3l1.7,1.3l3.5-1l1.9,0.5l3.6-1L243.5,23 M10.1,229.8l0.5,0.2l1.3-3.3l0.6-0.5l0.2-1.5
					l0.9-3.9l1.1-2.2l0.8-0.1l0.3-1l0.9,0.4l1.5-2.3l0.8-1.1l1.2-2.2l0.4,0.2l0.2,1.2l-0.6,1.5l-0.3,1.1l-0.9,0.6l0.1,2.1l-0.4,2.4
					l-1.1,2.7l-0.1,3.8l0.7-0.3l0.9-3.3l-0.2-1.7l0.5-3.5l2.3-1.8l0.2-2.2l0.8-1.4l-0.1,3.2l1.1,0.1l0.6,2.6L24,221l1.6,0.1l2.1-0.5
					l0.7,2.1l1.4,0.6l1.4-1.5l0.2-1.2l2.6-0.3l2.6-0.1l-2.1,1.4l0.4,2.2l1.7,0.3l1.4,2.3l-0.2,3.8l1.3-0.1l0.8,1.1l1.3,1.7l1.1,3
					l-0.2,2.4l0.9,0.1l1.1,2.3l0.8,1.7l3.1,0.9l0.3-0.8l2.2-0.3l2.8,1.3l0.9,0.5l2,1.1l2.7,4l0.4,1.9l1,0.2l0.5,2.2l1.4,8.2l1.5,0.8
					l0,3.2l-2.3,3.9l1,1.4l5.4,0.8l0.2,4.7l2.3-3.1l4.1,1.7l5.5,2.9l1.7,2.7l-0.5,2.6l4-1.4l6.8,2.5l5.3-0.2l5.5,3.9l5,5.2l2.9,1.4
					l3.3,0.3l1.5,1.4l1.6,6l0.9,2.8l-0.9,7.7l-1.6,3.1l-4.5,6.4l-1.7,5.2l-2.2,4l-0.9,0.1l-0.4,3.4l1.7,8.5l0.3,6.9l0.2,3l-0.8,1.8
					l0.7,5.9l-2,5.8l0.6,4.5l-2.1,1.9l-0.1,2.6h-3.5l-4.4,1.7l-1.5,1.9l-2.9,1.3l-2.3,3.4l-0.9,4.2l0.6,3.1l1.4,2.3l1.2,4.2l0.2,2
					l-1,2.3l0.3,7.2l-0.7,3.2l-0.8,1.9l0.8,3.8l-0.4,2.2l0.3,2.5l-1.3,2.2l-2.1-0.8l-0.9,0.4l-3-1.7l-1.3,0.1l-2.5-2.2l1,2l4.6,3.3
					l1.3,2.6l2.3,1.6l1,1.8l1.2,4.8l-1.6,1.9l-3.1,0.8l-2.2-0.4l2,2.2l1.6,2.7l1.7,1.8l0,1.3l-1.3,0.4l-2.4-1.3l0.2,1l3,3.5l1.8,1.1
					l0-1.1l1.9,1.8l-0.5,1.1l0.7,2.2l2.8,3.4l1.2,1.7h-1.3l0.6,1.7l2,2.5l3.5,2.3l1.8,0.6l2.4,2.9l0.4,1.8l3.1,3.6l0.3,1.2l1.1,1.4
					l3.9,3l2.8,1.7l-0.6-0.2l-1-0.1l0.4,0.7l0.4,1l3.2,2.6l-0.3,0.1l-2.2-0.9l-3.5-2l-3-1.6 M8.6,236.5l0.1,2.5l-0.3,4l-0.3,1.2
					L8,248.5l-0.4,2.7l0.3,1.2l-0.5,2.5l-0.6,3l-0.5,0.3L6,259.9l0,2.3l-0.3,0.4l0.1,1.4L5,265.9l-0.5,1l0,1.9l-0.3,3.1l-0.1,3
					l-0.2,0.7l0.2,4.3l-0.1,1.3l0.5,2.1l0.2-2.2l0.3,2l-0.3,3.6l-0.4,3l0,3.3l0.8,4.5l0,2l0.7,1.9l1,3l0.7,3.4l0.6,2.1l2.4,9.3
					l2.7,8.5l2.2,6l0.2,1.3l1.4,3.8l1.6,2.9l3.5,4.9l4,4.5l0.7,1.9l2.3,2.6l2.4,6.3l2.7,7.2l3.3,9.7l3.4,8.9l3.6,8.2l1.8,5.1l2.8,5
					l1.5,3.4l3.8,6l3.2,5.9l3.2,6.2l3.6,6.2l-0.3,0.1l3.2,4.2l3.1,3.6l1.5,2.5l5.2,6.6l4.1,5l1,0.4l-3.5-4.3l1.5,0.9l5.9,7.1
					l-2.2-1.2l5.1,5.6l2.1,2.9l2.3,0.9l1.7,2.5l2.9,3l6,5.2l2.7,2l1.9,1.7l2.5,1.8 M113.2,485.7l1.4,0.6l3.6,1.9l2.4,1l-1.1-1.3
					l-2.1-1.9l-0.6-1.2l1.1,0.3l2,1.3l3.2,2.1l3.5,1.6l2.5,0.7l1.2,1.4l-0.8,0.1l-1.8-1l1,1.1l0.3,0.9l-0.6-0.1l-0.9-0.2l-1.8-0.8
					l-1.5-0.4l-3.1-1.5l-2.8-1.5L113.2,485.7 M301.6,4.1l0.4-0.1l0.7,0l1,0.2L303.3,4l-0.2-0.1l1.6,0.2l0.3,0.1l-0.2,0.1l-0.1,0.1
					l0.5,0.1l-0.1,0.1l-1.4-0.2l-0.8-0.3L301.6,4.1 M331.3,11.3l-1.5-1.1l-1.9-0.6L327.3,9l-0.6-0.7l0.9-0.2l-0.7-0.4l0.2-0.2l2,0.4
					l1.1,0.4l0.4,0.6l0.3,0.6l1.8,1.2l2.7,1.3l2.4,1.3l3.2,1.2l4.7,1.3l-0.2,0.1l-3.4-0.2l-1.8-0.7l-2.6-0.4l-2-0.8l0.1-0.3l-2-0.8
					l-1.5-1.2L331.3,11.3 M292,4.6l0,0.5l-2,0.1L287.3,5l-0.6-0.2l-1.2,0l-1.5-0.4l1.9-0.2l1.5,0.2l0.2-0.2l2.3,0.2L292,4.6
					 M294.3,6.5l-1.3,0.4l-2-0.2l0.2-0.3L290,6.1l1.5-0.2l1,0.4L294.3,6.5 M283.1,4.9L283,4.6l1.1,0l1.5,0.3l3.9,0.6l-1.5,0.4
					l0.6,0.7L288,6.8l0.7,0.9l-1.2,0L284.5,7l0.5-0.4l-1.8-0.3l-2.6-0.8l-1.3-0.7l1.9-0.3l0.8,0.3H283.1 M8.6,236.5l-0.1-1.3
					l0.1-2.5l0.4-1.3l-0.2-0.3l0.1-1.6l-0.3-1.3l-0.4,0.3l-0.4,1.7l-0.5,1.2l-0.2,0.2l-0.2,0.9l0,2.5l-0.3,0.6l-0.2,0.8L6,236.5
					l0.2-2.8L6,234.6l-0.2-0.3l0.1-1.8l-0.2-0.3l-0.1-0.5H5.5H5.4l-0.2,1l0-0.7l-0.1-1.1l0-0.9l0.2-0.8l0.1-1l0-1.2l0-0.9l-0.1-0.6
					l0.2-1.3l0-0.8l-0.2,1.3l-0.3,1.2l0.1-1.3l0-0.4l0.1-0.9l0.3-1.4l0.3-1.5l0-0.3l0-0.3l0.2-0.8l0.2-1.5l0.2-1.8l0.3-1.6l0.2-1.5
					l0.4-2.1l0.2-0.7l-0.1,0.7l0.1-0.3l0.3-1.4l0-0.2l0-0.2l-0.3,1.1L7.7,209l0.1-0.4l0.2-0.9l0.1-0.3l0.1-0.6 M172.9,18.8l2-0.8
					l-2.8,1.1l-3.2,1.3l-2.9,1.2l3.3-1.3l3.8-1.5l4.8-1.8l-0.1,0.1l-0.4,0.2l-1.9,0.8l-2.1,0.8l-2.5,0.9l-2.1,0.9l-2.1,0.9l-3.5,1.3
					l-1,0.3l1.2-0.6l-2.2,1l-3.7,1.6l-1.9,0.9l-3,1.4l-0.3,0.1l-0.2,0.1 M123.8,43.8l-0.9,0.6l-1.5,1l-1.8,1.2l-0.9,0.7l-1.4,1.1
					l0.2,0.2l0,0.2l-3.3,2.4l-3.7,2.8l-3.8,3.2l-2.8,2.8l1.6-1l4-3l5.6-4.5l1.6-1.4l2.6-1.3l3.3-1.9l3-1.8l2.5-1.7l2.9-2.1l2.4-1.9
					l4.7-2.5l3.5-2.1l6.1-3.5l1.3-0.5l-0.2,0.6l0.2,0.2l1.5-0.6l-0.8,0.8l-1.4,1.3L147,34l1,0.2l-3.2,1.9l-4.5,3l0.2,0.4L139,41
					l3.5-1.4l5-2.6l2.4-1.1l-2.5,2.1l-3.2,3.1l-2.9,3l-2.7,1.6l-0.2,1.5l-0.7,1.5l1.4,0.7l-0.1,0.9l-2.1,2.3l0.8,0.4l-0.6,1.1
					l-3.4,3.2l-2.3,1.1l-2.2,1l-3.7,1.1l-4.5,2.5l-3,0.5l-2.2-0.7l-1.9-0.1l-1.5,0.2l-3.4,2.2l-2.9,1.4l-5.9,4.1l-4.3,3l1.5-0.6
					l6.1-4.2l5.2-2.6l2.2-0.3l-0.4,1.5l-3.4,2.1l-3,3.4l-1.9,2.4l0.3,1.7l3-0.5l5-3.7l-2,2.3l-0.1,1.2l-3.9,2.1l-5.2,2l-2.7,1.4
					l-3.7,2.4l-0.8-0.3l2.5-2.9l4.9-2.7l-2.3,0.1L95,79.1l-0.8,1.1l-2.9,1.6L89.1,83l-2.2,1l-2.4,2l-0.8,0.7L82,88.7l-1.1,1.8
					l0.4,0.1l1-1.3l-0.4,0.8l-0.9,1l-1.3,0.6l-0.4-0.1l-1.3,0.6l-0.6,0.2l-0.8,0.2l-1.7,1l2.1-0.7l-0.3,0.7l-2.4,1.1h-0.6l0.4-0.5
					l-1.1,1l0.1,0.2L70.6,98l-2.9,2.8l0.7-0.9l0-0.2l0.4-0.9l-1.4,2l-0.3,0.7l-1,1.4l-1.4,1.5l-2.7,3l0-0.1l2.2-2.6l0.6-1.4l2.3-3
					l-1.4,1.6L64,104l-0.1-0.6l-0.3,1.2l-2.6,3.6l0.1,0.3l-0.8,1.3l-2.6,3.8l-2.5,2.8l-1.7,1.1l-2.1,2.3l-0.6,0.3l-1.3,1.4l-1,1.3
					l-2.4,2.6l-1.5,1.9l-1.7,2.4l-1.8,2.8l-1.5,2.9l-1.8,3.5l-1.3,2.9l-1,1.8l-2.1,4.8l-1.4,2.9l-0.8,1.6l-1.4,2.6l-0.5,0.5
					l-0.1-0.5l0.8-1.9l0.2-1l1.4-3.6l1.4-3.2l0.8-1.7l1.5-2.7l1.1-2.3l1.5-3.4l0.2-0.7l-1.4,1.8l0.1-0.2l0.9-1.8l0.4-1l-0.5,0.5
					l0.1-0.4l-0.2,0.2l-0.4,0.7l-0.6,1.1l-0.9,1.6l-0.4,0.8l-0.3,0.6l0.4-0.7l-0.3,0.5 M18.6,173.3l0.3-0.7l0.4-0.9l0.1,0.1l0.2-0.3
					l-0.3,0.9l-0.8,2.1l-1.1,2.6l-1,2.7l-0.2,0.8l-0.7,1.9l-1.2,3.5l0.3-1.1l-0.1,0.1l-0.2,0.6h0l-0.4,1.2l-0.6,1.9l-0.2,0.7
					l-0.5,1.6l-0.1,0.4l-0.7,2.3l-0.4,1.2l-0.1,0.2l-0.5,1.5l-0.2,0.8l0.2-0.7l-0.1,0.6l0,0.2l0.3-0.8l0.1-0.1l-0.1,0.4l0.1-0.2
					l0,0.4l0.1-0.1l0.2-0.5l0.2-0.6l0,0.2l0,0.3l0.1-0.1l0.2-0.4l0,0.7l0,0.1l-0.1,0.8l-0.2,1.1l0,0.7l-0.2,1.2l-0.2,0.5l-0.3,1
					l-0.4,1.7l-0.5,1.5l-0.5,1.9l-0.5,2L9,210.4l-0.4,2.1l-0.2,0.4l-0.5,2l-0.2,1.2l-0.3,1.2l-0.2,1.2L7,219.3l-0.1,0.7l-0.2,1.8
					l-0.1,1.8l-0.1,2 M6.5,225.6l-0.1,1.7l-0.2,1l0.2,0.2l0.1-0.3l0,1.1l0.4-0.3l0.5-1.2l0.6-0.9l0.5-1.3l0.5,0.3L9,226.1l0.5,0.2
					l0.3,0.8l0.1,1.4l0.2,1.3 M29.2,179.4l0.4-0.7l0.3-0.1l0.8,0.1l0.5,1.1l0.5-0.1l-0.3,1.6l0.9-0.1l-0.5,1.3l0.6,0.2l0.3,1.7
					l-1.1,1.8l-0.5-1l-0.7,0.2l-0.5-0.2l-0.5,0.8l-0.7,0.2l0.1-1l-0.7,0.6l-1.5,3.1l-0.1-0.7l0.3-1.3l-0.7-0.7l-0.7,0.3l-0.7-0.4
					l-0.9,0.9l-0.2-1.4l0.6-1.4l0.9,0.6l0.9,0.4l0.8-1l0.1-1.9l0.6-1.7l-0.6-0.6l0.8-1.3l0.7,0.2L29.2,179.4 M324.5,103.8l2.8-0.3
					l-0.7,2.9l0.8,1.2l-0.4,1.9l-3-1.4l-1.9-0.4l-5.4-1.9l0.2-1.9l4.2,0.3L324.5,103.8 M387.5,80.7l3.8,1.3l5.1,2.9 M199.1,182.2
					l-0.2-2.2l0.5-2.2l-0.9-2.1l-1.9-1.9l0.4-1.9l0.4-2l1.8-1.2l1.6-2.3l-0.1-1.5l1.9-3l2.6-2.8l1.4-0.7l1.5-2.5l0.3-2.3l1.8-2.6
					l3-1.5l3.2-4.3l2.2-1.7l3.9-0.4l3.5-2.8l2.2-1.1l3.7-3.4l-0.5-5l1.8-3.5l0.8-2.1l2.8-2.7l4.1-1.8l3.1-1.6l2.8-4l1.4-2.3h2.7
					l2.2,1.7l3.6-0.3l4,0.8l1.7,0.1l3.8-2.1l4.1-0.7l2.3-1.6l3.7-1.2l6.4-0.7l6.2-0.3l1.9,0.5l3.4-1.5h4l1.6,0.8l2.5-0.2l4-1.5
					l2.6,0.4l0.1,1.9l3-1.4l0.4,0.7l-1.6,1.8l0.2,1.8l1.3,0.9l0,3.3l-2.4,2l1.1,2.2l1.9,0.1l1.2,1.8l1.6,0.6l4.6,1.4l1.6-0.4
					l3.3,0.6l5.4,1.8l2.4,3.6l3.6,0.7l5.7,1.7l4.5,2l1.6-1l1.4-1.9l-1.4-3l0.8-1.9l2.3-1.9l2.4-0.6l5.1,0.8l1.8,1.8h1.3l1.4,0.7
					l3.8,0.4l1.1,1.4l4.8-0.1l3.8,1.1l3.9,1.2l1.8,0.7l2.3-1.3l1-1.2l3-0.3l2.6,0.5l1.5,2l0.4-1.3l3,0.9l2.7,0.2l1.2-1l0.5-1.3
					l-0.3-0.2l0.3-1.9l-0.5-3l0.1-1l0.1-0.1l-0.1-3.2l0.5-2.7L401,117l-1.5-3l0.1-1.5l-2-1.8l0.6-1.4l-1.8,0.3l-2.9-0.8l-1.3,2.1
					l-4.7,0.5l-3.3-2l-3.5-0.1l-0.1,1.6l-2.2,0.5l-3.8-2l-3.7,0.1l-3.2-3.7l-3.2-2.1l0.6-2.9l-2.8-1.8l2.3-3.4l4.8-0.1l0.2-2.7
					l6,0.4l2.5-2.3l2.9-1l4.8-0.1l6.3,2.5l4.8,1.4l2.9-0.6l2.5,0.3l2.1-1.8l-0.5-1.5l-2.1-2.3l-2.3-1.3l-1.7-0.4l-1.6-1l-5.1-2.9
					l-3.8-1.3l-3.5-2l1.6-0.5l0.4-2.7l-2.2-1.3l2.8-1.3l-0.6-0.7l-1.9,0.5l-1.9,0.2l-1,1l-2.3,0.2l-1.5,1.2l1.3,2.1l1.8,0.8l2.6-0.2
					l0.2,1.1l-2.7,0.6l-2.6,1.9l-2-0.7l-0.3-1.6l-3.5-1l0.1-0.7l2-1.1l-1.2-0.7l-4.7-0.8l-0.9-1.2l-2.3,0.4l-0.2,1.8l-0.9,2.4
					l0.4,0.9l-1,0.7l-1.1-0.3l1.2,4.1l-1,1.4l0,2.4l1.9,2l0.9,1.3l3.3,1.1l-0.2,0.9l-3.6,0.2l-0.9,1.1l-1.9,1.9l-1.7-1.7l-0.3-0.7
					l-2-0.1l-1.7-0.3l-3.7,0.9l3,2.1l-1.5,0.6h-1.8l-2.4-1.9l-0.3,0.8l1.4,2.1l2.2,1.7l-0.9,0.9l2.3,1.7l2,1.1l0.7,2.1l-3.4-1
					l1.6,1.9l-2.1,0.4l2.3,3.3l-2.4,0.1l-3.4-1.6l-2.1-3l-1.3-2.5l-1.8-1.7l-2.3-2.1l-0.5-1l-0.7-0.3l-0.2-0.8l-2.2-1.2l-0.9-1.7
					l-0.5-2.4l0.2-1.1l-0.6-0.6l-0.8-0.3l-1.3-1.1l-1.6-0.7l-3.5-1.3l-2.2-1.2l-3.3-1l-3.4-2.5l0.6-0.2l-1.9-1.5l-0.4-1.1l-2.1-0.5
					l-0.7,1.4l-1.2-1.1l-0.3-1.1l0.1-0.1l0.7-0.3l-2.6-0.5l-2.4,1.2l0.5,1.6l-0.1,1l1.4,1.7l3.5,1.7l2.3,2.8l4.4,2.8h2.7l1,0.8
					l-0.8,0.7l3.4,1.3l2.7,1.1l3.4,1.9l0.5,0.6l-0.3,1.3l-2.4-1.7l-3.1-0.6l-0.9,2.3L332,99l0.1,1.9l-1.3,0.3l-1.2,3.1l-1.5,0.3
					l-0.2-1.1l0.3-2l0.6-0.8l-1.9-2.1l-1.4-1.8l-1.6-0.5l-1.3-1.6l-2.4-0.6l-1.8-1.5l-2.6-0.2l-2.9-1.6l-3.6-2.3l-2.7-2l-1.5-3.4
					l-1.8-0.4l-2.9-1.1l-1.4,0.4l-1.7,1.6l-1.4,0.2l-2.8,2l-6.8-0.9l-4.9,1.1l-0.4,2.1l0.3,2l-3.2,2.3l-4.6,0.8l-0.2,1.2l-2.3,2
					l-1.3,2.9l1.4,2.1l-2.1,1.6l-0.8,2.4l-2.8,0.8l-2.8,2.8l-4.8,0.1l-3.7-0.1l-2.4,1.4L250,112l-1.8-0.3l-1.4-1.3l-0.9-2.2
					l-3.4-0.5l-1.6,0.9l-1.8-0.5l-2.1,0.4l1-2.9l-0.1-2.3l-1.5-0.3l-0.7-1.4l0.6-2.4l1.6-1.3l0.4-1.4l1.1-2.2l0.1-1.5l-0.5-1.3
					l0-1.2l0.5-2.5l-1.1-1.5l5.1-2.5l4.1,0.6h4.5l3.6,0.6l2.8-0.1l5.5,0.1l1.8-2l0.8-6.7l-3.2-3.4l-2.3-1.6l-4.7-1.2l-0.1-2.3
					l4.1-0.7l5.2,0.8l-0.9-3.5l2.8,1.3l7.1-2.4l0.8-2.5l2.5-0.6l2.4-0.6l1.4-0.8l2.1-4.2l3.7-1.2l2.3,0.1l0.5-0.6l2.3-0.2l0.6,0.6
					l1.6-1.4l-0.8-1l-0.5-1.6l-1.4-1.5l-0.6-2.7l0.3-0.7l0.6-0.8l2.1-0.1l0.7-0.7l1.8-0.7l0.3,1.3l-0.5,0.8l0.6,0.7l1.5,0.4l-0.4,1
					l-0.8-0.3l-1.4,1.9l1,1.3l0.4,1.1l2.9,0.6l0.2,0.9l2.7-0.5l1.2-0.7l3.4,1.1l1.5,0.8l1.6-0.8l3.6-1.3l2.9-0.9l2.8,0.5l0.5,0.6
					l2.5,0l0-1.2l3-0.9l-1.7-2.3l-1-2L324,43l1.7-0.9l3,1.9l1.8,0l-0.8-2l-0.7-1.5l-0.6,0.3l-2-0.8l-1.1-1.4l2.3-0.7l2.5-0.3
					l2.6,0.4l2.2,0l1.2-1.3l-3.1-1.1l-3.6,0.2l-3.1,0.8l-3.1,0.5l-2.1-1.3l-2.6-0.8l-1-2.2l-2.4-2l0.1-1.3l0.8-1.3l2.4-2.2l0.9-0.4
					l-1-0.9l-3.3-0.9l-2.5,0.6l-0.7,1.3L313,27l-1.9,1.7l-2.7,1.8l0.2,3.1l2.4,1.6l2.8,1.3l-0.6,2.7l-2.1,0.6l1,4.2l-0.3,2.4
					l-3.2-0.2l-0.7,2.1l-3,0.1l-1.6-2.5l-3-2.9l-3-3.5l-2.1-1.5l-4,2.8l-3.2,0.6l-3.6-1.2l-1.3-2.6l-1.6-5.3l1.8-1.4l5.1-1.8
					l3.3-2.2l2.4-2.7l2.3-3.6l2-1.3l2.7-2.1l2.7-0.7l2.5,0.1l0.7-1.3l2.6,0.1l2-0.3l5.8,1.1l-1.2,0.4l2.9,1l0.6-0.6l3.8,1l4.3,0.4
					l8.2,2l2.4,0.8l2,1.2l-0.1,1l-1.7,0.5l-8.7-1.4l-0.9,0.2l4.3,1.4l1.3,0.9l2.6,2l2.9,0.6l2,0.6l-1.1-1l-2.1-0.9l0.1-0.8l5.4,1.2
					l0.7-0.5l-3.1-1.5l0.6-1.9l1.4,0.1l2.3,0.6l-1.3-1.3l-2.9-1.1l-1.2-1.1l-2.8-1.1l4.5,0.6l2.5,1l-1.2,0.2l1.7,1l2.1,0.6l1.3-0.4
					l-1.7-1.2l1.6-2.4l0.9,0.1l1.2,1.1l1.7,0.2l-0.5-0.6l1.7-0.1l-0.2-0.7l3.3,1.1l-1.6-1.1l-3.1-1l-0.9-0.6l3.5,0.5l2.3,0.5l7,1.9
					l-1.7-0.9l-2.8-0.9l-0.9-0.4l-1.2-0.2l-1.7-0.8l-3.5-1.2l-1.3-0.5l-2.7-1.3l-3.5-1.3l-0.5-0.3l2.3,0.4l2.5,0.8l3,1.2l1.6,0.5
					l3.1,1.1l5.7,2.2l3.1,1l2.7,1.2l4.7,2.6l1.3,0.3l-1.3-0.7l-0.5-0.5l-1.9-0.9l-1.6-0.9l-2.6-1l-2.6-1.1l-0.8-0.1l-2.5-0.9
					l-3.9-1.6l-4-1.2l-2.2-1l-3.1-1l0-0.1l2.6,0.8l4.1,1.4l1.2,0.3l-3.3-1.1l-1.2-0.6l0.4-0.1l3,0.8l-3.9-1.2l-4.8-1.5l-0.5-0.3
					l0.6,0.1l-0.4-0.2l-2.4-0.7l-2.9-0.8l-0.1,0L337.8,9 M520.9,169.5l-0.1-0.3l0.3,0.8L520.9,169.5l-0.2-0.4l0.7,1.7l-0.1-0.1
					l0.1,0.9l1.3,3.3l0.8,2.6l0.6,3l1.3,5.3l0.5,2.8l0.3,2.9l0.6,2.1l0,1.1l-0.2,1.6l-0.3,0.2l0.7,3.5l1.7,5.9l0.9,3.8l0.6,4.4
					l1.5,7.8l-0.4,0.3l0.2,3.5l0.5,1.6l-0.6,1.3l0.1,3.2l-0.2,1.3l-1.6-4.4l-1.6-6.5l-1.3-4.7l-0.8-2.2l-1.6-4.4l-1.6-5.8l-0.9-2.8
					l-2.8-6.3l-3.1-8.7l-2.2-5.8l-1.8-5.3l-1.7-4.1l-1.1,2.6l-1.2-0.5l-3.9-5.4l0.1-1.6l-1.1-1.6L500,162l-1.6-1.1l-1.8-3.1
					l-2.7-3.2l-2.9,0.8l-3,0.1l-2.6,0.5l-4.5-1.2l-2.8-1l-2.7-0.5l-3.1-5.2l-1.4-0.8l-1.5,0.8l-1.6,2l-3.6-1.4l-3.9-3.2l-3-1.1
					l-3.3-4l-4.4-5.5l-1.1,0.7l-2.2-1.4l-0.4,1.6l-1.7-0.2l1.4,1.8l0.1,1l2.1,3l2.5,3.6l1.8,1l1.1,1.5l2.4,1.7l0.9,1.7l0.2,1.4
					l0.9,1.5l1.2,1.2l0.9,1.4l0.7,1l-1.3-3.1l-0.2-2.2l0.6-0.5l1.3,1.3l1,2.5l0.3,2.5l1.1,1.7l0.4-0.2l0.5,1.2l1.8-0.7l2.2,0.2
					l1.6,0.2l0.6-2.9l0.7-2.8l0.5-2.6l0.1-1.4l0.4,0.4l0.5,1.8l0,0.8l1.7,3.4l2.1,2.9l1.9,1.5l1.9,0.5l1.7,0.8l1.9,2.5l1.2,1.5
					l1,0.5l0.3,0.9l0.1,2.6l0,1.3l-0.5,1.4l0.2,3l-1.2-0.2l-0.1,1l0.3,2.2l1.2,3l-0.1,0.6h-1.1l-1,1.7l0.3,2.2l-0.3,0.9h-1.6
					l-0.6,1.1l0.5,1.8l-1,1.3l-1.5-0.4l-1.5,1.5l-1.1,0.3l-1.8,1.1l0,2l0.2,1.6l-2.3,2l-4.3,2l-1.9,3.3l-1.4,0.2l-0.9-0.3l-1.4,1.9
					l-1.9,0.9l-2.6,0.2l-0.8,0.2l-0.5,1.2L457,210l-0.3,1.2l-1.7-0.1l-1,0.6l-2.3-0.2l-1.3-2.7l-0.3-2.5l-0.8-1.4l-1.2-3.4l-1.3-1.9
					l0.6-0.2l-0.6-2.1l0.2-0.8l-0.5-2l-0.9-1.9l-1.2-1.4l-0.6-1.8l-2.1-1.6L439,184l-1.7-3.6l-3.1-3l-1.6-0.7l-3.2-4.2l-1.3-3.1
					l-0.4-2.6l-3.2-4.8l-2.1-1.7l-2.1-0.9l-1.9-2.4l0-1l-1.6-2.2l-1.2-0.9l-2.3-3.1l-3.1-3.4l-2.6-2.9h-1.7l-0.1-2.3l-0.3-1.4
					l-0.2-1.6l-0.3-0.6l-0.3,1.6l0.2,3.1l-0.3,2.2l-0.5,0.8l-1.6-1.4l-2-1.9l-4.3-5.9l-0.3,0.4l2.8,4.4l3.4,4.2l4.5,6.5l1.9,2.3
					l1.8,2.5l4.4,4.7l-0.6,0.8l0.8,2.8l5.1,3.9l0.7,0.9l2.2,4.3l-0.6,0.8l1.5,4.5l2.5,5.3l1.5,1.1l2.2,1.7l3,5.2l1.8,4.2l2.3,2.2
					l5.5,4.3l2.4,2.5l2.3,2.6l1.2,1.6l1.9,1.4l1.1,1.4l0.2,1.9l-1.8,1.2l1.6,1.2l1.2,0.8l0.9,1.9l1.8,1.9h1.7l2.9-1.2l3.4-0.5
					l2.6-1.5l1.4-0.2l1-0.8l1.7-0.2l1-0.1l1.3-0.7l1.4-0.4l1.2-1.6h1l0.3,1.2l0.1,2.7l0.4,2.4l-0.4,1.7l-0.1,5.1l-0.9,5.2l-1.3,6
					l-2.1,6.8l-2.3,5.2l-3.5,6.4l-3.2,3.8l-5,4.7l-3,3.6l-3.9,5.8l-0.8,2.5l-0.8,1.1l-2.6,1.9l-0.9,1.9l-1.3,0.3l-0.6,3.4l-1.2,1.9
					l-0.8,3.1l-1.6,1.5l-1.9,5.8l0,2.6l2.2,1.7l0,1.3l-1.3,2.8l0.1,1.4l-0.5,2.3l1,2.9l0.9,4.5l1.2,1.1l0.4,2.1l-0.7,4.6l-0.2,4.1
					l-1,7.1l0.2,2.3l-1.6,3.2l-2,3.2l-2.8,2.8l-3.5,1.7l-4.4,2.2l-5.1,4.8l-1.5,0.8l-3.3,3.2l-1.7,1l-1,3.1l1.1,3.3l0.1,2.6
					l-0.3,1.3l0.7-0.2l-1.1,4.2l-1,2l0.6,0.7l-1,1.9l-1.8,1.5l-3.3,1.5l-4.9,2.3l-2,1.6l-0.1,1.8l0.8,0.3l-1,2.2l-1.7,3l-1.4,3.5
					l-1.4,1.9l-3,2.1l-0.8,0.6l-2.1,2.1l-1.6,2.1l-2.9,2.8l-5.2,4.2l-3.2,2.4l-3.2,1.8l-4.1,1.6l-1.8,0.2l-0.7,1.1l-2-0.6l-2,0.7
					l-3.7-0.7l-2.3,0.5l-1.5-0.2l-4,1.5l-3.3,0.6l-2.6,1.5l-1.7,0.1l-1.1-1.4l-1.3-0.1l-1.2-1.8L341,422l-0.3-1.1l0.5-2.3l-0.7-2.6
					l1.4-0.7l0.6-3.1l-1.9-3.8l-1.4-3.4l-2-5.3l-2.4-3.1l-1.2-3.1l-0.3-4.1l-0.7-3.1l-0.6-6.6l0.4-5.2l-0.2-2.4l-1.5-1.8l-2-3.6
					l-1.7-5.3l-0.7-2.8l-3.3-4.3l-0.1-3.4l-0.1-2.8l0.9-4l1.7-4.2l0.4-2l1.7-4.1l1.1-1.9l2.7-3l1.6-2.1l0.7-3.4l0-2.6l-1.4-1.7
					l-1-2.8l-1-2.8l0.4-1l1.4-1.8l-1.2-4.5l-0.9-3.1l-2.2-2.9l0.5-0.9l-0.6-1.4l-1.3-3.5l-3.6-4.9l-4.8-4.8l-3-3.8l-2.8-4.9l0.2-1.5
					l1-1.5l1.2-3.4l0.8-3.6l-0.8-0.7l1.6-5.3l0.6-3.7l-1.9-3.1l-2.2-0.8l-1-2.1l-1.2-0.7l0.2-1.4l-4.8,1.7l-1.8-0.3l-1.7,1.1
					l-3.9-0.1l-2.5-3l-1.5-3.4l-3.2-3.1l-3.5,0.1h-4.2l-3.9,0.5l-3.7,1l-7.4,2.8l-2.5,1.6l-4.2,1.4l-4.2-1.4l-2,0.1l-3.4-0.9h-3
					l-5.6,0.8l-3.2,1.4l-4.5,1.8l-1-0.2l-1.2,0.1l-4.8-2.3l-4.1-3.5l-3.9-2.6l-2.9-3l-1.3-0.4l-3.2-1.9l-2.2-2.5l-0.8-1.7l-0.4-3.4
					l-2-2.8l-1.5-1.8l-1.3-0.6l-0.9-0.9l-0.6-2l-0.6-1.1l-1.2-0.7l-2.3-1.9l-1.7-0.3l-1-1.2l0.2-0.7l-1.4-1l-0.3-0.9l-0.4-3.6
					l0.6-2.1l-1.5-3.5l-2.1-1.6l1.9-0.8l2.4-3.2l1.1-2.4l-0.1-2.4l1.4-2.2l0.8-4.2l0-4.4 M192.7,529l-3.1-1l2,0.6l0.9,0.2l-0.3-0.1
					l1.8,0.5l0.3,0l0.8,0.2l1.2,0.3l-1.5-0.5l-1.4-0.5l1.9,0.5l0-0.1l1.2,0.3l1.7,0.4l0-0.1l-0.6-0.3l-0.7-0.3l-0.1-0.2l0.2-0.1
					l0-0.2l-0.4-0.3l-1-0.4l-1.6-0.6l-1.8-0.6l-1.8-0.6l-1.8-0.6l-1.7-0.6l-1.6-0.6l-1.7-0.6l-1.5-0.6l-1.3-0.6l-1.4-0.7l-1.5-0.7
					l-1.9-0.8l-1.6-0.7l-1.5-0.9l-0.8-0.5l-1-0.7l-0.7-0.6l-0.5-0.6l-1.3-0.8l-0.6-0.5l-0.4-0.5l0.7-0.1l-0.5-0.6l-0.1-0.4l0.4-0.3
					l-0.2-0.5l-0.5-0.6l0.4-0.3l1.5,0.5l0.8,0.7l-0.1,0.6l0.4,0.4l-1.4-0.3l-0.4,0.2l0.2,0.5l0.3,0.5l0.6,0.6l1.4,0.8l1.5,0.7
					l1.7,0.6l0.3,0.4l-0.4,0.2l0.8,0.6l0.8,0.6l1.2,0.8l1.3,0.6l1.9,0.7l1.7,0.6l1.5,0.4l1.8,0.5l1.9,0.7l1.6,0.6l1.7,0.6l1.7,0.5
					l1.6,0.6l3.8,1.4l1.6,0.5l1.6,0.6l1.8,0.5l2,0.7l1.3,0.5l1,0.4l-0.3,0.2l1.2,0.4l1,0.4l0.8,0.4l0.1,0.2l0.4,0.2l0.4,0.2l1.5,0.5
					l-0.4,0l-0.7,0l-0.1,0.1H210l1.8,0.4l1.1,0.2l1.6,0.3l1.7,0.3l1.1,0.3l-0.9-0.1l0.8,0.2l1.9,0.4l1.8,0.4l1.8,0.3l1.7,0.3l2,0.3
					l1.2,0.1l1.6,0.2l1.7,0.2l1.9,0.2l1.3,0.1l1.9,0.2l1.7,0.2l1.9,0.2l2.3,0.3l1.6,0.2l-1-0.2l-0.6-0.2l-0.5-0.2l-0.1-0.2l-0.2-0.2
					l1,0l1.6,0.1l1.7,0.2l-1-0.3l-0.2-0.2l1.3,0l0.5-0.2l0.5-0.2l0.9-0.1l1-0.1l0.5-0.2l-1.3-0.3l-1.1-0.3l-0.9-0.3l-1.3,0l-1.1,0.1
					h-1.4l-1.2-0.3l-1.9-0.7l-0.2-0.2l0.5-0.2l0.8-0.2l0.4-0.3l0.4-0.3l0-0.4l0.9-0.2l1.1-0.2l0.5-0.1l1.5,0l1.3-0.2l1-0.2l0.9-0.3
					l0.8-0.3l1.2-0.4l0.6-0.4l0.8-0.4l-0.1-0.5l-1.6-0.3l-0.1-0.5l0.5-0.4l1.2-0.3l1.3-0.3l1.1-0.5l0.8-0.5l0.3-0.7l0.9-0.4l1.8,0.1
					l0.9,0.5l1.8,0.1l-0.2-0.5l0.5-0.6l1.7,0.1l0.5,0.6l1.8,0.1l1.9-0.3l1.9-0.2l1.7,0.1l0.7,0.6l1.7-0.5l1.5-0.2l1.7-0.2l1.8-0.2
					l1.7-0.4l1.8-0.2l1.5-0.3l1.2-0.6l1,0.4l1.7-0.2l0.8,0.7l0.6,0.5l1.9-0.3l1-0.6l1.9-0.5l2,0.1l0.2,0.6l1.6-0.6l1.8-0.2l1.9-0.1
					l1.6,0l1.5,0.2l1.5,0.1l0.2,0.5l0.4,0.5l1.9-0.3l1.7-0.1h1.6l1.6,0l1.7-0.2l1.7-0.2l1.9-0.5l1.7-0.3l1.6-0.1l1.7-0.4l2.1-0.9
					l1.6-0.6l1.1,0.3l-0.3,0.6l0.6,0.4l1.6-0.1l0,0.6l0.2,0.4l1.9-0.4l1.7-0.7l1.7-0.3l2.3-0.6l1.6-0.2l2.1-0.3l1.7-0.4l1.7-0.4
					l1.7-0.4l0.8,0.2l2.2-0.6l1.7-0.5l1,0.1l1.8-0.5l1.4-0.6l1.9-0.5l1.6-0.4l1.7-0.3l1.3-0.1l0.8,0.1l0.7,0.2l-0.2,0.5l-1.5,0.8
					l-0.3,0.6l-0.4,0.5l0.6,0.2l-0.4,0.5l-0.3,0.5l0.5,0.1l1.4-0.4l2.3-0.7l-0.1,0.4l0.3,0.2l0.2,0.2l0.4,0.1h0.7l-3.8,1.8l-1.1,0.4
					l-1.9,0.7l-1.6,0.4l-2,0.6l-1.5,0.6l0.7,0l-1.7,0.6l-1.8,0.6l-2,0.6l-0.9,0.4l0.1,0.2l1.3-0.3l1.9-0.6l1.7-0.5l1.6-0.5l1.5-0.4
					l1.6-0.6l2.3-0.8l0.7-0.1l0.7-0.1l0.9-0.2l1.1-0.3l1.9-0.7l1.6-0.6l1.9-0.7l1.4-0.4l1.1-0.3l1.6-0.6l0.8-0.3l0.9-0.3l-0.2,0.2
					l0.6-0.2l0.7-0.2l-0.2,0.1l1.3-0.5l2.9-1.2l-1.2,0.5l-2,0.9l-0.8,0.4l-0.1,0 M124.4,482.8l-0.3-1.8l2.1,0.7l-0.4-1.2l2.6,1.3
					l0.7,1.1l-1.1,0.8l-1.8-1l0.3,1.3L124.4,482.8 M437,473.1l-0.3,1l0.6,0.4l-0.6,0.6l-1.8,1.4l-1.9,0.2l1.8-1.7l1.5-1.3L437,473.1
					 M37,220.1l1.4-0.6l0.5,0.2l-0.6,3.4l-1.9,0.5l-0.3-0.4l0.8-1.3L37,220.1 M31.4,155.5l0.2,0.2l-1.3,3.5l-1.1,2.6l-0.3,0.2
					l0.9-2.5l0.2-1.2L31.4,155.5 M33.9,148.8l0.5-0.3l0.5,0.2l-0.5,1.1l-1.3,0.7L33.9,148.8 M35.5,147.7l-0.2,1.9l-1.6,3l0.1-0.5
					l1.1-2.2l0.4-1.7L35.5,147.7 M105,72.9l-1,1.6l0.7,0.4l1.5-0.1l-2,1.3l-0.8,0.2l-0.5-1.4l0.6-1L105,72.9 M410.3,80.9l-0.2-3.4
					l1.7-0.5l-0.6-1.9l1.4-0.7l1.2-1.4l2.4,0.8l1.8-0.2l2,2l2.3,3.2l-2.2-0.5l-1.3,0.5l1.8,2.5l-2.3-0.4l0.9,1.2l1.8,0.9l3.2,3
					l3.3,1.2l1.3,1.2l0.5,1.4l0.7,0.8l2.2,2.3l-1.6-2.5l1.1-0.9l2,2l3,2.2l-1.1,1.1l-2.6-0.8l1.6,3l1.6,0.2l1,2.5l2.5,1.3l2.2,3.9
					l2,2.6l0.4,0.9l-3,1l-3.7-0.7l-2.8-1.9l-2.7-0.7l-2.4-2.7l-1.2-1.9l0.4-0.9l-0.4-1.2l-1.4-2.8l1.7-0.3l-1.3-1l-1.2-0.1l-2.9-2.6
					l-2.5-1.8l-5.3-4.1l-1.5-2.3L410.3,80.9 M113.4,64.1l0.8-0.3l1,0.8l0.1,1.3l-0.5,0.6l-0.8,0.1l-0.8-1L113.4,64.1 M145.9,31.9
					l1.4-0.7l0.1,0l-0.8,0.5l-2.3,1.2l0.2-0.2l1.1-0.7L145.9,31.9 M146.3,31.1l2-1h0.4l-0.8,0.4l-2.6,1.2l0-0.1L146.3,31.1
					 M170.4,21.2l-1.5,0.5l-0.7,0.1l2-0.9l2.5-1l1-0.3l-0.9,0.5l-1.7,0.7L170.4,21.2 M192,12.6l2.1-0.7l1.6-0.5l0.4-0.1l0.1,0.1
					l-1.9,0.8l-1.1,0.4l-0.2-0.1l-0.2,0l-0.9,0.2L192,12.6 M226.4,4.1l-1.3,0.2l-3,0.5l-1.4,0.3l-1.5,0.3l-3.5,0.7l-0.2,0
					 M233.3,3.1l0.2,0l0.8-0.1l1.8-0.2l-0.2,0l-1.3,0.2l2.6-0.3l0.9-0.1l0.7-0.1l0.6,0l-0.4,0.1l1.2-0.1l0.1,0l0.1,0l0.3,0l0,0.1
					L240,2.7l-1.1,0.2l-2.5,0.3l-1.6,0.1l-1.2,0.1h0.6l-3.3,0.4l-1.6,0.2l-4.1,0.7L224,4.9l-1,0.2l-1.1,0.1l-0.3,0.1l-1,0.2l-2,0.4
					l-1.7,0.3l-1.6,0.3l-1.9,0.4l-1.7,0.3l-0.9,0.2l0.5,0l-1.1,0.2l-3.3,0.7l0.9-0.3l-1,0.2l0.5-0.1l0.2-0.1l2.1-0.5l1.1-0.2
					l3.3-0.7l0.4-0.1l-1.8,0.4l2.8-0.6l0.8-0.2l1.9-0.4l1.2-0.2l1.6-0.3l1.7-0.3l2.3-0.4l0,0l-0.4,0.1l1.8-0.3l0.4-0.1L226,4.2
					l1.6-0.3l1.4-0.2 M245.2,2.7l3.4-0.4l1.3,0l1.7-0.2l1.7,0l3.3,0.1l1.7,0.4l-1.7,0.2l-2.3,0L251.1,3L251,3.1l2.3-0.1l1.1,0.2
					l1.8-0.2l-0.1,0.2l-1.7,0.4l2.3-0.3l3.7-0.3l1.7,0.1l-0.1,0.3l-3.7,0.5l-0.7,0.2l-2.7,0.1l1.7,0l-2,0.6l-1.7,0.6L251,6.8
					l0.2,0.7l-1.6,0l-2.2,0.3l1.1,0.6l-1.1,1l-1.4,0.1l0.2,1.1l-2.7,0.1l0.7,0.5l-1,0.5l-2,0.2h-1.8l0.4,0.9l-0.8,0.6l-1.9-0.6
					l-1.2,0.4l1.3,0.3l0.7,0.9l-0.8,1.2l-2.9,0.3l-0.4-0.6l-0.6-0.8l-0.8,1l-2.7,0.8l3.7,0.1l2,0.1L230,18l-5.7,1.3l-5.2,0.6h-1.7
					l-2.5,0.7l-4.6,1.9l-5.1,1.3l-1.2,0.1l-2.7,0.5l-2.8,0.5l-3,1.2l-1.9,1.4l-2.6,1.3l-4.8,1.7l-1.6,1.7l-3,1.9l-3.6,2.2l-2.5,0.1
					l0-1.9h-3.1l0.3-1.3l2.1-2.2l1.7-2.7l1.5-1.3l2.9-1.8l1.5-1.8l3-1.4l0.6-0.7l5.1-2.1l2.8-0.6l1.9-0.7l2.9-1.3l-2.4,0.6l-1,0.2
					l-1.4,0.2l0-0.5l2.4-1.1l2.3-0.8h0.8l1.1,0.4l0.6-1l0.5-0.5l-1.4,0.2l0.2-0.4l4.4-1.4l0.8-0.5l2-1l3.2-1.4l0.6-0.5l1.6-0.5
					l0.8-0.7l-0.8-0.1l-1.4,0L210,8.4l0.8-0.3l2.1-0.7l2.3-0.3l1-0.1l-0.5-0.3l1.1-0.4l1.7-0.4l3.3-0.5l3.3-0.4l1.7-0.3l0.7-0.3
					l2-0.3l4.1-0.5l0.9-0.1l1.7-0.3l1.8-0.2l1.7-0.1l1.2,0L240,3.2l3.1-0.4l-0.3,0.2l0.4,0l-0.1,0.2l0.7-0.4L245.2,2.7"/>
			</g>
			<g>
				<path class="st5" d="M223.6,536.4L223.6,536.4h0.2h0.2h0.3h0.4h0.5h0.6h0.7h0.7h0.8h0.9h1h1.1h1.1h1.2h1.3h1.3h1.4h1.5h1.5h1.6
					h1.6h1.7h1.7h1.8h1.8h1.9h1.9h1.9h2h2h2h2h2h2h2h2h2h2h2h2h2h2h1.9h1.9h1.9h1.8h1.8h1.7h1.7h1.6h1.6h1.5h1.5h1.4h1.3h1.3h1.2
					h1.1h1.1h1h0.9h0.8h0.7h0.7h0.6h0.5h0.4h0.3h0.2h0.1h0 M178.2,524.2L178.2,524.2h0.4h0.4h0.6h0.8h1h1.1h1.3h1.5h1.6h1.8h1.9h2.1
					h2.2h2.4h2.5h2.7h2.8h2.9h3h3.1h3.2h3.4h3.4h3.5h3.6h3.7h3.8h3.8h3.9h3.9h4h4h4h4h4h4h4h4h4h4h3.9h3.9h3.8h3.8h3.7h3.6h3.5h3.4
					h3.4h3.2h3.1h3h2.9h2.8h2.7h2.5h2.4h2.2h2.1h1.9h1.8h1.6h1.5h1.3h1.1h1h0.8h0.6h0.4h0.3h0.1 M135.5,504.3l0.1,0h0.4h0.6h0.9h1.1
					h1.4h1.6h1.9h2.1h2.4h2.6h2.8h3.1h3.3h3.5h3.7h3.9h4.1h4.3h4.4h4.6h4.7h4.9h5h5.2h5.3h5.4h5.5h5.6h5.7h5.7h5.8h5.8h5.9h5.9h5.9
					h5.9h5.9h5.9h5.8h5.8h5.7h5.7h5.6h5.5h5.4h5.3h5.2h5h4.9h4.7h4.6h4.4h4.3h4.1h3.9h3.7h3.5h3.3h3.1h2.8h2.6h2.4h2.1h1.9h1.6h1.4
					h1.1h0.9h0.6h0.4l0.1,0 M96.9,477.3h0.2h0.5h0.8h1.2h1.5h1.8h2.1h2.4h2.7h3h3.3h3.6h3.9h4.2h4.5h4.7h5h5.2h5.5h5.7h5.9h6.1h6.3
					h6.5h6.6h6.8h6.9h7.1h7.2h7.3h7.4h7.4h7.5h7.5h7.6h7.6h7.6h7.6h7.5h7.5h7.4h7.4h7.3h7.2h7.1h6.9h6.8h6.6h6.5h6.3h6.1h5.9h5.7
					h5.5h5.2h5h4.7h4.5h4.2h3.9h3.6h3.3h3h2.7h2.4h2.1h1.8h1.5h1.2h0.8h0.5h0.2 M63.7,444.1l0.2,0h0.6h1h1.4h1.8h2.1h2.5h2.9h3.3H83
					h4h4.3h4.7h5h5.3h5.6h5.9h6.2h6.5h6.8h7h7.3h7.5h7.7h7.9h8.1h8.3h8.4h8.5h8.7h8.8h8.9h8.9h9h9h9h9h9h9h8.9h8.9h8.8h8.7h8.5h8.4
					h8.3h8.1h7.9h7.7h7.5h7.3h7h6.8h6.5h6.2h5.9h5.6h5.3h5h4.7h4.3h4h3.6h3.3h2.9h2.5h2.1h1.8h1.4h1h0.6l0.2,0 M36.7,405.5l0.2,0
					h0.7h1.1h1.6h2h2.4h2.9h3.3h3.7h4.1h4.5H68h5.3H79h6h6.4h6.7h7.1h7.4h7.7h8h8.2h8.5h8.7h8.9h9.1h9.3h9.5h9.7h9.8h9.9h10H240
					h10.1h10.2h10.2h10.2h10.2H301h10.1h10h9.9h9.8h9.7h9.5h9.3h9.1h8.9h8.7h8.5h8.2h8h7.7h7.4h7.1h6.7h6.4h6h5.7h5.3h4.9h4.5h4.1
					h3.7h3.3h2.9h2.4h2h1.6h1.1h0.7l0.2,0 M16.8,362.8H17h0.7H19h1.7h2.2h2.6h3.1h3.6h4h4.5h4.9h5.3h5.7h6.1h6.5h6.9h7.3h7.7h8h8.3
					h8.6h8.9h9.2h9.5h9.7h9.9h10.1h10.3h10.5h10.6h10.8h10.9h10.9h11h11h11.1h11.1h11h11h10.9h10.9h10.8h10.6h10.5h10.3h10.1h9.9
					h9.7h9.5h9.2h8.9h8.6h8.3h8h7.7h7.3h6.9h6.5h6.1h5.7h5.3h4.9h4.5h4h3.6h3.1h2.6h2.2h1.7h1.2h0.7h0.2 M4.6,317.4h0.3h0.8h1.3h1.8
					h2.3h2.8h3.2h3.7h4.2h4.7h5.1h5.6h6h6.4h6.9h7.3h7.6h8h8.4h8.7h9h9.4h9.6h9.9h10.2h10.4h10.6h10.8h11h11.1h11.3h11.4h11.5h11.5
					h11.6h11.6h11.6h11.6h11.5h11.5h11.4h11.3h11.1h11h10.8h10.6h10.4h10.2h9.9h9.6h9.4h9h8.7h8.4h8h7.6h7.3h6.9h6.4h6h5.6h5.1h4.7
					h4.2h3.7h3.2h2.8h2.3h1.8h1.3h0.8h0.3 M0.5,270.5h0.3h0.8h1.3h1.8h2.3h2.8H13h3.8h4.3h4.7H31h5.7h6.1h6.5h7h7.4h7.8h8.1h8.5h8.9
					h9.2h9.5h9.8h10.1h10.3h10.6h10.8h11h11.2h11.3h11.4h11.6h11.6H247h11.8h11.8h11.8H294h11.7h11.6h11.6h11.4h11.3h11.2h11h10.8
					h10.6h10.3h10.1h9.8h9.5h9.2h8.9h8.5h8.1h7.8h7.4h7h6.5h6.1h5.7h5.2h4.7h4.3h3.8h3.3h2.8h2.3h1.8h1.3h0.8h0.3 M4.6,223.6l0.3,0
					h0.8h1.3h1.8h2.3h2.8h3.2h3.7h4.2h4.7h5.1h5.6h6h6.4h6.9h7.3h7.6h8h8.4h8.7h9h9.4h9.6h9.9h10.2h10.4h10.6h10.8h11h11.1h11.3
					h11.4h11.5h11.5h11.6h11.6h11.6h11.6h11.5h11.5h11.4h11.3h11.1h11h10.8h10.6h10.4h10.2h9.9h9.6h9.4h9h8.7h8.4h8h7.6h7.3h6.9h6.4
					h6h5.6h5.1h4.7h4.2h3.7h3.2h2.8h2.3h1.8h1.3h0.8l0.3,0 M16.8,178.2l0.2,0h0.7H19h1.7h2.2h2.6h3.1h3.6h4h4.5h4.9h5.3h5.7h6.1h6.5
					h6.9h7.3h7.7h8h8.3h8.6h8.9h9.2h9.5h9.7h9.9h10.1h10.3h10.5h10.6h10.8h10.9h10.9h11h11h11.1h11.1h11h11h10.9h10.9h10.8h10.6
					h10.5h10.3h10.1h9.9h9.7h9.5h9.2h8.9h8.6h8.3h8h7.7h7.3h6.9h6.5h6.1h5.7h5.3h4.9h4.5h4h3.6h3.1h2.6h2.2h1.7h1.2h0.7l0.2,0
					 M36.7,135.5l0.2,0h0.7h1.1h1.6h2h2.4h2.9h3.3h3.7h4.1h4.5H68h5.3H79h6h6.4h6.7h7.1h7.4h7.7h8h8.2h8.5h8.7h8.9h9.1h9.3h9.5h9.7
					h9.8h9.9h10H240h10.1h10.2h10.2h10.2h10.2H301h10.1h10h9.9h9.8h9.7h9.5h9.3h9.1h8.9h8.7h8.5h8.2h8h7.7h7.4h7.1h6.7h6.4h6h5.7
					h5.3h4.9h4.5h4.1h3.7h3.3h2.9h2.4h2h1.6h1.1h0.7l0.2,0 M63.7,96.9l0.2,0h0.6h1h1.4h1.8h2.1h2.5h2.9h3.3H83h4h4.3h4.7h5h5.3h5.6
					h5.9h6.2h6.5h6.8h7h7.3h7.5h7.7h7.9h8.1h8.3h8.4h8.5h8.7h8.8h8.9h8.9h9h9h9h9h9h9h8.9h8.9h8.8h8.7h8.5h8.4h8.3h8.1h7.9h7.7h7.5
					h7.3h7h6.8h6.5h6.2h5.9h5.6h5.3h5h4.7h4.3h4h3.6h3.3h2.9h2.5h2.1h1.8h1.4h1h0.6l0.2,0 M96.9,63.7l0.2,0h0.5h0.8h1.2h1.5h1.8h2.1
					h2.4h2.7h3h3.3h3.6h3.9h4.2h4.5h4.7h5h5.2h5.5h5.7h5.9h6.1h6.3h6.5h6.6h6.8h6.9h7.1h7.2h7.3h7.4h7.4h7.5h7.5h7.6h7.6h7.6h7.6
					h7.5h7.5h7.4h7.4h7.3h7.2h7.1h6.9h6.8h6.6h6.5h6.3h6.1h5.9h5.7h5.5h5.2h5h4.7h4.5h4.2h3.9h3.6h3.3h3h2.7h2.4h2.1h1.8h1.5h1.2
					h0.8h0.5l0.2,0 M135.5,36.7l0.1,0h0.4h0.6h0.9h1.1h1.4h1.6h1.9h2.1h2.4h2.6h2.8h3.1h3.3h3.5h3.7h3.9h4.1h4.3h4.4h4.6h4.7h4.9h5
					h5.2h5.3h5.4h5.5h5.6h5.7h5.7h5.8h5.8h5.9h5.9h5.9h5.9h5.9h5.9h5.8h5.8h5.7h5.7h5.6h5.5h5.4h5.3h5.2h5h4.9h4.7h4.6h4.4h4.3h4.1
					h3.9h3.7h3.5h3.3h3.1h2.8h2.6h2.4h2.1h1.9h1.6h1.4h1.1h0.9h0.6h0.4l0.1,0 M178.2,16.8L178.2,16.8l0.4,0h0.4h0.6h0.8h1h1.1h1.3
					h1.5h1.6h1.8h1.9h2.1h2.2h2.4h2.5h2.7h2.8h2.9h3h3.1h3.2h3.4h3.4h3.5h3.6h3.7h3.8h3.8h3.9h3.9h4h4h4h4h4h4h4h4h4h4h3.9h3.9h3.8
					h3.8h3.7h3.6h3.5h3.4h3.4h3.2h3.1h3h2.9h2.8h2.7h2.5h2.4h2.2h2.1h1.9h1.8h1.6h1.5h1.3h1.1h1h0.8h0.6h0.4h0.3l0.1,0 M223.6,4.6
					L223.6,4.6l0.2,0h0.2h0.3h0.4h0.5h0.6h0.7h0.7h0.8h0.9h1h1.1h1.1h1.2h1.3h1.3h1.4h1.5h1.5h1.6h1.6h1.7h1.7h1.8h1.8h1.9h1.9h1.9
					h2h2h2h2h2h2h2h2h2h2h2h2h2h2h1.9h1.9h1.9h1.8h1.8h1.7h1.7h1.6h1.6h1.5h1.5h1.4h1.3h1.3h1.2h1.1h1.1h1h0.9h0.8h0.7h0.7h0.6h0.5
					h0.4h0.3h0.2h0.1l0,0"/>
			</g>
			<g>
				<path class="st5" d="M270.5,540.5l-11.5-0.3l-11.4-1l-11.4-1.6l-11.3-2.3l-11.2-2.9l-11.1-3.5l-10.9-4.2l-10.7-4.8l-10.5-5.4
					l-10.3-6l-10-6.5l-9.7-7.1l-9.4-7.6l-9-8.2l-8.7-8.7l-8.3-9.1l-7.9-9.6l-7.5-10l-7.1-10.4l-6.6-10.8l-6.1-11.2l-5.7-11.5
					l-5.2-11.8l-4.7-12.1l-4.1-12.4l-3.6-12.6l-3.1-12.8l-2.5-12.9l-2-13.1L37.8,297L37,283.7l-0.3-13.2l0.3-13.2l0.8-13.2l1.4-13.2
					l2-13.1l2.5-12.9l3.1-12.8l3.6-12.6l4.1-12.4l4.7-12.1l5.2-11.8l5.7-11.5l6.1-11.2l6.6-10.8l7.1-10.4l7.5-10l7.9-9.6l8.3-9.1
					l8.7-8.7l9-8.2l9.4-7.6l9.7-7.1l10-6.5l10.3-6l10.5-5.4l10.7-4.8l10.9-4.2l11.1-3.5l11.2-2.9l11.3-2.3l11.4-1.6l11.4-1l11.5-0.3
					 M270.5,540.5l-6.6-0.3l-6.6-1l-6.6-1.6l-6.5-2.3l-6.5-2.9l-6.4-3.5l-6.3-4.2l-6.2-4.8l-6.1-5.4l-5.9-6l-5.8-6.5l-5.6-7.1
					l-5.4-7.6l-5.2-8.2l-5-8.7l-4.8-9.1l-4.6-9.6l-4.3-10l-4.1-10.4l-3.8-10.8l-3.5-11.2l-3.3-11.5l-3-11.8l-2.7-12.1l-2.4-12.4
					l-2.1-12.6l-1.8-12.8l-1.5-12.9l-1.1-13.1l-0.8-13.2l-0.5-13.2l-0.2-13.2l0.2-13.2l0.5-13.2l0.8-13.2l1.1-13.1l1.5-12.9
					l1.8-12.8l2.1-12.6l2.4-12.4l2.7-12.1l3-11.8l3.3-11.5l3.5-11.2l3.8-10.8l4.1-10.4l4.3-10l4.6-9.6l4.8-9.1l5-8.7l5.2-8.2
					l5.4-7.6l5.6-7.1l5.8-6.5l5.9-6l6.1-5.4l6.2-4.8l6.3-4.2l6.4-3.5l6.5-2.9l6.5-2.3l6.6-1.6l6.6-1l6.6-0.3 M270.5,540.5v-20.6
					v-58.5v-87.6V270.5V167.2V79.6V21.1V0.5 M270.5,540.5l6.6-0.3l6.6-1l6.6-1.6l6.5-2.3l6.5-2.9l6.4-3.5l6.3-4.2l6.2-4.8l6.1-5.4
					l5.9-6l5.8-6.5l5.6-7.1l5.4-7.6l5.2-8.2l5-8.7l4.8-9.1l4.6-9.6l4.3-10l4.1-10.4l3.8-10.8l3.5-11.2l3.3-11.5l3-11.8l2.7-12.1
					l2.4-12.4l2.1-12.6l1.8-12.8l1.5-12.9l1.1-13.1l0.8-13.2l0.5-13.2l0.2-13.2l-0.2-13.2l-0.5-13.2l-0.8-13.2l-1.1-13.1l-1.5-12.9
					l-1.8-12.8l-2.1-12.6l-2.4-12.4l-2.7-12.1l-3-11.8l-3.3-11.5l-3.5-11.2l-3.8-10.8l-4.1-10.4l-4.3-10l-4.6-9.6l-4.8-9.1l-5-8.7
					l-5.2-8.2l-5.4-7.6l-5.6-7.1l-5.8-6.5l-5.9-6l-6.1-5.4l-6.2-4.8l-6.3-4.2l-6.4-3.5l-6.5-2.9l-6.5-2.3l-6.6-1.6l-6.6-1l-6.6-0.3
					 M270.5,540.5l11.5-0.3l11.4-1l11.4-1.6l11.3-2.3l11.2-2.9l11.1-3.5l10.9-4.2l10.7-4.8l10.5-5.4l10.3-6l10-6.5l9.7-7.1l9.4-7.6
					l9-8.2l8.7-8.7l8.3-9.1l7.9-9.6l7.5-10l7.1-10.4l6.6-10.8l6.1-11.2l5.7-11.5l5.2-11.8l4.7-12.1l4.1-12.4l3.6-12.6l3.1-12.8
					l2.5-12.9l2-13.1l1.4-13.2l0.8-13.2l0.3-13.2l-0.3-13.2l-0.8-13.2l-1.4-13.2l-2-13.1l-2.5-12.9l-3.1-12.8l-3.6-12.6l-4.1-12.4
					l-4.7-12.1l-5.2-11.8l-5.7-11.5l-6.1-11.2l-6.6-10.8l-7.1-10.4l-7.5-10l-7.9-9.6l-8.3-9.1l-8.7-8.7l-9-8.2l-9.4-7.6l-9.7-7.1
					l-10-6.5l-10.3-6L360,21.1l-10.7-4.8l-10.9-4.2l-11.1-3.5l-11.2-2.9l-11.3-2.3l-11.4-1.6l-11.4-1l-11.5-0.3"/>
			</g>
			<g>
				<path class="st4" d="M0.5,270.5l0.4-14.1L2,242.3l1.8-14l2.6-13.9l3.3-13.7l4-13.6l4.7-13.3l5.4-13.1l6.1-12.8l6.7-12.4
					l7.4-12.1l8-11.6l8.6-11.2l9.2-10.7l9.7-10.3l10.3-9.7l10.7-9.2l11.2-8.6l11.6-8l12.1-7.4l12.4-6.7l12.8-6.1l13.1-5.4l13.3-4.7
					l13.6-4l13.7-3.3l13.9-2.6l14-1.8l14.1-1.1l14.1-0.4l14.1,0.4L298.7,2l14,1.8l13.9,2.6l13.7,3.3l13.6,4l13.3,4.7l13.1,5.4
					l12.8,6.1l12.4,6.7l12.1,7.4l11.6,8l11.2,8.6l10.7,9.2l10.3,9.7l9.7,10.3l9.2,10.7l8.6,11.2l8,11.6l7.4,12.1l6.7,12.4l6.1,12.8
					l5.4,13.1l4.7,13.3l4,13.6l3.3,13.7l2.6,13.9l1.8,14l1.1,14.1l0.4,14.1v0l0,0l-0.4,14.1l-1.1,14.1l-1.8,14l-2.6,13.9l-3.3,13.7
					l-4,13.6l-4.7,13.3l-5.4,13.1l-6.1,12.8l-6.7,12.4l-7.4,12.1l-8,11.6l-8.6,11.2l-9.2,10.7l-9.7,10.3l-10.3,9.7l-10.7,9.2
					l-11.2,8.6l-11.6,8l-12.1,7.4l-12.4,6.7l-12.8,6.1l-13.1,5.4l-13.3,4.7l-13.6,4l-13.7,3.3l-13.9,2.6l-14,1.8l-14.1,1.1
					l-14.1,0.4l0,0l0,0l-14.1-0.4l-14.1-1.1l-14-1.8l-13.9-2.6l-13.7-3.3l-13.6-4l-13.3-4.7l-13.1-5.4l-12.8-6.1l-12.4-6.7
					l-12.1-7.4l-11.6-8l-11.2-8.6l-10.7-9.2l-10.3-9.7l-9.7-10.3l-9.2-10.7l-8.6-11.2l-8-11.6l-7.4-12.1l-6.7-12.4l-6.1-12.8
					l-5.4-13.1l-4.7-13.3l-4-13.6l-3.3-13.7l-2.6-13.9l-1.8-14l-1.1-14.1L0.5,270.5L0.5,270.5z"/>
			</g>
			<g>
				<g>
					<g>
						<path class="st6" d="M309.8,3.4l3.1,0.6l3,0.8l3.4,1.1l3.4,1.4L326,9l3.2,2l3.1,2.3l3,2.5l2.9,2.8l2.8,3.1l2.7,3.3l2.6,3.6
							l2.5,3.8l2.4,4.1l4.4,8.9l3.9,9.9l3.4,10.8l2.9,11.7l2.4,12.5l1.9,13.3l1.3,14l0.8,14.7l0.3,15.3l-0.2,15.8l-0.7,16.3
							l-1.2,16.7l-1.7,17l-2.1,17.3l-2.6,17.5l-3,17.6l-3.4,17.6l-3.8,17.5l-4.1,17.4l-4.5,17.2l-4.8,16.9l-5,16.5l-5.2,16.1
							l-5.4,15.6l-5.6,15l-5.7,14.4l-5.8,13.7l-5.9,12.9l-5.9,12.1l-5.9,11.3l-5.9,10.4l-5.8,9.4l-5.7,8.5l-5.6,7.5l-5.4,6.4
							l-5.3,5.4l-5,4.3l-2.4,1.7l-2.4,1.5l-2.3,1.2l-2.3,0.9l-2.2,0.6l-2.1,0.3l-3.4-0.1 M306.2,2.9l0.1,0.1l0.1,1L306.2,6l-0.5,3.2
							l-0.8,4.3l-1.1,5.4l-1.4,6.4l-1.6,7.5l-1.9,8.5l-2.2,9.5l-2.4,10.4l-2.6,11.3L289,84.6l-3,13l-3.2,13.7l-3.3,14.4l-3.4,15
							l-3.5,15.6l-3.6,16.1l-3.7,16.5l-3.7,16.9l-3.7,17.2l-3.7,17.4l-3.6,17.5l-3.5,17.6l-3.4,17.6l-3.3,17.5l-3.1,17.3l-3,17
							l-2.8,16.7l-2.5,16.3l-2.3,15.8l-2,15.3l-1.7,14.7l-1.4,14l-1.1,13.3l-0.8,12.5L219,475l-0.2,10.8l0.2,9.9l0.5,8.9l0.9,7.9
							l1.2,6.9l1.6,5.8l1.9,4.8l2.3,3.7l1.3,1.4l1.3,1.1l1.4,0.9l1.5,0.6l1.3,0.3 M309.1,3.3l-5-0.4L300.6,3l-3.5,0.4L293.5,4
							l-3.6,0.9l-3.7,1.2l-3.7,1.5l-3.8,1.8l-3.8,2l-3.9,2.3l-3.9,2.6l-4,2.8l-4,3.1l-4,3.4l-4,3.6l-8,8l-8,9l-8,10l-7.9,10.9
							l-7.8,11.8l-7.7,12.6l-7.5,13.4l-7.2,14.1l-7,14.8l-6.6,15.4L169,165l-5.9,16.4l-5.5,16.7l-5,17.1l-4.5,17.3l-4,17.5
							l-3.5,17.6l-2.9,17.6l-2.3,17.5l-1.7,17.4l-1.1,17.1l-0.4,16.9l0.2,16.5l0.9,16l1.5,15.5l2.2,15l2.8,14.3l3.5,13.6l4.1,12.9
							l4.7,12.1l2.6,5.7l2.7,5.5l2.9,5.3l3,5l3.2,4.8l3.3,4.6l3.5,4.3l3.6,4.1l3.7,3.8l3.8,3.6l4,3.3l4,3l4.2,2.8l4.3,2.5l4.4,2.2
							l4.5,1.9l4.6,1.7l4.7,1.4l4.1,1l4.1,0.8 M321.8,5.4l-7.1-1.2l-6.3-0.7L302,3l-6.4-0.2L289.1,3l-6.5,0.4L276,4L269.4,5
							l-6.6,1.2l-6.6,1.5l-6.6,1.8l-6.7,2.1l-6.6,2.3l-6.6,2.6l-6.6,2.9l-6.6,3.1l-6.5,3.4l-6.5,3.7l-6.5,3.9l-6.4,4.2l-6.3,4.4
							l-6.3,4.7l-6.2,4.9l-6.1,5.1l-6,5.4l-5.9,5.6l-5.8,5.8l-5.7,6l-5.6,6.2l-5.5,6.4l-5.3,6.6l-5.2,6.8l-5,7l-4.9,7.2l-4.7,7.3
							l-4.6,7.5l-4.4,7.6l-4.2,7.8l-4,7.9l-3.8,8l-3.6,8.1l-3.4,8.2l-3.2,8.3l-3,8.4l-2.8,8.5L66,216l-2.4,8.6l-2.2,8.7l-1.9,8.7
							l-1.7,8.8l-1.5,8.8l-1.2,8.8l-1,8.8l-0.8,8.8l-0.5,8.8l-0.3,8.7l0,8.7l0.2,8.7l0.5,8.6l0.7,8.5l0.9,8.5l1.2,8.4l1.4,8.3
							l1.7,8.2l1.9,8.1l2.2,7.9l2.4,7.8l2.6,7.7l2.8,7.5l3.1,7.4l3.3,7.2l3.5,7.1l3.7,6.9l4,6.7l4.2,6.5l4.4,6.3l4.6,6.1l4.8,5.9
							l4.9,5.7l5.1,5.5l5.3,5.2l5.5,5l5.7,4.8l5.8,4.5l6,4.3l6.1,4l6.3,3.8l6.4,3.5l6.5,3.3l6.7,3l6.8,2.7l6.9,2.5l7,2.2l6.7,1.8
							 M367.6,18.6l-4.6-1.7l-7.7-2.6l-7.8-2.4l-7.9-2.1l-8-1.8l-8.1-1.5l-8.1-1.3l-8.2-1l-8.3-0.7L290.5,3l-8.3-0.1L273.9,3
							l-8.4,0.4l-8.4,0.7l-8.4,1l-8.4,1.3L232,7.9l-8.3,1.8l-8.3,2.1l-8.2,2.4l-8.2,2.6l-8.1,2.9l-8,3.2l-8,3.4l-7.9,3.7l-7.8,3.9
							l-7.7,4.2l-7.6,4.4l-7.4,4.7l-7.3,4.9l-7.2,5.2l-7,5.4l-6.8,5.6l-6.7,5.8l-6.5,6l-6.3,6.2l-6.1,6.4l-5.9,6.6l-5.7,6.8l-5.5,7
							l-5.3,7.2l-5.1,7.3l-4.9,7.5l-4.6,7.6l-4.4,7.8l-4.1,7.9l-3.9,8l-3.6,8.1l-3.4,8.2l-3.1,8.3l-2.8,8.4l-2.6,8.5l-2.3,8.6
							l-2,8.6l-1.7,8.7l-1.4,8.7l-1.2,8.8l-0.9,8.8l-0.6,8.8L7.1,278l0,8.8l0.3,8.8l0.6,8.7l0.9,8.7l1.2,8.7l1.5,8.6l1.7,8.5l2,8.5
							l2.3,8.4l2.6,8.3l2.9,8.2l3.1,8.1l3.4,7.9l3.7,7.8l3.9,7.7l4.2,7.5l4.4,7.4l4.7,7.2l4.9,7l5.2,6.9l5.4,6.7l5.6,6.5l5.8,6.3
							l6.1,6.1l6.3,5.9l10.6,9.1 M539.8,251.5l-0.9-10.1l-1.1-8.7l-1.4-8.6l-1.7-8.6l-2-8.5l-2.3-8.5l-2.5-8.4l-2.8-8.3l-3.1-8.2
							l-3.4-8.1l-3.6-8l-3.9-7.9l-4.2-7.7l-4.4-7.6l-4.7-7.4l-4.9-7.3l-5.2-7.1l-5.4-7l-5.6-6.8l-5.8-6.6l-6.1-6.4l-6.3-6.2l-6.5-6
							l-6.7-5.8l-6.8-5.6l-7-5.4l-7.2-5.1l-7.4-4.9l-7.5-4.7l-7.7-4.4l-7.8-4.2l-7.9-3.9l-8-3.7l-8.2-3.4l-8.3-3.1l-8.3-2.9
							l-8.4-2.6l-8.5-2.3l-8.6-2.1l-8.6-1.8l-8.7-1.5L301.7,5l-8.8-1l-8.8-0.7L275.4,3l-8.8-0.1L257.8,3l-8.8,0.4l-8.7,0.7l-8.7,1
							L223,6.5L214.3,8l-8.5,1.8l-8.5,2.1l-8.4,2.4l-8.3,2.7l-8.2,2.9l-8.1,3.2l-8,3.5l-7.9,3.7l-7.7,4l-7.6,4.2l-7.4,4.5l-7.3,4.7
							l-7.1,4.9l-6.9,5.2l-6.8,5.4l-6.4,5.5L85,74.3 M374.1,519.8l9.4-4.2l7.3-3.6l7.2-3.9l7.1-4.1l6.9-4.4l6.8-4.6l6.6-4.8l6.4-5.1
							l6.2-5.3l6-5.5l5.9-5.7l5.6-5.9l5.4-6.2l5.2-6.3l5-6.5l4.8-6.7l4.6-6.9l4.3-7.1l4.1-7.2l3.8-7.4l3.6-7.5l3.3-7.7l3.1-7.8
							l2.8-7.9l2.6-8.1l2.3-8.2l2-8.3l1.8-8.4l1.5-8.4l1.2-8.5l1-8.6l0.7-8.6l0.4-8.7l0.1-8.7l-0.1-8.7l-0.4-8.7l-0.7-8.8l-0.9-8.7
							l-1.2-8.7l-1.5-8.7l-1.7-8.7l-2-8.6l-2.3-8.6l-2.5-8.5l-2.8-8.5l-3-8.4l-3.3-8.3l-3.5-8.2l-3.8-8.1l-4-8l-4.2-7.8l-4.4-7.7
							l-4.7-7.6l-4.9-7.4l-5.1-7.3l-5.3-7.1l-5.5-6.9l-5.6-6.8l-5.8-6.6l-6-6.4l-6.2-6.2l-6.3-6l-6.5-5.8l-6.6-5.6l-6.7-5.3
							l-6.8-5.1l-7-4.9l-7.1-4.6l-7.2-4.4l-7.3-4.1l-7.4-3.9l-7.4-3.6l-7.5-3.4l-7.6-3.1l-7.6-2.8l-7.7-2.6l-7.7-2.3l-7.7-2
							l-7.8-1.8l-7.8-1.5l-7.8-1.2L275,4l-7.8-0.7L259.5,3l-7.7-0.1l-7.7,0.2l-7.6,0.5l-7.6,0.7l-7.5,1L214,6.6l-7.4,1.6l-5.2,1.3
							 M323.3,535.3l8.4-1.9l6.1-1.8l6.1-2l5.9-2.3l5.9-2.6l5.7-2.8l5.6-3.1l5.5-3.4l5.4-3.6l5.2-3.9l5.1-4.1l4.9-4.4l4.8-4.6
							l4.6-4.9l4.5-5.1l4.3-5.3l4.1-5.5l3.9-5.8l3.8-6l3.6-6.2l3.4-6.4l3.2-6.6l3-6.7l2.8-6.9l2.6-7.1l2.4-7.3l2.2-7.4l2-7.6
							l1.8-7.7l1.6-7.8l1.4-8l1.2-8.1l1-8.2l0.8-8.3l0.6-8.4l0.3-8.4l0.1-8.5l-0.1-8.6l-0.3-8.6l-0.5-8.7l-0.7-8.7l-2-17.5
							l-2.8-17.5l-3.6-17.4l-4.3-17.3l-5.1-17.1l-5.8-16.8l-6.4-16.5l-7.1-16l-7.7-15.5l-4-7.6l-4.2-7.4l-4.3-7.3l-4.4-7.1l-4.5-6.9
							l-4.7-6.7l-4.7-6.6l-4.9-6.4l-4.9-6.2l-5-6l-5.1-5.7l-5.2-5.5l-5.2-5.3l-5.3-5.1l-5.4-4.8l-5.4-4.6l-5.4-4.4l-5.5-4.1
							l-5.5-3.9l-5.6-3.6l-5.5-3.4l-5.6-3.1l-5.6-2.8l-5.6-2.6l-5.5-2.3l-5.6-2l-5.5-1.7L267.3,6l-5.4-1.2l-5.4-0.9l-5.4-0.6
							l-5.3-0.3l-5.3-0.1l-5.2,0.2l-4.4,0.4l-4.4,0.6 M309.5,537.7l3.9-0.7l3.4-1l3.3-1.2l3.2-1.5l3.2-1.8l3-2.1l3-2.3l2.8-2.6
							l2.8-2.9l2.6-3.1l2.6-3.4l2.4-3.6l2.3-3.9l4.3-8.6l3.8-9.5l3.3-10.4l2.9-11.3l2.4-12.2l1.9-13l1.4-13.7l0.9-14.4l0.4-15
							l-0.1-15.6l-0.6-16.1l-1.1-16.5l-1.6-16.8l-2-17.1l-2.5-17.3l-2.9-17.4l-3.3-17.5l-3.6-17.5l-4-17.4l-4.3-17.2l-4.6-17
							l-4.8-16.6l-5-16.2l-5.2-15.8l-5.4-15.2l-5.5-14.6l-5.6-14l-5.7-13.3l-5.7-12.5l-5.7-11.7l-5.7-10.8l-5.6-9.9l-5.5-8.9
							l-5.4-7.9l-5.3-6.9l-5.1-5.9l-4.9-4.8l-2.4-2l-2.3-1.7l-2.2-1.4l-2.2-1.2L241,3.8l-2.1-0.6l-2-0.3l-1.9,0L234,3 M306.2,538.1
							L306.2,538.1l0-0.6l-0.3-1.7l-0.6-2.8l-0.9-3.9l-1.2-5l-1.5-6.1l-1.8-7.1l-2-8.1l-2.3-9.1l-2.5-10l-2.7-10.9l-2.9-11.8
							l-3.1-12.6l-3.3-13.4l-3.4-14.1l-3.5-14.7l-3.6-15.3l-3.7-15.8l-3.7-16.3l-3.8-16.7l-3.7-17l-3.7-17.2l-3.6-17.4l-3.6-17.5
							l-3.4-17.5l-3.3-17.4l-3.2-17.3l-3-17.1l-2.8-16.8l-2.5-16.4l-2.3-16l-2-15.5l-1.7-14.9l-1.4-14.3l-1.1-13.6l-0.8-12.8
							l-0.4-12l-0.1-11.2l0.2-10.3l0.6-9.4l1-8.4l1.3-7.4l1.7-6.3l2-5.3l2.4-4.2l1.3-1.7l1.4-1.4l1.5-1.1l1.5-0.9l1.4-0.5l1.4-0.3
							 M309.3,537.7l-3.1,0.3l-3.5,0.1l-3.6-0.2l-3.7-0.5l-3.7-0.7l-3.8-1l-3.8-1.3l-3.9-1.6l-3.9-1.8l-4-2.1l-4-2.4l-4-2.7l-4-2.9
							l-4.1-3.2l-4.1-3.4l-4.1-3.7l-4.1-4l-8.2-8.6l-8.2-9.6l-8.1-10.5l-8-11.4l-7.9-12.2l-7.7-13l-7.4-13.8l-7.2-14.4l-6.8-15.1
							l-6.5-15.6l-6.1-16.1l-5.7-16.5l-5.2-16.9l-4.7-17.1l-4.2-17.3l-3.7-17.5l-3.1-17.5l-2.5-17.5l-1.9-17.4l-1.3-17.2l-0.6-16.9
							l0-16.6l0.7-16.2l1.4-15.7l2-15.2l2.7-14.6l3.3-13.9l4-13.2l4.6-12.4l2.6-5.9l2.7-5.7l2.9-5.5l3-5.2l3.2-5l3.3-4.8l3.4-4.5
							l3.5-4.3l3.7-4.1l3.8-3.8l4-3.5l4-3.3l4.2-3l4.3-2.7l4.4-2.5l4.5-2.2l4.6-1.9l4.7-1.7l4.8-1.4l4.9-1.1l2.8-0.5 M322.5,535.4
							l-3.8,0.7l-6.3,0.9l-6.4,0.6l-6.5,0.4l-6.5,0.1l-6.6-0.2l-6.6-0.5l-6.7-0.8l-6.7-1l-6.7-1.3l-6.7-1.6l-6.7-1.9l-6.7-2.1
							l-6.7-2.4l-6.7-2.7l-6.7-2.9l-6.6-3.2l-6.6-3.5l-6.5-3.7l-6.5-4l-6.4-4.2l-6.4-4.5l-6.3-4.7l-6.2-4.9l-6.1-5.2l-6-5.4
							l-5.9-5.6l-5.8-5.8l-5.7-6l-5.6-6.2l-5.4-6.4l-5.3-6.6l-5.2-6.8l-5-7l-4.9-7.2l-4.7-7.3l-4.5-7.5l-4.4-7.6l-4.2-7.8l-4-7.9
							l-3.8-8l-3.6-8.1l-3.4-8.2l-3.2-8.3l-3-8.4l-2.8-8.5l-2.6-8.5l-2.3-8.6l-2.1-8.6l-1.9-8.7l-1.6-8.7l-1.4-8.7l-1.2-8.7
							l-0.9-8.8l-0.7-8.7l-0.5-8.7l-0.2-8.7l0-8.7l0.3-8.6l0.5-8.6l0.8-8.5l1-8.4l1.2-8.3l1.5-8.2l1.7-8.1l2-8l2.2-7.9l2.5-7.8
							l2.7-7.7l2.9-7.5l3.1-7.4l3.4-7.2l3.6-7l3.8-6.9l4-6.7l4.2-6.5l4.4-6.3l4.6-6.1l4.8-5.9l5-5.7l5.2-5.4l5.4-5.2l5.6-5l5.8-4.8
							l5.9-4.5l6.1-4.3l6.2-4l6.4-3.8l6.5-3.5l6.6-3.3l6.7-3l6.9-2.7l7-2.5l5.9-1.8l6-1.7 M370.8,521.2l-2.9,1.1l-7.7,2.8l-7.8,2.5
							l-7.9,2.3l-8,2l-8.1,1.7l-8.1,1.4l-8.2,1.2l-8.3,0.9l-8.3,0.6l-8.3,0.3l-8.4,0.1l-8.4-0.2l-8.4-0.5l-8.4-0.8l-8.4-1.1
							l-8.4-1.3l-8.4-1.6l-8.3-1.9l-8.3-2.2l-8.2-2.4l-8.2-2.7l-8.1-3l-8-3.2l-7.9-3.5l-7.9-3.7l-7.7-4l-7.6-4.2l-7.5-4.5l-7.4-4.7
							l-7.2-5l-7.1-5.2l-6.9-5.4l-6.8-5.6l-6.6-5.9l-6.4-6.1l-6.3-6.3l-6.1-6.5L74,440l-5.7-6.8l-5.5-7l-5.2-7.2l-5-7.3l-4.8-7.5
							l-4.5-7.6l-4.3-7.8l-4.1-7.9l-3.8-8l-3.6-8.1l-3.3-8.2l-3-8.3l-2.8-8.4l-2.5-8.5l-2.2-8.5l-1.9-8.6l-1.7-8.7l-1.4-8.7
							l-1.1-8.7l-0.8-8.7l-0.5-8.8l-0.2-8.8l0.1-8.7l0.4-8.7l0.6-8.7l0.9-8.7l1.2-8.6l1.5-8.6l1.8-8.5l2.1-8.4l2.4-8.3l2.6-8.2
							l2.9-8.1l3.2-8l3.5-7.9l3.7-7.8l4-7.6l4.2-7.5l4.5-7.3l4.7-7.2l5-7l5.2-6.8l5.4-6.7l5.7-6.5l5.9-6.3l6.1-6.1l8.6-7.9
							 M540.5,269.6l-0.1,6.2l-0.3,8.8l-0.6,8.8l-0.9,8.7l-1.2,8.7l-1.5,8.7L534,328l-2.1,8.5l-2.4,8.5l-2.7,8.4l-2.9,8.3l-3.2,8.2
							l-3.5,8.1l-3.8,8l-4,7.8l-4.3,7.7l-4.5,7.6l-4.8,7.4l-5,7.3l-5.3,7.1l-5.5,6.9l-5.7,6.7l-5.9,6.5l-6.2,6.3l-6.4,6.1l-6.6,5.9
							l-6.7,5.7l-6.9,5.5l-7.1,5.3l-7.3,5l-7.4,4.8l-7.6,4.6l-7.7,4.3l-7.8,4.1l-8,3.8l-8.1,3.6l-8.2,3.3l-8.3,3l-8.4,2.8l-8.5,2.5
							l-8.5,2.2l-8.6,2l-8.6,1.7l-8.7,1.4l-8.7,1.1l-8.7,0.9l-8.8,0.6l-8.8,0.3l-8.8,0l-8.7-0.3l-8.7-0.5l-8.7-0.8l-8.7-1.1
							l-8.6-1.4l-8.5-1.6l-8.5-1.9l-8.4-2.2l-8.3-2.5l-8.2-2.7l-8.1-3l-8-3.3l-7.9-3.5l-7.8-3.8l-7.6-4l-7.5-4.3l-7.3-4.5l-7.2-4.8
							l-7-5l-6.8-5.2l-9.3-7.8 M370.5,19.7l6.2,2.6l7.4,3.4l7.3,3.6l7.2,3.9l7,4.2l6.9,4.4l6.7,4.6l6.5,4.9l6.4,5.1l6.2,5.3l6,5.6
							l5.8,5.8l5.6,6l5.4,6.2l5.2,6.4l4.9,6.6l4.7,6.8l4.5,7l4.3,7.1l4,7.3l3.8,7.5l3.5,7.6l3.3,7.8l3,7.9l2.8,8l2.5,8.1l2.2,8.2
							l2,8.3l1.7,8.4l1.4,8.5l1.1,8.6l0.9,8.6l0.6,8.7l0.3,8.7l0,8.8l-0.2,8.8l-0.5,8.8l-0.8,8.8l-1,8.8l-1.3,8.8l-1.6,8.7l-1.8,8.7
							l-2.1,8.7l-2.4,8.6l-2.6,8.5l-2.9,8.5l-3.1,8.4l-3.4,8.3l-3.6,8.2l-3.8,8.1l-4.1,8l-4.3,7.8l-4.5,7.7l-4.7,7.5l-4.9,7.4
							l-5.1,7.2l-5.3,7.1l-5.5,6.9l-5.7,6.7l-5.9,6.5l-6,6.3l-6.2,6.1l-6.3,5.9l-6.5,5.7l-6.6,5.5l-6.7,5.3l-6.9,5l-7,4.8l-7.1,4.5
							l-7.2,4.3l-7.3,4.1l-7.3,3.8l-7.4,3.5l-7.5,3.3l-7.6,3l-7.6,2.8l-7.6,2.5l-7.7,2.2l-7.7,1.9l-7.7,1.7l-7.7,1.4l-7.7,1.1
							l-7.7,0.8"/>
					</g>
					<g>
						<path class="st7" d="M479.4,190.4l-7-9.4l-5-6.8l-4.1-5.5l-3.6-4.8l-3.3-4.5l-3.3-4.5l-3.4-4.6l-3.7-5.1l-4.4-6l-3.4,4.1
							l-2.9,3.1l-2.6,2.6l-2.4,2.3l-2.4,2.2l-2.5,2.1l-2.7,2.2l-3.1,2.4l-3.9,2.7l3.7,5.2l3,4.6l2.7,4.2l2.4,4.2l2.4,4.3l2.4,4.6
							l2.5,5.3l2.9,6.5l3.4,8.7l4.7-3.8l3.9-2.9l3.5-2.4l3.4-2.1l3.4-1.9l3.6-1.8l4.1-1.8l5-1.8L479.4,190.4"/>
					</g>
				</g>
			</g>
		</g>
	</g>
</g>
</svg>
